M48
INCH,TZ
T1C0.0118
T2C0.0315
T3C0.0354
T4C0.0394
T5C0.0433
%
G90
G05
T1
X36675Y-38194
X39710Y-39772
X41041Y-38966
X41847Y-40015
X42053Y-44205
X42346Y-46074
X42481Y-35360
X43051Y-51564
X44568Y-35000
X45542Y-35800
X46657Y-51892
X49008Y-44821
X49834Y-36020
X50208Y-45971
X51271Y-41082
X51484Y-36704
X52370Y-27591
X52541Y-34286
X52700Y-35801
X52830Y-40963
X55654Y-37997
X55812Y-39179
X56824Y-33378
X57942Y-41003
X60707Y-21609
X61090Y-32952
T2
X37200Y-25550
X37200Y-29750
X38200Y-23350
X38200Y-27550
X38200Y-31950
X38750Y-46004
X38750Y-47004
X38750Y-48004
X38750Y-49004
X38750Y-52000
X39250Y-50600
X39800Y-54431
X39800Y-56400
X40200Y-25550
X40200Y-29750
X40600Y-33831
X40600Y-35800
X40600Y-38631
X40600Y-40600
X41200Y-23350
X41200Y-27550
X41200Y-31950
X41219Y-50600
X41750Y-46004
X41750Y-47004
X41750Y-48004
X41750Y-49004
X41750Y-52000
X42200Y-23350
X42200Y-27550
X42200Y-31950
X42200Y-33800
X42200Y-36800
X42200Y-38600
X42200Y-41600
X43200Y-33800
X43200Y-36800
X43200Y-38600
X43200Y-41600
X43244Y-46720
X43500Y-49000
X43500Y-52000
X44200Y-33800
X44200Y-36800
X44200Y-38600
X44200Y-41600
X44244Y-46720
X45200Y-23350
X45200Y-27550
X45200Y-31950
X45200Y-33800
X45200Y-36800
X45200Y-38600
X45200Y-41600
X45244Y-46720
X46200Y-23350
X46200Y-27550
X46200Y-31950
X46200Y-33800
X46200Y-36800
X46200Y-38600
X46200Y-41600
X46400Y-49600
X46400Y-52600
X46400Y-54400
X46400Y-56369
X47200Y-33800
X47200Y-36800
X47200Y-38600
X47200Y-41600
X48200Y-33800
X48200Y-36800
X48200Y-38600
X48200Y-41600
X49200Y-23350
X49200Y-27550
X49200Y-31950
X50200Y-23350
X50200Y-27550
X50200Y-31950
X50600Y-33831
X50600Y-35800
X50600Y-38600
X50600Y-40569
X52198Y-38600
X52198Y-41600
X52200Y-33800
X52200Y-36800
X53000Y-49600
X53000Y-52600
X53000Y-54400
X53000Y-56369
X53198Y-38600
X53198Y-41600
X53200Y-23350
X53200Y-27550
X53200Y-31950
X53200Y-33800
X53200Y-36800
X54198Y-38600
X54198Y-41600
X54200Y-23350
X54200Y-27550
X54200Y-31950
X54200Y-33800
X54200Y-36800
X55198Y-38600
X55198Y-41600
X55200Y-33800
X55200Y-36800
X55800Y-46000
X55800Y-49000
X56198Y-38600
X56198Y-41600
X56200Y-33800
X56200Y-36800
X57000Y-52000
X57198Y-38600
X57198Y-41600
X57200Y-23350
X57200Y-27550
X57200Y-31950
X57200Y-33800
X57200Y-36800
X57500Y-46000
X57500Y-47000
X57500Y-48000
X57500Y-49000
X58031Y-50500
X58198Y-38600
X58198Y-41600
X58200Y-23350
X58200Y-27550
X58200Y-31950
X58200Y-33800
X58200Y-36800
X59000Y-25550
X59000Y-29750
X59600Y-54281
X59600Y-56250
X60000Y-50500
X60000Y-52000
X60500Y-46000
X60500Y-47000
X60500Y-48000
X60500Y-49000
X61200Y-23350
X61200Y-27550
X61200Y-31950
X62000Y-25550
X62000Y-29750
T3
X41200Y-21150
X41200Y-25400
X42200Y-21150
X42200Y-25400
X43450Y-21150
X43450Y-25400
X43450Y-29650
X44450Y-21150
X44450Y-25400
X44450Y-29650
X45700Y-21150
X45700Y-25400
X45700Y-29650
X46700Y-21150
X46700Y-25400
X46700Y-29650
X47950Y-21150
X47950Y-25400
X47950Y-29650
X48950Y-21150
X48950Y-25400
X48950Y-29650
X50200Y-21150
X50200Y-25400
X50200Y-29650
X51200Y-21150
X51200Y-25400
X51200Y-29650
X52450Y-21150
X52450Y-25400
X52450Y-29650
X53450Y-21150
X53450Y-25400
X53450Y-29650
X54700Y-21150
X54700Y-25400
X54700Y-29650
X55700Y-21150
X55700Y-25400
X55700Y-29650
X56950Y-21150
X56950Y-25400
X57950Y-21150
X57950Y-25400
T4
X35500Y-21000
X35500Y-22000
X35500Y-23000
X35500Y-24000
X35500Y-25000
X35500Y-26000
X35500Y-27000
X35500Y-28000
X35500Y-29000
X35500Y-30000
X35500Y-31000
X35500Y-32000
X35500Y-33000
X35500Y-34000
X35500Y-35000
X35500Y-36000
X35500Y-37000
X35500Y-38000
X35500Y-39000
X35500Y-40000
X35500Y-41000
X35500Y-42000
X35500Y-43000
X35500Y-44000
X35500Y-45000
X35500Y-46000
X35500Y-47000
X35500Y-48000
X35500Y-49000
X35500Y-50000
X35500Y-51000
X35500Y-52000
X35500Y-53000
X35500Y-54000
X35500Y-55000
X35500Y-56000
X39250Y-43750
X40250Y-43750
X41250Y-43750
X48224Y-47600
X51217Y-47600
X58500Y-43750
X59500Y-43750
X63750Y-21000
X63750Y-22000
X63750Y-23000
X63750Y-24000
X63750Y-25000
X63750Y-26000
X63750Y-27000
X63750Y-28000
X63750Y-29000
X63750Y-30000
X63750Y-31000
X63750Y-32000
X63750Y-33000
X63750Y-34000
X63750Y-35000
X63750Y-36000
X63750Y-37000
X63750Y-38000
X63750Y-39000
X63750Y-40000
X63750Y-41000
X63750Y-42000
X63750Y-43000
X63750Y-44000
X63750Y-45000
X63750Y-46000
X63750Y-47000
X63750Y-48000
X63750Y-49000
X63750Y-50000
X63750Y-51000
X63750Y-52000
X63750Y-53000
X63750Y-54000
X63750Y-55000
X63750Y-56000
T5
X41841Y-54478
X41841Y-56250
X44400Y-54478
X44400Y-56250
X48441Y-54478
X48441Y-56250
X51000Y-54478
X51000Y-56250
X55041Y-54478
X55041Y-56250
X57600Y-54478
X57600Y-56250
M30
