G04 #@! TF.GenerationSoftware,KiCad,Pcbnew,8.0.9-8.0.9-0~ubuntu22.04.1*
G04 #@! TF.CreationDate,2025-07-24T19:11:28+10:00*
G04 #@! TF.ProjectId,UE1-TTL-Clock,5545312d-5454-44c2-9d43-6c6f636b2e6b,rev?*
G04 #@! TF.SameCoordinates,Original*
G04 #@! TF.FileFunction,Copper,L1,Top*
G04 #@! TF.FilePolarity,Positive*
%FSLAX46Y46*%
G04 Gerber Fmt 4.6, Leading zero omitted, Abs format (unit mm)*
G04 Created by KiCad (PCBNEW 8.0.9-8.0.9-0~ubuntu22.04.1) date 2025-07-24 19:11:28*
%MOMM*%
%LPD*%
G01*
G04 APERTURE LIST*
G04 #@! TA.AperFunction,ComponentPad*
%ADD10R,1.600000X1.600000*%
G04 #@! TD*
G04 #@! TA.AperFunction,ComponentPad*
%ADD11O,1.600000X1.600000*%
G04 #@! TD*
G04 #@! TA.AperFunction,ComponentPad*
%ADD12C,1.600000*%
G04 #@! TD*
G04 #@! TA.AperFunction,ComponentPad*
%ADD13R,1.800000X1.800000*%
G04 #@! TD*
G04 #@! TA.AperFunction,ComponentPad*
%ADD14C,1.800000*%
G04 #@! TD*
G04 #@! TA.AperFunction,ComponentPad*
%ADD15C,2.000000*%
G04 #@! TD*
G04 #@! TA.AperFunction,ComponentPad*
%ADD16R,2.000000X2.000000*%
G04 #@! TD*
G04 #@! TA.AperFunction,SMDPad,CuDef*
%ADD17C,1.500000*%
G04 #@! TD*
G04 #@! TA.AperFunction,ComponentPad*
%ADD18R,1.700000X1.700000*%
G04 #@! TD*
G04 #@! TA.AperFunction,ComponentPad*
%ADD19O,1.700000X1.700000*%
G04 #@! TD*
G04 #@! TA.AperFunction,ComponentPad*
%ADD20C,1.440000*%
G04 #@! TD*
G04 #@! TA.AperFunction,ViaPad*
%ADD21C,0.600000*%
G04 #@! TD*
G04 #@! TA.AperFunction,Conductor*
%ADD22C,0.200000*%
G04 #@! TD*
G04 APERTURE END LIST*
D10*
X108585000Y-105410000D03*
D11*
X111125000Y-105410000D03*
X113665000Y-105410000D03*
X116205000Y-105410000D03*
X118745000Y-105410000D03*
X121285000Y-105410000D03*
X123825000Y-105410000D03*
X123825000Y-97790000D03*
X121285000Y-97790000D03*
X118745000Y-97790000D03*
X116205000Y-97790000D03*
X113665000Y-97790000D03*
X111125000Y-97790000D03*
X108585000Y-97790000D03*
D10*
X106045000Y-93345000D03*
D11*
X108585000Y-93345000D03*
X111125000Y-93345000D03*
X113665000Y-93345000D03*
X116205000Y-93345000D03*
X118745000Y-93345000D03*
X121285000Y-93345000D03*
X123825000Y-93345000D03*
X123825000Y-85725000D03*
X121285000Y-85725000D03*
X118745000Y-85725000D03*
X116205000Y-85725000D03*
X113665000Y-85725000D03*
X111125000Y-85725000D03*
X108585000Y-85725000D03*
X106045000Y-85725000D03*
D10*
X136271000Y-105410000D03*
D11*
X138811000Y-105410000D03*
X141351000Y-105410000D03*
X143891000Y-105410000D03*
X146431000Y-105410000D03*
X148971000Y-105410000D03*
X151511000Y-105410000D03*
X151511000Y-97790000D03*
X148971000Y-97790000D03*
X146431000Y-97790000D03*
X143891000Y-97790000D03*
X141351000Y-97790000D03*
X138811000Y-97790000D03*
X136271000Y-97790000D03*
D12*
X131826000Y-97870000D03*
X131826000Y-102870000D03*
X104394000Y-97997000D03*
X104394000Y-102997000D03*
D13*
X116078000Y-75311000D03*
D14*
X118618000Y-75311000D03*
D12*
X134620000Y-143176000D03*
X134620000Y-138176000D03*
D15*
X106276000Y-138375000D03*
X112776000Y-138375000D03*
X106276000Y-142875000D03*
X112776000Y-142875000D03*
X139804000Y-138375000D03*
X146304000Y-138375000D03*
X139804000Y-142875000D03*
X146304000Y-142875000D03*
D16*
X122490000Y-120904000D03*
D15*
X130090000Y-120904000D03*
D12*
X107188000Y-59309000D03*
D11*
X114808000Y-59309000D03*
D12*
X110490000Y-132080000D03*
D11*
X110490000Y-124460000D03*
D17*
X156210000Y-127000000D03*
D18*
X90170000Y-53340000D03*
D19*
X90170000Y-55880000D03*
X90170000Y-58420000D03*
X90170000Y-60960000D03*
X90170000Y-63500000D03*
X90170000Y-66040000D03*
X90170000Y-68580000D03*
X90170000Y-71120000D03*
X90170000Y-73660000D03*
X90170000Y-76200000D03*
X90170000Y-78740000D03*
X90170000Y-81280000D03*
X90170000Y-83820000D03*
X90170000Y-86360000D03*
X90170000Y-88900000D03*
X90170000Y-91440000D03*
X90170000Y-93980000D03*
X90170000Y-96520000D03*
X90170000Y-99060000D03*
X90170000Y-101600000D03*
X90170000Y-104140000D03*
X90170000Y-106680000D03*
X90170000Y-109220000D03*
X90170000Y-111760000D03*
X90170000Y-114300000D03*
X90170000Y-116840000D03*
X90170000Y-119380000D03*
X90170000Y-121920000D03*
X90170000Y-124460000D03*
X90170000Y-127000000D03*
X90170000Y-129540000D03*
X90170000Y-132080000D03*
X90170000Y-134620000D03*
X90170000Y-137160000D03*
X90170000Y-139700000D03*
X90170000Y-142240000D03*
D12*
X145288000Y-81153000D03*
D11*
X137668000Y-81153000D03*
D10*
X98425000Y-116850000D03*
D11*
X98425000Y-119390000D03*
X98425000Y-121930000D03*
X98425000Y-124470000D03*
X106045000Y-124470000D03*
X106045000Y-121930000D03*
X106045000Y-119390000D03*
X106045000Y-116850000D03*
D12*
X151384000Y-137875000D03*
X151384000Y-142875000D03*
X155448000Y-59309000D03*
D11*
X147828000Y-59309000D03*
D12*
X135128000Y-69977000D03*
D11*
X127508000Y-69977000D03*
D12*
X155448000Y-69977000D03*
D11*
X147828000Y-69977000D03*
D13*
X116078000Y-64516000D03*
D14*
X118618000Y-64516000D03*
D12*
X155448000Y-81153000D03*
D11*
X147828000Y-81153000D03*
D18*
X104775000Y-111125000D03*
D19*
X102235000Y-111125000D03*
X99695000Y-111125000D03*
D13*
X138938000Y-75311000D03*
D14*
X141478000Y-75311000D03*
D12*
X117348000Y-69977000D03*
D11*
X124968000Y-69977000D03*
D13*
X121793000Y-75311000D03*
D14*
X124333000Y-75311000D03*
D12*
X117348000Y-81153000D03*
D11*
X124968000Y-81153000D03*
D10*
X146050000Y-116840000D03*
D11*
X146050000Y-119380000D03*
X146050000Y-121920000D03*
X146050000Y-124460000D03*
X153670000Y-124460000D03*
X153670000Y-121920000D03*
X153670000Y-119380000D03*
X153670000Y-116840000D03*
D13*
X138938000Y-64516000D03*
D14*
X141478000Y-64516000D03*
D13*
X110363000Y-64516000D03*
D14*
X112903000Y-64516000D03*
D12*
X145288000Y-59309000D03*
D11*
X137668000Y-59309000D03*
D12*
X144780000Y-132080000D03*
D11*
X152400000Y-132080000D03*
D13*
X121793000Y-64516000D03*
D14*
X124333000Y-64516000D03*
D12*
X117856000Y-143176000D03*
X117856000Y-138176000D03*
X97028000Y-81153000D03*
D11*
X104648000Y-81153000D03*
D12*
X94488000Y-64897000D03*
D11*
X102108000Y-64897000D03*
D13*
X110363000Y-53721000D03*
D14*
X112903000Y-53721000D03*
D13*
X133223000Y-64516000D03*
D14*
X135763000Y-64516000D03*
D13*
X127508000Y-75311000D03*
D14*
X130048000Y-75311000D03*
D12*
X107188000Y-81153000D03*
D11*
X114808000Y-81153000D03*
D12*
X104695000Y-128524000D03*
X99695000Y-128524000D03*
D17*
X97790000Y-104775000D03*
D13*
X144653000Y-64516000D03*
D14*
X147193000Y-64516000D03*
D13*
X133223000Y-53721000D03*
D14*
X135763000Y-53721000D03*
D13*
X127508000Y-64516000D03*
D14*
X130048000Y-64516000D03*
D13*
X104648000Y-53721000D03*
D14*
X107188000Y-53721000D03*
D12*
X97028000Y-59309000D03*
D11*
X104648000Y-59309000D03*
D13*
X121793000Y-53721000D03*
D14*
X124333000Y-53721000D03*
D13*
X104648000Y-64516000D03*
D14*
X107188000Y-64516000D03*
D12*
X134620000Y-125984000D03*
D11*
X134620000Y-133604000D03*
D13*
X138938000Y-53721000D03*
D14*
X141478000Y-53721000D03*
D12*
X101092000Y-138256000D03*
X101092000Y-143256000D03*
D13*
X116078000Y-53721000D03*
D14*
X118618000Y-53721000D03*
D10*
X136271000Y-93345000D03*
D11*
X138811000Y-93345000D03*
X141351000Y-93345000D03*
X143891000Y-93345000D03*
X146431000Y-93345000D03*
X148971000Y-93345000D03*
X151511000Y-93345000D03*
X151511000Y-85725000D03*
X148971000Y-85725000D03*
X146431000Y-85725000D03*
X143891000Y-85725000D03*
X141351000Y-85725000D03*
X138811000Y-85725000D03*
X136271000Y-85725000D03*
D12*
X94488000Y-75565000D03*
D11*
X102108000Y-75565000D03*
D12*
X145288000Y-69977000D03*
D11*
X137668000Y-69977000D03*
D13*
X144653000Y-53721000D03*
D14*
X147193000Y-53721000D03*
D12*
X157480000Y-64897000D03*
D11*
X149860000Y-64897000D03*
D15*
X123040000Y-138375000D03*
X129540000Y-138375000D03*
X123040000Y-142875000D03*
X129540000Y-142875000D03*
D12*
X157480000Y-75565000D03*
D11*
X149860000Y-75565000D03*
D13*
X110363000Y-75311000D03*
D14*
X112903000Y-75311000D03*
D18*
X161925000Y-53340000D03*
D19*
X161925000Y-55880000D03*
X161925000Y-58420000D03*
X161925000Y-60960000D03*
X161925000Y-63500000D03*
X161925000Y-66040000D03*
X161925000Y-68580000D03*
X161925000Y-71120000D03*
X161925000Y-73660000D03*
X161925000Y-76200000D03*
X161925000Y-78740000D03*
X161925000Y-81280000D03*
X161925000Y-83820000D03*
X161925000Y-86360000D03*
X161925000Y-88900000D03*
X161925000Y-91440000D03*
X161925000Y-93980000D03*
X161925000Y-96520000D03*
X161925000Y-99060000D03*
X161925000Y-101600000D03*
X161925000Y-104140000D03*
X161925000Y-106680000D03*
X161925000Y-109220000D03*
X161925000Y-111760000D03*
X161925000Y-114300000D03*
X161925000Y-116840000D03*
X161925000Y-119380000D03*
X161925000Y-121920000D03*
X161925000Y-124460000D03*
X161925000Y-127000000D03*
X161925000Y-129540000D03*
X161925000Y-132080000D03*
X161925000Y-134620000D03*
X161925000Y-137160000D03*
X161925000Y-139700000D03*
X161925000Y-142240000D03*
D12*
X135128000Y-59309000D03*
D11*
X127508000Y-59309000D03*
D12*
X117856000Y-125984000D03*
D11*
X117856000Y-133604000D03*
D12*
X141732000Y-124460000D03*
D11*
X141732000Y-116840000D03*
D12*
X97028000Y-69977000D03*
D11*
X104648000Y-69977000D03*
D12*
X152400000Y-128270000D03*
X147400000Y-128270000D03*
D17*
X156210000Y-129540000D03*
D13*
X127508000Y-53721000D03*
D14*
X130048000Y-53721000D03*
D13*
X133223000Y-75311000D03*
D14*
X135763000Y-75311000D03*
D12*
X117348000Y-59309000D03*
D11*
X124968000Y-59309000D03*
D12*
X101600000Y-85805000D03*
X101600000Y-90805000D03*
X132080000Y-85932000D03*
X132080000Y-90932000D03*
D20*
X114920000Y-118670000D03*
X112380000Y-118670000D03*
X109840000Y-118670000D03*
D12*
X107188000Y-69977000D03*
D11*
X114808000Y-69977000D03*
D18*
X151130000Y-111125000D03*
D19*
X148590000Y-111125000D03*
D12*
X135128000Y-81153000D03*
D11*
X127508000Y-81153000D03*
D12*
X98425000Y-132080000D03*
D11*
X106045000Y-132080000D03*
D21*
X133913000Y-93293000D03*
X112269900Y-110482900D03*
X96053500Y-103262000D03*
X117595100Y-99340600D03*
X146137500Y-102930100D03*
X133146600Y-99320800D03*
X107885200Y-130978300D03*
X107207700Y-113845700D03*
X125445000Y-96169500D03*
X133743100Y-87048400D03*
X113283000Y-89378200D03*
X110510000Y-90489700D03*
X127583500Y-114913200D03*
X109751800Y-116884900D03*
X130311100Y-115122800D03*
X124566300Y-114462800D03*
X119403600Y-134706900D03*
X117856000Y-116299200D03*
D22*
X163127600Y-120907300D02*
X163527800Y-121307500D01*
X106045000Y-119390000D02*
X107146700Y-120491700D01*
X107146700Y-120491700D02*
X107146700Y-129876600D01*
X107146700Y-129876600D02*
X106045000Y-130978300D01*
X106045000Y-130978300D02*
X106045000Y-132080000D01*
X106045000Y-121930000D02*
X104695000Y-123280000D01*
X104695000Y-123280000D02*
X104695000Y-128524000D01*
X98425000Y-121930000D02*
X104457500Y-115897500D01*
X104457500Y-115897500D02*
X104457500Y-111442500D01*
X98425000Y-116850000D02*
X97302000Y-117973000D01*
X97302000Y-117973000D02*
X97302000Y-122409800D01*
X99695000Y-124175900D02*
X99695000Y-128524000D01*
X97302000Y-122409800D02*
X98092200Y-123200000D01*
X98719100Y-123200000D02*
X99695000Y-124175900D01*
X98092200Y-123200000D02*
X98719100Y-123200000D01*
X146050000Y-119380000D02*
X148590000Y-116840000D01*
X148590000Y-116840000D02*
X148590000Y-111125000D01*
X153670000Y-124460000D02*
X153670000Y-125333400D01*
X153670000Y-125333400D02*
X151279700Y-127723700D01*
X151279700Y-127723700D02*
X151279700Y-137770700D01*
X151279700Y-137770700D02*
X151384000Y-137875000D01*
X153670000Y-121920000D02*
X154781000Y-123031000D01*
X154781000Y-123031000D02*
X154781000Y-125889000D01*
X154781000Y-125889000D02*
X152400000Y-128270000D01*
X153670000Y-116840000D02*
X155184600Y-118354600D01*
X155184600Y-118354600D02*
X155184600Y-126162400D01*
X155132900Y-126214100D02*
X155132900Y-134584100D01*
X155184600Y-126162400D02*
X155132900Y-126214100D01*
X155132900Y-134584100D02*
X161925000Y-141376200D01*
X161925000Y-141376200D02*
X161925000Y-142240000D01*
X153670000Y-116840000D02*
X146050000Y-124460000D01*
X88991000Y-91937200D02*
X89001800Y-91948000D01*
X90170000Y-93980000D02*
X89001800Y-92811800D01*
X89001800Y-92811800D02*
X89001800Y-91948000D01*
X90170000Y-96520000D02*
X90170000Y-95636800D01*
X90170000Y-95636800D02*
X93352700Y-92454100D01*
X93352700Y-92454100D02*
X93352700Y-66032300D01*
X93352700Y-66032300D02*
X94488000Y-64897000D01*
X90170000Y-106680000D02*
X90170000Y-105796800D01*
X90170000Y-105796800D02*
X94488000Y-101478800D01*
X94488000Y-101478800D02*
X94488000Y-75565000D01*
X90170000Y-109220000D02*
X90170000Y-108356200D01*
X95451800Y-77073000D02*
X97028000Y-75496800D01*
X90170000Y-108356200D02*
X95451800Y-103074400D01*
X95451800Y-103074400D02*
X95451800Y-77073000D01*
X97028000Y-75496800D02*
X97028000Y-69977000D01*
X90170000Y-127000000D02*
X90170000Y-126136200D01*
X90170000Y-126136200D02*
X96053500Y-120252700D01*
X96053500Y-120252700D02*
X96053500Y-103262000D01*
X90170000Y-129540000D02*
X90170000Y-128676200D01*
X90170000Y-128676200D02*
X96536300Y-122309900D01*
X96536300Y-122309900D02*
X96536300Y-115435400D01*
X96536300Y-115435400D02*
X99695000Y-112276700D01*
X99695000Y-112276700D02*
X99695000Y-111125000D01*
X90170000Y-142240000D02*
X90170000Y-141376200D01*
X90170000Y-141376200D02*
X98425000Y-133121200D01*
X98425000Y-133121200D02*
X98425000Y-132600600D01*
X161925000Y-132080000D02*
X163527800Y-130477200D01*
X163527800Y-130477200D02*
X163527800Y-121307500D01*
X155449500Y-91697400D02*
X155449500Y-81154500D01*
X163127600Y-98609000D02*
X162308600Y-97790000D01*
X163127600Y-120907300D02*
X163127600Y-98609000D01*
X162308600Y-97790000D02*
X161542100Y-97790000D01*
X161542100Y-97790000D02*
X155449500Y-91697400D01*
X155449500Y-81154500D02*
X155448000Y-81153000D01*
X161925000Y-124460000D02*
X163126100Y-123258900D01*
X162302300Y-120650000D02*
X161542500Y-120650000D01*
X163126100Y-123258900D02*
X163126100Y-121473800D01*
X161542500Y-120650000D02*
X155047800Y-114155300D01*
X163126100Y-121473800D02*
X162302300Y-120650000D01*
X155047800Y-114155300D02*
X155047800Y-82310900D01*
X155047800Y-82310900D02*
X146699600Y-73962700D01*
X146699600Y-73962700D02*
X146699600Y-67764300D01*
X146699600Y-67764300D02*
X144653000Y-65717700D01*
X144653000Y-65717700D02*
X144653000Y-64516000D01*
X153137900Y-74149700D02*
X159763100Y-80774900D01*
X161925000Y-83820000D02*
X159763100Y-81658100D01*
X159763100Y-81658100D02*
X159763100Y-80774900D01*
X161925000Y-78740000D02*
X161925000Y-77876300D01*
X161925000Y-77876300D02*
X157480000Y-73431300D01*
X157480000Y-73431300D02*
X157480000Y-64897000D01*
X161925000Y-53340000D02*
X160773300Y-54491700D01*
X160773300Y-54491700D02*
X160773300Y-59043500D01*
X160773300Y-59043500D02*
X155448000Y-64368800D01*
X155448000Y-64368800D02*
X155448000Y-69977000D01*
X111125000Y-95480600D02*
X111125000Y-97790000D01*
X109686700Y-94042300D02*
X111125000Y-95480600D01*
X109686700Y-87928400D02*
X109686700Y-94042300D01*
X108585000Y-86826700D02*
X109686700Y-87928400D01*
X108585000Y-85725000D02*
X108585000Y-86826700D01*
X161925000Y-127000000D02*
X156210000Y-127000000D01*
X156210000Y-129540000D02*
X161925000Y-129540000D01*
X122423200Y-95550100D02*
X121285000Y-96688300D01*
X122423200Y-87964900D02*
X122423200Y-95550100D01*
X121285000Y-86826700D02*
X122423200Y-87964900D01*
X121285000Y-85725000D02*
X121285000Y-86826700D01*
X121285000Y-97790000D02*
X121285000Y-96688300D01*
X133470500Y-142026500D02*
X134620000Y-143176000D01*
X133470500Y-135855200D02*
X133470500Y-142026500D01*
X134620000Y-134705700D02*
X133470500Y-135855200D01*
X134620000Y-134154800D02*
X134620000Y-134705700D01*
X134620000Y-134154800D02*
X134620000Y-133604000D01*
X137574400Y-88063300D02*
X138811000Y-86826700D01*
X137574400Y-129547900D02*
X137574400Y-88063300D01*
X134620000Y-132502300D02*
X137574400Y-129547900D01*
X134620000Y-133604000D02*
X134620000Y-132502300D01*
X138811000Y-85725000D02*
X138811000Y-86826700D01*
X116706500Y-142026500D02*
X117856000Y-143176000D01*
X116706500Y-135855200D02*
X116706500Y-142026500D01*
X117856000Y-134705700D02*
X116706500Y-135855200D01*
X117856000Y-133604000D02*
X117856000Y-134683900D01*
X117856000Y-134683900D02*
X117856000Y-134705700D01*
X136271000Y-93345000D02*
X135169300Y-93345000D01*
X134497100Y-92672800D02*
X135169300Y-93345000D01*
X133659600Y-92672800D02*
X134497100Y-92672800D01*
X133231500Y-93100900D02*
X133659600Y-92672800D01*
X133231500Y-93804600D02*
X133231500Y-93100900D01*
X133761300Y-94334400D02*
X133231500Y-93804600D01*
X133761300Y-113077900D02*
X133761300Y-94334400D01*
X121985600Y-124853600D02*
X133761300Y-113077900D01*
X121985600Y-133040600D02*
X121985600Y-124853600D01*
X119691000Y-135335200D02*
X121985600Y-133040600D01*
X118507300Y-135335200D02*
X119691000Y-135335200D01*
X117856000Y-134683900D02*
X118507300Y-135335200D01*
X114920000Y-118928300D02*
X110490000Y-123358300D01*
X114920000Y-118670000D02*
X114920000Y-118928300D01*
X110490000Y-124460000D02*
X110490000Y-123358300D01*
X118618000Y-76241300D02*
X118618000Y-75311000D01*
X114808000Y-80051300D02*
X118618000Y-76241300D01*
X114808000Y-81153000D02*
X114808000Y-80051300D01*
X137668000Y-77216000D02*
X135763000Y-75311000D01*
X137668000Y-81153000D02*
X137668000Y-77216000D01*
X130048000Y-77511300D02*
X130048000Y-75311000D01*
X127508000Y-80051300D02*
X130048000Y-77511300D01*
X127508000Y-81153000D02*
X127508000Y-80051300D01*
X124333000Y-79416300D02*
X124333000Y-75311000D01*
X124968000Y-80051300D02*
X124333000Y-79416300D01*
X124968000Y-81153000D02*
X124968000Y-80051300D01*
X146711700Y-54202300D02*
X147193000Y-53721000D01*
X146711700Y-60647000D02*
X146711700Y-54202300D01*
X149860000Y-63795300D02*
X146711700Y-60647000D01*
X149860000Y-64897000D02*
X149860000Y-63795300D01*
X149860000Y-67183000D02*
X149860000Y-75565000D01*
X147193000Y-64516000D02*
X149860000Y-67183000D01*
X137668000Y-55626000D02*
X135763000Y-53721000D01*
X137668000Y-59309000D02*
X137668000Y-55626000D01*
X137668000Y-66421000D02*
X135763000Y-64516000D01*
X137668000Y-69977000D02*
X137668000Y-66421000D01*
X130048000Y-55667300D02*
X130048000Y-53721000D01*
X127508000Y-58207300D02*
X130048000Y-55667300D01*
X127508000Y-59309000D02*
X127508000Y-58207300D01*
X130048000Y-66335300D02*
X130048000Y-64516000D01*
X127508000Y-68875300D02*
X130048000Y-66335300D01*
X127508000Y-69977000D02*
X127508000Y-68875300D01*
X124333000Y-57572300D02*
X124333000Y-53721000D01*
X124968000Y-58207300D02*
X124333000Y-57572300D01*
X124968000Y-59309000D02*
X124968000Y-58207300D01*
X118618000Y-54397300D02*
X118618000Y-53721000D01*
X114808000Y-58207300D02*
X118618000Y-54397300D01*
X114808000Y-59309000D02*
X114808000Y-58207300D01*
X148971000Y-93345000D02*
X148971000Y-94446700D01*
X145329300Y-102870000D02*
X143891000Y-104308300D01*
X145329300Y-97333600D02*
X145329300Y-102870000D01*
X148216200Y-94446700D02*
X145329300Y-97333600D01*
X148971000Y-94446700D02*
X148216200Y-94446700D01*
X143891000Y-105410000D02*
X143891000Y-104308300D01*
X151511000Y-85725000D02*
X151511000Y-86826700D01*
X146431000Y-91906700D02*
X146431000Y-93345000D01*
X151511000Y-86826700D02*
X146431000Y-91906700D01*
X136271000Y-105410000D02*
X136271000Y-104308300D01*
X134163000Y-93543000D02*
X133913000Y-93293000D01*
X134163000Y-102200300D02*
X134163000Y-93543000D01*
X136271000Y-104308300D02*
X134163000Y-102200300D01*
X102108000Y-58801000D02*
X102108000Y-64897000D01*
X107188000Y-53721000D02*
X102108000Y-58801000D01*
X124333000Y-68240300D02*
X124333000Y-64516000D01*
X124968000Y-68875300D02*
X124333000Y-68240300D01*
X124968000Y-69977000D02*
X124968000Y-68875300D01*
X112269900Y-87971600D02*
X112269900Y-110482900D01*
X111125000Y-86826700D02*
X112269900Y-87971600D01*
X111125000Y-85725000D02*
X111125000Y-86826700D01*
X153670000Y-121920000D02*
X153670000Y-119380000D01*
X152400000Y-132080000D02*
X152400000Y-128270000D01*
X97028000Y-102287500D02*
X97028000Y-81153000D01*
X96053500Y-103262000D02*
X97028000Y-102287500D01*
X117595100Y-90756800D02*
X117595100Y-99340600D01*
X113665000Y-86826700D02*
X117595100Y-90756800D01*
X113665000Y-85725000D02*
X113665000Y-86826700D01*
X104457500Y-111442500D02*
X97790000Y-104775000D01*
X104775000Y-111125000D02*
X104457500Y-111442500D01*
X102108000Y-69596000D02*
X102108000Y-75565000D01*
X107188000Y-64516000D02*
X102108000Y-69596000D01*
X106045000Y-128981000D02*
X106045000Y-124470000D01*
X101092000Y-133934000D02*
X106045000Y-128981000D01*
X101092000Y-138256000D02*
X101092000Y-133934000D01*
X154316800Y-60440200D02*
X155448000Y-59309000D01*
X154316800Y-74008600D02*
X154316800Y-60440200D01*
X161588200Y-81280000D02*
X154316800Y-74008600D01*
X161925000Y-81280000D02*
X161588200Y-81280000D01*
X147869300Y-101198300D02*
X146137500Y-102930100D01*
X147869300Y-97333600D02*
X147869300Y-101198300D01*
X150072700Y-95130200D02*
X147869300Y-97333600D01*
X150072700Y-92888600D02*
X150072700Y-95130200D01*
X149427400Y-92243300D02*
X150072700Y-92888600D01*
X148514600Y-92243300D02*
X149427400Y-92243300D01*
X147869300Y-92888600D02*
X148514600Y-92243300D01*
X147869300Y-93482800D02*
X147869300Y-92888600D01*
X146861000Y-94491100D02*
X147869300Y-93482800D01*
X145953500Y-94491100D02*
X146861000Y-94491100D01*
X145288000Y-93825600D02*
X145953500Y-94491100D01*
X145288000Y-81153000D02*
X145288000Y-93825600D01*
X135128000Y-89845500D02*
X135128000Y-81153000D01*
X132829800Y-92143700D02*
X135128000Y-89845500D01*
X132829800Y-93970900D02*
X132829800Y-92143700D01*
X133359600Y-94500700D02*
X132829800Y-93970900D01*
X133359600Y-99107800D02*
X133359600Y-94500700D01*
X133146600Y-99320800D02*
X133359600Y-99107800D01*
X108585000Y-93345000D02*
X108585000Y-94446700D01*
X107885200Y-113812800D02*
X107885200Y-130978300D01*
X109689400Y-112008600D02*
X107885200Y-113812800D01*
X109689400Y-95551100D02*
X109689400Y-112008600D01*
X108585000Y-94446700D02*
X109689400Y-95551100D01*
X106076700Y-71088300D02*
X107188000Y-69977000D01*
X106076700Y-83164200D02*
X106076700Y-71088300D01*
X107207700Y-84295200D02*
X106076700Y-83164200D01*
X107207700Y-113845700D02*
X107207700Y-84295200D01*
X125445000Y-89144900D02*
X125445000Y-96169500D01*
X122604900Y-86304800D02*
X125445000Y-89144900D01*
X122604900Y-85399600D02*
X122604900Y-86304800D01*
X118358300Y-81153000D02*
X122604900Y-85399600D01*
X117348000Y-81153000D02*
X118358300Y-81153000D01*
X134492900Y-59944100D02*
X135128000Y-59309000D01*
X134492900Y-68807100D02*
X134492900Y-59944100D01*
X133977200Y-69322800D02*
X134492900Y-68807100D01*
X133977200Y-72280400D02*
X133977200Y-69322800D01*
X134426300Y-72729500D02*
X133977200Y-72280400D01*
X134426300Y-80049700D02*
X134426300Y-72729500D01*
X133743100Y-80732900D02*
X134426300Y-80049700D01*
X133743100Y-87048400D02*
X133743100Y-80732900D01*
X153137900Y-69812900D02*
X153137900Y-74149700D01*
X148515100Y-65190100D02*
X153137900Y-69812900D01*
X148515100Y-63378300D02*
X148515100Y-65190100D01*
X145288000Y-60151200D02*
X148515100Y-63378300D01*
X145288000Y-59309000D02*
X145288000Y-60151200D01*
X117348000Y-67226700D02*
X117348000Y-59309000D01*
X116078000Y-68496700D02*
X117348000Y-67226700D01*
X116078000Y-72160600D02*
X116078000Y-68496700D01*
X114317200Y-73921400D02*
X116078000Y-72160600D01*
X114317200Y-75991200D02*
X114317200Y-73921400D01*
X112527900Y-77780500D02*
X114317200Y-75991200D01*
X112527900Y-87104000D02*
X112527900Y-77780500D01*
X113283000Y-87859100D02*
X112527900Y-87104000D01*
X113283000Y-89378200D02*
X113283000Y-87859100D01*
X108917100Y-61038100D02*
X107188000Y-59309000D01*
X108917100Y-84379100D02*
X108917100Y-61038100D01*
X109996600Y-85458600D02*
X108917100Y-84379100D01*
X109996600Y-87112700D02*
X109996600Y-85458600D01*
X110510000Y-87626100D02*
X109996600Y-87112700D01*
X110510000Y-90489700D02*
X110510000Y-87626100D01*
X127583500Y-83380200D02*
X127583500Y-114913200D01*
X126292600Y-82089300D02*
X127583500Y-83380200D01*
X126292600Y-66933100D02*
X126292600Y-82089300D01*
X127508000Y-65717700D02*
X126292600Y-66933100D01*
X127508000Y-64516000D02*
X127508000Y-65717700D01*
X88991000Y-88420100D02*
X88991000Y-91937200D01*
X89781100Y-87630000D02*
X88991000Y-88420100D01*
X90550600Y-87630000D02*
X89781100Y-87630000D01*
X91821500Y-86359100D02*
X90550600Y-87630000D01*
X91821500Y-64515500D02*
X91821500Y-86359100D01*
X97028000Y-59309000D02*
X91821500Y-64515500D01*
X151130000Y-112276700D02*
X160773300Y-121920000D01*
X161925000Y-121920000D02*
X160773300Y-121920000D01*
X151130000Y-111125000D02*
X151130000Y-111700800D01*
X151130000Y-111700800D02*
X151130000Y-112276700D01*
X138938000Y-67125100D02*
X138938000Y-64516000D01*
X152631800Y-80818900D02*
X138938000Y-67125100D01*
X152631800Y-110199000D02*
X152631800Y-80818900D01*
X151130000Y-111700800D02*
X152631800Y-110199000D01*
X111125000Y-115511700D02*
X109751800Y-116884900D01*
X111125000Y-105410000D02*
X111125000Y-115511700D01*
X132021300Y-66919400D02*
X133223000Y-65717700D01*
X130311100Y-85768900D02*
X132021300Y-84058700D01*
X130311100Y-115122800D02*
X130311100Y-85768900D01*
X133223000Y-64516000D02*
X133223000Y-65717700D01*
X126056300Y-112972800D02*
X124566300Y-114462800D01*
X126056300Y-86398200D02*
X126056300Y-112972800D01*
X120347100Y-80689000D02*
X126056300Y-86398200D01*
X120347100Y-72976100D02*
X120347100Y-80689000D01*
X117348000Y-69977000D02*
X120347100Y-72976100D01*
X121285000Y-93345000D02*
X121285000Y-94446700D01*
X113665000Y-105410000D02*
X113665000Y-104308300D01*
X120183300Y-98018300D02*
X116589400Y-101612200D01*
X120183300Y-95548400D02*
X120183300Y-98018300D01*
X121285000Y-94446700D02*
X120183300Y-95548400D01*
X113893300Y-104308300D02*
X113665000Y-104308300D01*
X116589400Y-101612200D02*
X113893300Y-104308300D01*
X119846700Y-134263800D02*
X119403600Y-134706900D01*
X119846700Y-104869500D02*
X119846700Y-134263800D01*
X116589400Y-101612200D02*
X119846700Y-104869500D01*
X138495200Y-141566200D02*
X139804000Y-142875000D01*
X138495200Y-109887200D02*
X138495200Y-141566200D01*
X142521000Y-105861400D02*
X138495200Y-109887200D01*
X142521000Y-87996700D02*
X142521000Y-105861400D01*
X141351000Y-86826700D02*
X142521000Y-87996700D01*
X141351000Y-85725000D02*
X141351000Y-86826700D01*
X144780000Y-126831700D02*
X146050000Y-125561700D01*
X144780000Y-132080000D02*
X144780000Y-126831700D01*
X146050000Y-124460000D02*
X146050000Y-125561700D01*
X104394000Y-88477700D02*
X104394000Y-97997000D01*
X106045000Y-86826700D02*
X104394000Y-88477700D01*
X106045000Y-85725000D02*
X106045000Y-86826700D01*
X98425000Y-132600600D02*
X98425000Y-132080000D01*
X98425000Y-132600600D02*
X98425000Y-124470000D01*
X106045000Y-99648000D02*
X104394000Y-97997000D01*
X106045000Y-116850000D02*
X106045000Y-99648000D01*
X100838000Y-85043000D02*
X101600000Y-85805000D01*
X100838000Y-61495000D02*
X100838000Y-85043000D01*
X92683000Y-53340000D02*
X100838000Y-61495000D01*
X90170000Y-53340000D02*
X92683000Y-53340000D01*
X155448000Y-73533000D02*
X155448000Y-69977000D01*
X157480000Y-75565000D02*
X155448000Y-73533000D01*
X118745000Y-105410000D02*
X118745000Y-106511700D01*
X117856000Y-107400700D02*
X118745000Y-106511700D01*
X117856000Y-116299200D02*
X117856000Y-107400700D01*
X117856000Y-125984000D02*
X117856000Y-116299200D01*
X138814600Y-82079700D02*
X136271000Y-84623300D01*
X138814600Y-77457800D02*
X138814600Y-82079700D01*
X137457000Y-76100200D02*
X138814600Y-77457800D01*
X137457000Y-72306000D02*
X137457000Y-76100200D01*
X135128000Y-69977000D02*
X137457000Y-72306000D01*
X136271000Y-85725000D02*
X136271000Y-84623300D01*
X130948400Y-87063600D02*
X132080000Y-85932000D01*
X130948400Y-96992400D02*
X130948400Y-87063600D01*
X131826000Y-97870000D02*
X130948400Y-96992400D01*
X110363000Y-75311000D02*
X110363000Y-64516000D01*
X151511000Y-105410000D02*
X151511000Y-104308300D01*
X151511000Y-93345000D02*
X151511000Y-94446700D01*
X99695000Y-141859000D02*
X101092000Y-143256000D01*
X99695000Y-128524000D02*
X99695000Y-141859000D01*
X110363000Y-53721000D02*
X110363000Y-64516000D01*
X121793000Y-64516000D02*
X121793000Y-53721000D01*
X101600000Y-100203000D02*
X104394000Y-102997000D01*
X101600000Y-90805000D02*
X101600000Y-100203000D01*
X123825000Y-93345000D02*
X123825000Y-94446700D01*
X123825000Y-105410000D02*
X123825000Y-104308300D01*
X146050000Y-116840000D02*
X146050000Y-115738300D01*
X138811000Y-105410000D02*
X138811000Y-104308300D01*
X151511000Y-104308300D02*
X150399700Y-103197000D01*
X105973000Y-138375000D02*
X106276000Y-138375000D01*
X101092000Y-143256000D02*
X105973000Y-138375000D01*
X124978500Y-103154800D02*
X123825000Y-104308300D01*
X124978500Y-97057200D02*
X124978500Y-103154800D01*
X123825000Y-95903700D02*
X124978500Y-97057200D01*
X123825000Y-94446700D02*
X123825000Y-95903700D01*
X130090000Y-137825000D02*
X129540000Y-138375000D01*
X130090000Y-120904000D02*
X130090000Y-137825000D01*
X133223000Y-86698600D02*
X133223000Y-75311000D01*
X132080000Y-87841600D02*
X133223000Y-86698600D01*
X132080000Y-90932000D02*
X132080000Y-87841600D01*
X146050000Y-107395500D02*
X146050000Y-115738300D01*
X147701000Y-105744500D02*
X146050000Y-107395500D01*
X147701000Y-105112000D02*
X147701000Y-105744500D01*
X149616000Y-103197000D02*
X147701000Y-105112000D01*
X150399700Y-103197000D02*
X149616000Y-103197000D01*
X141351000Y-101768300D02*
X138811000Y-104308300D01*
X141351000Y-97790000D02*
X141351000Y-101768300D01*
X147400000Y-137479000D02*
X146694000Y-138185000D01*
X147400000Y-128270000D02*
X147400000Y-137479000D01*
X146494000Y-138185000D02*
X146304000Y-138375000D01*
X146694000Y-138185000D02*
X146494000Y-138185000D01*
X151384000Y-142875000D02*
X146694000Y-138185000D01*
X150399700Y-97343200D02*
X150399700Y-103197000D01*
X151510900Y-96232000D02*
X150399700Y-97343200D01*
X151511000Y-96232000D02*
X151510900Y-96232000D01*
X151511000Y-94446700D02*
X151511000Y-96232000D01*
X131826000Y-99759000D02*
X131826000Y-102870000D01*
X132933600Y-98651400D02*
X131826000Y-99759000D01*
X132933600Y-95299200D02*
X132933600Y-98651400D01*
X132080000Y-94445600D02*
X132933600Y-95299200D01*
X132080000Y-90932000D02*
X132080000Y-94445600D01*
X132021300Y-84058700D02*
X132021300Y-66919400D01*
M02*
