M48
INCH,TZ
T1C0.0118
T2C0.0315
T3C0.0394
%
G90
G05
T1
X35953Y-28500
X36386Y-48699
X36441Y-50134
X37051Y-24793
X37362Y-35054
X37433Y-48414
X37449Y-50440
X37580Y-19322
X38795Y-48315
X39119Y-41662
X39206Y-44828
X39275Y-22556
X39378Y-45126
X39404Y-24808
X40026Y-28912
X41124Y-41876
X41921Y-29175
X42946Y-30746
X43162Y-29643
X44515Y-39407
X44531Y-29382
X44757Y-35626
X45279Y-25475
X45542Y-39361
X45630Y-37869
X45883Y-27908
X46469Y-39362
X46478Y-53756
X46883Y-41039
X47009Y-51718
X47200Y-44799
X47473Y-44019
X47614Y-42032
X47722Y-26049
X48065Y-41775
X48794Y-27055
X49219Y-43850
X49223Y-30381
X49897Y-40102
X50208Y-26431
X50208Y-42726
X51759Y-34028
X51801Y-26783
X52121Y-38094
X52183Y-43672
X52193Y-41538
X52261Y-34505
X52493Y-29548
X52542Y-22075
X52712Y-31814
X52730Y-40582
X53790Y-50418
X53974Y-36826
X54016Y-40171
X54190Y-45653
X54449Y-33751
X54598Y-52626
X54885Y-25842
X54895Y-50050
X54923Y-44729
X55058Y-35484
X55160Y-28581
X55171Y-31828
X55696Y-44801
X55949Y-21657
X56725Y-49470
X57346Y-50029
X57575Y-48991
X57578Y-36063
X57601Y-49761
X57629Y-24996
X57730Y-27451
X57866Y-32354
X57965Y-40470
X58081Y-52801
X58699Y-28065
X59557Y-44695
X60531Y-35256
X60707Y-53000
X60786Y-45084
X62083Y-50975
X62936Y-20535
X62936Y-22982
X63120Y-41268
X63167Y-43312
X63274Y-28534
T2
X38246Y-22500
X38246Y-23500
X38246Y-24500
X38246Y-25500
X38246Y-26500
X38246Y-27500
X38246Y-28500
X38246Y-29500
X38246Y-30500
X38246Y-31500
X38246Y-35000
X38246Y-36000
X38246Y-37000
X38246Y-38000
X38246Y-39000
X38246Y-40000
X38246Y-41000
X38250Y-44500
X38250Y-45500
X38250Y-46500
X38250Y-47500
X38250Y-48500
X38250Y-49500
X38250Y-50500
X38781Y-33250
X38781Y-42750
X39246Y-20750
X40750Y-33250
X40750Y-42750
X41215Y-20750
X41246Y-22500
X41246Y-23500
X41246Y-24500
X41246Y-25500
X41246Y-26500
X41246Y-27500
X41246Y-28500
X41246Y-29500
X41246Y-30500
X41246Y-31500
X41246Y-35000
X41246Y-36000
X41246Y-37000
X41246Y-38000
X41246Y-39000
X41246Y-40000
X41246Y-41000
X41250Y-44500
X41250Y-45500
X41250Y-46500
X41250Y-47500
X41250Y-48500
X41250Y-49500
X41250Y-50500
X43250Y-32000
X43250Y-33000
X43250Y-34000
X43250Y-35000
X43250Y-36000
X43250Y-37000
X43250Y-38000
X43250Y-42750
X43250Y-43750
X43250Y-44750
X43250Y-45750
X43250Y-46750
X43250Y-47750
X43250Y-48750
X43250Y-49750
X43262Y-22500
X43262Y-23500
X43262Y-24500
X43262Y-25500
X43262Y-26500
X43262Y-27500
X43262Y-28500
X43778Y-20750
X43781Y-30250
X44031Y-41000
X45000Y-57000
X45746Y-20750
X45750Y-30250
X45850Y-53000
X45850Y-53984
X46000Y-41000
X46000Y-57000
X46250Y-32000
X46250Y-33000
X46250Y-34000
X46250Y-35000
X46250Y-36000
X46250Y-37000
X46250Y-38000
X46250Y-42750
X46250Y-43750
X46250Y-44750
X46250Y-45750
X46250Y-46750
X46250Y-47750
X46250Y-48750
X46250Y-49750
X46262Y-22500
X46262Y-23500
X46262Y-24500
X46262Y-25500
X46262Y-26500
X46262Y-27500
X46262Y-28500
X47000Y-57000
X48246Y-22500
X48246Y-23500
X48246Y-24500
X48246Y-25500
X48246Y-26500
X48246Y-27500
X48246Y-28500
X48246Y-29500
X48246Y-33000
X48246Y-34000
X48246Y-35000
X48246Y-36000
X48246Y-37000
X48246Y-38000
X48246Y-39000
X48250Y-42750
X48250Y-43750
X48250Y-44750
X48250Y-45750
X48250Y-46750
X48250Y-47750
X48250Y-48750
X48750Y-41000
X48778Y-20744
X48831Y-31250
X50719Y-41000
X50746Y-20744
X50800Y-31250
X51246Y-22500
X51246Y-23500
X51246Y-24500
X51246Y-25500
X51246Y-26500
X51246Y-27500
X51246Y-28500
X51246Y-29500
X51246Y-33000
X51246Y-34000
X51246Y-35000
X51246Y-36000
X51246Y-37000
X51246Y-38000
X51246Y-39000
X51250Y-42750
X51250Y-43750
X51250Y-44750
X51250Y-45750
X51250Y-46750
X51250Y-47750
X51250Y-48750
X51600Y-56500
X52752Y-51785
X52752Y-53754
X53246Y-22500
X53246Y-23500
X53246Y-24500
X53246Y-25500
X53246Y-26500
X53246Y-27500
X53246Y-28500
X53246Y-29500
X53250Y-33000
X53250Y-34000
X53250Y-35000
X53250Y-36000
X53250Y-37000
X53250Y-38000
X53250Y-39000
X53250Y-42750
X53250Y-43750
X53250Y-44750
X53250Y-45750
X53250Y-46750
X53250Y-47750
X53250Y-48750
X53750Y-41000
X53781Y-20750
X53800Y-31250
X54500Y-51250
X54500Y-54250
X55500Y-51250
X55500Y-54250
X55600Y-56500
X55719Y-41000
X55750Y-20750
X55769Y-31250
X56246Y-22500
X56246Y-23500
X56246Y-24500
X56246Y-25500
X56246Y-26500
X56246Y-27500
X56246Y-28500
X56246Y-29500
X56250Y-33000
X56250Y-34000
X56250Y-35000
X56250Y-36000
X56250Y-37000
X56250Y-38000
X56250Y-39000
X56250Y-42750
X56250Y-43750
X56250Y-44750
X56250Y-45750
X56250Y-46750
X56250Y-47750
X56250Y-48750
X56500Y-51250
X56500Y-54250
X57500Y-51250
X57500Y-54250
X57631Y-56500
X57746Y-20750
X58246Y-22500
X58246Y-23500
X58246Y-24500
X58246Y-25500
X58246Y-26500
X58246Y-27500
X58246Y-28500
X58250Y-42750
X58250Y-43750
X58250Y-44750
X58250Y-45750
X58250Y-46750
X58250Y-47750
X58250Y-48750
X58254Y-33000
X58254Y-34000
X58254Y-35000
X58254Y-36000
X58254Y-37000
X58254Y-38000
X58254Y-39000
X58500Y-51250
X58500Y-54250
X58750Y-41000
X58831Y-31250
X59500Y-51250
X59500Y-54250
X59600Y-56500
X59715Y-20750
X60500Y-51250
X60500Y-54250
X60719Y-41000
X60800Y-31250
X61246Y-22500
X61246Y-23500
X61246Y-24500
X61246Y-25500
X61246Y-26500
X61246Y-27500
X61246Y-28500
X61250Y-42750
X61250Y-43750
X61250Y-44750
X61250Y-45750
X61250Y-46750
X61250Y-47750
X61250Y-48750
X61254Y-33000
X61254Y-34000
X61254Y-35000
X61254Y-36000
X61254Y-37000
X61254Y-38000
X61254Y-39000
T3
X35500Y-21000
X35500Y-22000
X35500Y-23000
X35500Y-24000
X35500Y-25000
X35500Y-26000
X35500Y-27000
X35500Y-28000
X35500Y-29000
X35500Y-30000
X35500Y-31000
X35500Y-32000
X35500Y-33000
X35500Y-34000
X35500Y-35000
X35500Y-36000
X35500Y-37000
X35500Y-38000
X35500Y-39000
X35500Y-40000
X35500Y-41000
X35500Y-42000
X35500Y-43000
X35500Y-44000
X35500Y-45000
X35500Y-46000
X35500Y-47000
X35500Y-48000
X35500Y-49000
X35500Y-50000
X35500Y-51000
X35500Y-52000
X35500Y-53000
X35500Y-54000
X35500Y-55000
X35500Y-56000
X63750Y-21000
X63750Y-22000
X63750Y-23000
X63750Y-24000
X63750Y-25000
X63750Y-26000
X63750Y-27000
X63750Y-28000
X63750Y-29000
X63750Y-30000
X63750Y-31000
X63750Y-32000
X63750Y-33000
X63750Y-34000
X63750Y-35000
X63750Y-36000
X63750Y-37000
X63750Y-38000
X63750Y-39000
X63750Y-40000
X63750Y-41000
X63750Y-42000
X63750Y-43000
X63750Y-44000
X63750Y-45000
X63750Y-46000
X63750Y-47000
X63750Y-48000
X63750Y-49000
X63750Y-50000
X63750Y-51000
X63750Y-52000
X63750Y-53000
X63750Y-54000
X63750Y-55000
X63750Y-56000
T3
G00X40606Y-52569
M15
G01X41394Y-52569
M16
G05
G00X40606Y-54931
M15
G01X41394Y-54931
M16
G05
G00X42850Y-54144
M15
G01X42850Y-53356
M16
G05
M30
