G04 #@! TF.GenerationSoftware,KiCad,Pcbnew,8.0.9-8.0.9-0~ubuntu22.04.1*
G04 #@! TF.CreationDate,2025-07-24T17:31:27+10:00*
G04 #@! TF.ProjectId,UE14500-TTL,55453134-3530-4302-9d54-544c2e6b6963,rev?*
G04 #@! TF.SameCoordinates,Original*
G04 #@! TF.FileFunction,Copper,L2,Bot*
G04 #@! TF.FilePolarity,Positive*
%FSLAX46Y46*%
G04 Gerber Fmt 4.6, Leading zero omitted, Abs format (unit mm)*
G04 Created by KiCad (PCBNEW 8.0.9-8.0.9-0~ubuntu22.04.1) date 2025-07-24 17:31:27*
%MOMM*%
%LPD*%
G01*
G04 APERTURE LIST*
G04 Aperture macros list*
%AMRoundRect*
0 Rectangle with rounded corners*
0 $1 Rounding radius*
0 $2 $3 $4 $5 $6 $7 $8 $9 X,Y pos of 4 corners*
0 Add a 4 corners polygon primitive as box body*
4,1,4,$2,$3,$4,$5,$6,$7,$8,$9,$2,$3,0*
0 Add four circle primitives for the rounded corners*
1,1,$1+$1,$2,$3*
1,1,$1+$1,$4,$5*
1,1,$1+$1,$6,$7*
1,1,$1+$1,$8,$9*
0 Add four rect primitives between the rounded corners*
20,1,$1+$1,$2,$3,$4,$5,0*
20,1,$1+$1,$4,$5,$6,$7,0*
20,1,$1+$1,$6,$7,$8,$9,0*
20,1,$1+$1,$8,$9,$2,$3,0*%
G04 Aperture macros list end*
G04 #@! TA.AperFunction,ComponentPad*
%ADD10R,1.600000X1.600000*%
G04 #@! TD*
G04 #@! TA.AperFunction,ComponentPad*
%ADD11O,1.600000X1.600000*%
G04 #@! TD*
G04 #@! TA.AperFunction,ComponentPad*
%ADD12C,1.600000*%
G04 #@! TD*
G04 #@! TA.AperFunction,ComponentPad*
%ADD13R,1.700000X1.700000*%
G04 #@! TD*
G04 #@! TA.AperFunction,ComponentPad*
%ADD14O,1.700000X1.700000*%
G04 #@! TD*
G04 #@! TA.AperFunction,ComponentPad*
%ADD15R,1.500000X1.500000*%
G04 #@! TD*
G04 #@! TA.AperFunction,ComponentPad*
%ADD16R,3.500000X3.500000*%
G04 #@! TD*
G04 #@! TA.AperFunction,ComponentPad*
%ADD17RoundRect,0.750000X1.000000X-0.750000X1.000000X0.750000X-1.000000X0.750000X-1.000000X-0.750000X0*%
G04 #@! TD*
G04 #@! TA.AperFunction,ComponentPad*
%ADD18RoundRect,0.875000X0.875000X-0.875000X0.875000X0.875000X-0.875000X0.875000X-0.875000X-0.875000X0*%
G04 #@! TD*
G04 #@! TA.AperFunction,ViaPad*
%ADD19C,0.600000*%
G04 #@! TD*
G04 #@! TA.AperFunction,Conductor*
%ADD20C,0.200000*%
G04 #@! TD*
G04 APERTURE END LIST*
D10*
X109855000Y-108585000D03*
D11*
X109855000Y-111125000D03*
X109855000Y-113665000D03*
X109855000Y-116205000D03*
X109855000Y-118745000D03*
X109855000Y-121285000D03*
X109855000Y-123825000D03*
X109855000Y-126365000D03*
X117475000Y-126365000D03*
X117475000Y-123825000D03*
X117475000Y-121285000D03*
X117475000Y-118745000D03*
X117475000Y-116205000D03*
X117475000Y-113665000D03*
X117475000Y-111125000D03*
X117475000Y-108585000D03*
D12*
X129032000Y-79375000D03*
X124032000Y-79375000D03*
D10*
X122545000Y-57150000D03*
D11*
X122545000Y-59690000D03*
X122545000Y-62230000D03*
X122545000Y-64770000D03*
X122545000Y-67310000D03*
X122545000Y-69850000D03*
X122545000Y-72390000D03*
X122545000Y-74930000D03*
X130165000Y-74930000D03*
X130165000Y-72390000D03*
X130165000Y-69850000D03*
X130165000Y-67310000D03*
X130165000Y-64770000D03*
X130165000Y-62230000D03*
X130165000Y-59690000D03*
X130165000Y-57150000D03*
D10*
X122545000Y-83820000D03*
D11*
X122545000Y-86360000D03*
X122545000Y-88900000D03*
X122545000Y-91440000D03*
X122545000Y-93980000D03*
X122545000Y-96520000D03*
X122545000Y-99060000D03*
X130165000Y-99060000D03*
X130165000Y-96520000D03*
X130165000Y-93980000D03*
X130165000Y-91440000D03*
X130165000Y-88900000D03*
X130165000Y-86360000D03*
X130165000Y-83820000D03*
D10*
X147955000Y-108585000D03*
D11*
X147955000Y-111125000D03*
X147955000Y-113665000D03*
X147955000Y-116205000D03*
X147955000Y-118745000D03*
X147955000Y-121285000D03*
X147955000Y-123825000D03*
X155575000Y-123825000D03*
X155575000Y-121285000D03*
X155575000Y-118745000D03*
X155575000Y-116205000D03*
X155575000Y-113665000D03*
X155575000Y-111125000D03*
X155575000Y-108585000D03*
D13*
X90170000Y-53340000D03*
D14*
X90170000Y-55880000D03*
X90170000Y-58420000D03*
X90170000Y-60960000D03*
X90170000Y-63500000D03*
X90170000Y-66040000D03*
X90170000Y-68580000D03*
X90170000Y-71120000D03*
X90170000Y-73660000D03*
X90170000Y-76200000D03*
X90170000Y-78740000D03*
X90170000Y-81280000D03*
X90170000Y-83820000D03*
X90170000Y-86360000D03*
X90170000Y-88900000D03*
X90170000Y-91440000D03*
X90170000Y-93980000D03*
X90170000Y-96520000D03*
X90170000Y-99060000D03*
X90170000Y-101600000D03*
X90170000Y-104140000D03*
X90170000Y-106680000D03*
X90170000Y-109220000D03*
X90170000Y-111760000D03*
X90170000Y-114300000D03*
X90170000Y-116840000D03*
X90170000Y-119380000D03*
X90170000Y-121920000D03*
X90170000Y-124460000D03*
X90170000Y-127000000D03*
X90170000Y-129540000D03*
X90170000Y-132080000D03*
X90170000Y-134620000D03*
X90170000Y-137160000D03*
X90170000Y-139700000D03*
X90170000Y-142240000D03*
D15*
X116840000Y-144780000D03*
D12*
X114300000Y-144780000D03*
X119380000Y-144780000D03*
X116195000Y-52705000D03*
X111195000Y-52705000D03*
X151384000Y-143510000D03*
X146384000Y-143510000D03*
X131064000Y-143510000D03*
D11*
X141224000Y-143510000D03*
D12*
X128825000Y-104140000D03*
X123825000Y-104140000D03*
X116840000Y-104140000D03*
X111840000Y-104140000D03*
D10*
X116460000Y-137120000D03*
D12*
X116460000Y-134620000D03*
X103505000Y-108585000D03*
X98505000Y-108585000D03*
D16*
X104140000Y-133525000D03*
D17*
X104140000Y-139525000D03*
D18*
X108840000Y-136525000D03*
D10*
X135255000Y-83820000D03*
D11*
X135255000Y-86360000D03*
X135255000Y-88900000D03*
X135255000Y-91440000D03*
X135255000Y-93980000D03*
X135255000Y-96520000D03*
X135255000Y-99060000D03*
X142875000Y-99060000D03*
X142875000Y-96520000D03*
X142875000Y-93980000D03*
X142875000Y-91440000D03*
X142875000Y-88900000D03*
X142875000Y-86360000D03*
X142875000Y-83820000D03*
D12*
X154225000Y-104140000D03*
X149225000Y-104140000D03*
D10*
X135245000Y-57150000D03*
D11*
X135245000Y-59690000D03*
X135245000Y-62230000D03*
X135245000Y-64770000D03*
X135245000Y-67310000D03*
X135245000Y-69850000D03*
X135245000Y-72390000D03*
X135245000Y-74930000D03*
X142865000Y-74930000D03*
X142865000Y-72390000D03*
X142865000Y-69850000D03*
X142865000Y-67310000D03*
X142865000Y-64770000D03*
X142865000Y-62230000D03*
X142865000Y-59690000D03*
X142865000Y-57150000D03*
D10*
X122555000Y-108585000D03*
D11*
X122555000Y-111125000D03*
X122555000Y-113665000D03*
X122555000Y-116205000D03*
X122555000Y-118745000D03*
X122555000Y-121285000D03*
X122555000Y-123825000D03*
X130175000Y-123825000D03*
X130175000Y-121285000D03*
X130175000Y-118745000D03*
X130175000Y-116205000D03*
X130175000Y-113665000D03*
X130175000Y-111125000D03*
X130175000Y-108585000D03*
D12*
X103505000Y-84455000D03*
X98505000Y-84455000D03*
X133990000Y-131535000D03*
X133990000Y-136535000D03*
D10*
X97145000Y-88900000D03*
D11*
X97145000Y-91440000D03*
X97145000Y-93980000D03*
X97145000Y-96520000D03*
X97145000Y-99060000D03*
X97145000Y-101600000D03*
X97145000Y-104140000D03*
X104765000Y-104140000D03*
X104765000Y-101600000D03*
X104765000Y-99060000D03*
X104765000Y-96520000D03*
X104765000Y-93980000D03*
X104765000Y-91440000D03*
X104765000Y-88900000D03*
D12*
X154432000Y-79375000D03*
X149432000Y-79375000D03*
D10*
X109885000Y-57150000D03*
D11*
X109885000Y-59690000D03*
X109885000Y-62230000D03*
X109885000Y-64770000D03*
X109885000Y-67310000D03*
X109885000Y-69850000D03*
X109885000Y-72390000D03*
X117505000Y-72390000D03*
X117505000Y-69850000D03*
X117505000Y-67310000D03*
X117505000Y-64770000D03*
X117505000Y-62230000D03*
X117505000Y-59690000D03*
X117505000Y-57150000D03*
D10*
X138430000Y-137795000D03*
D11*
X140970000Y-137795000D03*
X143510000Y-137795000D03*
X146050000Y-137795000D03*
X148590000Y-137795000D03*
X151130000Y-137795000D03*
X153670000Y-137795000D03*
X153670000Y-130175000D03*
X151130000Y-130175000D03*
X148590000Y-130175000D03*
X146050000Y-130175000D03*
X143510000Y-130175000D03*
X140970000Y-130175000D03*
X138430000Y-130175000D03*
D12*
X141652000Y-79375000D03*
X136652000Y-79375000D03*
D10*
X109855000Y-81280000D03*
D11*
X109855000Y-83820000D03*
X109855000Y-86360000D03*
X109855000Y-88900000D03*
X109855000Y-91440000D03*
X109855000Y-93980000D03*
X109855000Y-96520000D03*
X117475000Y-96520000D03*
X117475000Y-93980000D03*
X117475000Y-91440000D03*
X117475000Y-88900000D03*
X117475000Y-86360000D03*
X117475000Y-83820000D03*
X117475000Y-81280000D03*
D12*
X104685000Y-52705000D03*
X99685000Y-52705000D03*
X128895000Y-52690000D03*
X123895000Y-52690000D03*
D10*
X97145000Y-57150000D03*
D11*
X97145000Y-59690000D03*
X97145000Y-62230000D03*
X97145000Y-64770000D03*
X97145000Y-67310000D03*
X97145000Y-69850000D03*
X97145000Y-72390000D03*
X97145000Y-74930000D03*
X97145000Y-77470000D03*
X97145000Y-80010000D03*
X104765000Y-80010000D03*
X104765000Y-77470000D03*
X104765000Y-74930000D03*
X104765000Y-72390000D03*
X104765000Y-69850000D03*
X104765000Y-67310000D03*
X104765000Y-64770000D03*
X104765000Y-62230000D03*
X104765000Y-59690000D03*
X104765000Y-57150000D03*
D10*
X97155000Y-113030000D03*
D11*
X97155000Y-115570000D03*
X97155000Y-118110000D03*
X97155000Y-120650000D03*
X97155000Y-123190000D03*
X97155000Y-125730000D03*
X97155000Y-128270000D03*
X104775000Y-128270000D03*
X104775000Y-125730000D03*
X104775000Y-123190000D03*
X104775000Y-120650000D03*
X104775000Y-118110000D03*
X104775000Y-115570000D03*
X104775000Y-113030000D03*
D12*
X116205000Y-76835000D03*
X111205000Y-76835000D03*
D10*
X147965000Y-83820000D03*
D11*
X147965000Y-86360000D03*
X147965000Y-88900000D03*
X147965000Y-91440000D03*
X147965000Y-93980000D03*
X147965000Y-96520000D03*
X147965000Y-99060000D03*
X155585000Y-99060000D03*
X155585000Y-96520000D03*
X155585000Y-93980000D03*
X155585000Y-91440000D03*
X155585000Y-88900000D03*
X155585000Y-86360000D03*
X155585000Y-83820000D03*
D10*
X147945000Y-57150000D03*
D11*
X147945000Y-59690000D03*
X147945000Y-62230000D03*
X147945000Y-64770000D03*
X147945000Y-67310000D03*
X147945000Y-69850000D03*
X147945000Y-72390000D03*
X155565000Y-72390000D03*
X155565000Y-69850000D03*
X155565000Y-67310000D03*
X155565000Y-64770000D03*
X155565000Y-62230000D03*
X155565000Y-59690000D03*
X155565000Y-57150000D03*
D13*
X161925000Y-53340000D03*
D14*
X161925000Y-55880000D03*
X161925000Y-58420000D03*
X161925000Y-60960000D03*
X161925000Y-63500000D03*
X161925000Y-66040000D03*
X161925000Y-68580000D03*
X161925000Y-71120000D03*
X161925000Y-73660000D03*
X161925000Y-76200000D03*
X161925000Y-78740000D03*
X161925000Y-81280000D03*
X161925000Y-83820000D03*
X161925000Y-86360000D03*
X161925000Y-88900000D03*
X161925000Y-91440000D03*
X161925000Y-93980000D03*
X161925000Y-96520000D03*
X161925000Y-99060000D03*
X161925000Y-101600000D03*
X161925000Y-104140000D03*
X161925000Y-106680000D03*
X161925000Y-109220000D03*
X161925000Y-111760000D03*
X161925000Y-114300000D03*
X161925000Y-116840000D03*
X161925000Y-119380000D03*
X161925000Y-121920000D03*
X161925000Y-124460000D03*
X161925000Y-127000000D03*
X161925000Y-129540000D03*
X161925000Y-132080000D03*
X161925000Y-134620000D03*
X161925000Y-137160000D03*
X161925000Y-139700000D03*
X161925000Y-142240000D03*
D12*
X151675000Y-52705000D03*
X146675000Y-52705000D03*
D10*
X135255000Y-108585000D03*
D11*
X135255000Y-111125000D03*
X135255000Y-113665000D03*
X135255000Y-116205000D03*
X135255000Y-118745000D03*
X135255000Y-121285000D03*
X135255000Y-123825000D03*
X142875000Y-123825000D03*
X142875000Y-121285000D03*
X142875000Y-118745000D03*
X142875000Y-116205000D03*
X142875000Y-113665000D03*
X142875000Y-111125000D03*
X142875000Y-108585000D03*
D12*
X141605000Y-52705000D03*
X136605000Y-52705000D03*
X141525000Y-104140000D03*
X136525000Y-104140000D03*
D19*
X131467700Y-86430700D03*
X136627200Y-128060900D03*
X153749400Y-89550000D03*
X154195300Y-134620000D03*
X160443900Y-110013000D03*
X127529200Y-108524900D03*
X144082700Y-125653500D03*
X92419200Y-123694700D03*
X140107300Y-72596900D03*
X145657600Y-127073700D03*
X92559800Y-127339300D03*
X139433700Y-127126500D03*
X125027200Y-77168800D03*
X123936800Y-68720900D03*
X101666600Y-73437500D03*
X106478700Y-74103700D03*
X95120400Y-128118200D03*
X146306900Y-126392700D03*
X146240000Y-124436300D03*
X91321700Y-72390000D03*
X159857300Y-52158200D03*
X95453400Y-49077900D03*
X113108400Y-74631200D03*
X98539200Y-122720800D03*
X113068100Y-100092900D03*
X113682100Y-90489700D03*
X115677600Y-99977900D03*
X116543600Y-70885700D03*
X119083400Y-104238200D03*
X104456200Y-106364200D03*
X99362600Y-105820400D03*
X122085100Y-106107800D03*
X133456500Y-56070100D03*
X100085100Y-63011400D03*
X159857300Y-58375200D03*
X100020600Y-114619200D03*
X133889700Y-80808400D03*
X140133100Y-80843600D03*
X109630300Y-75292600D03*
X109082300Y-78093800D03*
X139848400Y-90128700D03*
X133332400Y-75051200D03*
X115008600Y-64707700D03*
X146633300Y-69726100D03*
X115901000Y-96186200D03*
X126738500Y-101859400D03*
X95079600Y-122971200D03*
X120940000Y-106762300D03*
X119404000Y-131362700D03*
X147526700Y-134114400D03*
X132569200Y-105506000D03*
X160324600Y-104821300D03*
X160716300Y-72475900D03*
X137199600Y-102034800D03*
X133934600Y-103079000D03*
X94109400Y-62973600D03*
X118053900Y-136539800D03*
X118031900Y-99979500D03*
X132387200Y-96758500D03*
X132742900Y-87641700D03*
X146248000Y-91598800D03*
X149096400Y-71286000D03*
X139406800Y-65639800D03*
X138300400Y-85727900D03*
X146378500Y-63490000D03*
X146980300Y-82180400D03*
X142110600Y-55008600D03*
X99759300Y-57293200D03*
X127529200Y-67133700D03*
X121214700Y-66163800D03*
X131573500Y-68027700D03*
X137093500Y-93537900D03*
X154395300Y-114513300D03*
X120581300Y-111807300D03*
X125015200Y-111378600D03*
X139503700Y-113610500D03*
X119888900Y-113790500D03*
X94900400Y-89036600D03*
X147230800Y-102795000D03*
X132543900Y-110926200D03*
X137643500Y-115958900D03*
X151274600Y-113525800D03*
X141468600Y-113794600D03*
X138678900Y-133671200D03*
X157690500Y-129475400D03*
X99583700Y-113862300D03*
D20*
X136451600Y-100228000D02*
X136110900Y-100568700D01*
X102978500Y-54349800D02*
X102637100Y-54691200D01*
X147965000Y-96520000D02*
X149114300Y-97669300D01*
X149114300Y-97669300D02*
X149114300Y-99557500D01*
X136110900Y-100568700D02*
X127434700Y-100568700D01*
X126042400Y-100568700D02*
X118833600Y-100568700D01*
X149114300Y-99557500D02*
X148443800Y-100228000D01*
X148443800Y-100228000D02*
X136451600Y-100228000D01*
X127434700Y-100568700D02*
X127320300Y-100454300D01*
X126156800Y-100454300D02*
X126042400Y-100568700D01*
X118833600Y-100568700D02*
X118244400Y-99979500D01*
X127320300Y-100454300D02*
X126156800Y-100454300D01*
X118244400Y-99979500D02*
X118031900Y-99979500D01*
X155575000Y-123825000D02*
X161925000Y-117475000D01*
X161925000Y-117475000D02*
X161925000Y-116840000D01*
X108394800Y-122723300D02*
X153670000Y-122723300D01*
X155575000Y-123825000D02*
X154473300Y-122723300D01*
X154473300Y-122723300D02*
X153670000Y-122723300D01*
X104765000Y-93980000D02*
X105866700Y-93980000D01*
X105866700Y-93980000D02*
X105866700Y-94094100D01*
X105866700Y-94094100D02*
X111148800Y-99376200D01*
X111148800Y-99376200D02*
X118395000Y-99376200D01*
X118395000Y-99376200D02*
X119180800Y-100162000D01*
X119180800Y-100162000D02*
X125881100Y-100162000D01*
X125881100Y-100162000D02*
X125990500Y-100052600D01*
X125990500Y-100052600D02*
X127486600Y-100052600D01*
X127486600Y-100052600D02*
X127596000Y-100162000D01*
X127596000Y-100162000D02*
X135949600Y-100162000D01*
X135949600Y-100162000D02*
X137051600Y-99060000D01*
X137051600Y-99060000D02*
X142875000Y-99060000D01*
X135255000Y-99060000D02*
X135647100Y-99060000D01*
X135647100Y-99060000D02*
X136758400Y-97948700D01*
X132438800Y-96758500D02*
X132387200Y-96758500D01*
X134409186Y-97648500D02*
X133414086Y-96653400D01*
X136339600Y-97648500D02*
X134409186Y-97648500D01*
X140008100Y-93980000D02*
X136339600Y-97648500D01*
X132543900Y-96653400D02*
X132438800Y-96758500D01*
X133414086Y-96653400D02*
X132543900Y-96653400D01*
X142875000Y-93980000D02*
X140008100Y-93980000D01*
X135255000Y-99060000D02*
X134143700Y-97948700D01*
X124758000Y-97948700D02*
X123646700Y-99060000D01*
X134143700Y-97948700D02*
X124758000Y-97948700D01*
X123646700Y-99060000D02*
X122545000Y-99060000D01*
X122555000Y-116205000D02*
X123664700Y-117314700D01*
X123664700Y-117314700D02*
X133043600Y-117314700D01*
X130175000Y-118745000D02*
X124529314Y-118745000D01*
X123399114Y-117614800D02*
X121710886Y-117614800D01*
X121710886Y-117614800D02*
X119443986Y-119881700D01*
X108521700Y-114131700D02*
X100704000Y-114131700D01*
X119443986Y-119881700D02*
X117049400Y-119881700D01*
X124529314Y-118745000D02*
X123399114Y-117614800D01*
X111948900Y-114781200D02*
X109171200Y-114781200D01*
X117049400Y-119881700D02*
X111948900Y-114781200D01*
X109171200Y-114781200D02*
X108521700Y-114131700D01*
X100704000Y-114131700D02*
X99602300Y-113030000D01*
X134153300Y-116205000D02*
X135255000Y-116205000D01*
X99602300Y-113030000D02*
X97155000Y-113030000D01*
X133043600Y-117314700D02*
X134153300Y-116205000D01*
X122555000Y-116205000D02*
X121445300Y-117314700D01*
X121445300Y-117314700D02*
X120007000Y-117314700D01*
X120007000Y-117314700D02*
X118576700Y-118745000D01*
X118576700Y-118745000D02*
X117475000Y-118745000D01*
X104775000Y-113030000D02*
X105410000Y-112395000D01*
X105410000Y-112395000D02*
X115103300Y-112395000D01*
X115103300Y-112395000D02*
X116373300Y-111125000D01*
X116373300Y-111125000D02*
X117475000Y-111125000D01*
X104775000Y-113030000D02*
X104775000Y-109855000D01*
X90170000Y-114300000D02*
X90170000Y-115183200D01*
X90170000Y-115183200D02*
X89005400Y-116347800D01*
X89005400Y-116347800D02*
X89005400Y-119865200D01*
X89005400Y-119865200D02*
X89790200Y-120650000D01*
X89790200Y-120650000D02*
X97155000Y-120650000D01*
X90170000Y-111760000D02*
X88603700Y-113326300D01*
X88603700Y-113326300D02*
X88603700Y-122045800D01*
X88603700Y-122045800D02*
X89650900Y-123093000D01*
X89650900Y-123093000D02*
X92668400Y-123093000D01*
X92668400Y-123093000D02*
X94202200Y-124626800D01*
X94202200Y-124626800D02*
X102537500Y-124626800D01*
X102537500Y-124626800D02*
X103640700Y-125730000D01*
X103640700Y-125730000D02*
X104775000Y-125730000D01*
X90170000Y-101600000D02*
X89010400Y-102759600D01*
X89010400Y-102759600D02*
X89010400Y-104623300D01*
X89010400Y-104623300D02*
X89701200Y-105314100D01*
X89701200Y-105314100D02*
X90895900Y-105314100D01*
X90895900Y-105314100D02*
X93198500Y-103011500D01*
X93198500Y-103011500D02*
X112269600Y-103011500D01*
X112269600Y-103011500D02*
X114536200Y-105278100D01*
X114536200Y-105278100D02*
X132341300Y-105278100D01*
X132341300Y-105278100D02*
X132569200Y-105506000D01*
X89882100Y-67191700D02*
X89331900Y-67741900D01*
X89331900Y-67741900D02*
X88977300Y-68096500D01*
X90170000Y-66040000D02*
X90170000Y-66903800D01*
X90170000Y-66903800D02*
X89331900Y-67741900D01*
X90170000Y-60960000D02*
X89017700Y-59807700D01*
X89017700Y-59807700D02*
X89017700Y-55345200D01*
X89017700Y-55345200D02*
X89671700Y-54691200D01*
X89671700Y-54691200D02*
X102637100Y-54691200D01*
X90170000Y-53340000D02*
X91033800Y-53340000D01*
X91033800Y-53340000D02*
X94388000Y-49985800D01*
X94388000Y-49985800D02*
X101965800Y-49985800D01*
X101965800Y-49985800D02*
X104685000Y-52705000D01*
X97145000Y-62230000D02*
X98262500Y-61112500D01*
X98262500Y-61112500D02*
X98262500Y-59183300D01*
X155565000Y-64770000D02*
X154463300Y-63668300D01*
X154463300Y-63668300D02*
X146556800Y-63668300D01*
X146556800Y-63668300D02*
X146378500Y-63490000D01*
X161925000Y-142240000D02*
X161061200Y-142240000D01*
X161061200Y-142240000D02*
X157704300Y-145596900D01*
X157704300Y-145596900D02*
X144412600Y-145596900D01*
X144412600Y-145596900D02*
X142325700Y-143510000D01*
X142325700Y-143510000D02*
X141224000Y-143510000D01*
X161925000Y-137160000D02*
X163104100Y-138339100D01*
X163104100Y-138339100D02*
X163104100Y-140179900D01*
X163104100Y-140179900D02*
X162426000Y-140858000D01*
X162426000Y-140858000D02*
X154036000Y-140858000D01*
X154036000Y-140858000D02*
X151384000Y-143510000D01*
X163070900Y-121409100D02*
X163080300Y-121418500D01*
X161925000Y-119380000D02*
X163070900Y-120525900D01*
X163070900Y-120525900D02*
X163070900Y-121409100D01*
X161925000Y-109220000D02*
X161925000Y-110083700D01*
X161925000Y-110083700D02*
X160773300Y-111235400D01*
X160773300Y-111235400D02*
X160773300Y-115149300D01*
X160773300Y-115149300D02*
X156067500Y-119855100D01*
X156067500Y-119855100D02*
X137466800Y-119855100D01*
X137466800Y-119855100D02*
X136356700Y-118745000D01*
X136356700Y-118745000D02*
X135255000Y-118745000D01*
X161925000Y-73660000D02*
X163107400Y-74842400D01*
X163107400Y-74842400D02*
X163107400Y-76702300D01*
X132173300Y-77392200D02*
X131908800Y-77656700D01*
X163107400Y-76702300D02*
X162417500Y-77392200D01*
X125515100Y-77656700D02*
X125027200Y-77168800D01*
X162417500Y-77392200D02*
X132173300Y-77392200D01*
X131908800Y-77656700D02*
X125515100Y-77656700D01*
X157572800Y-55219500D02*
X148623600Y-55219500D01*
X160773100Y-56445700D02*
X158799000Y-56445700D01*
X158799000Y-56445700D02*
X157572800Y-55219500D01*
X161522900Y-57195500D02*
X160773100Y-56445700D01*
X162333800Y-57195500D02*
X161522900Y-57195500D01*
X148623600Y-55219500D02*
X147753900Y-54349800D01*
X163110300Y-57972000D02*
X162333800Y-57195500D01*
X147753900Y-54349800D02*
X102978500Y-54349800D01*
X163110300Y-59774700D02*
X163110300Y-57972000D01*
X161925000Y-60960000D02*
X163110300Y-59774700D01*
X104140000Y-139525000D02*
X91496700Y-139525000D01*
X113411200Y-98974500D02*
X110956700Y-96520000D01*
X154771700Y-139700000D02*
X146384000Y-139700000D01*
X107974300Y-127144000D02*
X108753300Y-126365000D01*
X131811500Y-76049900D02*
X133184600Y-76049900D01*
X112319400Y-51580600D02*
X122785600Y-51580600D01*
X122545000Y-74930000D02*
X121443300Y-74930000D01*
X120342100Y-124936200D02*
X112067900Y-124936200D01*
X122004200Y-123825000D02*
X123105900Y-124926700D01*
X122555000Y-123825000D02*
X122004200Y-123825000D01*
X134143300Y-75091200D02*
X134143300Y-74930000D01*
X110023700Y-53876300D02*
X111195000Y-52705000D01*
X123105900Y-124926700D02*
X133051600Y-124926700D01*
X97145000Y-104140000D02*
X98246700Y-104140000D01*
X154771700Y-139700000D02*
X154771700Y-137795000D01*
X114037300Y-75273800D02*
X114078200Y-75232900D01*
X97155000Y-128270000D02*
X98256700Y-128270000D01*
X145573300Y-53806700D02*
X137706700Y-53806700D01*
X135255000Y-123825000D02*
X134153300Y-123825000D01*
X146853300Y-123825000D02*
X144604400Y-123825000D01*
X160773300Y-55880000D02*
X159711100Y-54817800D01*
X99671400Y-105278300D02*
X98533100Y-104140000D01*
X135245000Y-74930000D02*
X134143300Y-74930000D01*
X90170000Y-139700000D02*
X91321700Y-139700000D01*
X122785600Y-51580600D02*
X123895000Y-52690000D01*
X144604400Y-123825000D02*
X143502700Y-124926700D01*
X114037300Y-75273800D02*
X114078200Y-75232900D01*
X147955000Y-123825000D02*
X146853300Y-123825000D01*
X146384000Y-139700000D02*
X146384000Y-143510000D01*
X109855000Y-123825000D02*
X110956700Y-123825000D01*
X91496700Y-139525000D02*
X91321700Y-139700000D01*
X153670000Y-137795000D02*
X154771700Y-137795000D01*
X123646700Y-74930000D02*
X127576900Y-74930000D01*
X90170000Y-55880000D02*
X91321700Y-55880000D01*
X148280600Y-80526400D02*
X140668000Y-80526400D01*
X140668000Y-80526400D02*
X139516600Y-79375000D01*
X100856300Y-53876300D02*
X110023700Y-53876300D01*
X143502700Y-124926700D02*
X136907600Y-124926700D01*
X137155000Y-139700000D02*
X133990000Y-136535000D01*
X111205000Y-76835000D02*
X112476100Y-76835000D01*
X131409800Y-76451600D02*
X131811500Y-76049900D01*
X161925000Y-55880000D02*
X160773300Y-55880000D01*
X146910400Y-52705000D02*
X146675000Y-52705000D01*
X147965000Y-99060000D02*
X146863300Y-99060000D01*
X146384000Y-139700000D02*
X137155000Y-139700000D01*
X127576900Y-74930000D02*
X129098500Y-76451600D01*
X121443300Y-99060000D02*
X121357800Y-98974500D01*
X112067900Y-124936200D02*
X110956700Y-123825000D01*
X136758400Y-97948700D02*
X145752000Y-97948700D01*
X110701700Y-105278300D02*
X99671400Y-105278300D01*
X109855000Y-126365000D02*
X108753300Y-126365000D01*
X133184600Y-76049900D02*
X134143300Y-75091200D01*
X146675000Y-52705000D02*
X145573300Y-53806700D01*
X122004200Y-123825000D02*
X121453300Y-123825000D01*
X99382700Y-127144000D02*
X107974300Y-127144000D01*
X159711100Y-54817800D02*
X149023200Y-54817800D01*
X149023200Y-54817800D02*
X146910400Y-52705000D01*
X122545000Y-74930000D02*
X123646700Y-74930000D01*
X98533100Y-104140000D02*
X98246700Y-104140000D01*
X121453300Y-123825000D02*
X120342100Y-124936200D01*
X145752000Y-97948700D02*
X146863300Y-99060000D01*
X149432000Y-79375000D02*
X148280600Y-80526400D01*
X129098500Y-76451600D02*
X131409800Y-76451600D01*
X112476100Y-76835000D02*
X114037300Y-75273800D01*
X136605000Y-52705000D02*
X135453000Y-51553000D01*
X135453000Y-51553000D02*
X125032000Y-51553000D01*
X97145000Y-57150000D02*
X92591700Y-57150000D01*
X133051600Y-124926700D02*
X134153300Y-123825000D01*
X125032000Y-51553000D02*
X123895000Y-52690000D01*
X99685000Y-52705000D02*
X100856300Y-53876300D01*
X121357800Y-98974500D02*
X113411200Y-98974500D01*
X137706700Y-53806700D02*
X136605000Y-52705000D01*
X92591700Y-57150000D02*
X91321700Y-55880000D01*
X98256700Y-128270000D02*
X99382700Y-127144000D01*
X114078200Y-75232900D02*
X121140400Y-75232900D01*
X111840000Y-104140000D02*
X110701700Y-105278300D01*
X111195000Y-52705000D02*
X112319400Y-51580600D01*
X161925000Y-139700000D02*
X154771700Y-139700000D01*
X121140400Y-75232900D02*
X121443300Y-74930000D01*
X139516600Y-79375000D02*
X136652000Y-79375000D01*
X109855000Y-96520000D02*
X110956700Y-96520000D01*
X136907600Y-124926700D02*
X135805900Y-123825000D01*
X135255000Y-123825000D02*
X135805900Y-123825000D01*
X122545000Y-99060000D02*
X121443300Y-99060000D01*
X127740600Y-53844400D02*
X128895000Y-52690000D01*
X133227500Y-57150000D02*
X134058200Y-56319300D01*
X149066700Y-91440000D02*
X151606700Y-93980000D01*
X142865000Y-57150000D02*
X143966700Y-57150000D01*
X116195000Y-52705000D02*
X117334400Y-53844400D01*
X106995100Y-58278400D02*
X105866700Y-57150000D01*
X123368700Y-103038300D02*
X121543800Y-104863200D01*
X146645300Y-56423100D02*
X144693600Y-56423100D01*
X142764000Y-78263000D02*
X153320000Y-78263000D01*
X117505000Y-57150000D02*
X116403300Y-57150000D01*
X151606700Y-93980000D02*
X155585000Y-93980000D01*
X131326500Y-79375000D02*
X132438600Y-78262900D01*
X151675000Y-52705000D02*
X150558100Y-51588100D01*
X124281400Y-103038300D02*
X123368700Y-103038300D01*
X147045400Y-56022900D02*
X146645300Y-56423000D01*
X141652000Y-79375000D02*
X142764000Y-78263000D01*
X140423300Y-103038300D02*
X136068700Y-103038300D01*
X121543800Y-104863200D02*
X117563200Y-104863200D01*
X141525000Y-104140000D02*
X140423300Y-103038300D01*
X155565000Y-57150000D02*
X154463300Y-57150000D01*
X161925000Y-53340000D02*
X160773300Y-53340000D01*
X160773300Y-53340000D02*
X159991600Y-54121700D01*
X140634700Y-56021400D02*
X141763300Y-57150000D01*
X134058200Y-56310100D02*
X134346900Y-56021400D01*
X129032000Y-79375000D02*
X131326500Y-79375000D01*
X128825000Y-104140000D02*
X125383100Y-104140000D01*
X136068700Y-103038300D02*
X134967000Y-104140000D01*
X128383500Y-137141500D02*
X133990000Y-131535000D01*
X135350000Y-130175000D02*
X133990000Y-131535000D01*
X154463300Y-57150000D02*
X153336200Y-56022900D01*
X153336200Y-56022900D02*
X147045400Y-56022900D01*
X90170000Y-142240000D02*
X91321700Y-142240000D01*
X120084800Y-82788100D02*
X118576700Y-81280000D01*
X117334400Y-53844400D02*
X127740600Y-53844400D01*
X147965000Y-91440000D02*
X149066700Y-91440000D01*
X116403300Y-57150000D02*
X115274900Y-58278400D01*
X104765000Y-57150000D02*
X105866700Y-57150000D01*
X130165000Y-57150000D02*
X131266700Y-57150000D01*
X146738200Y-104140000D02*
X147860800Y-103017400D01*
X142721900Y-51588100D02*
X141605000Y-52705000D01*
X101123300Y-96520000D02*
X98246700Y-96520000D01*
X138430000Y-130175000D02*
X135350000Y-130175000D01*
X115274900Y-58278400D02*
X106995100Y-58278400D01*
X144693600Y-56423100D02*
X143966700Y-57150000D01*
X159991600Y-54121700D02*
X153091700Y-54121700D01*
X131266700Y-57150000D02*
X133227500Y-57150000D01*
X146645300Y-56423000D02*
X146645300Y-56423100D01*
X116460000Y-137120000D02*
X117561700Y-137120000D01*
X141525000Y-104140000D02*
X146738200Y-104140000D01*
X103981200Y-84931200D02*
X103505000Y-84455000D01*
X117583200Y-137141500D02*
X128383500Y-137141500D01*
X147860800Y-103017400D02*
X153102400Y-103017400D01*
X122545000Y-83820000D02*
X121116700Y-83820000D01*
X117941700Y-84931200D02*
X103981200Y-84931200D01*
X103505000Y-108585000D02*
X104775000Y-109855000D01*
X134058200Y-56319300D02*
X134058200Y-56310100D01*
X91321700Y-142240000D02*
X92118400Y-141443300D01*
X134967000Y-104140000D02*
X128825000Y-104140000D01*
X110963300Y-141443300D02*
X114300000Y-144780000D01*
X104765000Y-99060000D02*
X103663300Y-99060000D01*
X103663300Y-99060000D02*
X101123300Y-96520000D01*
X153091700Y-54121700D02*
X151675000Y-52705000D01*
X97145000Y-96520000D02*
X98246700Y-96520000D01*
X142865000Y-57150000D02*
X141763300Y-57150000D01*
X117475000Y-81280000D02*
X118576700Y-81280000D01*
X92118400Y-141443300D02*
X110963300Y-141443300D01*
X117561700Y-137120000D02*
X117583200Y-137141500D01*
X140539900Y-78262900D02*
X141652000Y-79375000D01*
X132438600Y-78262900D02*
X140539900Y-78262900D01*
X153102400Y-103017400D02*
X154225000Y-104140000D01*
X134346900Y-56021400D02*
X140634700Y-56021400D01*
X125383100Y-104140000D02*
X124281400Y-103038300D01*
X153320000Y-78263000D02*
X154432000Y-79375000D01*
X120084800Y-82788100D02*
X117941700Y-84931200D01*
X121116700Y-83820000D02*
X120084800Y-82788100D01*
X130165000Y-83820000D02*
X122545000Y-83820000D01*
X150558100Y-51588100D02*
X142721900Y-51588100D01*
X117563200Y-104863200D02*
X116840000Y-104140000D01*
X144814200Y-144664500D02*
X150229500Y-144664500D01*
X150229500Y-144664500D02*
X151384000Y-143510000D01*
X122545000Y-91440000D02*
X121443300Y-91440000D01*
X131064000Y-143510000D02*
X132198500Y-142375500D01*
X90170000Y-137160000D02*
X91321700Y-137160000D01*
X100786700Y-91440000D02*
X104765000Y-91440000D01*
X126688600Y-139134600D02*
X131064000Y-143510000D01*
X104765000Y-91440000D02*
X105866700Y-91440000D01*
X148515900Y-83820000D02*
X147965000Y-83820000D01*
X151606700Y-86360000D02*
X149066700Y-83820000D01*
X91723400Y-137561700D02*
X105839800Y-137561700D01*
X155585000Y-86360000D02*
X151606700Y-86360000D01*
X98246700Y-88900000D02*
X100786700Y-91440000D01*
X106987100Y-92560400D02*
X120322900Y-92560400D01*
X146863300Y-83820000D02*
X145761600Y-84921700D01*
X145761600Y-84921700D02*
X133677600Y-84921700D01*
X105839800Y-137561700D02*
X107412700Y-139134600D01*
X132198500Y-142375500D02*
X142525200Y-142375500D01*
X91321700Y-137160000D02*
X91723400Y-137561700D01*
X120322900Y-92560400D02*
X121443300Y-91440000D01*
X132168600Y-86430700D02*
X131467700Y-86430700D01*
X148515900Y-83820000D02*
X149066700Y-83820000D01*
X123095900Y-91440000D02*
X122545000Y-91440000D01*
X123646700Y-91440000D02*
X126186700Y-93980000D01*
X142525200Y-142375500D02*
X144814200Y-144664500D01*
X105866700Y-91440000D02*
X106987100Y-92560400D01*
X133677600Y-84921700D02*
X132168600Y-86430700D01*
X97145000Y-88900000D02*
X98246700Y-88900000D01*
X126186700Y-93980000D02*
X130165000Y-93980000D01*
X107412700Y-139134600D02*
X126688600Y-139134600D01*
X123095900Y-91440000D02*
X123646700Y-91440000D01*
X147965000Y-83820000D02*
X146863300Y-83820000D01*
X120196200Y-128306900D02*
X120288900Y-128214200D01*
X106560000Y-129783000D02*
X107317400Y-129783000D01*
X159712400Y-128060900D02*
X160773300Y-127000000D01*
X119121800Y-129381300D02*
X120196200Y-128306900D01*
X120288900Y-128214200D02*
X120321200Y-128181900D01*
X105761400Y-130581600D02*
X106560000Y-129783000D01*
X120196200Y-128306900D02*
X120288900Y-128214200D01*
X107317400Y-129783000D02*
X107552800Y-129547600D01*
X90170000Y-127000000D02*
X91321700Y-127000000D01*
X91321700Y-127000000D02*
X94903300Y-130581600D01*
X94903300Y-130581600D02*
X105761400Y-130581600D01*
X120321200Y-128181900D02*
X136506200Y-128181900D01*
X107552800Y-129547600D02*
X107719100Y-129381300D01*
X107719100Y-129381300D02*
X119121800Y-129381300D01*
X136506200Y-128181900D02*
X136627200Y-128060900D01*
X107552800Y-129547600D02*
X107719100Y-129381300D01*
X161925000Y-127000000D02*
X160773300Y-127000000D01*
X136627200Y-128060900D02*
X159712400Y-128060900D01*
X153749400Y-89550000D02*
X151661100Y-87461700D01*
X133579200Y-134786300D02*
X154029000Y-134786300D01*
X91321700Y-134620000D02*
X92278400Y-135576700D01*
X90170000Y-134620000D02*
X91321700Y-134620000D01*
X154195300Y-134620000D02*
X161925000Y-134620000D01*
X129632600Y-138732900D02*
X133579200Y-134786300D01*
X154029000Y-134786300D02*
X154195300Y-134620000D01*
X151661100Y-87461700D02*
X137458400Y-87461700D01*
X135255000Y-86360000D02*
X136356700Y-86360000D01*
X92278400Y-135576700D02*
X104422800Y-135576700D01*
X107579000Y-138732900D02*
X129632600Y-138732900D01*
X137458400Y-87461700D02*
X136356700Y-86360000D01*
X104422800Y-135576700D02*
X107579000Y-138732900D01*
X124706700Y-108524900D02*
X127529200Y-108524900D01*
X91321700Y-114156000D02*
X98032200Y-107445500D01*
X133255400Y-109686700D02*
X131052000Y-107483300D01*
X98032200Y-107445500D02*
X119299500Y-107445500D01*
X131052000Y-107483300D02*
X128570800Y-107483300D01*
X128570800Y-107483300D02*
X127529200Y-108524900D01*
X160443900Y-110013000D02*
X158223700Y-112233200D01*
X121567400Y-109713400D02*
X123518200Y-109713400D01*
X90170000Y-114300000D02*
X91321700Y-114300000D01*
X119299500Y-107445500D02*
X121567400Y-109713400D01*
X144783900Y-109686700D02*
X133255400Y-109686700D01*
X123518200Y-109713400D02*
X124706700Y-108524900D01*
X147330400Y-112233200D02*
X144783900Y-109686700D01*
X158223700Y-112233200D02*
X147330400Y-112233200D01*
X91321700Y-114300000D02*
X91321700Y-114156000D01*
X119790000Y-126888300D02*
X119790000Y-127009100D01*
X105262500Y-129376500D02*
X96661500Y-129376500D01*
X163080300Y-121418500D02*
X163080300Y-122486400D01*
X117850200Y-127547900D02*
X107091100Y-127547900D01*
X139843800Y-72390000D02*
X140050700Y-72596900D01*
X163080300Y-122486400D02*
X162376700Y-123190000D01*
X161295000Y-123190000D02*
X158831500Y-125653500D01*
X140050700Y-72596900D02*
X140107300Y-72596900D01*
X119790000Y-127009100D02*
X119461900Y-127337200D01*
X107091100Y-127547900D02*
X105262500Y-129376500D01*
X135245000Y-72390000D02*
X139843800Y-72390000D01*
X158831500Y-125653500D02*
X144082700Y-125653500D01*
X121024800Y-125653500D02*
X119790000Y-126888300D01*
X96661500Y-129376500D02*
X95887700Y-128602700D01*
X144082700Y-125653500D02*
X121024800Y-125653500D01*
X118161000Y-127237100D02*
X117850200Y-127547900D01*
X119461900Y-127337200D02*
X119379300Y-127337200D01*
X95887700Y-127163200D02*
X92419200Y-123694700D01*
X119379300Y-127337200D02*
X119279200Y-127237100D01*
X119279200Y-127237100D02*
X118161000Y-127237100D01*
X95887700Y-128602700D02*
X95887700Y-127163200D01*
X162376700Y-123190000D02*
X161295000Y-123190000D01*
X105595100Y-130179900D02*
X107423700Y-128351300D01*
X161925000Y-124460000D02*
X160773300Y-124460000D01*
X139433700Y-127126500D02*
X139486500Y-127073700D01*
X158159600Y-127073700D02*
X145657600Y-127073700D01*
X118493600Y-128040500D02*
X118946600Y-128040500D01*
X119794500Y-128140600D02*
X120739000Y-127196100D01*
X118946600Y-128040500D02*
X119046700Y-128140600D01*
X119046700Y-128140600D02*
X119794500Y-128140600D01*
X143510000Y-137795000D02*
X140970000Y-137795000D01*
X139486500Y-127073700D02*
X145657600Y-127073700D01*
X120739000Y-127196100D02*
X139364100Y-127196100D01*
X107423700Y-128351300D02*
X118182800Y-128351300D01*
X160773300Y-124460000D02*
X158159600Y-127073700D01*
X118182800Y-128351300D02*
X118493600Y-128040500D01*
X92559800Y-127339300D02*
X95400400Y-130179900D01*
X95400400Y-130179900D02*
X105595100Y-130179900D01*
X139364100Y-127196100D02*
X139433700Y-127126500D01*
X104765000Y-64770000D02*
X105866700Y-64770000D01*
X118751100Y-66040000D02*
X107136700Y-66040000D01*
X121432000Y-68720900D02*
X118751100Y-66040000D01*
X101444100Y-73660000D02*
X101666600Y-73437500D01*
X101666600Y-73660000D02*
X101666600Y-73437500D01*
X123936800Y-68720900D02*
X121432000Y-68720900D01*
X101666600Y-73437500D02*
X101666600Y-73660000D01*
X90170000Y-73660000D02*
X101444100Y-73660000D01*
X107136700Y-66040000D02*
X105866700Y-64770000D01*
X146643100Y-55856600D02*
X146878500Y-55621200D01*
X142272600Y-56021400D02*
X146478300Y-56021400D01*
X103463100Y-55853600D02*
X103848300Y-55468400D01*
X158001300Y-56988600D02*
X159341900Y-56988600D01*
X100133400Y-59183300D02*
X103296800Y-56019900D01*
X98262500Y-59183300D02*
X100133400Y-59183300D01*
X146643100Y-55856600D02*
X146478300Y-56021400D01*
X103463100Y-55853600D02*
X103296800Y-56019900D01*
X90170000Y-58420000D02*
X97499200Y-58420000D01*
X156633900Y-55621200D02*
X158001300Y-56988600D01*
X141719600Y-55468400D02*
X142272600Y-56021400D01*
X146878500Y-55621200D02*
X156633900Y-55621200D01*
X159341900Y-56988600D02*
X160773300Y-58420000D01*
X103463100Y-55853600D02*
X103296800Y-56019900D01*
X146643100Y-55856600D02*
X146478300Y-56021400D01*
X97499200Y-58420000D02*
X98262500Y-59183300D01*
X103848300Y-55468400D02*
X141719600Y-55468400D01*
X161925000Y-58420000D02*
X160773300Y-58420000D01*
X99954700Y-71119900D02*
X99954700Y-71120000D01*
X126939400Y-73492700D02*
X124735000Y-71288300D01*
X104214200Y-72390000D02*
X104765000Y-72390000D01*
X109970500Y-74103700D02*
X106478700Y-74103700D01*
X160330700Y-71120000D02*
X157958000Y-73492700D01*
X103663300Y-72390000D02*
X102433300Y-72390000D01*
X100309800Y-70764800D02*
X99954700Y-71119900D01*
X99954700Y-71120000D02*
X90170000Y-71120000D01*
X117048600Y-71288300D02*
X116792300Y-71544600D01*
X100808100Y-70764800D02*
X100309800Y-70764800D01*
X104214200Y-72390000D02*
X103663300Y-72390000D01*
X116792300Y-71544600D02*
X112529600Y-71544600D01*
X124735000Y-71288300D02*
X117048600Y-71288300D01*
X157958000Y-73492700D02*
X126939400Y-73492700D01*
X102433300Y-72390000D02*
X100808100Y-70764800D01*
X112529600Y-71544600D02*
X109970500Y-74103700D01*
X161925000Y-71120000D02*
X160330700Y-71120000D01*
X118016500Y-127949600D02*
X118327300Y-127638800D01*
X96461800Y-129778200D02*
X105428800Y-129778200D01*
X95120400Y-128436800D02*
X96461800Y-129778200D01*
X95120400Y-128118200D02*
X95120400Y-128436800D01*
X107257400Y-127949600D02*
X118016500Y-127949600D01*
X120191700Y-127054600D02*
X120451900Y-126794400D01*
X120451900Y-126794400D02*
X125840600Y-126794400D01*
X119628200Y-127738900D02*
X120191700Y-127175400D01*
X118327300Y-127638800D02*
X119112900Y-127638800D01*
X120191700Y-127175400D02*
X120191700Y-127054600D01*
X105428800Y-129778200D02*
X107257400Y-127949600D01*
X126242300Y-126392700D02*
X146306900Y-126392700D01*
X160773300Y-121920000D02*
X157759700Y-124933600D01*
X119112900Y-127638800D02*
X119213000Y-127738900D01*
X157759700Y-124933600D02*
X146737300Y-124933600D01*
X119213000Y-127738900D02*
X119628200Y-127738900D01*
X125840600Y-126794400D02*
X126242300Y-126392700D01*
X161925000Y-121920000D02*
X160773300Y-121920000D01*
X146737300Y-124933600D02*
X146240000Y-124436300D01*
X156777000Y-49077900D02*
X95453400Y-49077900D01*
X159857300Y-52158200D02*
X156777000Y-49077900D01*
X97145000Y-72390000D02*
X91321700Y-72390000D01*
X106561000Y-79672100D02*
X107465500Y-78767600D01*
X105053100Y-81280000D02*
X106561000Y-79772100D01*
X95706800Y-80129800D02*
X95706800Y-80129900D01*
X107465500Y-78767600D02*
X121988900Y-78767600D01*
X90170000Y-78740000D02*
X91321700Y-78740000D01*
X91321700Y-78740000D02*
X92711500Y-80129800D01*
X95706800Y-80129900D02*
X96856900Y-81280000D01*
X132075100Y-78058400D02*
X132305900Y-77827600D01*
X132305900Y-77827600D02*
X159860900Y-77827600D01*
X159860900Y-77827600D02*
X160773300Y-78740000D01*
X122698100Y-78058400D02*
X132075100Y-78058400D01*
X121988900Y-78767600D02*
X122698100Y-78058400D01*
X96856900Y-81280000D02*
X105053100Y-81280000D01*
X106561000Y-79772100D02*
X106561000Y-79672100D01*
X161925000Y-78740000D02*
X160773300Y-78740000D01*
X92711500Y-80129800D02*
X95706800Y-80129800D01*
X122545000Y-62230000D02*
X123646700Y-62230000D01*
X111983800Y-126365000D02*
X117475000Y-126365000D01*
X113961700Y-100986500D02*
X113068100Y-100092900D01*
X115349600Y-72390000D02*
X113108400Y-74631200D01*
X126358900Y-101388200D02*
X118517100Y-101388200D01*
X102969200Y-124460000D02*
X105410000Y-124460000D01*
X136784200Y-101031400D02*
X136427400Y-101388200D01*
X118517100Y-101388200D02*
X118115400Y-100986500D01*
X123646700Y-62230000D02*
X124766700Y-61110000D01*
X124766700Y-61110000D02*
X133023300Y-61110000D01*
X98539200Y-122720800D02*
X101230000Y-122720800D01*
X133023300Y-61110000D02*
X134143300Y-62230000D01*
X126987700Y-101257700D02*
X126489400Y-101257700D01*
X150328700Y-101031400D02*
X136784200Y-101031400D01*
X135245000Y-62230000D02*
X134143300Y-62230000D01*
X127118200Y-101388200D02*
X126987700Y-101257700D01*
X118115400Y-100986500D02*
X113961700Y-100986500D01*
X153570100Y-97790000D02*
X150328700Y-101031400D01*
X110713800Y-125095000D02*
X111983800Y-126365000D01*
X156963300Y-97790000D02*
X153570100Y-97790000D01*
X105410000Y-124460000D02*
X106045000Y-125095000D01*
X106045000Y-125095000D02*
X110713800Y-125095000D01*
X117505000Y-72390000D02*
X115349600Y-72390000D01*
X161925000Y-93980000D02*
X160773300Y-93980000D01*
X126489400Y-101257700D02*
X126358900Y-101388200D01*
X101230000Y-122720800D02*
X102969200Y-124460000D01*
X136427400Y-101388200D02*
X127118200Y-101388200D01*
X160773300Y-93980000D02*
X156963300Y-97790000D01*
X98561000Y-116840000D02*
X103511700Y-121790700D01*
X107462200Y-121790700D02*
X108394800Y-122723300D01*
X143180500Y-60960000D02*
X145776800Y-63556300D01*
X147945000Y-67310000D02*
X147945000Y-66208300D01*
X134395000Y-60960000D02*
X143180500Y-60960000D01*
X147807200Y-66208300D02*
X147945000Y-66208300D01*
X103511700Y-121790700D02*
X107462200Y-121790700D01*
X90170000Y-116840000D02*
X98561000Y-116840000D01*
X145776800Y-63556300D02*
X145776800Y-64177900D01*
X133125000Y-59690000D02*
X134395000Y-60960000D01*
X130165000Y-59690000D02*
X133125000Y-59690000D01*
X145776800Y-64177900D02*
X147807200Y-66208300D01*
X126198200Y-100980900D02*
X118677800Y-100980900D01*
X127154000Y-100856000D02*
X126323100Y-100856000D01*
X113220800Y-90028400D02*
X113682100Y-90489700D01*
X95977700Y-88844100D02*
X95977700Y-88040600D01*
X116284500Y-100584800D02*
X115677600Y-99977900D01*
X124785000Y-58551700D02*
X123646700Y-59690000D01*
X90170000Y-91440000D02*
X93381800Y-91440000D01*
X127278900Y-100980900D02*
X127154000Y-100856000D01*
X161925000Y-91440000D02*
X160773300Y-91440000D01*
X160773300Y-91440000D02*
X157131600Y-95081700D01*
X136382500Y-100865100D02*
X136266700Y-100980900D01*
X101160700Y-87790700D02*
X103398400Y-90028400D01*
X136266700Y-100980900D02*
X127278900Y-100980900D01*
X96227600Y-87790700D02*
X101160700Y-87790700D01*
X135245000Y-59690000D02*
X134143300Y-59690000D01*
X157131600Y-95081700D02*
X155458300Y-95081700D01*
X149910300Y-100629700D02*
X136617900Y-100629700D01*
X118281700Y-100584800D02*
X116284500Y-100584800D01*
X93381800Y-91440000D02*
X95977700Y-88844100D01*
X109885000Y-69850000D02*
X115507900Y-69850000D01*
X136617900Y-100629700D02*
X136382500Y-100865100D01*
X118677800Y-100980900D02*
X118281700Y-100584800D01*
X95977700Y-88040600D02*
X96227600Y-87790700D01*
X155458300Y-95081700D02*
X149910300Y-100629700D01*
X115507900Y-69850000D02*
X116543600Y-70885700D01*
X103398400Y-90028400D02*
X113220800Y-90028400D01*
X133005000Y-58551700D02*
X124785000Y-58551700D01*
X134143300Y-59690000D02*
X133005000Y-58551700D01*
X126323100Y-100856000D02*
X126198200Y-100980900D01*
X122545000Y-59690000D02*
X123646700Y-59690000D01*
X136382500Y-100865100D02*
X136266700Y-100980900D01*
X106860000Y-102593300D02*
X105866700Y-101600000D01*
X134153300Y-118745000D02*
X133043200Y-119855100D01*
X94119600Y-106422100D02*
X104398300Y-106422100D01*
X119083400Y-104238200D02*
X117438500Y-102593300D01*
X104398300Y-106422100D02*
X104456200Y-106364200D01*
X124766800Y-119855100D02*
X123656700Y-118745000D01*
X117438500Y-102593300D02*
X106860000Y-102593300D01*
X133043200Y-119855100D02*
X124766800Y-119855100D01*
X122555000Y-118745000D02*
X123656700Y-118745000D01*
X135255000Y-118745000D02*
X134153300Y-118745000D01*
X91321700Y-109220000D02*
X94119600Y-106422100D01*
X90170000Y-109220000D02*
X91321700Y-109220000D01*
X104765000Y-101600000D02*
X105866700Y-101600000D01*
X148937800Y-107458600D02*
X150830500Y-109351200D01*
X125160100Y-107081600D02*
X123656700Y-108585000D01*
X99420500Y-105762500D02*
X121739800Y-105762500D01*
X134704200Y-108585000D02*
X135830600Y-107458600D01*
X135830600Y-107458600D02*
X148937800Y-107458600D01*
X122555000Y-108585000D02*
X123656700Y-108585000D01*
X147955000Y-111125000D02*
X149056700Y-111125000D01*
X90170000Y-106680000D02*
X90745900Y-106680000D01*
X99362600Y-105820400D02*
X91605500Y-105820400D01*
X132649900Y-107081600D02*
X125160100Y-107081600D01*
X150830500Y-109351200D02*
X149056700Y-111125000D01*
X134153300Y-108585000D02*
X132649900Y-107081600D01*
X153501700Y-106680000D02*
X150830500Y-109351200D01*
X91605500Y-105820400D02*
X90745900Y-106680000D01*
X121739800Y-105762500D02*
X122085100Y-106107800D01*
X135255000Y-108585000D02*
X134704200Y-108585000D01*
X99362600Y-105820400D02*
X99420500Y-105762500D01*
X134704200Y-108585000D02*
X134153300Y-108585000D01*
X161925000Y-106680000D02*
X153501700Y-106680000D01*
X90170000Y-67191700D02*
X89882100Y-67191700D01*
X90170000Y-66475000D02*
X90170000Y-67191700D01*
X146315400Y-67253800D02*
X147500000Y-68438400D01*
X149030200Y-68438400D02*
X151428600Y-66040000D01*
X147500000Y-68438400D02*
X149030200Y-68438400D01*
X90170000Y-66040000D02*
X90170000Y-66475000D01*
X89802400Y-74930000D02*
X97145000Y-74930000D01*
X90170000Y-66475000D02*
X90773300Y-65871700D01*
X103763500Y-63641500D02*
X143318500Y-63641500D01*
X88977300Y-68096500D02*
X88977300Y-74104900D01*
X143318500Y-63641500D02*
X146315400Y-66638400D01*
X151428600Y-66040000D02*
X161925000Y-66040000D01*
X88977300Y-74104900D02*
X89802400Y-74930000D01*
X90773300Y-65871700D02*
X101533300Y-65871700D01*
X146315400Y-66638400D02*
X146315400Y-67253800D01*
X101533300Y-65871700D02*
X103763500Y-63641500D01*
X107600800Y-117592500D02*
X106706700Y-116698400D01*
X117475000Y-121285000D02*
X116373300Y-121285000D01*
X109885000Y-62230000D02*
X108783300Y-62230000D01*
X124776700Y-56020000D02*
X123646700Y-57150000D01*
X103663300Y-56684900D02*
X103663300Y-60599200D01*
X133406400Y-56020000D02*
X124776700Y-56020000D01*
X107681600Y-61128300D02*
X108783300Y-62230000D01*
X103663300Y-60599200D02*
X102497300Y-60599200D01*
X106706700Y-116698400D02*
X102099800Y-116698400D01*
X102099800Y-116698400D02*
X100020600Y-114619200D01*
X112680800Y-117592500D02*
X107600800Y-117592500D01*
X121443300Y-57150000D02*
X120313200Y-56019900D01*
X159857300Y-58375200D02*
X137571900Y-58375200D01*
X102497300Y-60599200D02*
X100085100Y-63011400D01*
X104328300Y-56019900D02*
X103663300Y-56684900D01*
X104192400Y-61128300D02*
X107681600Y-61128300D01*
X103663300Y-60599200D02*
X104192400Y-61128300D01*
X133456500Y-56070100D02*
X133406400Y-56020000D01*
X137571900Y-58375200D02*
X136346700Y-57150000D01*
X135245000Y-57150000D02*
X136346700Y-57150000D01*
X116373300Y-121285000D02*
X112680800Y-117592500D01*
X122545000Y-57150000D02*
X121443300Y-57150000D01*
X120313200Y-56019900D02*
X104328300Y-56019900D01*
X122545000Y-57150000D02*
X123646700Y-57150000D01*
X158515800Y-81562500D02*
X160773300Y-83820000D01*
X161925000Y-83820000D02*
X160773300Y-83820000D01*
X115992500Y-79772200D02*
X118768100Y-79772200D01*
X90170000Y-83820000D02*
X91321700Y-83820000D01*
X107300500Y-80173900D02*
X115590800Y-80173900D01*
X93058300Y-82083400D02*
X105391000Y-82083400D01*
X105391000Y-82083400D02*
X107300500Y-80173900D01*
X91321700Y-83820000D02*
X93058300Y-82083400D01*
X115590800Y-80173900D02*
X115992500Y-79772200D01*
X120859700Y-81863800D02*
X140533000Y-81863800D01*
X118768100Y-79772200D02*
X120859700Y-81863800D01*
X140533000Y-81863800D02*
X140834300Y-81562500D01*
X140834300Y-81562500D02*
X158515800Y-81562500D01*
X132022500Y-75051200D02*
X131023800Y-76049900D01*
X161925000Y-86360000D02*
X160773300Y-86360000D01*
X131023800Y-76049900D02*
X129465000Y-76049900D01*
X113374600Y-75292600D02*
X109630300Y-75292600D01*
X140133100Y-80843600D02*
X133924900Y-80843600D01*
X133889700Y-80808400D02*
X133889700Y-80843600D01*
X133332400Y-75051200D02*
X132022500Y-75051200D01*
X133924900Y-80843600D02*
X133889700Y-80808400D01*
X97145000Y-77470000D02*
X98246700Y-77470000D01*
X106338900Y-78590400D02*
X99367100Y-78590400D01*
X139848400Y-90170000D02*
X156963300Y-90170000D01*
X140056500Y-80843600D02*
X140133100Y-80843600D01*
X133889700Y-80843600D02*
X133889700Y-80808400D01*
X122948000Y-73774900D02*
X114892300Y-73774900D01*
X139848400Y-90170000D02*
X139848400Y-90128700D01*
X114892300Y-73774900D02*
X113374600Y-75292600D01*
X129465000Y-76049900D02*
X127360800Y-73945700D01*
X139065000Y-90170000D02*
X139848400Y-90170000D01*
X109082300Y-78093800D02*
X106835500Y-78093800D01*
X127360800Y-73945700D02*
X123118800Y-73945700D01*
X123118800Y-73945700D02*
X122948000Y-73774900D01*
X106835500Y-78093800D02*
X106338900Y-78590400D01*
X140133100Y-80843600D02*
X140056500Y-80843600D01*
X156963300Y-90170000D02*
X160773300Y-86360000D01*
X135255000Y-93980000D02*
X139065000Y-90170000D01*
X99367100Y-78590400D02*
X98246700Y-77470000D01*
X133041600Y-68748300D02*
X134143300Y-69850000D01*
X145619000Y-68711800D02*
X137484900Y-68711800D01*
X121146700Y-67310000D02*
X118606700Y-64770000D01*
X90170000Y-96520000D02*
X91220900Y-96520000D01*
X117505000Y-64770000D02*
X118606700Y-64770000D01*
X91220900Y-96520000D02*
X94872100Y-92868800D01*
X115051200Y-95336400D02*
X115901000Y-96186200D01*
X135245000Y-69850000D02*
X134143300Y-69850000D01*
X115008600Y-64707700D02*
X116341000Y-64707700D01*
X125085000Y-68748300D02*
X133041600Y-68748300D01*
X117505000Y-64770000D02*
X116403300Y-64770000D01*
X123646700Y-67310000D02*
X125085000Y-68748300D01*
X122545000Y-67310000D02*
X123646700Y-67310000D01*
X146633300Y-69726100D02*
X145619000Y-68711800D01*
X137484900Y-68711800D02*
X136346700Y-69850000D01*
X135245000Y-69850000D02*
X136346700Y-69850000D01*
X94872100Y-92868800D02*
X105997400Y-92868800D01*
X108465000Y-95336400D02*
X115051200Y-95336400D01*
X116341000Y-64707700D02*
X116403300Y-64770000D01*
X105997400Y-92868800D02*
X108465000Y-95336400D01*
X122545000Y-67310000D02*
X121146700Y-67310000D01*
X105846100Y-95363400D02*
X111870900Y-101388200D01*
X136593800Y-101789900D02*
X126738500Y-101789900D01*
X161925000Y-99060000D02*
X160773300Y-99060000D01*
X95079600Y-122971200D02*
X95972400Y-122078400D01*
X95972400Y-122078400D02*
X102561700Y-122078400D01*
X118350800Y-101789900D02*
X126738500Y-101789900D01*
X136950500Y-101433100D02*
X136597900Y-101785700D01*
X126738500Y-101859400D02*
X126738500Y-101789900D01*
X158400200Y-101433100D02*
X136950500Y-101433100D01*
X160773300Y-99060000D02*
X158400200Y-101433100D01*
X90170000Y-99060000D02*
X91321700Y-99060000D01*
X104775000Y-123190000D02*
X103673300Y-123190000D01*
X130165000Y-88900000D02*
X129063300Y-88900000D01*
X102561700Y-122078400D02*
X103673300Y-123190000D01*
X136597900Y-101785700D02*
X136597900Y-101785800D01*
X91321700Y-99060000D02*
X95018300Y-95363400D01*
X117949100Y-101388200D02*
X118350800Y-101789900D01*
X111870900Y-101388200D02*
X117949100Y-101388200D01*
X126523300Y-86360000D02*
X129063300Y-88900000D01*
X122545000Y-86360000D02*
X126523300Y-86360000D01*
X95018300Y-95363400D02*
X105846100Y-95363400D01*
X136597900Y-101785800D02*
X136593800Y-101789900D01*
X90170000Y-111760000D02*
X90170000Y-112335800D01*
X155526900Y-105668900D02*
X155691700Y-105504100D01*
X90170000Y-112335800D02*
X95501800Y-107004000D01*
X120698300Y-107004000D02*
X120940000Y-106762300D01*
X147939100Y-105904300D02*
X155291500Y-105904300D01*
X122281500Y-106762300D02*
X122363900Y-106679900D01*
X163114300Y-106177800D02*
X163114300Y-110570700D01*
X147163500Y-106679900D02*
X147939100Y-105904300D01*
X155291500Y-105904300D02*
X155526900Y-105668900D01*
X155691700Y-105504100D02*
X162440600Y-105504100D01*
X162440600Y-105504100D02*
X163114300Y-106177800D01*
X120940000Y-106762300D02*
X122281500Y-106762300D01*
X122363900Y-106679900D02*
X147163500Y-106679900D01*
X163114300Y-110570700D02*
X161925000Y-111760000D01*
X95501800Y-107004000D02*
X120698300Y-107004000D01*
X155526900Y-105668900D02*
X155691700Y-105504100D01*
X138029500Y-133873600D02*
X138475700Y-134319800D01*
X138029500Y-133410200D02*
X138029500Y-133873600D01*
X161925000Y-132080000D02*
X155565700Y-132080000D01*
X138889400Y-129068800D02*
X139543100Y-129722500D01*
X90170000Y-132080000D02*
X91321700Y-132080000D01*
X139543100Y-131896600D02*
X138029500Y-133410200D01*
X109855000Y-86360000D02*
X117475000Y-86360000D01*
X139543100Y-129722500D02*
X139543100Y-131896600D01*
X92016700Y-131385000D02*
X119381700Y-131385000D01*
X155565700Y-132080000D02*
X153531300Y-134114400D01*
X153531300Y-134114400D02*
X147526700Y-134114400D01*
X138475700Y-134319800D02*
X147321300Y-134319800D01*
X147321300Y-134319800D02*
X147526700Y-134114400D01*
X119404000Y-131362700D02*
X121697900Y-129068800D01*
X121697900Y-129068800D02*
X138889400Y-129068800D01*
X119381700Y-131385000D02*
X119404000Y-131362700D01*
X91321700Y-132080000D02*
X92016700Y-131385000D01*
X155606300Y-104821300D02*
X160324600Y-104821300D01*
X132714000Y-105361200D02*
X155066400Y-105361200D01*
X132569200Y-105506000D02*
X132714000Y-105361200D01*
X155066400Y-105361200D02*
X155606300Y-104821300D01*
X157135200Y-76057000D02*
X160716300Y-72475900D01*
X102561600Y-71288300D02*
X99853300Y-68580000D01*
X105866700Y-74930000D02*
X105866700Y-71887400D01*
X90170000Y-68580000D02*
X91321700Y-68580000D01*
X125759800Y-76482500D02*
X128561400Y-76482500D01*
X105866700Y-71887400D02*
X105267600Y-71288300D01*
X125442700Y-76165400D02*
X125759800Y-76482500D01*
X128561400Y-76482500D02*
X128932200Y-76853300D01*
X110524300Y-77964200D02*
X120002000Y-77964200D01*
X131811600Y-76617900D02*
X131947000Y-76482500D01*
X131576200Y-76853300D02*
X131811600Y-76617900D01*
X99853300Y-68580000D02*
X91321700Y-68580000D01*
X107490100Y-74930000D02*
X110524300Y-77964200D01*
X105315900Y-74930000D02*
X105866700Y-74930000D01*
X121800800Y-76165400D02*
X125442700Y-76165400D01*
X131947000Y-76482500D02*
X135946500Y-76482500D01*
X131811600Y-76617900D02*
X131947000Y-76482500D01*
X136372000Y-76057000D02*
X157135200Y-76057000D01*
X105866700Y-74930000D02*
X107490100Y-74930000D01*
X105267600Y-71288300D02*
X102561600Y-71288300D01*
X128932200Y-76853300D02*
X131576200Y-76853300D01*
X120002000Y-77964200D02*
X121800800Y-76165400D01*
X135946500Y-76482500D02*
X136372000Y-76057000D01*
X104765000Y-74930000D02*
X105315900Y-74930000D01*
X124447700Y-102636600D02*
X123202400Y-102636600D01*
X117616500Y-102191600D02*
X110972500Y-102191600D01*
X161925000Y-104140000D02*
X160773300Y-104140000D01*
X90170000Y-104140000D02*
X91321700Y-104140000D01*
X110972500Y-102191600D02*
X109110900Y-100330000D01*
X160773300Y-104140000D02*
X158668100Y-102034800D01*
X123202400Y-102636600D02*
X122976100Y-102862900D01*
X158668100Y-102034800D02*
X137199600Y-102034800D01*
X109110900Y-100330000D02*
X95131700Y-100330000D01*
X118287800Y-102862900D02*
X117616500Y-102191600D01*
X95131700Y-100330000D02*
X91321700Y-104140000D01*
X133934600Y-103079000D02*
X133718500Y-102862900D01*
X133718500Y-102862900D02*
X124674000Y-102862900D01*
X124674000Y-102862900D02*
X124447700Y-102636600D01*
X122976100Y-102862900D02*
X118287800Y-102862900D01*
X115590700Y-79605900D02*
X115826100Y-79370500D01*
X160654100Y-81160800D02*
X160773300Y-81280000D01*
X140668000Y-81160800D02*
X160654100Y-81160800D01*
X140583500Y-81245300D02*
X140668000Y-81160800D01*
X107128900Y-79772100D02*
X115424500Y-79772100D01*
X107128900Y-79772200D02*
X107128900Y-79772100D01*
X105219400Y-81681700D02*
X107128900Y-79772200D01*
X115590700Y-79605900D02*
X115424500Y-79772100D01*
X122987700Y-81445300D02*
X140382300Y-81445300D01*
X90170000Y-81280000D02*
X91321700Y-81280000D01*
X120912900Y-79370500D02*
X122987700Y-81445300D01*
X161925000Y-81280000D02*
X160773300Y-81280000D01*
X140582300Y-81245300D02*
X140583500Y-81245300D01*
X140382300Y-81445300D02*
X140582300Y-81245300D01*
X91321700Y-81280000D02*
X91723400Y-81681700D01*
X115590700Y-79605900D02*
X115424500Y-79772100D01*
X115826100Y-79370500D02*
X120912900Y-79370500D01*
X91723400Y-81681700D02*
X105219400Y-81681700D01*
X91321700Y-60960000D02*
X91321700Y-61036700D01*
X91321700Y-61036700D02*
X95055000Y-64770000D01*
X90170000Y-60960000D02*
X91321700Y-60960000D01*
X95055000Y-64770000D02*
X97145000Y-64770000D01*
X104765000Y-62230000D02*
X103663300Y-62230000D01*
X125593500Y-76884200D02*
X128395100Y-76884200D01*
X108092200Y-76200000D02*
X110258100Y-78365900D01*
X161925000Y-76200000D02*
X160773300Y-76200000D01*
X128765900Y-77255000D02*
X131742500Y-77255000D01*
X128395100Y-76884200D02*
X128765900Y-77255000D01*
X94748900Y-63613100D02*
X102280200Y-63613100D01*
X136546900Y-76650300D02*
X136713200Y-76484000D01*
X124459500Y-76885700D02*
X124778100Y-76567100D01*
X120168300Y-78365900D02*
X121648500Y-76885700D01*
X125276400Y-76567100D02*
X125593500Y-76884200D01*
X136546900Y-76650300D02*
X136713200Y-76484000D01*
X131742500Y-77255000D02*
X131977900Y-77019600D01*
X94109400Y-62973600D02*
X94748900Y-63613100D01*
X131977900Y-77019600D02*
X132113300Y-76884200D01*
X102280200Y-63613100D02*
X103663300Y-62230000D01*
X131977900Y-77019600D02*
X132113300Y-76884200D01*
X132113300Y-76884200D02*
X136313000Y-76884200D01*
X124778100Y-76567100D02*
X125276400Y-76567100D01*
X90170000Y-76200000D02*
X108092200Y-76200000D01*
X160773300Y-76200000D02*
X160489300Y-76484000D01*
X160489300Y-76484000D02*
X136713200Y-76484000D01*
X121648500Y-76885700D02*
X124459500Y-76885700D01*
X136313000Y-76884200D02*
X136546900Y-76650300D01*
X110258100Y-78365900D02*
X120168300Y-78365900D01*
X106198400Y-133518300D02*
X116916400Y-133518300D01*
X116916400Y-133518300D02*
X118053900Y-134655800D01*
X118053900Y-134655800D02*
X118053900Y-136539800D01*
X104140000Y-133525000D02*
X106191700Y-133525000D01*
X106191700Y-133525000D02*
X106198400Y-133518300D01*
X117505000Y-59690000D02*
X109885000Y-59690000D01*
X109885000Y-67310000D02*
X117505000Y-67310000D01*
X132375400Y-70958700D02*
X131266700Y-69850000D01*
X148572700Y-70958700D02*
X132375400Y-70958700D01*
X130165000Y-69850000D02*
X131266700Y-69850000D01*
X152221400Y-67310000D02*
X148572700Y-70958700D01*
X155565000Y-67310000D02*
X152221400Y-67310000D01*
X142875000Y-88900000D02*
X136813100Y-88900000D01*
X136813100Y-88900000D02*
X135554800Y-87641700D01*
X135554800Y-87641700D02*
X132742900Y-87641700D01*
X150532400Y-69850000D02*
X149096400Y-71286000D01*
X154463300Y-69850000D02*
X150532400Y-69850000D01*
X142875000Y-91440000D02*
X146089200Y-91440000D01*
X146089200Y-91440000D02*
X146248000Y-91598800D01*
X155565000Y-69850000D02*
X154463300Y-69850000D01*
X131266700Y-67310000D02*
X132368400Y-66208300D01*
X142875000Y-86360000D02*
X138932500Y-86360000D01*
X138932500Y-86360000D02*
X138300400Y-85727900D01*
X132368400Y-66208300D02*
X138838300Y-66208300D01*
X130165000Y-67310000D02*
X131266700Y-67310000D01*
X138838300Y-66208300D02*
X139406800Y-65639800D01*
X146887600Y-82273100D02*
X146980300Y-82180400D01*
X109855000Y-83820000D02*
X112718600Y-83820000D01*
X118401600Y-80173900D02*
X120500800Y-82273100D01*
X116364700Y-80173900D02*
X118401600Y-80173900D01*
X120500800Y-82273100D02*
X146887600Y-82273100D01*
X112718600Y-83820000D02*
X116364700Y-80173900D01*
X142110600Y-55008600D02*
X103087900Y-55008600D01*
X103087900Y-55008600D02*
X100803300Y-57293200D01*
X100803300Y-57293200D02*
X99759300Y-57293200D01*
X141763300Y-64770000D02*
X138323300Y-68210000D01*
X142865000Y-64770000D02*
X141763300Y-64770000D01*
X121053200Y-66325300D02*
X121214700Y-66163800D01*
X121214700Y-66163800D02*
X121053200Y-66325300D01*
X133824400Y-68027700D02*
X131573500Y-68027700D01*
X131573500Y-68027700D02*
X131476500Y-68124700D01*
X131476500Y-68124700D02*
X131573500Y-68027700D01*
X138323300Y-68210000D02*
X136861100Y-68210000D01*
X126559300Y-66163800D02*
X127529200Y-67133700D01*
X134262400Y-68465700D02*
X133824400Y-68027700D01*
X121214700Y-66163800D02*
X126559300Y-66163800D01*
X136605400Y-68465700D02*
X134262400Y-68465700D01*
X136861100Y-68210000D02*
X136605400Y-68465700D01*
X117475000Y-96520000D02*
X118576700Y-96520000D01*
X119678400Y-95418300D02*
X135374800Y-95418300D01*
X118576700Y-96520000D02*
X119678400Y-95418300D01*
X137093500Y-93699600D02*
X137093500Y-93537900D01*
X135374800Y-95418300D02*
X137093500Y-93699600D01*
X109855000Y-113665000D02*
X115916900Y-113665000D01*
X115916900Y-113665000D02*
X117026700Y-112555200D01*
X117026700Y-112555200D02*
X127963500Y-112555200D01*
X127963500Y-112555200D02*
X129073300Y-113665000D01*
X130175000Y-113665000D02*
X129073300Y-113665000D01*
X117475000Y-116205000D02*
X118576700Y-116205000D01*
X153882700Y-115025900D02*
X119755800Y-115025900D01*
X119755800Y-115025900D02*
X118576700Y-116205000D01*
X154395300Y-114513300D02*
X153882700Y-115025900D01*
X118460700Y-109686700D02*
X120581300Y-111807300D01*
X110956700Y-108585000D02*
X112058400Y-109686700D01*
X109855000Y-108585000D02*
X110956700Y-108585000D01*
X112058400Y-109686700D02*
X118460700Y-109686700D01*
X135805900Y-113665000D02*
X135255000Y-113665000D01*
X117475000Y-113665000D02*
X119763400Y-113665000D01*
X131980800Y-112395000D02*
X128509600Y-112395000D01*
X128509600Y-112395000D02*
X127493200Y-111378600D01*
X139503700Y-113610500D02*
X136411200Y-113610500D01*
X127493200Y-111378600D02*
X125015200Y-111378600D01*
X119763400Y-113665000D02*
X119888900Y-113790500D01*
X136411200Y-113610500D02*
X136356700Y-113665000D01*
X135255000Y-113665000D02*
X133250800Y-113665000D01*
X133250800Y-113665000D02*
X131980800Y-112395000D01*
X135805900Y-113665000D02*
X136356700Y-113665000D01*
X120885300Y-84921700D02*
X118008700Y-87798300D01*
X135255000Y-83820000D02*
X134153300Y-83820000D01*
X133051600Y-84921700D02*
X120885300Y-84921700D01*
X134153300Y-83820000D02*
X133051600Y-84921700D01*
X112058400Y-87798300D02*
X110956700Y-88900000D01*
X118008700Y-87798300D02*
X112058400Y-87798300D01*
X109855000Y-88900000D02*
X110956700Y-88900000D01*
X142017300Y-128520900D02*
X141877000Y-128661200D01*
X106685100Y-130983300D02*
X107719100Y-129949300D01*
X142017300Y-128520900D02*
X141877000Y-128661200D01*
X107719100Y-129949300D02*
X107877300Y-129791100D01*
X90170000Y-129540000D02*
X91321700Y-129540000D01*
X142017300Y-128520900D02*
X159754200Y-128520900D01*
X91321700Y-129540000D02*
X92765000Y-130983300D01*
X92765000Y-130983300D02*
X106685100Y-130983300D01*
X141877000Y-128661200D02*
X141875500Y-128662700D01*
X121429400Y-128662700D02*
X120301000Y-129791100D01*
X107719100Y-129949300D02*
X107877300Y-129791100D01*
X159754200Y-128520900D02*
X160773300Y-129540000D01*
X161925000Y-129540000D02*
X160773300Y-129540000D01*
X120301000Y-129791100D02*
X107877300Y-129791100D01*
X141875500Y-128662700D02*
X121429400Y-128662700D01*
X115300100Y-68746800D02*
X107303500Y-68746800D01*
X104765000Y-67310000D02*
X105866700Y-67310000D01*
X117505000Y-69850000D02*
X116403300Y-69850000D01*
X116403300Y-69850000D02*
X115300100Y-68746800D01*
X107303500Y-68746800D02*
X105866700Y-67310000D01*
X116403300Y-62230000D02*
X115301600Y-61128300D01*
X117505000Y-62230000D02*
X116403300Y-62230000D01*
X115301600Y-61128300D02*
X109279100Y-61128300D01*
X107840800Y-59690000D02*
X104765000Y-59690000D01*
X109279100Y-61128300D02*
X107840800Y-59690000D01*
X102404800Y-83309800D02*
X99338400Y-86376200D01*
X108753300Y-81280000D02*
X106723500Y-83309800D01*
X106723500Y-83309800D02*
X102404800Y-83309800D01*
X99338400Y-86376200D02*
X97062000Y-86376200D01*
X94900400Y-88537800D02*
X94900400Y-89036600D01*
X97062000Y-86376200D02*
X94900400Y-88537800D01*
X109855000Y-81280000D02*
X108753300Y-81280000D01*
X124614000Y-102234900D02*
X123036100Y-102234900D01*
X117782800Y-101789900D02*
X111704600Y-101789900D01*
X147072400Y-102636600D02*
X134425700Y-102636600D01*
X134425700Y-102636600D02*
X134250300Y-102461200D01*
X105868900Y-96520000D02*
X105866700Y-96520000D01*
X104765000Y-96520000D02*
X105866700Y-96520000D01*
X134250300Y-102461200D02*
X124840300Y-102461200D01*
X124840300Y-102461200D02*
X124614000Y-102234900D01*
X118454100Y-102461200D02*
X117782800Y-101789900D01*
X111225900Y-101311200D02*
X110660100Y-101311200D01*
X122809800Y-102461200D02*
X118454100Y-102461200D01*
X111704600Y-101789900D02*
X111225900Y-101311200D01*
X110660100Y-101311200D02*
X105868900Y-96520000D01*
X123036100Y-102234900D02*
X122809800Y-102461200D01*
X147230800Y-102795000D02*
X147072400Y-102636600D01*
X130165000Y-91440000D02*
X129063300Y-91440000D01*
X117475000Y-91440000D02*
X118576700Y-91440000D01*
X118576700Y-91440000D02*
X119746700Y-90270000D01*
X119746700Y-90270000D02*
X127893300Y-90270000D01*
X127893300Y-90270000D02*
X129063300Y-91440000D01*
X146853300Y-113665000D02*
X145750100Y-112561800D01*
X145750100Y-112561800D02*
X137793500Y-112561800D01*
X132543900Y-110926200D02*
X133954500Y-110926200D01*
X135255000Y-111125000D02*
X134153300Y-111125000D01*
X132543900Y-110926200D02*
X131604400Y-109986700D01*
X122555000Y-111125000D02*
X123656700Y-111125000D01*
X131604400Y-109986700D02*
X124795000Y-109986700D01*
X137793500Y-112561800D02*
X136356700Y-111125000D01*
X133954500Y-110926200D02*
X134153300Y-111125000D01*
X135255000Y-111125000D02*
X136356700Y-111125000D01*
X124795000Y-109986700D02*
X123656700Y-111125000D01*
X147955000Y-113665000D02*
X146853300Y-113665000D01*
X137643500Y-115958900D02*
X139327900Y-117643300D01*
X153371600Y-117643300D02*
X154473300Y-118745000D01*
X139327900Y-117643300D02*
X153371600Y-117643300D01*
X155575000Y-118745000D02*
X154473300Y-118745000D01*
X154334100Y-113525800D02*
X151274600Y-113525800D01*
X154473300Y-113665000D02*
X154334100Y-113525800D01*
X155575000Y-113665000D02*
X154473300Y-113665000D01*
X135618400Y-112226700D02*
X132409800Y-112226700D01*
X141468600Y-113794600D02*
X140637500Y-112963500D01*
X140637500Y-112963500D02*
X136355200Y-112963500D01*
X132409800Y-112226700D02*
X131308100Y-111125000D01*
X136355200Y-112963500D02*
X135618400Y-112226700D01*
X131308100Y-111125000D02*
X131276700Y-111125000D01*
X130175000Y-111125000D02*
X131276700Y-111125000D01*
X135255000Y-121285000D02*
X142875000Y-121285000D01*
X143510000Y-130175000D02*
X146050000Y-130175000D01*
X148590000Y-130175000D02*
X146050000Y-130175000D01*
X152568300Y-130403300D02*
X149458900Y-133512700D01*
X153670000Y-130175000D02*
X152568300Y-130175000D01*
X149458900Y-133512700D02*
X138837400Y-133512700D01*
X152568300Y-130175000D02*
X152568300Y-130403300D01*
X138837400Y-133512700D02*
X138678900Y-133671200D01*
X142071700Y-130175000D02*
X142071700Y-130037300D01*
X142071700Y-130037300D02*
X143075600Y-129033400D01*
X143075600Y-129033400D02*
X157248500Y-129033400D01*
X140970000Y-130175000D02*
X142071700Y-130175000D01*
X157248500Y-129033400D02*
X157690500Y-129475400D01*
X99418900Y-114941800D02*
X103727700Y-119250600D01*
X99418900Y-114027100D02*
X99418900Y-114941800D01*
X103727700Y-119250600D02*
X108247700Y-119250600D01*
X108247700Y-119250600D02*
X108753300Y-118745000D01*
X99583700Y-113862300D02*
X99418900Y-114027100D01*
X109855000Y-118745000D02*
X108753300Y-118745000D01*
X161925000Y-116840000D02*
X161620400Y-116840000D01*
M02*
