G04 #@! TF.GenerationSoftware,KiCad,Pcbnew,8.0.9-8.0.9-0~ubuntu22.04.1*
G04 #@! TF.CreationDate,2025-07-24T17:31:40+10:00*
G04 #@! TF.ProjectId,UE14500-TTL,55453134-3530-4302-9d54-544c2e6b6963,rev?*
G04 #@! TF.SameCoordinates,Original*
G04 #@! TF.FileFunction,Legend,Bot*
G04 #@! TF.FilePolarity,Positive*
%FSLAX46Y46*%
G04 Gerber Fmt 4.6, Leading zero omitted, Abs format (unit mm)*
G04 Created by KiCad (PCBNEW 8.0.9-8.0.9-0~ubuntu22.04.1) date 2025-07-24 17:31:40*
%MOMM*%
%LPD*%
G01*
G04 APERTURE LIST*
%ADD10C,0.200000*%
G04 APERTURE END LIST*
D10*
X126867219Y-85459673D02*
X125867219Y-85459673D01*
X125867219Y-85459673D02*
X125867219Y-85697768D01*
X125867219Y-85697768D02*
X125914838Y-85840625D01*
X125914838Y-85840625D02*
X126010076Y-85935863D01*
X126010076Y-85935863D02*
X126105314Y-85983482D01*
X126105314Y-85983482D02*
X126295790Y-86031101D01*
X126295790Y-86031101D02*
X126438647Y-86031101D01*
X126438647Y-86031101D02*
X126629123Y-85983482D01*
X126629123Y-85983482D02*
X126724361Y-85935863D01*
X126724361Y-85935863D02*
X126819600Y-85840625D01*
X126819600Y-85840625D02*
X126867219Y-85697768D01*
X126867219Y-85697768D02*
X126867219Y-85459673D01*
X126819600Y-86840625D02*
X126867219Y-86745387D01*
X126867219Y-86745387D02*
X126867219Y-86554911D01*
X126867219Y-86554911D02*
X126819600Y-86459673D01*
X126819600Y-86459673D02*
X126724361Y-86412054D01*
X126724361Y-86412054D02*
X126343409Y-86412054D01*
X126343409Y-86412054D02*
X126248171Y-86459673D01*
X126248171Y-86459673D02*
X126200552Y-86554911D01*
X126200552Y-86554911D02*
X126200552Y-86745387D01*
X126200552Y-86745387D02*
X126248171Y-86840625D01*
X126248171Y-86840625D02*
X126343409Y-86888244D01*
X126343409Y-86888244D02*
X126438647Y-86888244D01*
X126438647Y-86888244D02*
X126533885Y-86412054D01*
X126819600Y-87269197D02*
X126867219Y-87364435D01*
X126867219Y-87364435D02*
X126867219Y-87554911D01*
X126867219Y-87554911D02*
X126819600Y-87650149D01*
X126819600Y-87650149D02*
X126724361Y-87697768D01*
X126724361Y-87697768D02*
X126676742Y-87697768D01*
X126676742Y-87697768D02*
X126581504Y-87650149D01*
X126581504Y-87650149D02*
X126533885Y-87554911D01*
X126533885Y-87554911D02*
X126533885Y-87412054D01*
X126533885Y-87412054D02*
X126486266Y-87316816D01*
X126486266Y-87316816D02*
X126391028Y-87269197D01*
X126391028Y-87269197D02*
X126343409Y-87269197D01*
X126343409Y-87269197D02*
X126248171Y-87316816D01*
X126248171Y-87316816D02*
X126200552Y-87412054D01*
X126200552Y-87412054D02*
X126200552Y-87554911D01*
X126200552Y-87554911D02*
X126248171Y-87650149D01*
X126867219Y-88126340D02*
X126200552Y-88126340D01*
X125867219Y-88126340D02*
X125914838Y-88078721D01*
X125914838Y-88078721D02*
X125962457Y-88126340D01*
X125962457Y-88126340D02*
X125914838Y-88173959D01*
X125914838Y-88173959D02*
X125867219Y-88126340D01*
X125867219Y-88126340D02*
X125962457Y-88126340D01*
X126200552Y-89031101D02*
X127010076Y-89031101D01*
X127010076Y-89031101D02*
X127105314Y-88983482D01*
X127105314Y-88983482D02*
X127152933Y-88935863D01*
X127152933Y-88935863D02*
X127200552Y-88840625D01*
X127200552Y-88840625D02*
X127200552Y-88697768D01*
X127200552Y-88697768D02*
X127152933Y-88602530D01*
X126819600Y-89031101D02*
X126867219Y-88935863D01*
X126867219Y-88935863D02*
X126867219Y-88745387D01*
X126867219Y-88745387D02*
X126819600Y-88650149D01*
X126819600Y-88650149D02*
X126771980Y-88602530D01*
X126771980Y-88602530D02*
X126676742Y-88554911D01*
X126676742Y-88554911D02*
X126391028Y-88554911D01*
X126391028Y-88554911D02*
X126295790Y-88602530D01*
X126295790Y-88602530D02*
X126248171Y-88650149D01*
X126248171Y-88650149D02*
X126200552Y-88745387D01*
X126200552Y-88745387D02*
X126200552Y-88935863D01*
X126200552Y-88935863D02*
X126248171Y-89031101D01*
X126200552Y-89507292D02*
X126867219Y-89507292D01*
X126295790Y-89507292D02*
X126248171Y-89554911D01*
X126248171Y-89554911D02*
X126200552Y-89650149D01*
X126200552Y-89650149D02*
X126200552Y-89793006D01*
X126200552Y-89793006D02*
X126248171Y-89888244D01*
X126248171Y-89888244D02*
X126343409Y-89935863D01*
X126343409Y-89935863D02*
X126867219Y-89935863D01*
X126867219Y-91173959D02*
X125867219Y-91173959D01*
X126248171Y-91173959D02*
X126200552Y-91269197D01*
X126200552Y-91269197D02*
X126200552Y-91459673D01*
X126200552Y-91459673D02*
X126248171Y-91554911D01*
X126248171Y-91554911D02*
X126295790Y-91602530D01*
X126295790Y-91602530D02*
X126391028Y-91650149D01*
X126391028Y-91650149D02*
X126676742Y-91650149D01*
X126676742Y-91650149D02*
X126771980Y-91602530D01*
X126771980Y-91602530D02*
X126819600Y-91554911D01*
X126819600Y-91554911D02*
X126867219Y-91459673D01*
X126867219Y-91459673D02*
X126867219Y-91269197D01*
X126867219Y-91269197D02*
X126819600Y-91173959D01*
X126200552Y-91983483D02*
X126867219Y-92221578D01*
X126200552Y-92459673D02*
X126867219Y-92221578D01*
X126867219Y-92221578D02*
X127105314Y-92126340D01*
X127105314Y-92126340D02*
X127152933Y-92078721D01*
X127152933Y-92078721D02*
X127200552Y-91983483D01*
X126867219Y-94173959D02*
X126391028Y-93840626D01*
X126867219Y-93602531D02*
X125867219Y-93602531D01*
X125867219Y-93602531D02*
X125867219Y-93983483D01*
X125867219Y-93983483D02*
X125914838Y-94078721D01*
X125914838Y-94078721D02*
X125962457Y-94126340D01*
X125962457Y-94126340D02*
X126057695Y-94173959D01*
X126057695Y-94173959D02*
X126200552Y-94173959D01*
X126200552Y-94173959D02*
X126295790Y-94126340D01*
X126295790Y-94126340D02*
X126343409Y-94078721D01*
X126343409Y-94078721D02*
X126391028Y-93983483D01*
X126391028Y-93983483D02*
X126391028Y-93602531D01*
X126867219Y-94602531D02*
X125867219Y-94602531D01*
X126867219Y-95031102D02*
X126343409Y-95031102D01*
X126343409Y-95031102D02*
X126248171Y-94983483D01*
X126248171Y-94983483D02*
X126200552Y-94888245D01*
X126200552Y-94888245D02*
X126200552Y-94745388D01*
X126200552Y-94745388D02*
X126248171Y-94650150D01*
X126248171Y-94650150D02*
X126295790Y-94602531D01*
X126200552Y-95412055D02*
X126867219Y-95650150D01*
X126200552Y-95888245D02*
X126867219Y-95650150D01*
X126867219Y-95650150D02*
X127105314Y-95554912D01*
X127105314Y-95554912D02*
X127152933Y-95507293D01*
X127152933Y-95507293D02*
X127200552Y-95412055D01*
X126819600Y-96221579D02*
X126867219Y-96316817D01*
X126867219Y-96316817D02*
X126867219Y-96507293D01*
X126867219Y-96507293D02*
X126819600Y-96602531D01*
X126819600Y-96602531D02*
X126724361Y-96650150D01*
X126724361Y-96650150D02*
X126676742Y-96650150D01*
X126676742Y-96650150D02*
X126581504Y-96602531D01*
X126581504Y-96602531D02*
X126533885Y-96507293D01*
X126533885Y-96507293D02*
X126533885Y-96364436D01*
X126533885Y-96364436D02*
X126486266Y-96269198D01*
X126486266Y-96269198D02*
X126391028Y-96221579D01*
X126391028Y-96221579D02*
X126343409Y-96221579D01*
X126343409Y-96221579D02*
X126248171Y-96269198D01*
X126248171Y-96269198D02*
X126200552Y-96364436D01*
X126200552Y-96364436D02*
X126200552Y-96507293D01*
X126200552Y-96507293D02*
X126248171Y-96602531D01*
X125867219Y-97745389D02*
X126867219Y-97983484D01*
X126867219Y-97983484D02*
X126152933Y-98173960D01*
X126152933Y-98173960D02*
X126867219Y-98364436D01*
X126867219Y-98364436D02*
X125867219Y-98602532D01*
X126819600Y-99364436D02*
X126867219Y-99269198D01*
X126867219Y-99269198D02*
X126867219Y-99078722D01*
X126867219Y-99078722D02*
X126819600Y-98983484D01*
X126819600Y-98983484D02*
X126724361Y-98935865D01*
X126724361Y-98935865D02*
X126343409Y-98935865D01*
X126343409Y-98935865D02*
X126248171Y-98983484D01*
X126248171Y-98983484D02*
X126200552Y-99078722D01*
X126200552Y-99078722D02*
X126200552Y-99269198D01*
X126200552Y-99269198D02*
X126248171Y-99364436D01*
X126248171Y-99364436D02*
X126343409Y-99412055D01*
X126343409Y-99412055D02*
X126438647Y-99412055D01*
X126438647Y-99412055D02*
X126533885Y-98935865D01*
X126867219Y-100269198D02*
X126343409Y-100269198D01*
X126343409Y-100269198D02*
X126248171Y-100221579D01*
X126248171Y-100221579D02*
X126200552Y-100126341D01*
X126200552Y-100126341D02*
X126200552Y-99935865D01*
X126200552Y-99935865D02*
X126248171Y-99840627D01*
X126819600Y-100269198D02*
X126867219Y-100173960D01*
X126867219Y-100173960D02*
X126867219Y-99935865D01*
X126867219Y-99935865D02*
X126819600Y-99840627D01*
X126819600Y-99840627D02*
X126724361Y-99793008D01*
X126724361Y-99793008D02*
X126629123Y-99793008D01*
X126629123Y-99793008D02*
X126533885Y-99840627D01*
X126533885Y-99840627D02*
X126486266Y-99935865D01*
X126486266Y-99935865D02*
X126486266Y-100173960D01*
X126486266Y-100173960D02*
X126438647Y-100269198D01*
X126200552Y-100602532D02*
X126200552Y-100983484D01*
X125867219Y-100745389D02*
X126724361Y-100745389D01*
X126724361Y-100745389D02*
X126819600Y-100793008D01*
X126819600Y-100793008D02*
X126867219Y-100888246D01*
X126867219Y-100888246D02*
X126867219Y-100983484D01*
X126867219Y-101316818D02*
X125867219Y-101316818D01*
X126867219Y-101745389D02*
X126343409Y-101745389D01*
X126343409Y-101745389D02*
X126248171Y-101697770D01*
X126248171Y-101697770D02*
X126200552Y-101602532D01*
X126200552Y-101602532D02*
X126200552Y-101459675D01*
X126200552Y-101459675D02*
X126248171Y-101364437D01*
X126248171Y-101364437D02*
X126295790Y-101316818D01*
X126819600Y-102602532D02*
X126867219Y-102507294D01*
X126867219Y-102507294D02*
X126867219Y-102316818D01*
X126867219Y-102316818D02*
X126819600Y-102221580D01*
X126819600Y-102221580D02*
X126724361Y-102173961D01*
X126724361Y-102173961D02*
X126343409Y-102173961D01*
X126343409Y-102173961D02*
X126248171Y-102221580D01*
X126248171Y-102221580D02*
X126200552Y-102316818D01*
X126200552Y-102316818D02*
X126200552Y-102507294D01*
X126200552Y-102507294D02*
X126248171Y-102602532D01*
X126248171Y-102602532D02*
X126343409Y-102650151D01*
X126343409Y-102650151D02*
X126438647Y-102650151D01*
X126438647Y-102650151D02*
X126533885Y-102173961D01*
X126867219Y-103078723D02*
X126200552Y-103078723D01*
X126391028Y-103078723D02*
X126295790Y-103126342D01*
X126295790Y-103126342D02*
X126248171Y-103173961D01*
X126248171Y-103173961D02*
X126200552Y-103269199D01*
X126200552Y-103269199D02*
X126200552Y-103364437D01*
X126867219Y-103840628D02*
X126819600Y-103745390D01*
X126819600Y-103745390D02*
X126724361Y-103697771D01*
X126724361Y-103697771D02*
X125867219Y-103697771D01*
X126819600Y-104602533D02*
X126867219Y-104507295D01*
X126867219Y-104507295D02*
X126867219Y-104316819D01*
X126867219Y-104316819D02*
X126819600Y-104221581D01*
X126819600Y-104221581D02*
X126724361Y-104173962D01*
X126724361Y-104173962D02*
X126343409Y-104173962D01*
X126343409Y-104173962D02*
X126248171Y-104221581D01*
X126248171Y-104221581D02*
X126200552Y-104316819D01*
X126200552Y-104316819D02*
X126200552Y-104507295D01*
X126200552Y-104507295D02*
X126248171Y-104602533D01*
X126248171Y-104602533D02*
X126343409Y-104650152D01*
X126343409Y-104650152D02*
X126438647Y-104650152D01*
X126438647Y-104650152D02*
X126533885Y-104173962D01*
X126200552Y-104983486D02*
X126867219Y-105221581D01*
X126200552Y-105459676D02*
X126867219Y-105221581D01*
X126867219Y-105221581D02*
X127105314Y-105126343D01*
X127105314Y-105126343D02*
X127152933Y-105078724D01*
X127152933Y-105078724D02*
X127200552Y-104983486D01*
X126819600Y-105888248D02*
X126867219Y-105888248D01*
X126867219Y-105888248D02*
X126962457Y-105840629D01*
X126962457Y-105840629D02*
X127010076Y-105793010D01*
X125867219Y-106935867D02*
X126867219Y-107269200D01*
X126867219Y-107269200D02*
X125867219Y-107602533D01*
X126819600Y-108316819D02*
X126867219Y-108221581D01*
X126867219Y-108221581D02*
X126867219Y-108031105D01*
X126867219Y-108031105D02*
X126819600Y-107935867D01*
X126819600Y-107935867D02*
X126724361Y-107888248D01*
X126724361Y-107888248D02*
X126343409Y-107888248D01*
X126343409Y-107888248D02*
X126248171Y-107935867D01*
X126248171Y-107935867D02*
X126200552Y-108031105D01*
X126200552Y-108031105D02*
X126200552Y-108221581D01*
X126200552Y-108221581D02*
X126248171Y-108316819D01*
X126248171Y-108316819D02*
X126343409Y-108364438D01*
X126343409Y-108364438D02*
X126438647Y-108364438D01*
X126438647Y-108364438D02*
X126533885Y-107888248D01*
X126867219Y-108793010D02*
X126200552Y-108793010D01*
X126391028Y-108793010D02*
X126295790Y-108840629D01*
X126295790Y-108840629D02*
X126248171Y-108888248D01*
X126248171Y-108888248D02*
X126200552Y-108983486D01*
X126200552Y-108983486D02*
X126200552Y-109078724D01*
X126819600Y-109364439D02*
X126867219Y-109459677D01*
X126867219Y-109459677D02*
X126867219Y-109650153D01*
X126867219Y-109650153D02*
X126819600Y-109745391D01*
X126819600Y-109745391D02*
X126724361Y-109793010D01*
X126724361Y-109793010D02*
X126676742Y-109793010D01*
X126676742Y-109793010D02*
X126581504Y-109745391D01*
X126581504Y-109745391D02*
X126533885Y-109650153D01*
X126533885Y-109650153D02*
X126533885Y-109507296D01*
X126533885Y-109507296D02*
X126486266Y-109412058D01*
X126486266Y-109412058D02*
X126391028Y-109364439D01*
X126391028Y-109364439D02*
X126343409Y-109364439D01*
X126343409Y-109364439D02*
X126248171Y-109412058D01*
X126248171Y-109412058D02*
X126200552Y-109507296D01*
X126200552Y-109507296D02*
X126200552Y-109650153D01*
X126200552Y-109650153D02*
X126248171Y-109745391D01*
X126867219Y-110221582D02*
X126200552Y-110221582D01*
X125867219Y-110221582D02*
X125914838Y-110173963D01*
X125914838Y-110173963D02*
X125962457Y-110221582D01*
X125962457Y-110221582D02*
X125914838Y-110269201D01*
X125914838Y-110269201D02*
X125867219Y-110221582D01*
X125867219Y-110221582D02*
X125962457Y-110221582D01*
X126867219Y-110840629D02*
X126819600Y-110745391D01*
X126819600Y-110745391D02*
X126771980Y-110697772D01*
X126771980Y-110697772D02*
X126676742Y-110650153D01*
X126676742Y-110650153D02*
X126391028Y-110650153D01*
X126391028Y-110650153D02*
X126295790Y-110697772D01*
X126295790Y-110697772D02*
X126248171Y-110745391D01*
X126248171Y-110745391D02*
X126200552Y-110840629D01*
X126200552Y-110840629D02*
X126200552Y-110983486D01*
X126200552Y-110983486D02*
X126248171Y-111078724D01*
X126248171Y-111078724D02*
X126295790Y-111126343D01*
X126295790Y-111126343D02*
X126391028Y-111173962D01*
X126391028Y-111173962D02*
X126676742Y-111173962D01*
X126676742Y-111173962D02*
X126771980Y-111126343D01*
X126771980Y-111126343D02*
X126819600Y-111078724D01*
X126819600Y-111078724D02*
X126867219Y-110983486D01*
X126867219Y-110983486D02*
X126867219Y-110840629D01*
X126200552Y-111602534D02*
X126867219Y-111602534D01*
X126295790Y-111602534D02*
X126248171Y-111650153D01*
X126248171Y-111650153D02*
X126200552Y-111745391D01*
X126200552Y-111745391D02*
X126200552Y-111888248D01*
X126200552Y-111888248D02*
X126248171Y-111983486D01*
X126248171Y-111983486D02*
X126343409Y-112031105D01*
X126343409Y-112031105D02*
X126867219Y-112031105D01*
X125962457Y-113221582D02*
X125914838Y-113269201D01*
X125914838Y-113269201D02*
X125867219Y-113364439D01*
X125867219Y-113364439D02*
X125867219Y-113602534D01*
X125867219Y-113602534D02*
X125914838Y-113697772D01*
X125914838Y-113697772D02*
X125962457Y-113745391D01*
X125962457Y-113745391D02*
X126057695Y-113793010D01*
X126057695Y-113793010D02*
X126152933Y-113793010D01*
X126152933Y-113793010D02*
X126295790Y-113745391D01*
X126295790Y-113745391D02*
X126867219Y-113173963D01*
X126867219Y-113173963D02*
X126867219Y-113793010D01*
X126819600Y-114269201D02*
X126867219Y-114269201D01*
X126867219Y-114269201D02*
X126962457Y-114221582D01*
X126962457Y-114221582D02*
X127010076Y-114173963D01*
X125867219Y-115745391D02*
X126581504Y-115745391D01*
X126581504Y-115745391D02*
X126724361Y-115697772D01*
X126724361Y-115697772D02*
X126819600Y-115602534D01*
X126819600Y-115602534D02*
X126867219Y-115459677D01*
X126867219Y-115459677D02*
X126867219Y-115364439D01*
X126200552Y-116650153D02*
X126867219Y-116650153D01*
X126200552Y-116221582D02*
X126724361Y-116221582D01*
X126724361Y-116221582D02*
X126819600Y-116269201D01*
X126819600Y-116269201D02*
X126867219Y-116364439D01*
X126867219Y-116364439D02*
X126867219Y-116507296D01*
X126867219Y-116507296D02*
X126819600Y-116602534D01*
X126819600Y-116602534D02*
X126771980Y-116650153D01*
X126867219Y-117269201D02*
X126819600Y-117173963D01*
X126819600Y-117173963D02*
X126724361Y-117126344D01*
X126724361Y-117126344D02*
X125867219Y-117126344D01*
X126200552Y-117554916D02*
X126867219Y-117793011D01*
X126200552Y-118031106D02*
X126867219Y-117793011D01*
X126867219Y-117793011D02*
X127105314Y-117697773D01*
X127105314Y-117697773D02*
X127152933Y-117650154D01*
X127152933Y-117650154D02*
X127200552Y-117554916D01*
X125962457Y-119126345D02*
X125914838Y-119173964D01*
X125914838Y-119173964D02*
X125867219Y-119269202D01*
X125867219Y-119269202D02*
X125867219Y-119507297D01*
X125867219Y-119507297D02*
X125914838Y-119602535D01*
X125914838Y-119602535D02*
X125962457Y-119650154D01*
X125962457Y-119650154D02*
X126057695Y-119697773D01*
X126057695Y-119697773D02*
X126152933Y-119697773D01*
X126152933Y-119697773D02*
X126295790Y-119650154D01*
X126295790Y-119650154D02*
X126867219Y-119078726D01*
X126867219Y-119078726D02*
X126867219Y-119697773D01*
X125867219Y-120316821D02*
X125867219Y-120412059D01*
X125867219Y-120412059D02*
X125914838Y-120507297D01*
X125914838Y-120507297D02*
X125962457Y-120554916D01*
X125962457Y-120554916D02*
X126057695Y-120602535D01*
X126057695Y-120602535D02*
X126248171Y-120650154D01*
X126248171Y-120650154D02*
X126486266Y-120650154D01*
X126486266Y-120650154D02*
X126676742Y-120602535D01*
X126676742Y-120602535D02*
X126771980Y-120554916D01*
X126771980Y-120554916D02*
X126819600Y-120507297D01*
X126819600Y-120507297D02*
X126867219Y-120412059D01*
X126867219Y-120412059D02*
X126867219Y-120316821D01*
X126867219Y-120316821D02*
X126819600Y-120221583D01*
X126819600Y-120221583D02*
X126771980Y-120173964D01*
X126771980Y-120173964D02*
X126676742Y-120126345D01*
X126676742Y-120126345D02*
X126486266Y-120078726D01*
X126486266Y-120078726D02*
X126248171Y-120078726D01*
X126248171Y-120078726D02*
X126057695Y-120126345D01*
X126057695Y-120126345D02*
X125962457Y-120173964D01*
X125962457Y-120173964D02*
X125914838Y-120221583D01*
X125914838Y-120221583D02*
X125867219Y-120316821D01*
X125962457Y-121031107D02*
X125914838Y-121078726D01*
X125914838Y-121078726D02*
X125867219Y-121173964D01*
X125867219Y-121173964D02*
X125867219Y-121412059D01*
X125867219Y-121412059D02*
X125914838Y-121507297D01*
X125914838Y-121507297D02*
X125962457Y-121554916D01*
X125962457Y-121554916D02*
X126057695Y-121602535D01*
X126057695Y-121602535D02*
X126152933Y-121602535D01*
X126152933Y-121602535D02*
X126295790Y-121554916D01*
X126295790Y-121554916D02*
X126867219Y-120983488D01*
X126867219Y-120983488D02*
X126867219Y-121602535D01*
X125867219Y-122507297D02*
X125867219Y-122031107D01*
X125867219Y-122031107D02*
X126343409Y-121983488D01*
X126343409Y-121983488D02*
X126295790Y-122031107D01*
X126295790Y-122031107D02*
X126248171Y-122126345D01*
X126248171Y-122126345D02*
X126248171Y-122364440D01*
X126248171Y-122364440D02*
X126295790Y-122459678D01*
X126295790Y-122459678D02*
X126343409Y-122507297D01*
X126343409Y-122507297D02*
X126438647Y-122554916D01*
X126438647Y-122554916D02*
X126676742Y-122554916D01*
X126676742Y-122554916D02*
X126771980Y-122507297D01*
X126771980Y-122507297D02*
X126819600Y-122459678D01*
X126819600Y-122459678D02*
X126867219Y-122364440D01*
X126867219Y-122364440D02*
X126867219Y-122126345D01*
X126867219Y-122126345D02*
X126819600Y-122031107D01*
X126819600Y-122031107D02*
X126771980Y-121983488D01*
M02*
