G04 #@! TF.GenerationSoftware,KiCad,Pcbnew,8.0.9-8.0.9-0~ubuntu22.04.1*
G04 #@! TF.CreationDate,2025-07-12T13:55:05+10:00*
G04 #@! TF.ProjectId,UE14500-TTL,55453134-3530-4302-9d54-544c2e6b6963,rev?*
G04 #@! TF.SameCoordinates,Original*
G04 #@! TF.FileFunction,Copper,L1,Top*
G04 #@! TF.FilePolarity,Positive*
%FSLAX46Y46*%
G04 Gerber Fmt 4.6, Leading zero omitted, Abs format (unit mm)*
G04 Created by KiCad (PCBNEW 8.0.9-8.0.9-0~ubuntu22.04.1) date 2025-07-12 13:55:05*
%MOMM*%
%LPD*%
G01*
G04 APERTURE LIST*
G04 Aperture macros list*
%AMRoundRect*
0 Rectangle with rounded corners*
0 $1 Rounding radius*
0 $2 $3 $4 $5 $6 $7 $8 $9 X,Y pos of 4 corners*
0 Add a 4 corners polygon primitive as box body*
4,1,4,$2,$3,$4,$5,$6,$7,$8,$9,$2,$3,0*
0 Add four circle primitives for the rounded corners*
1,1,$1+$1,$2,$3*
1,1,$1+$1,$4,$5*
1,1,$1+$1,$6,$7*
1,1,$1+$1,$8,$9*
0 Add four rect primitives between the rounded corners*
20,1,$1+$1,$2,$3,$4,$5,0*
20,1,$1+$1,$4,$5,$6,$7,0*
20,1,$1+$1,$6,$7,$8,$9,0*
20,1,$1+$1,$8,$9,$2,$3,0*%
G04 Aperture macros list end*
G04 #@! TA.AperFunction,ComponentPad*
%ADD10R,1.600000X1.600000*%
G04 #@! TD*
G04 #@! TA.AperFunction,ComponentPad*
%ADD11O,1.600000X1.600000*%
G04 #@! TD*
G04 #@! TA.AperFunction,ComponentPad*
%ADD12C,1.600000*%
G04 #@! TD*
G04 #@! TA.AperFunction,ComponentPad*
%ADD13R,1.700000X1.700000*%
G04 #@! TD*
G04 #@! TA.AperFunction,ComponentPad*
%ADD14O,1.700000X1.700000*%
G04 #@! TD*
G04 #@! TA.AperFunction,ComponentPad*
%ADD15R,1.500000X1.500000*%
G04 #@! TD*
G04 #@! TA.AperFunction,ComponentPad*
%ADD16R,3.500000X3.500000*%
G04 #@! TD*
G04 #@! TA.AperFunction,ComponentPad*
%ADD17RoundRect,0.750000X1.000000X-0.750000X1.000000X0.750000X-1.000000X0.750000X-1.000000X-0.750000X0*%
G04 #@! TD*
G04 #@! TA.AperFunction,ComponentPad*
%ADD18RoundRect,0.875000X0.875000X-0.875000X0.875000X0.875000X-0.875000X0.875000X-0.875000X-0.875000X0*%
G04 #@! TD*
G04 #@! TA.AperFunction,ViaPad*
%ADD19C,0.600000*%
G04 #@! TD*
G04 #@! TA.AperFunction,Conductor*
%ADD20C,0.200000*%
G04 #@! TD*
G04 APERTURE END LIST*
D10*
X109855000Y-108585000D03*
D11*
X109855000Y-111125000D03*
X109855000Y-113665000D03*
X109855000Y-116205000D03*
X109855000Y-118745000D03*
X109855000Y-121285000D03*
X109855000Y-123825000D03*
X109855000Y-126365000D03*
X117475000Y-126365000D03*
X117475000Y-123825000D03*
X117475000Y-121285000D03*
X117475000Y-118745000D03*
X117475000Y-116205000D03*
X117475000Y-113665000D03*
X117475000Y-111125000D03*
X117475000Y-108585000D03*
D12*
X129032000Y-79375000D03*
X124032000Y-79375000D03*
D10*
X122545000Y-57150000D03*
D11*
X122545000Y-59690000D03*
X122545000Y-62230000D03*
X122545000Y-64770000D03*
X122545000Y-67310000D03*
X122545000Y-69850000D03*
X122545000Y-72390000D03*
X122545000Y-74930000D03*
X130165000Y-74930000D03*
X130165000Y-72390000D03*
X130165000Y-69850000D03*
X130165000Y-67310000D03*
X130165000Y-64770000D03*
X130165000Y-62230000D03*
X130165000Y-59690000D03*
X130165000Y-57150000D03*
D10*
X122545000Y-83820000D03*
D11*
X122545000Y-86360000D03*
X122545000Y-88900000D03*
X122545000Y-91440000D03*
X122545000Y-93980000D03*
X122545000Y-96520000D03*
X122545000Y-99060000D03*
X130165000Y-99060000D03*
X130165000Y-96520000D03*
X130165000Y-93980000D03*
X130165000Y-91440000D03*
X130165000Y-88900000D03*
X130165000Y-86360000D03*
X130165000Y-83820000D03*
D10*
X147955000Y-108585000D03*
D11*
X147955000Y-111125000D03*
X147955000Y-113665000D03*
X147955000Y-116205000D03*
X147955000Y-118745000D03*
X147955000Y-121285000D03*
X147955000Y-123825000D03*
X155575000Y-123825000D03*
X155575000Y-121285000D03*
X155575000Y-118745000D03*
X155575000Y-116205000D03*
X155575000Y-113665000D03*
X155575000Y-111125000D03*
X155575000Y-108585000D03*
D13*
X90170000Y-53340000D03*
D14*
X90170000Y-55880000D03*
X90170000Y-58420000D03*
X90170000Y-60960000D03*
X90170000Y-63500000D03*
X90170000Y-66040000D03*
X90170000Y-68580000D03*
X90170000Y-71120000D03*
X90170000Y-73660000D03*
X90170000Y-76200000D03*
X90170000Y-78740000D03*
X90170000Y-81280000D03*
X90170000Y-83820000D03*
X90170000Y-86360000D03*
X90170000Y-88900000D03*
X90170000Y-91440000D03*
X90170000Y-93980000D03*
X90170000Y-96520000D03*
X90170000Y-99060000D03*
X90170000Y-101600000D03*
X90170000Y-104140000D03*
X90170000Y-106680000D03*
X90170000Y-109220000D03*
X90170000Y-111760000D03*
X90170000Y-114300000D03*
X90170000Y-116840000D03*
X90170000Y-119380000D03*
X90170000Y-121920000D03*
X90170000Y-124460000D03*
X90170000Y-127000000D03*
X90170000Y-129540000D03*
X90170000Y-132080000D03*
X90170000Y-134620000D03*
X90170000Y-137160000D03*
X90170000Y-139700000D03*
X90170000Y-142240000D03*
D15*
X116840000Y-144780000D03*
D12*
X114300000Y-144780000D03*
X119380000Y-144780000D03*
X116195000Y-52705000D03*
X111195000Y-52705000D03*
X151384000Y-143510000D03*
X146384000Y-143510000D03*
X131064000Y-143510000D03*
D11*
X141224000Y-143510000D03*
D12*
X128825000Y-104140000D03*
X123825000Y-104140000D03*
X116840000Y-104140000D03*
X111840000Y-104140000D03*
D10*
X116460000Y-137120000D03*
D12*
X116460000Y-134620000D03*
X103505000Y-108585000D03*
X98505000Y-108585000D03*
D16*
X104140000Y-133525000D03*
D17*
X104140000Y-139525000D03*
D18*
X108840000Y-136525000D03*
D10*
X135255000Y-83820000D03*
D11*
X135255000Y-86360000D03*
X135255000Y-88900000D03*
X135255000Y-91440000D03*
X135255000Y-93980000D03*
X135255000Y-96520000D03*
X135255000Y-99060000D03*
X142875000Y-99060000D03*
X142875000Y-96520000D03*
X142875000Y-93980000D03*
X142875000Y-91440000D03*
X142875000Y-88900000D03*
X142875000Y-86360000D03*
X142875000Y-83820000D03*
D12*
X154225000Y-104140000D03*
X149225000Y-104140000D03*
D10*
X135245000Y-57150000D03*
D11*
X135245000Y-59690000D03*
X135245000Y-62230000D03*
X135245000Y-64770000D03*
X135245000Y-67310000D03*
X135245000Y-69850000D03*
X135245000Y-72390000D03*
X135245000Y-74930000D03*
X142865000Y-74930000D03*
X142865000Y-72390000D03*
X142865000Y-69850000D03*
X142865000Y-67310000D03*
X142865000Y-64770000D03*
X142865000Y-62230000D03*
X142865000Y-59690000D03*
X142865000Y-57150000D03*
D10*
X122555000Y-108585000D03*
D11*
X122555000Y-111125000D03*
X122555000Y-113665000D03*
X122555000Y-116205000D03*
X122555000Y-118745000D03*
X122555000Y-121285000D03*
X122555000Y-123825000D03*
X130175000Y-123825000D03*
X130175000Y-121285000D03*
X130175000Y-118745000D03*
X130175000Y-116205000D03*
X130175000Y-113665000D03*
X130175000Y-111125000D03*
X130175000Y-108585000D03*
D12*
X103505000Y-84455000D03*
X98505000Y-84455000D03*
X133990000Y-131535000D03*
X133990000Y-136535000D03*
D10*
X97145000Y-88900000D03*
D11*
X97145000Y-91440000D03*
X97145000Y-93980000D03*
X97145000Y-96520000D03*
X97145000Y-99060000D03*
X97145000Y-101600000D03*
X97145000Y-104140000D03*
X104765000Y-104140000D03*
X104765000Y-101600000D03*
X104765000Y-99060000D03*
X104765000Y-96520000D03*
X104765000Y-93980000D03*
X104765000Y-91440000D03*
X104765000Y-88900000D03*
D12*
X154432000Y-79375000D03*
X149432000Y-79375000D03*
D10*
X109885000Y-57150000D03*
D11*
X109885000Y-59690000D03*
X109885000Y-62230000D03*
X109885000Y-64770000D03*
X109885000Y-67310000D03*
X109885000Y-69850000D03*
X109885000Y-72390000D03*
X117505000Y-72390000D03*
X117505000Y-69850000D03*
X117505000Y-67310000D03*
X117505000Y-64770000D03*
X117505000Y-62230000D03*
X117505000Y-59690000D03*
X117505000Y-57150000D03*
D10*
X138430000Y-137795000D03*
D11*
X140970000Y-137795000D03*
X143510000Y-137795000D03*
X146050000Y-137795000D03*
X148590000Y-137795000D03*
X151130000Y-137795000D03*
X153670000Y-137795000D03*
X153670000Y-130175000D03*
X151130000Y-130175000D03*
X148590000Y-130175000D03*
X146050000Y-130175000D03*
X143510000Y-130175000D03*
X140970000Y-130175000D03*
X138430000Y-130175000D03*
D12*
X141652000Y-79375000D03*
X136652000Y-79375000D03*
D10*
X109855000Y-81280000D03*
D11*
X109855000Y-83820000D03*
X109855000Y-86360000D03*
X109855000Y-88900000D03*
X109855000Y-91440000D03*
X109855000Y-93980000D03*
X109855000Y-96520000D03*
X117475000Y-96520000D03*
X117475000Y-93980000D03*
X117475000Y-91440000D03*
X117475000Y-88900000D03*
X117475000Y-86360000D03*
X117475000Y-83820000D03*
X117475000Y-81280000D03*
D12*
X104685000Y-52705000D03*
X99685000Y-52705000D03*
X128895000Y-52690000D03*
X123895000Y-52690000D03*
D10*
X97145000Y-57150000D03*
D11*
X97145000Y-59690000D03*
X97145000Y-62230000D03*
X97145000Y-64770000D03*
X97145000Y-67310000D03*
X97145000Y-69850000D03*
X97145000Y-72390000D03*
X97145000Y-74930000D03*
X97145000Y-77470000D03*
X97145000Y-80010000D03*
X104765000Y-80010000D03*
X104765000Y-77470000D03*
X104765000Y-74930000D03*
X104765000Y-72390000D03*
X104765000Y-69850000D03*
X104765000Y-67310000D03*
X104765000Y-64770000D03*
X104765000Y-62230000D03*
X104765000Y-59690000D03*
X104765000Y-57150000D03*
D10*
X97155000Y-113030000D03*
D11*
X97155000Y-115570000D03*
X97155000Y-118110000D03*
X97155000Y-120650000D03*
X97155000Y-123190000D03*
X97155000Y-125730000D03*
X97155000Y-128270000D03*
X104775000Y-128270000D03*
X104775000Y-125730000D03*
X104775000Y-123190000D03*
X104775000Y-120650000D03*
X104775000Y-118110000D03*
X104775000Y-115570000D03*
X104775000Y-113030000D03*
D12*
X116205000Y-76835000D03*
X111205000Y-76835000D03*
D10*
X147965000Y-83820000D03*
D11*
X147965000Y-86360000D03*
X147965000Y-88900000D03*
X147965000Y-91440000D03*
X147965000Y-93980000D03*
X147965000Y-96520000D03*
X147965000Y-99060000D03*
X155585000Y-99060000D03*
X155585000Y-96520000D03*
X155585000Y-93980000D03*
X155585000Y-91440000D03*
X155585000Y-88900000D03*
X155585000Y-86360000D03*
X155585000Y-83820000D03*
D10*
X147945000Y-57150000D03*
D11*
X147945000Y-59690000D03*
X147945000Y-62230000D03*
X147945000Y-64770000D03*
X147945000Y-67310000D03*
X147945000Y-69850000D03*
X147945000Y-72390000D03*
X155565000Y-72390000D03*
X155565000Y-69850000D03*
X155565000Y-67310000D03*
X155565000Y-64770000D03*
X155565000Y-62230000D03*
X155565000Y-59690000D03*
X155565000Y-57150000D03*
D13*
X161925000Y-53340000D03*
D14*
X161925000Y-55880000D03*
X161925000Y-58420000D03*
X161925000Y-60960000D03*
X161925000Y-63500000D03*
X161925000Y-66040000D03*
X161925000Y-68580000D03*
X161925000Y-71120000D03*
X161925000Y-73660000D03*
X161925000Y-76200000D03*
X161925000Y-78740000D03*
X161925000Y-81280000D03*
X161925000Y-83820000D03*
X161925000Y-86360000D03*
X161925000Y-88900000D03*
X161925000Y-91440000D03*
X161925000Y-93980000D03*
X161925000Y-96520000D03*
X161925000Y-99060000D03*
X161925000Y-101600000D03*
X161925000Y-104140000D03*
X161925000Y-106680000D03*
X161925000Y-109220000D03*
X161925000Y-111760000D03*
X161925000Y-114300000D03*
X161925000Y-116840000D03*
X161925000Y-119380000D03*
X161925000Y-121920000D03*
X161925000Y-124460000D03*
X161925000Y-127000000D03*
X161925000Y-129540000D03*
X161925000Y-132080000D03*
X161925000Y-134620000D03*
X161925000Y-137160000D03*
X161925000Y-139700000D03*
X161925000Y-142240000D03*
D12*
X151675000Y-52705000D03*
X146675000Y-52705000D03*
D10*
X135255000Y-108585000D03*
D11*
X135255000Y-111125000D03*
X135255000Y-113665000D03*
X135255000Y-116205000D03*
X135255000Y-118745000D03*
X135255000Y-121285000D03*
X135255000Y-123825000D03*
X142875000Y-123825000D03*
X142875000Y-121285000D03*
X142875000Y-118745000D03*
X142875000Y-116205000D03*
X142875000Y-113665000D03*
X142875000Y-111125000D03*
X142875000Y-108585000D03*
D12*
X141605000Y-52705000D03*
X136605000Y-52705000D03*
X141525000Y-104140000D03*
X136525000Y-104140000D03*
D19*
X132715000Y-119857000D03*
X119865300Y-130324700D03*
X100236000Y-116132000D03*
X106528000Y-95743400D03*
X144553000Y-90261900D03*
X138679000Y-133197000D03*
X139636000Y-117020000D03*
X128002000Y-110926000D03*
X119431000Y-84650700D03*
X147326000Y-100414000D03*
X119615000Y-108176000D03*
X153667000Y-106906000D03*
X117874000Y-105884000D03*
X119611000Y-64442900D03*
X141648000Y-67954400D03*
X138530000Y-67255100D03*
X133762000Y-84370800D03*
X114066000Y-119152000D03*
X128368000Y-100370000D03*
X113783000Y-99363900D03*
X119295000Y-79488800D03*
X107639000Y-81073200D03*
X119431000Y-81867600D03*
X150740000Y-81230200D03*
X151358000Y-117899000D03*
X133209000Y-67282600D03*
X152210000Y-94474500D03*
X140714000Y-65942400D03*
X140004000Y-72972700D03*
X126616000Y-102140000D03*
X120512000Y-70193900D03*
X154992000Y-101394000D03*
X118691000Y-135231000D03*
X102312000Y-75715300D03*
X140188000Y-100608000D03*
X140106000Y-105565000D03*
X105955000Y-71295800D03*
X98910600Y-128664000D03*
X132220000Y-104468000D03*
X148270000Y-133671000D03*
X112510500Y-114154300D03*
X119431000Y-93409200D03*
X120714000Y-111146000D03*
X120624000Y-102943000D03*
X130237000Y-102412000D03*
X98636900Y-122544000D03*
X99626900Y-106133000D03*
X128232000Y-106265000D03*
X120770000Y-77883400D03*
X95145100Y-80754000D03*
X159537000Y-67133700D03*
X134019000Y-90180000D03*
X114698000Y-87079100D03*
X92412500Y-84925300D03*
X153696000Y-56680800D03*
X98663300Y-67077000D03*
X152180000Y-107243000D03*
X95237200Y-111258000D03*
X154500000Y-106883000D03*
X122046000Y-102541000D03*
X136357000Y-106407000D03*
X113695000Y-92356300D03*
X97875800Y-129400000D03*
X150946000Y-116252000D03*
X159004000Y-118589000D03*
X118640000Y-98678100D03*
X145244000Y-54441600D03*
X145427000Y-59093300D03*
X148697000Y-115102000D03*
X146059000Y-124444000D03*
X102945000Y-126304000D03*
X107392000Y-128589000D03*
X106835000Y-74060600D03*
X113138000Y-52348700D03*
X102656000Y-73431300D03*
X154156000Y-49634100D03*
X150534000Y-121544000D03*
X143023000Y-127800000D03*
X131564000Y-106904000D03*
X156618300Y-79326000D03*
X137814000Y-81180400D03*
X136654000Y-128408000D03*
X133383000Y-138492000D03*
X133344000Y-134343000D03*
D20*
X133224000Y-119348000D02*
X132715000Y-119857000D01*
X135245000Y-72390000D02*
X135245000Y-73491700D01*
X132969000Y-75630000D02*
X132969000Y-103798000D01*
X133224000Y-104053000D02*
X133224000Y-119348000D01*
X135245000Y-73491700D02*
X135107000Y-73491700D01*
X135107000Y-73491700D02*
X132969000Y-75630000D01*
X132969000Y-103798000D02*
X133224000Y-104053000D01*
X119865300Y-130324700D02*
X112510500Y-122969900D01*
X135255000Y-86360000D02*
X137814000Y-83801000D01*
X137814000Y-83801000D02*
X137814000Y-81180400D01*
X100236000Y-95495200D02*
X100236000Y-116132000D01*
X97145000Y-92404000D02*
X100236000Y-95495200D01*
X97145000Y-91440000D02*
X97145000Y-92404000D01*
X104765000Y-93980000D02*
X106528000Y-95743400D01*
X155585000Y-97393400D02*
X155585000Y-96520000D01*
X156690000Y-98498100D02*
X155585000Y-97393400D01*
X156690000Y-119206000D02*
X156690000Y-98498100D01*
X155575000Y-120321000D02*
X156690000Y-119206000D01*
X155575000Y-121285000D02*
X155575000Y-120321000D01*
X144847000Y-90555800D02*
X144553000Y-90261900D01*
X144847000Y-125126000D02*
X144847000Y-90555800D01*
X140970000Y-129002000D02*
X144847000Y-125126000D01*
X140970000Y-130175000D02*
X140970000Y-129002000D01*
X138430000Y-133446000D02*
X138430000Y-137795000D01*
X138679000Y-133197000D02*
X138430000Y-133446000D01*
X151130000Y-131277000D02*
X151130000Y-130175000D01*
X151532000Y-131678000D02*
X151130000Y-131277000D01*
X151532000Y-136639000D02*
X151532000Y-131678000D01*
X152232000Y-137339000D02*
X151532000Y-136639000D01*
X152232000Y-138251000D02*
X152232000Y-137339000D01*
X151585000Y-138898000D02*
X152232000Y-138251000D01*
X148026000Y-138898000D02*
X151585000Y-138898000D01*
X146923000Y-137795000D02*
X148026000Y-138898000D01*
X146050000Y-137795000D02*
X146923000Y-137795000D01*
X97155000Y-122226000D02*
X97155000Y-123190000D01*
X98256700Y-121124000D02*
X97155000Y-122226000D01*
X98256700Y-119212000D02*
X98256700Y-121124000D01*
X97155000Y-118110000D02*
X98256700Y-119212000D01*
X104775000Y-118110000D02*
X104775000Y-115570000D01*
X104775000Y-127397000D02*
X104775000Y-128270000D01*
X103664000Y-126286000D02*
X104775000Y-127397000D01*
X103664000Y-119221000D02*
X103664000Y-126286000D01*
X104775000Y-118110000D02*
X103664000Y-119221000D01*
X155575000Y-113665000D02*
X155575000Y-116205000D01*
X139413000Y-116798000D02*
X139636000Y-117020000D01*
X139413000Y-96562100D02*
X139413000Y-116798000D01*
X135255000Y-92404000D02*
X139413000Y-96562100D01*
X135255000Y-91440000D02*
X135255000Y-92404000D01*
X128002000Y-113103000D02*
X128002000Y-110926000D01*
X130175000Y-115276000D02*
X128002000Y-113103000D01*
X130175000Y-116205000D02*
X130175000Y-115276000D01*
X109855000Y-91440000D02*
X109855000Y-93980000D01*
X109855000Y-94943900D02*
X109855000Y-93980000D01*
X108753000Y-96045600D02*
X109855000Y-94943900D01*
X108753000Y-110671000D02*
X108753000Y-96045600D01*
X105124000Y-114300000D02*
X108753000Y-110671000D01*
X104400000Y-114300000D02*
X105124000Y-114300000D01*
X99573300Y-119126000D02*
X104400000Y-114300000D01*
X99573300Y-123312000D02*
X99573300Y-119126000D01*
X97155000Y-125730000D02*
X99573300Y-123312000D01*
X119431000Y-84822200D02*
X119431000Y-84650700D01*
X122545000Y-87936000D02*
X119431000Y-84822200D01*
X122545000Y-88900000D02*
X122545000Y-87936000D01*
X147326000Y-103800000D02*
X147326000Y-100414000D01*
X149301000Y-105774000D02*
X147326000Y-103800000D01*
X149301000Y-115960000D02*
X149301000Y-105774000D01*
X149057000Y-116205000D02*
X149301000Y-115960000D01*
X147955000Y-116205000D02*
X149057000Y-116205000D01*
X108753000Y-81280000D02*
X109855000Y-81280000D01*
X106372000Y-78898700D02*
X108753000Y-81280000D01*
X104311000Y-78898700D02*
X106372000Y-78898700D01*
X101005000Y-82204800D02*
X104311000Y-78898700D01*
X101005000Y-87112700D02*
X101005000Y-82204800D01*
X98089300Y-90028400D02*
X101005000Y-87112700D01*
X96998400Y-90028400D02*
X98089300Y-90028400D01*
X96028600Y-90998200D02*
X96998400Y-90028400D01*
X96028600Y-92863600D02*
X96028600Y-90998200D01*
X97145000Y-93980000D02*
X96028600Y-92863600D01*
X147945000Y-64770000D02*
X147945000Y-62230000D01*
X155565000Y-62230000D02*
X155565000Y-59690000D01*
X155565000Y-63194000D02*
X155565000Y-62230000D01*
X156670000Y-64299300D02*
X155565000Y-63194000D01*
X156670000Y-71284700D02*
X156670000Y-64299300D01*
X155565000Y-72390000D02*
X156670000Y-71284700D01*
X144152000Y-103855000D02*
X144152000Y-107053000D01*
X143986000Y-103689000D02*
X144152000Y-103855000D01*
X144319000Y-107219000D02*
X144152000Y-107053000D01*
X143986000Y-98595000D02*
X143986000Y-103689000D01*
X142875000Y-97484000D02*
X143986000Y-98595000D01*
X142875000Y-96520000D02*
X142875000Y-97484000D01*
X142875000Y-122952000D02*
X142875000Y-123825000D01*
X144436000Y-121390000D02*
X142875000Y-122952000D01*
X144436000Y-107337000D02*
X144436000Y-121390000D01*
X144152000Y-107053000D02*
X144436000Y-107337000D01*
X144152000Y-103855000D02*
X143986000Y-103689000D01*
X109885000Y-58251700D02*
X109885000Y-57150000D01*
X109747000Y-58251700D02*
X109885000Y-58251700D01*
X108783000Y-59215600D02*
X109747000Y-58251700D01*
X108783000Y-62321200D02*
X108783000Y-59215600D01*
X105064000Y-66040000D02*
X108783000Y-62321200D01*
X104452000Y-66040000D02*
X105064000Y-66040000D01*
X103258000Y-67234100D02*
X104452000Y-66040000D01*
X103258000Y-75963000D02*
X103258000Y-67234100D01*
X104765000Y-77470000D02*
X103258000Y-75963000D01*
X108887000Y-64770000D02*
X109885000Y-64770000D01*
X104765000Y-68892400D02*
X108887000Y-64770000D01*
X104765000Y-69850000D02*
X104765000Y-68892400D01*
X109855000Y-111125000D02*
X109855000Y-108585000D01*
X119615000Y-117381000D02*
X119615000Y-108176000D01*
X122555000Y-120321000D02*
X119615000Y-117381000D01*
X122555000Y-121285000D02*
X122555000Y-120321000D01*
X122555000Y-113665000D02*
X122555000Y-116205000D01*
X117945000Y-105812000D02*
X117874000Y-105884000D01*
X117945000Y-103625000D02*
X117945000Y-105812000D01*
X117359000Y-103038000D02*
X117945000Y-103625000D01*
X116337000Y-103038000D02*
X117359000Y-103038000D01*
X115692000Y-103683000D02*
X116337000Y-103038000D01*
X115692000Y-113458000D02*
X115692000Y-103683000D01*
X117337000Y-115103000D02*
X115692000Y-113458000D01*
X117475000Y-115103000D02*
X117337000Y-115103000D01*
X117475000Y-116205000D02*
X117475000Y-115103000D01*
X153667000Y-108253000D02*
X153667000Y-106906000D01*
X155575000Y-110161000D02*
X153667000Y-108253000D01*
X155575000Y-111125000D02*
X155575000Y-110161000D01*
X105877000Y-117643000D02*
X109855000Y-113665000D01*
X105877000Y-119548000D02*
X105877000Y-117643000D01*
X104775000Y-120650000D02*
X105877000Y-119548000D01*
X119611000Y-68775500D02*
X119611000Y-64442900D01*
X118808000Y-69578900D02*
X119611000Y-68775500D01*
X118808000Y-70134000D02*
X118808000Y-69578900D01*
X117822000Y-71120000D02*
X118808000Y-70134000D01*
X117194000Y-71120000D02*
X117822000Y-71120000D01*
X115103000Y-73210400D02*
X117194000Y-71120000D01*
X115103000Y-78163300D02*
X115103000Y-73210400D01*
X115970000Y-79029600D02*
X115103000Y-78163300D01*
X115970000Y-95014500D02*
X115970000Y-79029600D01*
X117475000Y-96520000D02*
X115970000Y-95014500D01*
X141763000Y-59690000D02*
X142865000Y-59690000D01*
X140659000Y-58585900D02*
X141763000Y-59690000D01*
X134763000Y-58585900D02*
X140659000Y-58585900D01*
X131515000Y-61833300D02*
X134763000Y-58585900D01*
X131515000Y-86585400D02*
X131515000Y-61833300D01*
X130471000Y-87630000D02*
X131515000Y-86585400D01*
X129838000Y-87630000D02*
X130471000Y-87630000D01*
X127284000Y-90183800D02*
X129838000Y-87630000D01*
X127284000Y-113221000D02*
X127284000Y-90183800D01*
X128735000Y-114672000D02*
X127284000Y-113221000D01*
X128735000Y-116432000D02*
X128735000Y-114672000D01*
X130175000Y-117872000D02*
X128735000Y-116432000D01*
X130175000Y-118745000D02*
X130175000Y-117872000D01*
X142865000Y-76031700D02*
X142865000Y-74930000D01*
X145300000Y-78466800D02*
X142865000Y-76031700D01*
X145300000Y-128677000D02*
X145300000Y-78466800D01*
X144927000Y-129051000D02*
X145300000Y-128677000D01*
X144927000Y-133030000D02*
X144927000Y-129051000D01*
X148590000Y-136693000D02*
X144927000Y-133030000D01*
X148590000Y-137795000D02*
X148590000Y-136693000D01*
X133762000Y-83225800D02*
X133762000Y-84370800D01*
X135161000Y-81826400D02*
X133762000Y-83225800D01*
X135798000Y-81826400D02*
X135161000Y-81826400D01*
X138530000Y-79094100D02*
X135798000Y-81826400D01*
X138530000Y-67255100D02*
X138530000Y-79094100D01*
X141648000Y-66950600D02*
X141648000Y-67954400D01*
X142727000Y-65871700D02*
X141648000Y-66950600D01*
X142865000Y-65871700D02*
X142727000Y-65871700D01*
X142865000Y-64770000D02*
X142865000Y-65871700D01*
X114066000Y-99647500D02*
X114066000Y-119152000D01*
X113783000Y-99363900D02*
X114066000Y-99647500D01*
X128368000Y-94204800D02*
X128368000Y-100370000D01*
X129863000Y-92710000D02*
X128368000Y-94204800D01*
X130484000Y-92710000D02*
X129863000Y-92710000D01*
X132059000Y-91135700D02*
X130484000Y-92710000D01*
X132059000Y-63816400D02*
X132059000Y-91135700D01*
X134755000Y-61120200D02*
X132059000Y-63816400D01*
X140654000Y-61120200D02*
X134755000Y-61120200D01*
X141763000Y-62230000D02*
X140654000Y-61120200D01*
X142865000Y-62230000D02*
X141763000Y-62230000D01*
X119295000Y-81731300D02*
X119431000Y-81867600D01*
X119295000Y-79488800D02*
X119295000Y-81731300D01*
X150946000Y-72850800D02*
X147945000Y-69850000D01*
X150946000Y-81024200D02*
X150946000Y-72850800D01*
X150740000Y-81230200D02*
X150946000Y-81024200D01*
X107639000Y-81205900D02*
X107639000Y-81073200D01*
X109855000Y-83422100D02*
X107639000Y-81205900D01*
X109855000Y-83820000D02*
X109855000Y-83422100D01*
X151548000Y-117710000D02*
X151358000Y-117899000D01*
X151548000Y-81841400D02*
X151548000Y-117710000D01*
X151749000Y-81639700D02*
X151548000Y-81841400D01*
X151749000Y-69459200D02*
X151749000Y-81639700D01*
X155565000Y-65643400D02*
X151749000Y-69459200D01*
X155565000Y-64770000D02*
X155565000Y-65643400D01*
X142875000Y-113665000D02*
X142875000Y-111125000D01*
X133209000Y-65208700D02*
X133209000Y-67282600D01*
X134750000Y-63668100D02*
X133209000Y-65208700D01*
X135795000Y-63668100D02*
X134750000Y-63668100D01*
X139402000Y-67274900D02*
X135795000Y-63668100D01*
X139402000Y-72371000D02*
X139402000Y-67274900D01*
X140253000Y-72371000D02*
X139402000Y-72371000D01*
X140605000Y-72723500D02*
X140253000Y-72371000D01*
X140605000Y-73221900D02*
X140605000Y-72723500D01*
X140405000Y-73421900D02*
X140605000Y-73221900D01*
X140405000Y-82926200D02*
X140405000Y-73421900D01*
X142875000Y-85396000D02*
X140405000Y-82926200D01*
X142875000Y-86360000D02*
X142875000Y-85396000D01*
X139402000Y-85184300D02*
X139402000Y-72371000D01*
X141362000Y-87144300D02*
X139402000Y-85184300D01*
X141362000Y-102382000D02*
X141362000Y-87144300D01*
X143586000Y-104606000D02*
X141362000Y-102382000D01*
X143586000Y-107255000D02*
X143586000Y-104606000D01*
X144002000Y-107671000D02*
X143586000Y-107255000D01*
X144002000Y-109023000D02*
X144002000Y-107671000D01*
X142875000Y-110150000D02*
X144002000Y-109023000D01*
X142875000Y-111125000D02*
X142875000Y-110150000D01*
X152210000Y-73204700D02*
X155565000Y-69850000D01*
X152210000Y-94474500D02*
X152210000Y-73204700D01*
X140714000Y-68383900D02*
X140714000Y-65942400D01*
X141048000Y-68717700D02*
X140714000Y-68383900D01*
X141048000Y-75276400D02*
X141048000Y-68717700D01*
X144030000Y-78258200D02*
X141048000Y-75276400D01*
X144030000Y-87745100D02*
X144030000Y-78258200D01*
X142875000Y-88900000D02*
X144030000Y-87745100D01*
X140004000Y-85145700D02*
X140004000Y-72972700D01*
X141764000Y-86905800D02*
X140004000Y-85145700D01*
X141764000Y-91904600D02*
X141764000Y-86905800D01*
X142875000Y-93016000D02*
X141764000Y-91904600D01*
X142875000Y-93980000D02*
X142875000Y-93016000D01*
X120512000Y-76097600D02*
X120512000Y-70193900D01*
X121443000Y-77028600D02*
X120512000Y-76097600D01*
X121443000Y-84818700D02*
X121443000Y-77028600D01*
X121573000Y-84948400D02*
X121443000Y-84818700D01*
X122756000Y-84948400D02*
X121573000Y-84948400D01*
X124796000Y-86988700D02*
X122756000Y-84948400D01*
X124796000Y-100320000D02*
X124796000Y-86988700D01*
X126616000Y-102140000D02*
X124796000Y-100320000D01*
X155585000Y-100801000D02*
X155585000Y-99060000D01*
X154992000Y-101394000D02*
X155585000Y-100801000D01*
X117505000Y-60325000D02*
X117505000Y-59690000D01*
X118608000Y-61427700D02*
X117505000Y-60325000D01*
X118608000Y-66207300D02*
X118608000Y-61427700D01*
X117505000Y-67310000D02*
X118608000Y-66207300D01*
X116840000Y-143728000D02*
X116840000Y-144780000D01*
X118691000Y-141877000D02*
X116840000Y-143728000D01*
X118691000Y-135231000D02*
X118691000Y-141877000D01*
X102054000Y-75458100D02*
X102312000Y-75715300D01*
X102054000Y-65904500D02*
X102054000Y-75458100D01*
X104765000Y-63194000D02*
X102054000Y-65904500D01*
X104765000Y-62230000D02*
X104765000Y-63194000D01*
X97145000Y-68183400D02*
X97145000Y-67310000D01*
X91723400Y-73605000D02*
X97145000Y-68183400D01*
X91723400Y-79726600D02*
X91723400Y-73605000D01*
X90170000Y-81280000D02*
X91723400Y-79726600D01*
X140106000Y-100608000D02*
X140106000Y-105565000D01*
X140106000Y-100608000D02*
X140188000Y-100608000D01*
X140106000Y-94714900D02*
X140106000Y-100608000D01*
X135255000Y-89864000D02*
X140106000Y-94714900D01*
X135255000Y-88900000D02*
X135255000Y-89864000D01*
X105867000Y-71207900D02*
X105955000Y-71295800D01*
X104346000Y-71207900D02*
X105867000Y-71207900D01*
X103660000Y-71893900D02*
X104346000Y-71207900D01*
X103660000Y-73824700D02*
X103660000Y-71893900D01*
X104765000Y-74930000D02*
X103660000Y-73824700D01*
X132166000Y-104523000D02*
X132220000Y-104468000D01*
X132166000Y-107214000D02*
X132166000Y-104523000D01*
X131874000Y-107506000D02*
X132166000Y-107214000D01*
X131741000Y-107506000D02*
X131874000Y-107506000D01*
X131583000Y-107664000D02*
X131741000Y-107506000D01*
X131583000Y-122417000D02*
X131583000Y-107664000D01*
X130175000Y-123825000D02*
X131583000Y-122417000D01*
X98910600Y-129279000D02*
X98910600Y-128664000D01*
X98161400Y-130028000D02*
X98910600Y-129279000D01*
X96729200Y-130028000D02*
X98161400Y-130028000D01*
X91321700Y-124620000D02*
X96729200Y-130028000D01*
X91321700Y-121363000D02*
X91321700Y-124620000D01*
X90678100Y-120719000D02*
X91321700Y-121363000D01*
X89850400Y-120719000D02*
X90678100Y-120719000D01*
X88992500Y-119861000D02*
X89850400Y-120719000D01*
X88992500Y-104244000D02*
X88992500Y-119861000D01*
X88991000Y-104243000D02*
X88992500Y-104244000D01*
X88991000Y-103643000D02*
X88991000Y-104243000D01*
X90170000Y-102464000D02*
X88991000Y-103643000D01*
X90170000Y-101600000D02*
X90170000Y-102464000D01*
X104765000Y-81270000D02*
X104765000Y-80010000D01*
X109855000Y-86360000D02*
X104765000Y-81270000D01*
X117475000Y-87233400D02*
X117475000Y-86360000D01*
X116371000Y-88337200D02*
X117475000Y-87233400D01*
X116371000Y-91912200D02*
X116371000Y-88337200D01*
X117475000Y-93016000D02*
X116371000Y-91912200D01*
X117475000Y-93980000D02*
X117475000Y-93016000D01*
X147955000Y-122387000D02*
X147955000Y-121285000D01*
X147727000Y-122387000D02*
X147955000Y-122387000D01*
X146851000Y-123262000D02*
X147727000Y-122387000D01*
X146851000Y-124746000D02*
X146851000Y-123262000D01*
X147320000Y-125215000D02*
X146851000Y-124746000D01*
X147320000Y-132722000D02*
X147320000Y-125215000D01*
X148270000Y-133671000D02*
X147320000Y-132722000D01*
X112510500Y-122969900D02*
X112510500Y-114154300D01*
X120714000Y-107925800D02*
X120714000Y-111146000D01*
X119431000Y-106642800D02*
X120714000Y-107925800D01*
X119431000Y-93409200D02*
X119431000Y-106642800D01*
X120624000Y-96864500D02*
X120624000Y-102943000D01*
X122545000Y-94944000D02*
X120624000Y-96864500D01*
X122545000Y-93980000D02*
X122545000Y-94944000D01*
X127704000Y-105737000D02*
X128232000Y-106265000D01*
X127704000Y-102412000D02*
X127704000Y-105737000D01*
X127704000Y-92234600D02*
X127704000Y-102412000D01*
X130165000Y-89773400D02*
X127704000Y-92234600D01*
X130165000Y-88900000D02*
X130165000Y-89773400D01*
X98669200Y-122512000D02*
X98636900Y-122544000D01*
X98669200Y-115764000D02*
X98669200Y-122512000D01*
X99626900Y-114806000D02*
X98669200Y-115764000D01*
X99626900Y-106133000D02*
X99626900Y-114806000D01*
X91321700Y-99060000D02*
X90170000Y-99060000D01*
X92473300Y-97908400D02*
X91321700Y-99060000D01*
X97577600Y-97908400D02*
X92473300Y-97908400D01*
X99626900Y-99957700D02*
X97577600Y-97908400D01*
X99626900Y-106133000D02*
X99626900Y-99957700D01*
X127704000Y-102412000D02*
X130237000Y-102412000D01*
X147945000Y-59690000D02*
X147945000Y-57150000D01*
X119871000Y-76984200D02*
X120770000Y-77883400D01*
X119871000Y-69983700D02*
X119871000Y-76984200D01*
X122545000Y-67310000D02*
X119871000Y-69983700D01*
X159537000Y-83083000D02*
X159537000Y-67133700D01*
X161544000Y-85090000D02*
X159537000Y-83083000D01*
X162314000Y-85090000D02*
X161544000Y-85090000D01*
X163104000Y-85880100D02*
X162314000Y-85090000D01*
X163104000Y-95340900D02*
X163104000Y-85880100D01*
X161925000Y-96520000D02*
X163104000Y-95340900D01*
X90170000Y-95368300D02*
X90170000Y-96520000D01*
X90438500Y-95368300D02*
X90170000Y-95368300D01*
X95056200Y-90750600D02*
X90438500Y-95368300D01*
X95056200Y-80842900D02*
X95056200Y-90750600D01*
X95145100Y-80754000D02*
X95056200Y-80842900D01*
X97145000Y-78571700D02*
X97145000Y-77470000D01*
X96476600Y-78571700D02*
X97145000Y-78571700D01*
X94543400Y-80504900D02*
X96476600Y-78571700D01*
X94543400Y-81122900D02*
X94543400Y-80504900D01*
X90170000Y-85496300D02*
X94543400Y-81122900D01*
X90170000Y-86360000D02*
X90170000Y-85496300D01*
X134019000Y-92744300D02*
X134019000Y-90180000D01*
X135255000Y-93980000D02*
X134019000Y-92744300D01*
X97145000Y-70711200D02*
X97145000Y-69850000D01*
X92125100Y-75731100D02*
X97145000Y-70711200D01*
X92125100Y-81864900D02*
X92125100Y-75731100D01*
X90170000Y-83820000D02*
X92125100Y-81864900D01*
X114698000Y-117544000D02*
X114698000Y-87079100D01*
X117475000Y-120321000D02*
X114698000Y-117544000D01*
X117475000Y-121285000D02*
X117475000Y-120321000D01*
X161925000Y-87748300D02*
X161925000Y-88900000D01*
X161637000Y-87748300D02*
X161925000Y-87748300D01*
X157249000Y-83360200D02*
X161637000Y-87748300D01*
X157249000Y-57278400D02*
X157249000Y-83360200D01*
X156021000Y-56050000D02*
X157249000Y-57278400D01*
X154327000Y-56050000D02*
X156021000Y-56050000D01*
X153696000Y-56680800D02*
X154327000Y-56050000D01*
X92412500Y-86657500D02*
X92412500Y-84925300D01*
X90170000Y-88900000D02*
X92412500Y-86657500D01*
X114698000Y-67916900D02*
X114698000Y-87079100D01*
X109885000Y-63103400D02*
X114698000Y-67916900D01*
X109885000Y-62230000D02*
X109885000Y-63103400D01*
X98663300Y-73411700D02*
X98663300Y-67077000D01*
X97145000Y-74930000D02*
X98663300Y-73411700D01*
X95237200Y-106680000D02*
X90170000Y-106680000D01*
X130175000Y-120346000D02*
X130175000Y-121285000D01*
X128111000Y-118282000D02*
X130175000Y-120346000D01*
X128111000Y-115105000D02*
X128111000Y-118282000D01*
X122555000Y-109549000D02*
X128111000Y-115105000D01*
X122555000Y-108585000D02*
X122555000Y-109549000D01*
X95237200Y-106680000D02*
X95237200Y-111258000D01*
X95237200Y-101950000D02*
X95237200Y-106680000D01*
X97145000Y-100042000D02*
X95237200Y-101950000D01*
X97145000Y-99060000D02*
X97145000Y-100042000D01*
X152180000Y-123196000D02*
X152180000Y-107243000D01*
X150028000Y-125348000D02*
X152180000Y-123196000D01*
X150028000Y-135592000D02*
X150028000Y-125348000D01*
X151130000Y-136693000D02*
X150028000Y-135592000D01*
X151130000Y-137795000D02*
X151130000Y-136693000D01*
X153882000Y-106266000D02*
X154500000Y-106883000D01*
X153158000Y-106266000D02*
X153882000Y-106266000D01*
X152180000Y-107243000D02*
X153158000Y-106266000D01*
X136357000Y-117643000D02*
X136357000Y-106407000D01*
X135255000Y-118745000D02*
X136357000Y-117643000D01*
X121406000Y-103182000D02*
X122046000Y-102541000D01*
X121406000Y-117596000D02*
X121406000Y-103182000D01*
X122555000Y-118745000D02*
X121406000Y-117596000D01*
X113695000Y-74602600D02*
X113695000Y-92356300D01*
X109885000Y-70792600D02*
X113695000Y-74602600D01*
X109885000Y-69850000D02*
X109885000Y-70792600D01*
X113181000Y-92870300D02*
X113695000Y-92356300D01*
X113181000Y-119531000D02*
X113181000Y-92870300D01*
X117475000Y-123825000D02*
X113181000Y-119531000D01*
X159004000Y-119523000D02*
X159004000Y-118589000D01*
X155575000Y-122952000D02*
X159004000Y-119523000D01*
X155575000Y-123825000D02*
X155575000Y-122952000D01*
X150946000Y-81875100D02*
X150946000Y-116252000D01*
X151342000Y-81479400D02*
X150946000Y-81875100D01*
X151342000Y-81353100D02*
X151342000Y-81479400D01*
X151348000Y-81347100D02*
X151342000Y-81353100D01*
X151348000Y-71582400D02*
X151348000Y-81347100D01*
X147945000Y-68179900D02*
X151348000Y-71582400D01*
X147945000Y-67310000D02*
X147945000Y-68179900D01*
X96722600Y-129400000D02*
X97875800Y-129400000D01*
X91723400Y-124400000D02*
X96722600Y-129400000D01*
X91723400Y-119257000D02*
X91723400Y-124400000D01*
X90170000Y-117704000D02*
X91723400Y-119257000D01*
X90170000Y-116840000D02*
X90170000Y-117704000D01*
X118640000Y-125200000D02*
X118640000Y-98678100D01*
X117475000Y-126365000D02*
X118640000Y-125200000D01*
X122545000Y-63103400D02*
X122545000Y-62230000D01*
X120013000Y-65635300D02*
X122545000Y-63103400D01*
X120013000Y-68941900D02*
X120013000Y-65635300D01*
X119210000Y-69745300D02*
X120013000Y-68941900D01*
X119210000Y-71120000D02*
X119210000Y-69745300D01*
X117940000Y-72390000D02*
X119210000Y-71120000D01*
X117505000Y-72390000D02*
X117940000Y-72390000D01*
X118640000Y-74161700D02*
X118640000Y-98678100D01*
X117505000Y-73026200D02*
X118640000Y-74161700D01*
X117505000Y-72390000D02*
X117505000Y-73026200D01*
X97145000Y-60563400D02*
X97145000Y-59690000D01*
X91321700Y-66386700D02*
X97145000Y-60563400D01*
X91321700Y-77588300D02*
X91321700Y-66386700D01*
X90170000Y-78740000D02*
X91321700Y-77588300D01*
X145427000Y-54625100D02*
X145244000Y-54441600D01*
X145427000Y-59093300D02*
X145427000Y-54625100D01*
X146397000Y-113683000D02*
X147640000Y-114926000D01*
X146397000Y-76864700D02*
X146397000Y-113683000D01*
X143192000Y-73660000D02*
X146397000Y-76864700D01*
X142560000Y-73660000D02*
X143192000Y-73660000D01*
X141750000Y-72851000D02*
X142560000Y-73660000D01*
X141750000Y-71839900D02*
X141750000Y-72851000D01*
X142865000Y-70725400D02*
X141750000Y-71839900D01*
X142865000Y-69850000D02*
X142865000Y-70725400D01*
X102945000Y-128019000D02*
X102945000Y-126304000D01*
X104321000Y-129395000D02*
X102945000Y-128019000D01*
X106586000Y-129395000D02*
X104321000Y-129395000D01*
X107392000Y-128589000D02*
X106586000Y-129395000D01*
X146059000Y-116507000D02*
X146059000Y-124444000D01*
X147640000Y-114926000D02*
X146059000Y-116507000D01*
X147816000Y-115102000D02*
X147640000Y-114926000D01*
X148697000Y-115102000D02*
X147816000Y-115102000D01*
X106436000Y-74060600D02*
X106835000Y-74060600D01*
X104765000Y-72390000D02*
X106436000Y-74060600D01*
X102656000Y-66878800D02*
X102656000Y-73431300D01*
X104765000Y-64770000D02*
X102656000Y-66878800D01*
X111403000Y-54084300D02*
X113138000Y-52348700D01*
X110897000Y-54084300D02*
X111403000Y-54084300D01*
X107160000Y-57821500D02*
X110897000Y-54084300D01*
X107160000Y-62374800D02*
X107160000Y-57821500D01*
X104765000Y-64770000D02*
X107160000Y-62374800D01*
X154156000Y-53560800D02*
X154156000Y-49634100D01*
X160535000Y-59939900D02*
X154156000Y-53560800D01*
X160535000Y-71387000D02*
X160535000Y-59939900D01*
X161925000Y-72776800D02*
X160535000Y-71387000D01*
X161925000Y-73660000D02*
X161925000Y-72776800D01*
X143510000Y-136693000D02*
X143510000Y-137795000D01*
X142408000Y-135592000D02*
X143510000Y-136693000D01*
X142408000Y-128415000D02*
X142408000Y-135592000D01*
X143023000Y-127800000D02*
X142408000Y-128415000D01*
X150344000Y-121354000D02*
X150534000Y-121544000D01*
X150344000Y-81685400D02*
X150344000Y-121354000D01*
X150138000Y-81479400D02*
X150344000Y-81685400D01*
X150138000Y-80981100D02*
X150138000Y-81479400D01*
X150534000Y-80585500D02*
X150138000Y-80981100D01*
X150534000Y-73383600D02*
X150534000Y-80585500D01*
X148426000Y-71275400D02*
X150534000Y-73383600D01*
X145081000Y-71275400D02*
X148426000Y-71275400D01*
X143967000Y-72390000D02*
X145081000Y-71275400D01*
X142865000Y-72390000D02*
X143967000Y-72390000D01*
X131564000Y-97918900D02*
X131564000Y-106904000D01*
X130165000Y-96520000D02*
X131564000Y-97918900D01*
X160773000Y-133468000D02*
X161925000Y-134620000D01*
X160773000Y-110738000D02*
X160773000Y-133468000D01*
X160607000Y-110572000D02*
X160773000Y-110738000D01*
X160607000Y-110572000D02*
X160773000Y-110738000D01*
X155585000Y-92404000D02*
X156643300Y-93462300D01*
X155585000Y-91440000D02*
X155585000Y-92404000D01*
X160607000Y-97426000D02*
X160607000Y-110572000D01*
X156643300Y-93462300D02*
X160607000Y-97426000D01*
X156686700Y-79394400D02*
X156618300Y-79326000D01*
X156686700Y-93418900D02*
X156686700Y-79394400D01*
X156643300Y-93462300D02*
X156686700Y-93418900D01*
X133595000Y-138492000D02*
X133383000Y-138492000D01*
X136654000Y-135433000D02*
X133595000Y-138492000D01*
X136654000Y-128408000D02*
X136654000Y-135433000D01*
X137647000Y-127415000D02*
X136654000Y-128408000D01*
X137647000Y-99876300D02*
X137647000Y-127415000D01*
X135393000Y-97621700D02*
X137647000Y-99876300D01*
X135255000Y-97621700D02*
X135393000Y-97621700D01*
X135255000Y-96520000D02*
X135255000Y-97621700D01*
X133344000Y-134343000D02*
X132007000Y-134343000D01*
X132007000Y-107941000D02*
X132007000Y-134343000D01*
X132822000Y-107126000D02*
X132007000Y-107941000D01*
X132822000Y-104219000D02*
X132822000Y-107126000D01*
X132567000Y-103964000D02*
X132822000Y-104219000D01*
X132567000Y-97255700D02*
X132567000Y-103964000D01*
X130165000Y-94853400D02*
X132567000Y-97255700D01*
X130165000Y-93980000D02*
X130165000Y-94853400D01*
X90170000Y-136525000D02*
X90170000Y-137160000D01*
X88548400Y-134903000D02*
X90170000Y-136525000D01*
X88548400Y-98963200D02*
X88548400Y-134903000D01*
X89721600Y-97790000D02*
X88548400Y-98963200D01*
X90565200Y-97790000D02*
X89721600Y-97790000D01*
X95457900Y-92897300D02*
X90565200Y-97790000D01*
X95457900Y-90587100D02*
X95457900Y-92897300D01*
X97145000Y-88900000D02*
X95457900Y-90587100D01*
X131064000Y-135287000D02*
X131064000Y-143510000D01*
X132007000Y-134343000D02*
X131064000Y-135287000D01*
X142875000Y-108585000D02*
X142875000Y-108062000D01*
X130165000Y-86360000D02*
X130165000Y-83820000D01*
X117475000Y-111125000D02*
X117475000Y-108585000D01*
X139532000Y-131277000D02*
X139558000Y-131277000D01*
X138430000Y-130175000D02*
X139532000Y-131277000D01*
X130165000Y-80508000D02*
X130165000Y-83820000D01*
X129032000Y-79375000D02*
X130165000Y-80508000D01*
X128895000Y-79238000D02*
X129032000Y-79375000D01*
X128895000Y-52690000D02*
X128895000Y-79238000D01*
X130175000Y-105490000D02*
X130175000Y-108585000D01*
X128825000Y-104140000D02*
X130175000Y-105490000D01*
X117475000Y-78105000D02*
X116205000Y-76835000D01*
X117475000Y-81280000D02*
X117475000Y-78105000D01*
X155575000Y-105490000D02*
X155575000Y-108585000D01*
X154225000Y-104140000D02*
X155575000Y-105490000D01*
X155585000Y-94853400D02*
X155357000Y-95081700D01*
X155585000Y-93980000D02*
X155585000Y-94853400D01*
X154225000Y-96213400D02*
X154225000Y-104140000D01*
X155357000Y-95081700D02*
X154225000Y-96213400D01*
X139558000Y-140743000D02*
X139558000Y-131277000D01*
X141224000Y-142408000D02*
X139558000Y-140743000D01*
X141224000Y-143510000D02*
X141224000Y-142408000D01*
X117505000Y-54015000D02*
X117505000Y-57150000D01*
X116195000Y-52705000D02*
X117505000Y-54015000D01*
X154432000Y-94157000D02*
X155357000Y-95081700D01*
X154432000Y-82718300D02*
X154432000Y-94157000D01*
X141652000Y-81495300D02*
X141652000Y-79375000D01*
X142875000Y-82718300D02*
X141652000Y-81495300D01*
X142875000Y-83820000D02*
X142875000Y-82718300D01*
X141525000Y-106133000D02*
X141525000Y-104140000D01*
X142875000Y-107483000D02*
X141525000Y-106133000D01*
X142875000Y-108062000D02*
X142875000Y-107483000D01*
X142865000Y-56048300D02*
X142865000Y-57150000D01*
X141605000Y-54788300D02*
X142865000Y-56048300D01*
X141605000Y-52705000D02*
X141605000Y-54788300D01*
X103505000Y-110658000D02*
X103505000Y-108585000D01*
X104775000Y-111928000D02*
X103505000Y-110658000D01*
X104775000Y-113030000D02*
X104775000Y-111928000D01*
X141314000Y-109623000D02*
X142875000Y-108062000D01*
X141314000Y-118344000D02*
X141314000Y-109623000D01*
X139558000Y-120099000D02*
X141314000Y-118344000D01*
X139558000Y-131277000D02*
X139558000Y-120099000D01*
X104765000Y-52785000D02*
X104765000Y-57150000D01*
X104685000Y-52705000D02*
X104765000Y-52785000D01*
X114300000Y-140382000D02*
X114300000Y-144780000D01*
X116460000Y-138222000D02*
X114300000Y-140382000D01*
X116460000Y-137120000D02*
X116460000Y-138222000D01*
X130165000Y-53960000D02*
X130165000Y-57150000D01*
X128895000Y-52690000D02*
X130165000Y-53960000D01*
X154483000Y-82718300D02*
X154432000Y-82718300D01*
X155585000Y-83820000D02*
X154483000Y-82718300D01*
X122545000Y-77316900D02*
X122545000Y-83820000D01*
X121443000Y-76215200D02*
X122545000Y-77316900D01*
X121443000Y-71915700D02*
X121443000Y-76215200D01*
X122545000Y-70814000D02*
X121443000Y-71915700D01*
X122545000Y-69850000D02*
X122545000Y-70814000D01*
X154432000Y-79375000D02*
X154432000Y-82718300D01*
X103660000Y-97954700D02*
X104765000Y-99060000D01*
X103660000Y-90878700D02*
X103660000Y-97954700D01*
X104765000Y-89773400D02*
X103660000Y-90878700D01*
X104765000Y-88900000D02*
X104765000Y-89773400D01*
X103505000Y-100320000D02*
X104765000Y-99060000D01*
X103505000Y-108585000D02*
X103505000Y-100320000D01*
X117475000Y-107483000D02*
X117475000Y-108585000D01*
X116840000Y-106848000D02*
X117475000Y-107483000D01*
X116840000Y-104140000D02*
X116840000Y-106848000D01*
X147965000Y-88900000D02*
X147965000Y-87630000D01*
X122545000Y-64770000D02*
X123647000Y-64770000D01*
X109855000Y-126365000D02*
X109855000Y-123825000D01*
X111205000Y-95170000D02*
X111205000Y-76835000D01*
X109855000Y-96520000D02*
X111205000Y-95170000D01*
X136357000Y-68422300D02*
X136357000Y-76031700D01*
X135245000Y-67310000D02*
X136357000Y-68422300D01*
X97145000Y-107225000D02*
X97145000Y-104140000D01*
X98505000Y-108585000D02*
X97145000Y-107225000D01*
X109885000Y-73491700D02*
X109885000Y-72390000D01*
X111205000Y-74811700D02*
X109885000Y-73491700D01*
X111205000Y-76835000D02*
X111205000Y-74811700D01*
X109855000Y-102155000D02*
X109855000Y-96520000D01*
X111840000Y-104140000D02*
X109855000Y-102155000D01*
X147965000Y-88480300D02*
X147965000Y-87630000D01*
X111840000Y-114225000D02*
X111840000Y-104140000D01*
X110962000Y-115103000D02*
X111840000Y-114225000D01*
X110962000Y-122718000D02*
X110962000Y-115103000D01*
X109855000Y-123825000D02*
X110962000Y-122718000D01*
X110957000Y-115103000D02*
X110962000Y-115103000D01*
X109855000Y-116205000D02*
X110957000Y-115103000D01*
X135255000Y-135270000D02*
X135255000Y-123825000D01*
X133990000Y-136535000D02*
X135255000Y-135270000D01*
X149432000Y-84893000D02*
X149432000Y-79375000D01*
X147965000Y-86360000D02*
X149432000Y-84893000D01*
X123895000Y-64521700D02*
X123647000Y-64770000D01*
X123895000Y-52690000D02*
X123895000Y-64521700D01*
X149225000Y-100272000D02*
X149225000Y-104140000D01*
X149114000Y-100162000D02*
X149225000Y-100272000D01*
X123647000Y-73828300D02*
X122545000Y-74930000D01*
X123647000Y-64770000D02*
X123647000Y-73828300D01*
X147965000Y-87630000D02*
X147965000Y-86360000D01*
X123825000Y-101442000D02*
X123825000Y-104140000D01*
X122545000Y-100162000D02*
X123825000Y-101442000D01*
X122545000Y-99060000D02*
X122545000Y-100162000D01*
X99685000Y-53508300D02*
X99685000Y-52705000D01*
X97145000Y-56048300D02*
X99685000Y-53508300D01*
X97145000Y-57150000D02*
X97145000Y-56048300D01*
X97145000Y-83095000D02*
X97145000Y-80010000D01*
X98505000Y-84455000D02*
X97145000Y-83095000D01*
X96053300Y-111037000D02*
X98505000Y-108585000D01*
X96053300Y-126295000D02*
X96053300Y-111037000D01*
X97155000Y-127397000D02*
X96053300Y-126295000D01*
X97155000Y-128270000D02*
X97155000Y-127397000D01*
X136525000Y-101432000D02*
X136525000Y-104140000D01*
X135255000Y-100162000D02*
X136525000Y-101432000D01*
X135255000Y-99060000D02*
X135255000Y-100162000D01*
X149114000Y-90049200D02*
X149114000Y-100162000D01*
X147965000Y-88900000D02*
X149114000Y-90049200D01*
X149067000Y-100162000D02*
X149114000Y-100162000D01*
X147965000Y-99060000D02*
X149067000Y-100162000D01*
X136652000Y-76326400D02*
X136652000Y-79375000D01*
X136357000Y-76031700D02*
X136652000Y-76326400D01*
X147945000Y-77888000D02*
X147945000Y-72390000D01*
X149432000Y-79375000D02*
X147945000Y-77888000D01*
X135245000Y-64770000D02*
X135245000Y-67310000D01*
X136347000Y-76031700D02*
X136357000Y-76031700D01*
X135245000Y-74930000D02*
X136347000Y-76031700D01*
X109855000Y-131803000D02*
X109855000Y-126365000D01*
X104140000Y-137518000D02*
X109855000Y-131803000D01*
X104140000Y-139525000D02*
X104140000Y-137518000D01*
X124032000Y-77518700D02*
X124032000Y-79375000D01*
X122545000Y-76031700D02*
X124032000Y-77518700D01*
X122545000Y-74930000D02*
X122545000Y-76031700D01*
M02*
