G04 #@! TF.GenerationSoftware,KiCad,Pcbnew,8.0.9-8.0.9-0~ubuntu22.04.1*
G04 #@! TF.CreationDate,2025-07-12T13:55:05+10:00*
G04 #@! TF.ProjectId,UE14500-TTL,55453134-3530-4302-9d54-544c2e6b6963,rev?*
G04 #@! TF.SameCoordinates,Original*
G04 #@! TF.FileFunction,Copper,L2,Bot*
G04 #@! TF.FilePolarity,Positive*
%FSLAX46Y46*%
G04 Gerber Fmt 4.6, Leading zero omitted, Abs format (unit mm)*
G04 Created by KiCad (PCBNEW 8.0.9-8.0.9-0~ubuntu22.04.1) date 2025-07-12 13:55:05*
%MOMM*%
%LPD*%
G01*
G04 APERTURE LIST*
G04 Aperture macros list*
%AMRoundRect*
0 Rectangle with rounded corners*
0 $1 Rounding radius*
0 $2 $3 $4 $5 $6 $7 $8 $9 X,Y pos of 4 corners*
0 Add a 4 corners polygon primitive as box body*
4,1,4,$2,$3,$4,$5,$6,$7,$8,$9,$2,$3,0*
0 Add four circle primitives for the rounded corners*
1,1,$1+$1,$2,$3*
1,1,$1+$1,$4,$5*
1,1,$1+$1,$6,$7*
1,1,$1+$1,$8,$9*
0 Add four rect primitives between the rounded corners*
20,1,$1+$1,$2,$3,$4,$5,0*
20,1,$1+$1,$4,$5,$6,$7,0*
20,1,$1+$1,$6,$7,$8,$9,0*
20,1,$1+$1,$8,$9,$2,$3,0*%
G04 Aperture macros list end*
G04 #@! TA.AperFunction,ComponentPad*
%ADD10R,1.600000X1.600000*%
G04 #@! TD*
G04 #@! TA.AperFunction,ComponentPad*
%ADD11O,1.600000X1.600000*%
G04 #@! TD*
G04 #@! TA.AperFunction,ComponentPad*
%ADD12C,1.600000*%
G04 #@! TD*
G04 #@! TA.AperFunction,ComponentPad*
%ADD13R,1.700000X1.700000*%
G04 #@! TD*
G04 #@! TA.AperFunction,ComponentPad*
%ADD14O,1.700000X1.700000*%
G04 #@! TD*
G04 #@! TA.AperFunction,ComponentPad*
%ADD15R,1.500000X1.500000*%
G04 #@! TD*
G04 #@! TA.AperFunction,ComponentPad*
%ADD16R,3.500000X3.500000*%
G04 #@! TD*
G04 #@! TA.AperFunction,ComponentPad*
%ADD17RoundRect,0.750000X1.000000X-0.750000X1.000000X0.750000X-1.000000X0.750000X-1.000000X-0.750000X0*%
G04 #@! TD*
G04 #@! TA.AperFunction,ComponentPad*
%ADD18RoundRect,0.875000X0.875000X-0.875000X0.875000X0.875000X-0.875000X0.875000X-0.875000X-0.875000X0*%
G04 #@! TD*
G04 #@! TA.AperFunction,ViaPad*
%ADD19C,0.600000*%
G04 #@! TD*
G04 #@! TA.AperFunction,Conductor*
%ADD20C,0.200000*%
G04 #@! TD*
G04 APERTURE END LIST*
D10*
X109855000Y-108585000D03*
D11*
X109855000Y-111125000D03*
X109855000Y-113665000D03*
X109855000Y-116205000D03*
X109855000Y-118745000D03*
X109855000Y-121285000D03*
X109855000Y-123825000D03*
X109855000Y-126365000D03*
X117475000Y-126365000D03*
X117475000Y-123825000D03*
X117475000Y-121285000D03*
X117475000Y-118745000D03*
X117475000Y-116205000D03*
X117475000Y-113665000D03*
X117475000Y-111125000D03*
X117475000Y-108585000D03*
D12*
X129032000Y-79375000D03*
X124032000Y-79375000D03*
D10*
X122545000Y-57150000D03*
D11*
X122545000Y-59690000D03*
X122545000Y-62230000D03*
X122545000Y-64770000D03*
X122545000Y-67310000D03*
X122545000Y-69850000D03*
X122545000Y-72390000D03*
X122545000Y-74930000D03*
X130165000Y-74930000D03*
X130165000Y-72390000D03*
X130165000Y-69850000D03*
X130165000Y-67310000D03*
X130165000Y-64770000D03*
X130165000Y-62230000D03*
X130165000Y-59690000D03*
X130165000Y-57150000D03*
D10*
X122545000Y-83820000D03*
D11*
X122545000Y-86360000D03*
X122545000Y-88900000D03*
X122545000Y-91440000D03*
X122545000Y-93980000D03*
X122545000Y-96520000D03*
X122545000Y-99060000D03*
X130165000Y-99060000D03*
X130165000Y-96520000D03*
X130165000Y-93980000D03*
X130165000Y-91440000D03*
X130165000Y-88900000D03*
X130165000Y-86360000D03*
X130165000Y-83820000D03*
D10*
X147955000Y-108585000D03*
D11*
X147955000Y-111125000D03*
X147955000Y-113665000D03*
X147955000Y-116205000D03*
X147955000Y-118745000D03*
X147955000Y-121285000D03*
X147955000Y-123825000D03*
X155575000Y-123825000D03*
X155575000Y-121285000D03*
X155575000Y-118745000D03*
X155575000Y-116205000D03*
X155575000Y-113665000D03*
X155575000Y-111125000D03*
X155575000Y-108585000D03*
D13*
X90170000Y-53340000D03*
D14*
X90170000Y-55880000D03*
X90170000Y-58420000D03*
X90170000Y-60960000D03*
X90170000Y-63500000D03*
X90170000Y-66040000D03*
X90170000Y-68580000D03*
X90170000Y-71120000D03*
X90170000Y-73660000D03*
X90170000Y-76200000D03*
X90170000Y-78740000D03*
X90170000Y-81280000D03*
X90170000Y-83820000D03*
X90170000Y-86360000D03*
X90170000Y-88900000D03*
X90170000Y-91440000D03*
X90170000Y-93980000D03*
X90170000Y-96520000D03*
X90170000Y-99060000D03*
X90170000Y-101600000D03*
X90170000Y-104140000D03*
X90170000Y-106680000D03*
X90170000Y-109220000D03*
X90170000Y-111760000D03*
X90170000Y-114300000D03*
X90170000Y-116840000D03*
X90170000Y-119380000D03*
X90170000Y-121920000D03*
X90170000Y-124460000D03*
X90170000Y-127000000D03*
X90170000Y-129540000D03*
X90170000Y-132080000D03*
X90170000Y-134620000D03*
X90170000Y-137160000D03*
X90170000Y-139700000D03*
X90170000Y-142240000D03*
D15*
X116840000Y-144780000D03*
D12*
X114300000Y-144780000D03*
X119380000Y-144780000D03*
X116195000Y-52705000D03*
X111195000Y-52705000D03*
X151384000Y-143510000D03*
X146384000Y-143510000D03*
X131064000Y-143510000D03*
D11*
X141224000Y-143510000D03*
D12*
X128825000Y-104140000D03*
X123825000Y-104140000D03*
X116840000Y-104140000D03*
X111840000Y-104140000D03*
D10*
X116460000Y-137120000D03*
D12*
X116460000Y-134620000D03*
X103505000Y-108585000D03*
X98505000Y-108585000D03*
D16*
X104140000Y-133525000D03*
D17*
X104140000Y-139525000D03*
D18*
X108840000Y-136525000D03*
D10*
X135255000Y-83820000D03*
D11*
X135255000Y-86360000D03*
X135255000Y-88900000D03*
X135255000Y-91440000D03*
X135255000Y-93980000D03*
X135255000Y-96520000D03*
X135255000Y-99060000D03*
X142875000Y-99060000D03*
X142875000Y-96520000D03*
X142875000Y-93980000D03*
X142875000Y-91440000D03*
X142875000Y-88900000D03*
X142875000Y-86360000D03*
X142875000Y-83820000D03*
D12*
X154225000Y-104140000D03*
X149225000Y-104140000D03*
D10*
X135245000Y-57150000D03*
D11*
X135245000Y-59690000D03*
X135245000Y-62230000D03*
X135245000Y-64770000D03*
X135245000Y-67310000D03*
X135245000Y-69850000D03*
X135245000Y-72390000D03*
X135245000Y-74930000D03*
X142865000Y-74930000D03*
X142865000Y-72390000D03*
X142865000Y-69850000D03*
X142865000Y-67310000D03*
X142865000Y-64770000D03*
X142865000Y-62230000D03*
X142865000Y-59690000D03*
X142865000Y-57150000D03*
D10*
X122555000Y-108585000D03*
D11*
X122555000Y-111125000D03*
X122555000Y-113665000D03*
X122555000Y-116205000D03*
X122555000Y-118745000D03*
X122555000Y-121285000D03*
X122555000Y-123825000D03*
X130175000Y-123825000D03*
X130175000Y-121285000D03*
X130175000Y-118745000D03*
X130175000Y-116205000D03*
X130175000Y-113665000D03*
X130175000Y-111125000D03*
X130175000Y-108585000D03*
D12*
X103505000Y-84455000D03*
X98505000Y-84455000D03*
X133990000Y-131535000D03*
X133990000Y-136535000D03*
D10*
X97145000Y-88900000D03*
D11*
X97145000Y-91440000D03*
X97145000Y-93980000D03*
X97145000Y-96520000D03*
X97145000Y-99060000D03*
X97145000Y-101600000D03*
X97145000Y-104140000D03*
X104765000Y-104140000D03*
X104765000Y-101600000D03*
X104765000Y-99060000D03*
X104765000Y-96520000D03*
X104765000Y-93980000D03*
X104765000Y-91440000D03*
X104765000Y-88900000D03*
D12*
X154432000Y-79375000D03*
X149432000Y-79375000D03*
D10*
X109885000Y-57150000D03*
D11*
X109885000Y-59690000D03*
X109885000Y-62230000D03*
X109885000Y-64770000D03*
X109885000Y-67310000D03*
X109885000Y-69850000D03*
X109885000Y-72390000D03*
X117505000Y-72390000D03*
X117505000Y-69850000D03*
X117505000Y-67310000D03*
X117505000Y-64770000D03*
X117505000Y-62230000D03*
X117505000Y-59690000D03*
X117505000Y-57150000D03*
D10*
X138430000Y-137795000D03*
D11*
X140970000Y-137795000D03*
X143510000Y-137795000D03*
X146050000Y-137795000D03*
X148590000Y-137795000D03*
X151130000Y-137795000D03*
X153670000Y-137795000D03*
X153670000Y-130175000D03*
X151130000Y-130175000D03*
X148590000Y-130175000D03*
X146050000Y-130175000D03*
X143510000Y-130175000D03*
X140970000Y-130175000D03*
X138430000Y-130175000D03*
D12*
X141652000Y-79375000D03*
X136652000Y-79375000D03*
D10*
X109855000Y-81280000D03*
D11*
X109855000Y-83820000D03*
X109855000Y-86360000D03*
X109855000Y-88900000D03*
X109855000Y-91440000D03*
X109855000Y-93980000D03*
X109855000Y-96520000D03*
X117475000Y-96520000D03*
X117475000Y-93980000D03*
X117475000Y-91440000D03*
X117475000Y-88900000D03*
X117475000Y-86360000D03*
X117475000Y-83820000D03*
X117475000Y-81280000D03*
D12*
X104685000Y-52705000D03*
X99685000Y-52705000D03*
X128895000Y-52690000D03*
X123895000Y-52690000D03*
D10*
X97145000Y-57150000D03*
D11*
X97145000Y-59690000D03*
X97145000Y-62230000D03*
X97145000Y-64770000D03*
X97145000Y-67310000D03*
X97145000Y-69850000D03*
X97145000Y-72390000D03*
X97145000Y-74930000D03*
X97145000Y-77470000D03*
X97145000Y-80010000D03*
X104765000Y-80010000D03*
X104765000Y-77470000D03*
X104765000Y-74930000D03*
X104765000Y-72390000D03*
X104765000Y-69850000D03*
X104765000Y-67310000D03*
X104765000Y-64770000D03*
X104765000Y-62230000D03*
X104765000Y-59690000D03*
X104765000Y-57150000D03*
D10*
X97155000Y-113030000D03*
D11*
X97155000Y-115570000D03*
X97155000Y-118110000D03*
X97155000Y-120650000D03*
X97155000Y-123190000D03*
X97155000Y-125730000D03*
X97155000Y-128270000D03*
X104775000Y-128270000D03*
X104775000Y-125730000D03*
X104775000Y-123190000D03*
X104775000Y-120650000D03*
X104775000Y-118110000D03*
X104775000Y-115570000D03*
X104775000Y-113030000D03*
D12*
X116205000Y-76835000D03*
X111205000Y-76835000D03*
D10*
X147965000Y-83820000D03*
D11*
X147965000Y-86360000D03*
X147965000Y-88900000D03*
X147965000Y-91440000D03*
X147965000Y-93980000D03*
X147965000Y-96520000D03*
X147965000Y-99060000D03*
X155585000Y-99060000D03*
X155585000Y-96520000D03*
X155585000Y-93980000D03*
X155585000Y-91440000D03*
X155585000Y-88900000D03*
X155585000Y-86360000D03*
X155585000Y-83820000D03*
D10*
X147945000Y-57150000D03*
D11*
X147945000Y-59690000D03*
X147945000Y-62230000D03*
X147945000Y-64770000D03*
X147945000Y-67310000D03*
X147945000Y-69850000D03*
X147945000Y-72390000D03*
X155565000Y-72390000D03*
X155565000Y-69850000D03*
X155565000Y-67310000D03*
X155565000Y-64770000D03*
X155565000Y-62230000D03*
X155565000Y-59690000D03*
X155565000Y-57150000D03*
D13*
X161925000Y-53340000D03*
D14*
X161925000Y-55880000D03*
X161925000Y-58420000D03*
X161925000Y-60960000D03*
X161925000Y-63500000D03*
X161925000Y-66040000D03*
X161925000Y-68580000D03*
X161925000Y-71120000D03*
X161925000Y-73660000D03*
X161925000Y-76200000D03*
X161925000Y-78740000D03*
X161925000Y-81280000D03*
X161925000Y-83820000D03*
X161925000Y-86360000D03*
X161925000Y-88900000D03*
X161925000Y-91440000D03*
X161925000Y-93980000D03*
X161925000Y-96520000D03*
X161925000Y-99060000D03*
X161925000Y-101600000D03*
X161925000Y-104140000D03*
X161925000Y-106680000D03*
X161925000Y-109220000D03*
X161925000Y-111760000D03*
X161925000Y-114300000D03*
X161925000Y-116840000D03*
X161925000Y-119380000D03*
X161925000Y-121920000D03*
X161925000Y-124460000D03*
X161925000Y-127000000D03*
X161925000Y-129540000D03*
X161925000Y-132080000D03*
X161925000Y-134620000D03*
X161925000Y-137160000D03*
X161925000Y-139700000D03*
X161925000Y-142240000D03*
D12*
X151675000Y-52705000D03*
X146675000Y-52705000D03*
D10*
X135255000Y-108585000D03*
D11*
X135255000Y-111125000D03*
X135255000Y-113665000D03*
X135255000Y-116205000D03*
X135255000Y-118745000D03*
X135255000Y-121285000D03*
X135255000Y-123825000D03*
X142875000Y-123825000D03*
X142875000Y-121285000D03*
X142875000Y-118745000D03*
X142875000Y-116205000D03*
X142875000Y-113665000D03*
X142875000Y-111125000D03*
X142875000Y-108585000D03*
D12*
X141605000Y-52705000D03*
X136605000Y-52705000D03*
X141525000Y-104140000D03*
X136525000Y-104140000D03*
D19*
X132715000Y-119857000D03*
X119865300Y-130324700D03*
X100236000Y-116132000D03*
X106528000Y-95743400D03*
X144553000Y-90261900D03*
X138679000Y-133197000D03*
X139636000Y-117020000D03*
X128002000Y-110926000D03*
X119431000Y-84650700D03*
X147326000Y-100414000D03*
X119615000Y-108176000D03*
X153667000Y-106906000D03*
X117874000Y-105884000D03*
X119611000Y-64442900D03*
X141648000Y-67954400D03*
X138530000Y-67255100D03*
X133762000Y-84370800D03*
X114066000Y-119152000D03*
X128368000Y-100370000D03*
X113783000Y-99363900D03*
X119295000Y-79488800D03*
X107639000Y-81073200D03*
X119431000Y-81867600D03*
X150740000Y-81230200D03*
X151358000Y-117899000D03*
X133209000Y-67282600D03*
X152210000Y-94474500D03*
X140714000Y-65942400D03*
X140004000Y-72972700D03*
X126616000Y-102140000D03*
X120512000Y-70193900D03*
X154992000Y-101394000D03*
X118691000Y-135231000D03*
X102312000Y-75715300D03*
X140188000Y-100608000D03*
X140106000Y-105565000D03*
X105955000Y-71295800D03*
X98910600Y-128664000D03*
X132220000Y-104468000D03*
X148270000Y-133671000D03*
X112510500Y-114154300D03*
X119431000Y-93409200D03*
X120714000Y-111146000D03*
X120624000Y-102943000D03*
X130237000Y-102412000D03*
X98636900Y-122544000D03*
X99626900Y-106133000D03*
X128232000Y-106265000D03*
X120770000Y-77883400D03*
X95145100Y-80754000D03*
X159537000Y-67133700D03*
X134019000Y-90180000D03*
X114698000Y-87079100D03*
X92412500Y-84925300D03*
X153696000Y-56680800D03*
X98663300Y-67077000D03*
X152180000Y-107243000D03*
X95237200Y-111258000D03*
X154500000Y-106883000D03*
X122046000Y-102541000D03*
X136357000Y-106407000D03*
X113695000Y-92356300D03*
X97875800Y-129400000D03*
X150946000Y-116252000D03*
X159004000Y-118589000D03*
X118640000Y-98678100D03*
X145244000Y-54441600D03*
X145427000Y-59093300D03*
X148697000Y-115102000D03*
X146059000Y-124444000D03*
X102945000Y-126304000D03*
X107392000Y-128589000D03*
X106835000Y-74060600D03*
X113138000Y-52348700D03*
X102656000Y-73431300D03*
X154156000Y-49634100D03*
X150534000Y-121544000D03*
X143023000Y-127800000D03*
X131564000Y-106904000D03*
X156618300Y-79326000D03*
X137814000Y-81180400D03*
X136654000Y-128408000D03*
X133383000Y-138492000D03*
X133344000Y-134343000D03*
D20*
X129330000Y-119857000D02*
X132715000Y-119857000D01*
X132715000Y-119857000D02*
X132720000Y-119857000D01*
X120650000Y-131018000D02*
X119374400Y-131018000D01*
X131915000Y-131018000D02*
X120650000Y-131018000D01*
X120650000Y-131018000D02*
X120558600Y-131018000D01*
X120558600Y-131018000D02*
X119865300Y-130324700D01*
X108753000Y-118745000D02*
X109855000Y-118745000D01*
X106771000Y-116762000D02*
X108753000Y-118745000D01*
X100866000Y-116762000D02*
X106771000Y-116762000D01*
X100236000Y-116132000D02*
X100866000Y-116762000D01*
X130778000Y-100840000D02*
X130621000Y-100997000D01*
X130778000Y-100840000D02*
X130621000Y-100997000D01*
X124169000Y-100840000D02*
X124004000Y-101006000D01*
X135538000Y-100438000D02*
X135404000Y-100572000D01*
X124169000Y-100840000D02*
X124004000Y-101006000D01*
X131014000Y-100604000D02*
X130778000Y-100840000D01*
X131403000Y-100604000D02*
X131014000Y-100604000D01*
X131435000Y-100572000D02*
X131403000Y-100604000D01*
X135404000Y-100572000D02*
X131435000Y-100572000D01*
X135538000Y-100438000D02*
X135404000Y-100572000D01*
X136916000Y-99060000D02*
X135538000Y-100438000D01*
X142875000Y-99060000D02*
X136916000Y-99060000D01*
X111791000Y-101006000D02*
X106528000Y-95743400D01*
X124004000Y-101006000D02*
X111791000Y-101006000D01*
X124405000Y-100605000D02*
X124169000Y-100840000D01*
X125568000Y-100605000D02*
X124405000Y-100605000D01*
X125866000Y-100903000D02*
X125568000Y-100605000D01*
X126034000Y-100735000D02*
X125866000Y-100903000D01*
X127198000Y-100735000D02*
X126034000Y-100735000D01*
X127469000Y-101006000D02*
X127198000Y-100735000D01*
X128281000Y-101006000D02*
X127469000Y-101006000D01*
X128315000Y-100972000D02*
X128281000Y-101006000D01*
X128907000Y-100972000D02*
X128315000Y-100972000D01*
X128932000Y-100997000D02*
X128907000Y-100972000D01*
X130621000Y-100997000D02*
X128932000Y-100997000D01*
X154483000Y-88900000D02*
X155585000Y-88900000D01*
X153121000Y-90261900D02*
X154483000Y-88900000D01*
X144553000Y-90261900D02*
X153121000Y-90261900D01*
X140599000Y-131277000D02*
X138679000Y-133197000D01*
X151604000Y-131277000D02*
X140599000Y-131277000D01*
X152706000Y-130175000D02*
X151604000Y-131277000D01*
X153670000Y-130175000D02*
X152706000Y-130175000D01*
X143510000Y-130175000D02*
X146050000Y-130175000D01*
X148590000Y-130175000D02*
X146050000Y-130175000D01*
X142875000Y-121285000D02*
X135255000Y-121285000D01*
X139386000Y-116205000D02*
X142875000Y-116205000D01*
X135576000Y-112395000D02*
X139386000Y-116205000D01*
X133449000Y-112395000D02*
X135576000Y-112395000D01*
X132181000Y-111126000D02*
X133449000Y-112395000D01*
X131278000Y-111126000D02*
X132181000Y-111126000D01*
X131277000Y-111125000D02*
X131278000Y-111126000D01*
X130175000Y-111125000D02*
X131277000Y-111125000D01*
X154137000Y-113665000D02*
X155575000Y-113665000D01*
X149057000Y-108585000D02*
X154137000Y-113665000D01*
X147955000Y-108585000D02*
X149057000Y-108585000D01*
X150933000Y-117474000D02*
X139636000Y-117474000D01*
X151109000Y-117298000D02*
X150933000Y-117474000D01*
X153026000Y-117298000D02*
X151109000Y-117298000D01*
X154473000Y-118745000D02*
X153026000Y-117298000D01*
X155575000Y-118745000D02*
X154473000Y-118745000D01*
X139636000Y-117020000D02*
X139636000Y-117474000D01*
X123856000Y-110926000D02*
X128002000Y-110926000D01*
X123657000Y-111125000D02*
X123856000Y-110926000D01*
X122555000Y-111125000D02*
X123657000Y-111125000D01*
X135255000Y-111125000D02*
X135806000Y-111125000D01*
X136357000Y-111125000D02*
X135806000Y-111125000D01*
X137773000Y-112541000D02*
X136357000Y-111125000D01*
X145729000Y-112541000D02*
X137773000Y-112541000D01*
X146853000Y-113665000D02*
X145729000Y-112541000D01*
X147955000Y-113665000D02*
X146853000Y-113665000D01*
X128970000Y-109958000D02*
X128002000Y-110926000D01*
X131487000Y-109958000D02*
X128970000Y-109958000D01*
X132253000Y-110725000D02*
X131487000Y-109958000D01*
X135406000Y-110725000D02*
X132253000Y-110725000D01*
X135806000Y-111125000D02*
X135406000Y-110725000D01*
X129063000Y-91440000D02*
X130165000Y-91440000D01*
X127932000Y-90308200D02*
X129063000Y-91440000D01*
X119708000Y-90308200D02*
X127932000Y-90308200D01*
X118577000Y-91440000D02*
X119708000Y-90308200D01*
X117475000Y-91440000D02*
X118577000Y-91440000D01*
X118577000Y-83820000D02*
X117475000Y-83820000D01*
X119407000Y-84650700D02*
X118577000Y-83820000D01*
X119431000Y-84650700D02*
X119407000Y-84650700D01*
X130944000Y-101241000D02*
X130787000Y-101398000D01*
X130944000Y-101241000D02*
X130787000Y-101398000D01*
X131180000Y-101006000D02*
X130944000Y-101241000D01*
X131570000Y-101006000D02*
X131180000Y-101006000D01*
X131601000Y-100974000D02*
X131570000Y-101006000D01*
X135570000Y-100974000D02*
X131601000Y-100974000D01*
X136553000Y-99990900D02*
X135570000Y-100974000D01*
X140471000Y-99990900D02*
X136553000Y-99990900D01*
X140894000Y-100414000D02*
X140471000Y-99990900D01*
X147326000Y-100414000D02*
X140894000Y-100414000D01*
X106456000Y-96520000D02*
X104765000Y-96520000D01*
X111344000Y-101408000D02*
X106456000Y-96520000D01*
X125929000Y-101408000D02*
X111344000Y-101408000D01*
X126200000Y-101136000D02*
X125929000Y-101408000D01*
X127031000Y-101136000D02*
X126200000Y-101136000D01*
X127303000Y-101408000D02*
X127031000Y-101136000D01*
X128447000Y-101408000D02*
X127303000Y-101408000D01*
X128482000Y-101373000D02*
X128447000Y-101408000D01*
X128741000Y-101373000D02*
X128482000Y-101373000D01*
X128766000Y-101398000D02*
X128741000Y-101373000D01*
X130787000Y-101398000D02*
X128766000Y-101398000D01*
X116403000Y-62230000D02*
X117505000Y-62230000D01*
X115243000Y-63390100D02*
X116403000Y-62230000D01*
X109429000Y-63390100D02*
X115243000Y-63390100D01*
X105729000Y-59690000D02*
X109429000Y-63390100D01*
X104765000Y-59690000D02*
X105729000Y-59690000D01*
X105867000Y-67310000D02*
X104765000Y-67310000D01*
X106968000Y-68411700D02*
X105867000Y-67310000D01*
X114965000Y-68411700D02*
X106968000Y-68411700D01*
X116403000Y-69850000D02*
X114965000Y-68411700D01*
X117505000Y-69850000D02*
X116403000Y-69850000D01*
X117673000Y-130169000D02*
X117838000Y-130004000D01*
X118918000Y-129090000D02*
X118939000Y-129070000D01*
X118918000Y-129090000D02*
X118939000Y-129070000D01*
X117237000Y-130605000D02*
X117673000Y-130169000D01*
X92386300Y-130605000D02*
X117237000Y-130605000D01*
X91321700Y-129540000D02*
X92386300Y-130605000D01*
X90170000Y-129540000D02*
X91321700Y-129540000D01*
X160303000Y-129070000D02*
X118939000Y-129070000D01*
X160773000Y-129540000D02*
X160303000Y-129070000D01*
X161925000Y-129540000D02*
X160773000Y-129540000D01*
X118005000Y-130004000D02*
X118918000Y-129090000D01*
X117838000Y-130004000D02*
X118005000Y-130004000D01*
X117673000Y-130169000D02*
X117838000Y-130004000D01*
X134153000Y-83820000D02*
X135255000Y-83820000D01*
X133052000Y-82718300D02*
X134153000Y-83820000D01*
X121582000Y-82718300D02*
X133052000Y-82718300D01*
X120604000Y-83695800D02*
X121582000Y-82718300D01*
X120604000Y-84833200D02*
X120604000Y-83695800D01*
X117639000Y-87798300D02*
X120604000Y-84833200D01*
X112058000Y-87798300D02*
X117639000Y-87798300D01*
X110957000Y-88900000D02*
X112058000Y-87798300D01*
X109855000Y-88900000D02*
X110957000Y-88900000D01*
X140335000Y-118745000D02*
X142875000Y-118745000D01*
X135255000Y-113665000D02*
X140335000Y-118745000D01*
X134116000Y-113665000D02*
X135255000Y-113665000D01*
X133006000Y-112555000D02*
X134116000Y-113665000D01*
X119686000Y-112555000D02*
X133006000Y-112555000D01*
X118577000Y-113665000D02*
X119686000Y-112555000D01*
X117475000Y-113665000D02*
X118577000Y-113665000D01*
X110957000Y-108585000D02*
X109855000Y-108585000D01*
X112058000Y-107483000D02*
X110957000Y-108585000D01*
X118923000Y-107483000D02*
X112058000Y-107483000D01*
X119615000Y-108176000D02*
X118923000Y-107483000D01*
X121117000Y-116205000D02*
X122555000Y-116205000D01*
X118577000Y-118745000D02*
X121117000Y-116205000D01*
X117475000Y-118745000D02*
X118577000Y-118745000D01*
X134153000Y-116205000D02*
X135255000Y-116205000D01*
X133038000Y-115090000D02*
X134153000Y-116205000D01*
X129167000Y-115090000D02*
X133038000Y-115090000D01*
X128052000Y-116205000D02*
X129167000Y-115090000D01*
X122555000Y-116205000D02*
X128052000Y-116205000D01*
X127416000Y-105884000D02*
X117874000Y-105884000D01*
X127673000Y-105627000D02*
X127416000Y-105884000D01*
X131767000Y-105627000D02*
X127673000Y-105627000D01*
X133149000Y-107008000D02*
X131767000Y-105627000D01*
X136676000Y-107008000D02*
X133149000Y-107008000D01*
X137116000Y-106569000D02*
X136676000Y-107008000D01*
X146252000Y-106569000D02*
X137116000Y-106569000D01*
X146652000Y-106168000D02*
X146252000Y-106569000D01*
X152929000Y-106168000D02*
X146652000Y-106168000D01*
X153667000Y-106906000D02*
X152929000Y-106168000D01*
X110957000Y-113665000D02*
X109855000Y-113665000D01*
X112093000Y-114801000D02*
X110957000Y-113665000D01*
X127937000Y-114801000D02*
X112093000Y-114801000D01*
X129073000Y-113665000D02*
X127937000Y-114801000D01*
X130175000Y-113665000D02*
X129073000Y-113665000D01*
X140570000Y-67310000D02*
X142865000Y-67310000D01*
X139132000Y-65871700D02*
X140570000Y-67310000D01*
X121040000Y-65871700D02*
X139132000Y-65871700D01*
X119611000Y-64442900D02*
X121040000Y-65871700D01*
X129073000Y-118745000D02*
X130175000Y-118745000D01*
X127954000Y-119865000D02*
X129073000Y-118745000D01*
X116144000Y-119865000D02*
X127954000Y-119865000D01*
X113586000Y-117307000D02*
X116144000Y-119865000D01*
X109399000Y-117307000D02*
X113586000Y-117307000D01*
X106224000Y-114132000D02*
X109399000Y-117307000D01*
X99358400Y-114132000D02*
X106224000Y-114132000D01*
X98256700Y-113030000D02*
X99358400Y-114132000D01*
X97155000Y-113030000D02*
X98256700Y-113030000D01*
X132264000Y-84370800D02*
X133762000Y-84370800D01*
X131681000Y-84953600D02*
X132264000Y-84370800D01*
X129696000Y-84953600D02*
X131681000Y-84953600D01*
X129389000Y-84646800D02*
X129696000Y-84953600D01*
X125424000Y-84646800D02*
X129389000Y-84646800D01*
X125122000Y-84948400D02*
X125424000Y-84646800D01*
X122300000Y-84948400D02*
X125122000Y-84948400D01*
X118348000Y-88900000D02*
X122300000Y-84948400D01*
X117475000Y-88900000D02*
X118348000Y-88900000D01*
X139229000Y-67954400D02*
X138530000Y-67255100D01*
X141648000Y-67954400D02*
X139229000Y-67954400D01*
X124003000Y-100439000D02*
X123838000Y-100604000D01*
X124003000Y-100439000D02*
X123838000Y-100604000D01*
X124238000Y-100203000D02*
X124003000Y-100439000D01*
X125734000Y-100203000D02*
X124238000Y-100203000D01*
X125866000Y-100335000D02*
X125734000Y-100203000D01*
X125868000Y-100333000D02*
X125866000Y-100335000D01*
X128331000Y-100333000D02*
X125868000Y-100333000D01*
X128368000Y-100370000D02*
X128331000Y-100333000D01*
X115023000Y-100604000D02*
X113783000Y-99363900D01*
X123838000Y-100604000D02*
X115023000Y-100604000D01*
X113314000Y-119904000D02*
X114066000Y-119152000D01*
X107714000Y-119904000D02*
X113314000Y-119904000D01*
X107022000Y-119212000D02*
X107714000Y-119904000D01*
X101898000Y-119212000D02*
X107022000Y-119212000D01*
X98256700Y-115570000D02*
X101898000Y-119212000D01*
X97155000Y-115570000D02*
X98256700Y-115570000D01*
X109223000Y-79488800D02*
X119295000Y-79488800D01*
X107639000Y-81073200D02*
X109223000Y-79488800D01*
X150102000Y-81867600D02*
X150740000Y-81230200D01*
X119431000Y-81867600D02*
X150102000Y-81867600D01*
X150512000Y-118745000D02*
X151358000Y-117899000D01*
X147955000Y-118745000D02*
X150512000Y-118745000D01*
X131267000Y-67310000D02*
X130165000Y-67310000D01*
X131294000Y-67282600D02*
X131267000Y-67310000D01*
X133209000Y-67282600D02*
X131294000Y-67282600D01*
X150278000Y-92541700D02*
X152210000Y-94474500D01*
X145078000Y-92541700D02*
X150278000Y-92541700D01*
X143977000Y-91440000D02*
X145078000Y-92541700D01*
X142875000Y-91440000D02*
X143977000Y-91440000D01*
X131745000Y-64770000D02*
X130165000Y-64770000D01*
X132872000Y-63642700D02*
X131745000Y-64770000D01*
X138415000Y-63642700D02*
X132872000Y-63642700D01*
X140714000Y-65942400D02*
X138415000Y-63642700D01*
X131267000Y-69850000D02*
X130165000Y-69850000D01*
X132676000Y-71259300D02*
X131267000Y-69850000D01*
X138290000Y-71259300D02*
X132676000Y-71259300D01*
X140004000Y-72972700D02*
X138290000Y-71259300D01*
X141695000Y-71280900D02*
X140004000Y-72972700D01*
X155724000Y-71280900D02*
X141695000Y-71280900D01*
X156700000Y-70305800D02*
X155724000Y-71280900D01*
X156700000Y-68444600D02*
X156700000Y-70305800D01*
X155565000Y-67310000D02*
X156700000Y-68444600D01*
X109885000Y-67310000D02*
X117505000Y-67310000D01*
X154901000Y-101485000D02*
X154992000Y-101394000D01*
X141356000Y-101485000D02*
X154901000Y-101485000D01*
X140662000Y-102179000D02*
X141356000Y-101485000D01*
X132100000Y-102179000D02*
X140662000Y-102179000D01*
X132068000Y-102211000D02*
X132100000Y-102179000D01*
X131679000Y-102211000D02*
X132068000Y-102211000D01*
X130876000Y-103013000D02*
X131679000Y-102211000D01*
X129988000Y-103013000D02*
X130876000Y-103013000D01*
X129187000Y-102212000D02*
X129988000Y-103013000D01*
X126689000Y-102212000D02*
X129187000Y-102212000D01*
X126616000Y-102140000D02*
X126689000Y-102212000D01*
X120389000Y-70193900D02*
X120512000Y-70193900D01*
X117505000Y-67310000D02*
X120389000Y-70193900D01*
X117505000Y-59690000D02*
X109885000Y-59690000D01*
X118200000Y-135722000D02*
X118691000Y-135231000D01*
X116004000Y-135722000D02*
X118200000Y-135722000D01*
X113807000Y-133525000D02*
X116004000Y-135722000D01*
X104140000Y-133525000D02*
X113807000Y-133525000D01*
X160773000Y-76200000D02*
X161925000Y-76200000D01*
X160136000Y-76837500D02*
X160773000Y-76200000D01*
X121190000Y-76837500D02*
X160136000Y-76837500D01*
X120068000Y-75715600D02*
X121190000Y-76837500D01*
X110419000Y-75715600D02*
X120068000Y-75715600D01*
X110087000Y-76047900D02*
X110419000Y-75715600D01*
X102644000Y-76047900D02*
X110087000Y-76047900D01*
X102312000Y-75715300D02*
X102644000Y-76047900D01*
X101827000Y-76200000D02*
X90170000Y-76200000D01*
X102312000Y-75715300D02*
X101827000Y-76200000D01*
X95131700Y-64770000D02*
X97145000Y-64770000D01*
X91321700Y-60960000D02*
X95131700Y-64770000D01*
X90170000Y-60960000D02*
X91321700Y-60960000D01*
X160970000Y-60960000D02*
X161925000Y-60960000D01*
X155656000Y-55646600D02*
X160970000Y-60960000D01*
X150452000Y-55646600D02*
X155656000Y-55646600D01*
X150050000Y-55244900D02*
X150452000Y-55646600D01*
X146687000Y-55244900D02*
X150050000Y-55244900D01*
X146286000Y-55646600D02*
X146687000Y-55244900D01*
X121454000Y-55646600D02*
X146286000Y-55646600D01*
X121062000Y-56038500D02*
X121454000Y-55646600D01*
X104284000Y-56038500D02*
X121062000Y-56038500D01*
X98893900Y-61428800D02*
X104284000Y-56038500D01*
X98893900Y-63021200D02*
X98893900Y-61428800D01*
X97145000Y-64770000D02*
X98893900Y-63021200D01*
X106823000Y-81711500D02*
X106909000Y-81626000D01*
X121021000Y-79006900D02*
X121141000Y-78886800D01*
X121021000Y-79006900D02*
X121141000Y-78886800D01*
X106823000Y-81711500D02*
X106909000Y-81626000D01*
X119891000Y-80137100D02*
X121021000Y-79006900D01*
X112909000Y-80137100D02*
X119891000Y-80137100D01*
X110957000Y-82089400D02*
X112909000Y-80137100D01*
X110957000Y-82205000D02*
X110957000Y-82089400D01*
X110780000Y-82381700D02*
X110957000Y-82205000D01*
X107664000Y-82381700D02*
X110780000Y-82381700D01*
X106909000Y-81626000D02*
X107664000Y-82381700D01*
X160773000Y-81280000D02*
X161925000Y-81280000D01*
X157363000Y-77870000D02*
X160773000Y-81280000D01*
X124935000Y-77870000D02*
X157363000Y-77870000D01*
X124735000Y-78070000D02*
X124935000Y-77870000D01*
X124735000Y-78106000D02*
X124735000Y-78070000D01*
X124569000Y-78272500D02*
X124735000Y-78106000D01*
X122430000Y-78272500D02*
X124569000Y-78272500D01*
X121816000Y-78886800D02*
X122430000Y-78272500D01*
X121141000Y-78886800D02*
X121816000Y-78886800D01*
X106588000Y-81946900D02*
X106823000Y-81711500D01*
X95912200Y-81946900D02*
X106588000Y-81946900D01*
X95641700Y-81676400D02*
X95912200Y-81946900D01*
X95641600Y-81676400D02*
X95641700Y-81676400D01*
X95560600Y-81757400D02*
X95641600Y-81676400D01*
X91799100Y-81757400D02*
X95560600Y-81757400D01*
X91321700Y-81280000D02*
X91799100Y-81757400D01*
X90170000Y-81280000D02*
X91321700Y-81280000D01*
X131111000Y-101643000D02*
X130954000Y-101800000D01*
X131346000Y-101408000D02*
X131111000Y-101643000D01*
X131736000Y-101408000D02*
X131346000Y-101408000D01*
X131768000Y-101376000D02*
X131736000Y-101408000D01*
X139419000Y-101376000D02*
X131768000Y-101376000D01*
X140188000Y-100608000D02*
X139419000Y-101376000D01*
X131111000Y-101643000D02*
X130954000Y-101800000D01*
X140306000Y-105765000D02*
X140106000Y-105565000D01*
X145919000Y-105765000D02*
X140306000Y-105765000D01*
X146319000Y-105365000D02*
X145919000Y-105765000D01*
X159548000Y-105365000D02*
X146319000Y-105365000D01*
X160773000Y-104140000D02*
X159548000Y-105365000D01*
X161925000Y-104140000D02*
X160773000Y-104140000D01*
X91321700Y-104140000D02*
X90170000Y-104140000D01*
X94987300Y-100474000D02*
X91321700Y-104140000D01*
X109219000Y-100474000D02*
X94987300Y-100474000D01*
X110554000Y-101809000D02*
X109219000Y-100474000D01*
X126096000Y-101809000D02*
X110554000Y-101809000D01*
X126367000Y-101538000D02*
X126096000Y-101809000D01*
X126865000Y-101538000D02*
X126367000Y-101538000D01*
X127136000Y-101809000D02*
X126865000Y-101538000D01*
X128614000Y-101809000D02*
X127136000Y-101809000D01*
X128623000Y-101800000D02*
X128614000Y-101809000D01*
X130954000Y-101800000D02*
X128623000Y-101800000D01*
X120417000Y-74930000D02*
X104765000Y-74930000D01*
X121922000Y-76435800D02*
X120417000Y-74930000D01*
X158074000Y-76435800D02*
X121922000Y-76435800D01*
X159641000Y-74868800D02*
X158074000Y-76435800D01*
X162359000Y-74868800D02*
X159641000Y-74868800D01*
X163089000Y-74139400D02*
X162359000Y-74868800D01*
X163089000Y-69743600D02*
X163089000Y-74139400D01*
X161925000Y-68580000D02*
X163089000Y-69743600D01*
X105921000Y-71261500D02*
X105955000Y-71295800D01*
X104204000Y-71261500D02*
X105921000Y-71261500D01*
X101523000Y-68580000D02*
X104204000Y-71261500D01*
X90170000Y-68580000D02*
X101523000Y-68580000D01*
X141430000Y-102747000D02*
X141574000Y-102603000D01*
X141195000Y-102983000D02*
X141430000Y-102747000D01*
X133706000Y-102983000D02*
X141195000Y-102983000D01*
X132220000Y-104468000D02*
X133706000Y-102983000D01*
X141430000Y-102747000D02*
X141574000Y-102603000D01*
X160773000Y-101600000D02*
X161925000Y-101600000D01*
X159770000Y-102603000D02*
X160773000Y-101600000D01*
X141574000Y-102603000D02*
X159770000Y-102603000D01*
X99646100Y-129400000D02*
X98910600Y-128664000D01*
X105475000Y-129400000D02*
X99646100Y-129400000D01*
X107408000Y-127467000D02*
X105475000Y-129400000D01*
X118100000Y-127467000D02*
X107408000Y-127467000D01*
X120228000Y-125338000D02*
X118100000Y-127467000D01*
X124098000Y-125338000D02*
X120228000Y-125338000D01*
X125611000Y-123825000D02*
X124098000Y-125338000D01*
X130175000Y-123825000D02*
X125611000Y-123825000D01*
X159182000Y-133671000D02*
X148270000Y-133671000D01*
X160773000Y-132080000D02*
X159182000Y-133671000D01*
X161925000Y-132080000D02*
X160773000Y-132080000D01*
X109855000Y-86360000D02*
X117475000Y-86360000D01*
X134695000Y-133798000D02*
X131915000Y-131018000D01*
X148142000Y-133798000D02*
X134695000Y-133798000D01*
X148270000Y-133671000D02*
X148142000Y-133798000D01*
X91321700Y-132080000D02*
X90170000Y-132080000D01*
X92383400Y-131018000D02*
X91321700Y-132080000D01*
X119374400Y-131018000D02*
X92383400Y-131018000D01*
X118860200Y-93980000D02*
X119431000Y-93409200D01*
X117475000Y-93980000D02*
X118860200Y-93980000D01*
X114642300Y-114154300D02*
X112510500Y-114154300D01*
X116401600Y-112395000D02*
X114642300Y-114154300D01*
X118720700Y-112395000D02*
X116401600Y-112395000D01*
X119969700Y-111146000D02*
X118720700Y-112395000D01*
X120714000Y-111146000D02*
X119969700Y-111146000D01*
X120824000Y-103143000D02*
X120624000Y-102943000D01*
X122296000Y-103143000D02*
X120824000Y-103143000D01*
X122648000Y-102790000D02*
X122296000Y-103143000D01*
X122826000Y-102613000D02*
X122648000Y-102790000D01*
X126238000Y-102613000D02*
X122826000Y-102613000D01*
X126367000Y-102741000D02*
X126238000Y-102613000D01*
X126865000Y-102741000D02*
X126367000Y-102741000D01*
X126992000Y-102614000D02*
X126865000Y-102741000D01*
X127726000Y-102614000D02*
X126992000Y-102614000D01*
X128127000Y-103014000D02*
X127726000Y-102614000D01*
X129421000Y-103014000D02*
X128127000Y-103014000D01*
X129822000Y-103415000D02*
X129421000Y-103014000D01*
X131432000Y-103415000D02*
X129822000Y-103415000D01*
X132266000Y-102581000D02*
X131432000Y-103415000D01*
X141029000Y-102581000D02*
X132266000Y-102581000D01*
X141430000Y-102179000D02*
X141029000Y-102581000D01*
X159374000Y-102179000D02*
X141430000Y-102179000D01*
X161118000Y-100435000D02*
X159374000Y-102179000D01*
X162421000Y-100435000D02*
X161118000Y-100435000D01*
X163511000Y-101525000D02*
X162421000Y-100435000D01*
X163511000Y-110174000D02*
X163511000Y-101525000D01*
X161925000Y-111760000D02*
X163511000Y-110174000D01*
X101464000Y-102943000D02*
X120624000Y-102943000D01*
X92647000Y-111760000D02*
X101464000Y-102943000D01*
X90170000Y-111760000D02*
X92647000Y-111760000D01*
X103673000Y-125730000D02*
X104775000Y-125730000D01*
X102403000Y-124460000D02*
X103673000Y-125730000D01*
X94997900Y-124460000D02*
X102403000Y-124460000D01*
X91187900Y-120650000D02*
X94997900Y-124460000D01*
X89775900Y-120650000D02*
X91187900Y-120650000D01*
X89018300Y-119892000D02*
X89775900Y-120650000D01*
X89018300Y-113775000D02*
X89018300Y-119892000D01*
X90170000Y-112624000D02*
X89018300Y-113775000D01*
X90170000Y-111760000D02*
X90170000Y-112624000D01*
X128004000Y-106494000D02*
X128232000Y-106265000D01*
X99987300Y-106494000D02*
X128004000Y-106494000D01*
X99626900Y-106133000D02*
X99987300Y-106494000D01*
X99283000Y-123190000D02*
X98636900Y-122544000D01*
X104775000Y-123190000D02*
X99283000Y-123190000D01*
X129063000Y-88900000D02*
X130165000Y-88900000D01*
X126523000Y-86360000D02*
X129063000Y-88900000D01*
X122545000Y-86360000D02*
X126523000Y-86360000D01*
X130910000Y-102412000D02*
X130237000Y-102412000D01*
X131512000Y-101809000D02*
X130910000Y-102412000D01*
X131902000Y-101809000D02*
X131512000Y-101809000D01*
X131934000Y-101778000D02*
X131902000Y-101809000D01*
X140496000Y-101778000D02*
X131934000Y-101778000D01*
X141231000Y-101042000D02*
X140496000Y-101778000D01*
X147954000Y-101042000D02*
X141231000Y-101042000D01*
X148270000Y-100725000D02*
X147954000Y-101042000D01*
X156060000Y-100725000D02*
X148270000Y-100725000D01*
X157726000Y-99060000D02*
X156060000Y-100725000D01*
X161925000Y-99060000D02*
X157726000Y-99060000D01*
X135909000Y-69850000D02*
X135245000Y-69850000D01*
X137160000Y-68598900D02*
X135909000Y-69850000D01*
X148217000Y-68598900D02*
X137160000Y-68598900D01*
X149047000Y-67769100D02*
X148217000Y-68598900D01*
X95155800Y-80743300D02*
X95145100Y-80754000D01*
X96044800Y-80743300D02*
X95155800Y-80743300D01*
X96445000Y-81143500D02*
X96044800Y-80743300D01*
X106022000Y-81143500D02*
X96445000Y-81143500D01*
X107662000Y-79503300D02*
X106022000Y-81143500D01*
X107967000Y-79503300D02*
X107662000Y-79503300D01*
X108785000Y-78685400D02*
X107967000Y-79503300D01*
X109353000Y-78685400D02*
X108785000Y-78685400D01*
X109599000Y-78438900D02*
X109353000Y-78685400D01*
X120215000Y-78438900D02*
X109599000Y-78438900D01*
X120770000Y-77883400D02*
X120215000Y-78438900D01*
X118903000Y-64770000D02*
X117505000Y-64770000D01*
X121443000Y-67310000D02*
X118903000Y-64770000D01*
X122545000Y-67310000D02*
X121443000Y-67310000D01*
X134143000Y-69850000D02*
X135245000Y-69850000D01*
X133042000Y-68748300D02*
X134143000Y-69850000D01*
X125085000Y-68748300D02*
X133042000Y-68748300D01*
X123647000Y-67310000D02*
X125085000Y-68748300D01*
X122545000Y-67310000D02*
X123647000Y-67310000D01*
X149047000Y-60791700D02*
X149047000Y-67769100D01*
X147945000Y-59690000D02*
X149047000Y-60791700D01*
X150639400Y-66176700D02*
X149047000Y-66176700D01*
X150639400Y-66176700D02*
X149047000Y-67769100D01*
X158580000Y-66176700D02*
X150639400Y-66176700D01*
X159537000Y-67133700D02*
X158580000Y-66176700D01*
X136357000Y-93980000D02*
X135255000Y-93980000D01*
X136357000Y-93830500D02*
X136357000Y-93980000D01*
X142676000Y-87511700D02*
X136357000Y-93830500D01*
X159622000Y-87511700D02*
X142676000Y-87511700D01*
X160773000Y-86360000D02*
X159622000Y-87511700D01*
X161925000Y-86360000D02*
X160773000Y-86360000D01*
X98854300Y-86360000D02*
X90170000Y-86360000D01*
X102517000Y-90022500D02*
X98854300Y-86360000D01*
X118935000Y-90022500D02*
X102517000Y-90022500D01*
X121169000Y-87788700D02*
X118935000Y-90022500D01*
X126214000Y-87788700D02*
X121169000Y-87788700D01*
X128605000Y-90180000D02*
X126214000Y-87788700D01*
X134019000Y-90180000D02*
X128605000Y-90180000D01*
X111182000Y-82548000D02*
X111274000Y-82455300D01*
X95866000Y-83124500D02*
X95701200Y-83289300D01*
X121243000Y-82289000D02*
X121077000Y-82455300D01*
X91321700Y-83820000D02*
X90170000Y-83820000D01*
X91852400Y-83289300D02*
X91321700Y-83820000D01*
X95701200Y-83289300D02*
X91852400Y-83289300D01*
X111182000Y-82548000D02*
X111274000Y-82455300D01*
X95866000Y-83124500D02*
X95701200Y-83289300D01*
X96101400Y-82889100D02*
X95866000Y-83124500D01*
X106045000Y-82889100D02*
X96101400Y-82889100D01*
X108078000Y-84921700D02*
X106045000Y-82889100D01*
X110311000Y-84921700D02*
X108078000Y-84921700D01*
X110957000Y-84276400D02*
X110311000Y-84921700D01*
X110957000Y-82773100D02*
X110957000Y-84276400D01*
X111182000Y-82548000D02*
X110957000Y-82773100D01*
X121063000Y-82469300D02*
X121077000Y-82455300D01*
X119182000Y-82469300D02*
X121063000Y-82469300D01*
X119168000Y-82455300D02*
X119182000Y-82469300D01*
X111274000Y-82455300D02*
X119168000Y-82455300D01*
X121243000Y-82289000D02*
X121077000Y-82455300D01*
X159242000Y-82289000D02*
X121243000Y-82289000D01*
X160773000Y-83820000D02*
X159242000Y-82289000D01*
X161925000Y-83820000D02*
X160773000Y-83820000D01*
X123647000Y-57150000D02*
X122545000Y-57150000D01*
X124748000Y-58251700D02*
X123647000Y-57150000D01*
X133042000Y-58251700D02*
X124748000Y-58251700D01*
X134143000Y-57150000D02*
X133042000Y-58251700D01*
X135245000Y-57150000D02*
X134143000Y-57150000D01*
X110987000Y-62230000D02*
X109885000Y-62230000D01*
X112088000Y-61128300D02*
X110987000Y-62230000D01*
X118356000Y-61128300D02*
X112088000Y-61128300D01*
X122334000Y-57150000D02*
X118356000Y-61128300D01*
X122545000Y-57150000D02*
X122334000Y-57150000D01*
X94833400Y-84925300D02*
X92412500Y-84925300D01*
X96417900Y-83340800D02*
X94833400Y-84925300D01*
X105271000Y-83340800D02*
X96417900Y-83340800D01*
X109423000Y-87492300D02*
X105271000Y-83340800D01*
X111239000Y-87492300D02*
X109423000Y-87492300D01*
X111652000Y-87079100D02*
X111239000Y-87492300D01*
X114698000Y-87079100D02*
X111652000Y-87079100D01*
X136347000Y-57150000D02*
X135245000Y-57150000D01*
X137448000Y-58251700D02*
X136347000Y-57150000D01*
X143866000Y-58251700D02*
X137448000Y-58251700D01*
X144719000Y-57398400D02*
X143866000Y-58251700D01*
X145744000Y-57398400D02*
X144719000Y-57398400D01*
X146843000Y-56299300D02*
X145744000Y-57398400D01*
X146843000Y-56225000D02*
X146843000Y-56299300D01*
X147020000Y-56048300D02*
X146843000Y-56225000D01*
X149516000Y-56048300D02*
X147020000Y-56048300D01*
X150149000Y-56680800D02*
X149516000Y-56048300D01*
X153696000Y-56680800D02*
X150149000Y-56680800D01*
X102313000Y-74930000D02*
X97145000Y-74930000D01*
X103654000Y-73588700D02*
X102313000Y-74930000D01*
X106456000Y-73588700D02*
X103654000Y-73588700D01*
X106586000Y-73458900D02*
X106456000Y-73588700D01*
X107084000Y-73458900D02*
X106586000Y-73458900D01*
X107214000Y-73588700D02*
X107084000Y-73458900D01*
X155988000Y-73588700D02*
X107214000Y-73588700D01*
X160535000Y-69041200D02*
X155988000Y-73588700D01*
X160535000Y-67429800D02*
X160535000Y-69041200D01*
X161925000Y-66040000D02*
X160535000Y-67429800D01*
X97626300Y-66040000D02*
X90170000Y-66040000D01*
X98663300Y-67077000D02*
X97626300Y-66040000D01*
X146521000Y-110654000D02*
X145156000Y-109290000D01*
X146991000Y-111125000D02*
X146521000Y-110654000D01*
X147955000Y-111125000D02*
X146991000Y-111125000D01*
X160773000Y-106680000D02*
X161925000Y-106680000D01*
X160570000Y-106883000D02*
X160773000Y-106680000D01*
X154500000Y-106883000D02*
X160570000Y-106883000D01*
X143349000Y-107483000D02*
X145156000Y-109290000D01*
X140806000Y-107483000D02*
X143349000Y-107483000D01*
X140631000Y-107658000D02*
X140806000Y-107483000D01*
X137286000Y-107658000D02*
X140631000Y-107658000D01*
X137152000Y-107792000D02*
X137286000Y-107658000D01*
X137150000Y-107792000D02*
X137152000Y-107792000D01*
X136357000Y-108585000D02*
X137150000Y-107792000D01*
X135255000Y-108585000D02*
X136357000Y-108585000D01*
X132333000Y-108585000D02*
X135255000Y-108585000D01*
X131231000Y-107483000D02*
X132333000Y-108585000D01*
X124758000Y-107483000D02*
X131231000Y-107483000D01*
X123657000Y-108585000D02*
X124758000Y-107483000D01*
X122555000Y-108585000D02*
X123657000Y-108585000D01*
X152095000Y-107328000D02*
X152180000Y-107243000D01*
X147118000Y-107328000D02*
X152095000Y-107328000D01*
X145156000Y-109290000D02*
X147118000Y-107328000D01*
X121453000Y-108585000D02*
X122555000Y-108585000D01*
X120232000Y-109806000D02*
X121453000Y-108585000D01*
X96689300Y-109806000D02*
X120232000Y-109806000D01*
X95237200Y-111258000D02*
X96689300Y-109806000D01*
X134153000Y-118745000D02*
X135255000Y-118745000D01*
X133042000Y-117634000D02*
X134153000Y-118745000D01*
X124768000Y-117634000D02*
X133042000Y-117634000D01*
X123657000Y-118745000D02*
X124768000Y-117634000D01*
X122555000Y-118745000D02*
X123657000Y-118745000D01*
X102042000Y-101600000D02*
X104765000Y-101600000D01*
X94422200Y-109220000D02*
X102042000Y-101600000D01*
X90170000Y-109220000D02*
X94422200Y-109220000D01*
X121716000Y-102211000D02*
X122046000Y-102541000D01*
X106478000Y-102211000D02*
X121716000Y-102211000D01*
X105867000Y-101600000D02*
X106478000Y-102211000D01*
X104765000Y-101600000D02*
X105867000Y-101600000D01*
X136596000Y-106167000D02*
X136357000Y-106407000D01*
X146086000Y-106167000D02*
X136596000Y-106167000D01*
X146486000Y-105767000D02*
X146086000Y-106167000D01*
X160916000Y-105767000D02*
X146486000Y-105767000D01*
X161166000Y-105516000D02*
X160916000Y-105767000D01*
X162467000Y-105516000D02*
X161166000Y-105516000D01*
X163092000Y-106142000D02*
X162467000Y-105516000D01*
X163092000Y-108053000D02*
X163092000Y-106142000D01*
X161925000Y-109220000D02*
X163092000Y-108053000D01*
X113695000Y-92591500D02*
X113695000Y-92356300D01*
X123647000Y-59690000D02*
X122545000Y-59690000D01*
X124758000Y-60801200D02*
X123647000Y-59690000D01*
X133032000Y-60801200D02*
X124758000Y-60801200D01*
X134143000Y-59690000D02*
X133032000Y-60801200D01*
X135245000Y-59690000D02*
X134143000Y-59690000D01*
X116201000Y-95097200D02*
X113695000Y-92591500D01*
X157116000Y-95097200D02*
X116201000Y-95097200D01*
X160773000Y-91440000D02*
X157116000Y-95097200D01*
X161925000Y-91440000D02*
X160773000Y-91440000D01*
X91321700Y-91440000D02*
X90170000Y-91440000D01*
X92473200Y-92591500D02*
X91321700Y-91440000D01*
X113695000Y-92591500D02*
X92473200Y-92591500D01*
X121107000Y-61128300D02*
X122545000Y-59690000D01*
X120306000Y-61128300D02*
X121107000Y-61128300D01*
X117934000Y-63500000D02*
X120306000Y-61128300D01*
X116259000Y-63500000D02*
X117934000Y-63500000D01*
X113551000Y-66208300D02*
X116259000Y-63500000D01*
X104298000Y-66208300D02*
X113551000Y-66208300D01*
X103606000Y-66900800D02*
X104298000Y-66208300D01*
X103606000Y-67714200D02*
X103606000Y-66900800D01*
X104472000Y-68580000D02*
X103606000Y-67714200D01*
X105295000Y-68580000D02*
X104472000Y-68580000D01*
X106565000Y-69850000D02*
X105295000Y-68580000D01*
X109885000Y-69850000D02*
X106565000Y-69850000D01*
X155024000Y-123825000D02*
X155575000Y-123825000D01*
X151759000Y-127090000D02*
X155024000Y-123825000D01*
X123681000Y-127090000D02*
X151759000Y-127090000D01*
X123280000Y-127492000D02*
X123681000Y-127090000D01*
X119381000Y-127492000D02*
X123280000Y-127492000D01*
X118350000Y-128522000D02*
X119381000Y-127492000D01*
X117782000Y-128522000D02*
X118350000Y-128522000D01*
X116504000Y-129801000D02*
X117782000Y-128522000D01*
X98277500Y-129801000D02*
X116504000Y-129801000D01*
X97875800Y-129400000D02*
X98277500Y-129801000D01*
X152736000Y-116252000D02*
X150946000Y-116252000D01*
X154102000Y-117616000D02*
X152736000Y-116252000D01*
X158031000Y-117616000D02*
X154102000Y-117616000D01*
X159004000Y-118589000D02*
X158031000Y-117616000D01*
X132673000Y-59690000D02*
X130165000Y-59690000D01*
X133820000Y-58543100D02*
X132673000Y-59690000D01*
X135667000Y-58543100D02*
X133820000Y-58543100D01*
X140843000Y-63719400D02*
X135667000Y-58543100D01*
X140843000Y-64313600D02*
X140843000Y-63719400D01*
X142570000Y-66040000D02*
X140843000Y-64313600D01*
X145573000Y-66040000D02*
X142570000Y-66040000D01*
X146843000Y-67310000D02*
X145573000Y-66040000D01*
X147945000Y-67310000D02*
X146843000Y-67310000D01*
X160753000Y-116840000D02*
X159004000Y-118589000D01*
X161925000Y-116840000D02*
X160753000Y-116840000D01*
X123647000Y-62230000D02*
X122545000Y-62230000D01*
X124758000Y-63341100D02*
X123647000Y-62230000D01*
X132464000Y-63341100D02*
X124758000Y-63341100D01*
X133575000Y-62230000D02*
X132464000Y-63341100D01*
X135245000Y-62230000D02*
X133575000Y-62230000D01*
X91321700Y-93980000D02*
X90170000Y-93980000D01*
X92473400Y-95131700D02*
X91321700Y-93980000D01*
X110749000Y-95131700D02*
X92473400Y-95131700D01*
X114296000Y-98678100D02*
X110749000Y-95131700D01*
X118640000Y-98678100D02*
X114296000Y-98678100D01*
X119414000Y-97905000D02*
X118640000Y-98678100D01*
X158315000Y-97905000D02*
X119414000Y-97905000D01*
X161925000Y-94294700D02*
X158315000Y-97905000D01*
X161925000Y-93980000D02*
X161925000Y-94294700D01*
X124533000Y-77703700D02*
X124367000Y-77870000D01*
X124769000Y-77468300D02*
X124533000Y-77703700D01*
X159502000Y-77468300D02*
X124769000Y-77468300D01*
X160773000Y-78740000D02*
X159502000Y-77468300D01*
X161925000Y-78740000D02*
X160773000Y-78740000D01*
X91321700Y-78740000D02*
X90170000Y-78740000D01*
X93937400Y-81355700D02*
X91321700Y-78740000D01*
X95394300Y-81355700D02*
X93937400Y-81355700D01*
X95605000Y-81145000D02*
X95394300Y-81355700D01*
X95678300Y-81145000D02*
X95605000Y-81145000D01*
X96078500Y-81545200D02*
X95678300Y-81145000D01*
X106255000Y-81545200D02*
X96078500Y-81545200D01*
X107895000Y-79905000D02*
X106255000Y-81545200D01*
X108133000Y-79905000D02*
X107895000Y-79905000D01*
X108951000Y-79087100D02*
X108133000Y-79905000D01*
X109519000Y-79087100D02*
X108951000Y-79087100D01*
X109765000Y-78840600D02*
X109519000Y-79087100D01*
X120542000Y-78840600D02*
X109765000Y-78840600D01*
X120897000Y-78485100D02*
X120542000Y-78840600D01*
X121508000Y-78485100D02*
X120897000Y-78485100D01*
X122123000Y-77870000D02*
X121508000Y-78485100D01*
X124367000Y-77870000D02*
X122123000Y-77870000D01*
X124533000Y-77703700D02*
X124367000Y-77870000D01*
X145949000Y-58571500D02*
X145427000Y-59093300D01*
X156024000Y-58571500D02*
X145949000Y-58571500D01*
X160952000Y-63500000D02*
X156024000Y-58571500D01*
X161925000Y-63500000D02*
X160952000Y-63500000D01*
X90170000Y-64075800D02*
X90170000Y-63500000D01*
X88998500Y-62904300D02*
X90170000Y-64075800D01*
X88998500Y-55341200D02*
X88998500Y-62904300D01*
X89756300Y-54583400D02*
X88998500Y-55341200D01*
X145102000Y-54583400D02*
X89756300Y-54583400D01*
X145244000Y-54441600D02*
X145102000Y-54583400D01*
X89732400Y-72390000D02*
X97145000Y-72390000D01*
X89012000Y-71669600D02*
X89732400Y-72390000D01*
X89012000Y-65521800D02*
X89012000Y-71669600D01*
X90170000Y-64363800D02*
X89012000Y-65521800D01*
X90170000Y-63500000D02*
X90170000Y-64363800D01*
X91321700Y-121920000D02*
X90170000Y-121920000D01*
X96238400Y-126837000D02*
X91321700Y-121920000D01*
X98564400Y-126837000D02*
X96238400Y-126837000D01*
X99097600Y-126304000D02*
X98564400Y-126837000D01*
X102945000Y-126304000D02*
X99097600Y-126304000D01*
X156371000Y-115102000D02*
X148697000Y-115102000D01*
X156867000Y-115598000D02*
X156371000Y-115102000D01*
X162330000Y-115598000D02*
X156867000Y-115598000D01*
X163106000Y-116374000D02*
X162330000Y-115598000D01*
X163106000Y-120739000D02*
X163106000Y-116374000D01*
X161925000Y-121920000D02*
X163106000Y-120739000D01*
X107860000Y-128121000D02*
X107392000Y-128589000D01*
X118184000Y-128121000D02*
X107860000Y-128121000D01*
X119214000Y-127090000D02*
X118184000Y-128121000D01*
X122914000Y-127090000D02*
X119214000Y-127090000D01*
X124266000Y-125738000D02*
X122914000Y-127090000D01*
X144765000Y-125738000D02*
X124266000Y-125738000D01*
X146059000Y-124444000D02*
X144765000Y-125738000D01*
X160773000Y-71120000D02*
X161925000Y-71120000D01*
X155862000Y-76031700D02*
X160773000Y-71120000D01*
X122089000Y-76031700D02*
X155862000Y-76031700D01*
X120118000Y-74060600D02*
X122089000Y-76031700D01*
X106835000Y-74060600D02*
X120118000Y-74060600D01*
X102393000Y-71120000D02*
X90170000Y-71120000D01*
X103663000Y-72390000D02*
X102393000Y-71120000D01*
X104765000Y-72390000D02*
X103663000Y-72390000D01*
X92233300Y-58420000D02*
X90170000Y-58420000D01*
X94533200Y-60719800D02*
X92233300Y-58420000D01*
X96043300Y-62230000D02*
X94533200Y-60719800D01*
X97145000Y-62230000D02*
X96043300Y-62230000D01*
X158714000Y-55209400D02*
X161925000Y-58420000D01*
X150583000Y-55209400D02*
X158714000Y-55209400D01*
X150217000Y-54843200D02*
X150583000Y-55209400D01*
X146521000Y-54843200D02*
X150217000Y-54843200D01*
X146155000Y-55209400D02*
X146521000Y-54843200D01*
X101875000Y-55209400D02*
X146155000Y-55209400D01*
X98805700Y-58278400D02*
X101875000Y-55209400D01*
X96974600Y-58278400D02*
X98805700Y-58278400D01*
X94533200Y-60719800D02*
X96974600Y-58278400D01*
X115853000Y-49634100D02*
X154156000Y-49634100D01*
X113138000Y-52348700D02*
X115853000Y-49634100D01*
X102428000Y-73660000D02*
X102656000Y-73431300D01*
X90170000Y-73660000D02*
X102428000Y-73660000D01*
X160754000Y-124340000D02*
X156699000Y-124340000D01*
X160874000Y-124460000D02*
X160754000Y-124340000D01*
X161925000Y-124460000D02*
X160874000Y-124460000D01*
X143510000Y-137795000D02*
X140970000Y-137795000D01*
X153239000Y-127800000D02*
X143023000Y-127800000D01*
X156699000Y-124340000D02*
X153239000Y-127800000D01*
X123540000Y-127800000D02*
X143023000Y-127800000D01*
X123446000Y-127894000D02*
X123540000Y-127800000D01*
X119547000Y-127894000D02*
X123446000Y-127894000D01*
X118517000Y-128924000D02*
X119547000Y-127894000D01*
X118150000Y-128924000D02*
X118517000Y-128924000D01*
X116871000Y-130203000D02*
X118150000Y-128924000D01*
X97064600Y-130203000D02*
X116871000Y-130203000D01*
X91321700Y-124460000D02*
X97064600Y-130203000D01*
X90170000Y-124460000D02*
X91321700Y-124460000D01*
X156699000Y-123383000D02*
X156699000Y-124340000D01*
X155742000Y-122426000D02*
X156699000Y-123383000D01*
X151416000Y-122426000D02*
X155742000Y-122426000D01*
X150534000Y-121544000D02*
X151416000Y-122426000D01*
X160296000Y-119857000D02*
X132720000Y-119857000D01*
X160773000Y-119380000D02*
X160296000Y-119857000D01*
X161925000Y-119380000D02*
X160773000Y-119380000D01*
X160773000Y-114300000D02*
X161925000Y-114300000D01*
X158727000Y-112253000D02*
X160773000Y-114300000D01*
X155082000Y-112253000D02*
X158727000Y-112253000D01*
X154161000Y-111332000D02*
X155082000Y-112253000D01*
X154161000Y-108349000D02*
X154161000Y-111332000D01*
X152382000Y-106570000D02*
X154161000Y-108349000D01*
X146818000Y-106570000D02*
X152382000Y-106570000D01*
X146418000Y-106970000D02*
X146818000Y-106570000D01*
X137282000Y-106970000D02*
X146418000Y-106970000D01*
X136843000Y-107410000D02*
X137282000Y-106970000D01*
X132070000Y-107410000D02*
X136843000Y-107410000D01*
X131564000Y-106904000D02*
X132070000Y-107410000D01*
X90170000Y-114300000D02*
X91228400Y-114300000D01*
X91321700Y-114300000D02*
X91228400Y-114300000D01*
X97155000Y-120133000D02*
X91321700Y-114300000D01*
X97155000Y-120650000D02*
X97155000Y-120133000D01*
X98624400Y-106904000D02*
X131564000Y-106904000D01*
X91228400Y-114300000D02*
X98624400Y-106904000D01*
X134907000Y-134620000D02*
X161925000Y-134620000D01*
X131736000Y-131450000D02*
X134907000Y-134620000D01*
X94492000Y-131450000D02*
X131736000Y-131450000D01*
X91321700Y-134620000D02*
X94492000Y-131450000D01*
X90170000Y-134620000D02*
X91321700Y-134620000D01*
X155467600Y-80476700D02*
X156618300Y-79326000D01*
X149391900Y-80476700D02*
X155467600Y-80476700D01*
X148688200Y-81180400D02*
X149391900Y-80476700D01*
X137814000Y-81180400D02*
X148688200Y-81180400D01*
X133090000Y-138785000D02*
X133383000Y-138492000D01*
X107631000Y-138785000D02*
X133090000Y-138785000D01*
X106132000Y-137285000D02*
X107631000Y-138785000D01*
X106132000Y-137205000D02*
X106132000Y-137285000D01*
X104816000Y-135890000D02*
X106132000Y-137205000D01*
X89747900Y-135890000D02*
X104816000Y-135890000D01*
X88961600Y-135104000D02*
X89747900Y-135890000D01*
X88961600Y-129092000D02*
X88961600Y-135104000D01*
X90170000Y-127883000D02*
X88961600Y-129092000D01*
X90170000Y-127000000D02*
X90170000Y-127883000D01*
X160773000Y-127000000D02*
X161925000Y-127000000D01*
X159365000Y-128408000D02*
X160773000Y-127000000D01*
X136654000Y-128408000D02*
X159365000Y-128408000D01*
X130070000Y-93884800D02*
X130165000Y-93980000D01*
X129063000Y-93884800D02*
X130070000Y-93884800D01*
X126618000Y-91440000D02*
X129063000Y-93884800D01*
X122545000Y-91440000D02*
X126618000Y-91440000D01*
X111788000Y-143510000D02*
X131064000Y-143510000D01*
X105438000Y-137160000D02*
X111788000Y-143510000D01*
X90170000Y-137160000D02*
X105438000Y-137160000D01*
X100787000Y-91440000D02*
X104765000Y-91440000D01*
X98246700Y-88900000D02*
X100787000Y-91440000D01*
X97145000Y-88900000D02*
X98246700Y-88900000D01*
X153926000Y-140968000D02*
X151384000Y-143510000D01*
X162300000Y-140968000D02*
X153926000Y-140968000D01*
X163124000Y-140144000D02*
X162300000Y-140968000D01*
X163124000Y-138359000D02*
X163124000Y-140144000D01*
X161925000Y-137160000D02*
X163124000Y-138359000D01*
X146863000Y-83820000D02*
X147965000Y-83820000D01*
X145762000Y-84921700D02*
X146863000Y-83820000D01*
X142341000Y-84921700D02*
X145762000Y-84921700D01*
X137093000Y-90170000D02*
X142341000Y-84921700D01*
X134908000Y-90170000D02*
X137093000Y-90170000D01*
X132537000Y-92541700D02*
X134908000Y-90170000D01*
X131603000Y-92541700D02*
X132537000Y-92541700D01*
X130165000Y-93980000D02*
X131603000Y-92541700D01*
X151943000Y-83820000D02*
X147965000Y-83820000D01*
X154483000Y-86360000D02*
X151943000Y-83820000D01*
X155585000Y-86360000D02*
X154483000Y-86360000D01*
X134037000Y-135037000D02*
X133344000Y-134343000D01*
X159226000Y-135037000D02*
X134037000Y-135037000D01*
X161925000Y-137736000D02*
X159226000Y-135037000D01*
X161925000Y-137160000D02*
X161925000Y-137736000D01*
X140308000Y-83820000D02*
X142875000Y-83820000D01*
X139155000Y-84972500D02*
X140308000Y-83820000D01*
X132654000Y-84972500D02*
X139155000Y-84972500D01*
X131267000Y-86360000D02*
X132654000Y-84972500D01*
X130165000Y-86360000D02*
X131267000Y-86360000D01*
X160773000Y-53340000D02*
X161925000Y-53340000D01*
X159992000Y-54121700D02*
X160773000Y-53340000D01*
X153092000Y-54121700D02*
X159992000Y-54121700D01*
X151675000Y-52705000D02*
X153092000Y-54121700D01*
X120518000Y-57150000D02*
X117505000Y-57150000D01*
X121443000Y-56225100D02*
X120518000Y-57150000D01*
X121443000Y-56225000D02*
X121443000Y-56225100D01*
X121620000Y-56048300D02*
X121443000Y-56225000D01*
X127962000Y-56048300D02*
X121620000Y-56048300D01*
X129063000Y-57150000D02*
X127962000Y-56048300D01*
X130165000Y-57150000D02*
X129063000Y-57150000D01*
X91321700Y-53340000D02*
X90170000Y-53340000D01*
X92124300Y-54142600D02*
X91321700Y-53340000D01*
X103247000Y-54142600D02*
X92124300Y-54142600D01*
X104685000Y-52705000D02*
X103247000Y-54142600D01*
X153114000Y-103029000D02*
X154225000Y-104140000D01*
X142636000Y-103029000D02*
X153114000Y-103029000D01*
X141525000Y-104140000D02*
X142636000Y-103029000D01*
X131267000Y-57150000D02*
X130165000Y-57150000D01*
X132368000Y-56048300D02*
X131267000Y-57150000D01*
X140662000Y-56048300D02*
X132368000Y-56048300D01*
X141763000Y-57150000D02*
X140662000Y-56048300D01*
X142865000Y-57150000D02*
X141763000Y-57150000D01*
X105867000Y-57150000D02*
X104765000Y-57150000D01*
X106995000Y-58278400D02*
X105867000Y-57150000D01*
X115275000Y-58278400D02*
X106995000Y-58278400D01*
X116403000Y-57150000D02*
X115275000Y-58278400D01*
X117505000Y-57150000D02*
X116403000Y-57150000D01*
X154494000Y-56079100D02*
X155565000Y-57150000D01*
X150316000Y-56079100D02*
X154494000Y-56079100D01*
X149884000Y-55646600D02*
X150316000Y-56079100D01*
X146854000Y-55646600D02*
X149884000Y-55646600D01*
X146150000Y-56350000D02*
X146854000Y-55646600D01*
X143665000Y-56350000D02*
X146150000Y-56350000D01*
X142865000Y-57150000D02*
X143665000Y-56350000D01*
X122545000Y-83820000D02*
X130165000Y-83820000D01*
X118577000Y-81280000D02*
X117475000Y-81280000D01*
X118591000Y-81265900D02*
X118577000Y-81280000D01*
X127141000Y-81265900D02*
X118591000Y-81265900D01*
X129032000Y-79375000D02*
X127141000Y-81265900D01*
X135968000Y-131535000D02*
X133990000Y-131535000D01*
X137328000Y-130175000D02*
X135968000Y-131535000D01*
X138430000Y-130175000D02*
X137328000Y-130175000D01*
X142731000Y-51579400D02*
X141605000Y-52705000D01*
X150549000Y-51579400D02*
X142731000Y-51579400D01*
X151675000Y-52705000D02*
X150549000Y-51579400D01*
X143977000Y-83820000D02*
X142875000Y-83820000D01*
X145078000Y-82718300D02*
X143977000Y-83820000D01*
X153382000Y-82718300D02*
X145078000Y-82718300D01*
X154483000Y-83820000D02*
X153382000Y-82718300D01*
X155585000Y-83820000D02*
X154483000Y-83820000D01*
X151943000Y-91440000D02*
X147965000Y-91440000D01*
X154483000Y-93980000D02*
X151943000Y-91440000D01*
X155585000Y-93980000D02*
X154483000Y-93980000D01*
X140122000Y-143510000D02*
X141224000Y-143510000D01*
X134491000Y-137879000D02*
X140122000Y-143510000D01*
X118321000Y-137879000D02*
X134491000Y-137879000D01*
X117562000Y-137120000D02*
X118321000Y-137879000D01*
X116460000Y-137120000D02*
X117562000Y-137120000D01*
X131277000Y-108585000D02*
X130175000Y-108585000D01*
X132405000Y-109713000D02*
X131277000Y-108585000D01*
X140645000Y-109713000D02*
X132405000Y-109713000D01*
X141773000Y-108585000D02*
X140645000Y-109713000D01*
X142875000Y-108585000D02*
X141773000Y-108585000D01*
X103505000Y-86538300D02*
X103505000Y-84455000D01*
X104765000Y-87798300D02*
X103505000Y-86538300D01*
X104765000Y-88900000D02*
X104765000Y-87798300D01*
X103663000Y-99060000D02*
X104765000Y-99060000D01*
X101123000Y-96520000D02*
X103663000Y-99060000D01*
X97145000Y-96520000D02*
X101123000Y-96520000D01*
X160773000Y-142240000D02*
X161925000Y-142240000D01*
X159948000Y-141415000D02*
X160773000Y-142240000D01*
X155067000Y-141415000D02*
X159948000Y-141415000D01*
X151859000Y-144623000D02*
X155067000Y-141415000D01*
X143439000Y-144623000D02*
X151859000Y-144623000D01*
X142326000Y-143510000D02*
X143439000Y-144623000D01*
X141224000Y-143510000D02*
X142326000Y-143510000D01*
X116373000Y-111125000D02*
X117475000Y-111125000D01*
X115247000Y-112251000D02*
X116373000Y-111125000D01*
X106656000Y-112251000D02*
X115247000Y-112251000D01*
X105877000Y-113030000D02*
X106656000Y-112251000D01*
X104775000Y-113030000D02*
X105877000Y-113030000D01*
X91321700Y-142240000D02*
X90170000Y-142240000D01*
X92103500Y-141458000D02*
X91321700Y-142240000D01*
X97118500Y-141458000D02*
X92103500Y-141458000D01*
X100440000Y-144780000D02*
X97118500Y-141458000D01*
X114300000Y-144780000D02*
X100440000Y-144780000D01*
X128684000Y-104140000D02*
X128825000Y-104140000D01*
X127562000Y-103018000D02*
X128684000Y-104140000D01*
X127156000Y-103018000D02*
X127562000Y-103018000D01*
X127031000Y-103143000D02*
X127156000Y-103018000D01*
X126200000Y-103143000D02*
X127031000Y-103143000D01*
X126076000Y-103018000D02*
X126200000Y-103143000D01*
X122988000Y-103018000D02*
X126076000Y-103018000D01*
X121867000Y-104140000D02*
X122988000Y-103018000D01*
X116840000Y-104140000D02*
X121867000Y-104140000D01*
X146675000Y-53831600D02*
X146675000Y-52705000D01*
X135503000Y-53806700D02*
X136605000Y-52705000D01*
X123895000Y-53806700D02*
X135503000Y-53806700D01*
X153670000Y-137795000D02*
X152568000Y-137795000D01*
X91496700Y-139525000D02*
X104140000Y-139525000D01*
X91321700Y-139700000D02*
X91496700Y-139525000D01*
X90170000Y-139700000D02*
X91321700Y-139700000D01*
X137770000Y-80493200D02*
X136652000Y-79375000D01*
X148314000Y-80493200D02*
X137770000Y-80493200D01*
X149432000Y-79375000D02*
X148314000Y-80493200D01*
X108162000Y-78740000D02*
X108202000Y-78699900D01*
X99516700Y-78740000D02*
X108162000Y-78740000D01*
X98246700Y-80010000D02*
X99516700Y-78740000D01*
X97145000Y-80010000D02*
X98246700Y-80010000D01*
X110957000Y-126365000D02*
X109855000Y-126365000D01*
X112395000Y-124927000D02*
X110957000Y-126365000D01*
X120352000Y-124927000D02*
X112395000Y-124927000D01*
X121453000Y-123825000D02*
X120352000Y-124927000D01*
X122555000Y-123825000D02*
X121453000Y-123825000D01*
X152568000Y-137628000D02*
X152568000Y-137795000D01*
X151475000Y-136535000D02*
X152568000Y-137628000D01*
X133990000Y-136535000D02*
X151475000Y-136535000D01*
X137732000Y-53831600D02*
X136605000Y-52705000D01*
X146675000Y-53831600D02*
X137732000Y-53831600D01*
X108753000Y-126365000D02*
X109855000Y-126365000D01*
X108118000Y-127000000D02*
X108753000Y-126365000D01*
X99526700Y-127000000D02*
X108118000Y-127000000D01*
X98256700Y-128270000D02*
X99526700Y-127000000D01*
X97155000Y-128270000D02*
X98256700Y-128270000D01*
X145918000Y-105199000D02*
X145871000Y-105246000D01*
X108383000Y-78519100D02*
X108202000Y-78699900D01*
X112297000Y-53806700D02*
X111195000Y-52705000D01*
X123895000Y-53806700D02*
X112297000Y-53806700D01*
X146976000Y-104140000D02*
X145918000Y-105199000D01*
X149225000Y-104140000D02*
X146976000Y-104140000D01*
X123657000Y-123825000D02*
X122555000Y-123825000D01*
X124768000Y-122714000D02*
X123657000Y-123825000D01*
X133042000Y-122714000D02*
X124768000Y-122714000D01*
X134153000Y-123825000D02*
X133042000Y-122714000D01*
X135255000Y-123825000D02*
X134153000Y-123825000D01*
X100802000Y-51588100D02*
X99685000Y-52705000D01*
X110078000Y-51588100D02*
X100802000Y-51588100D01*
X111195000Y-52705000D02*
X110078000Y-51588100D01*
X96043300Y-57150000D02*
X97145000Y-57150000D01*
X94773300Y-55880000D02*
X96043300Y-57150000D01*
X90170000Y-55880000D02*
X94773300Y-55880000D01*
X149773000Y-53831600D02*
X146675000Y-53831600D01*
X150691000Y-54749400D02*
X149773000Y-53831600D01*
X159643000Y-54749400D02*
X150691000Y-54749400D01*
X160773000Y-55880000D02*
X159643000Y-54749400D01*
X161925000Y-55880000D02*
X160773000Y-55880000D01*
X127909000Y-99060000D02*
X122545000Y-99060000D01*
X129031000Y-100182000D02*
X127909000Y-99060000D01*
X131258000Y-100182000D02*
X129031000Y-100182000D01*
X132379000Y-99060000D02*
X131258000Y-100182000D01*
X135255000Y-99060000D02*
X132379000Y-99060000D01*
X108383000Y-78519100D02*
X108202000Y-78699900D01*
X135549000Y-78271700D02*
X136652000Y-79375000D01*
X125137000Y-78271700D02*
X135549000Y-78271700D01*
X124034000Y-79375000D02*
X125137000Y-78271700D01*
X124032000Y-79375000D02*
X124034000Y-79375000D01*
X146853000Y-123825000D02*
X147955000Y-123825000D01*
X145742000Y-122714000D02*
X146853000Y-123825000D01*
X137468000Y-122714000D02*
X145742000Y-122714000D01*
X136357000Y-123825000D02*
X137468000Y-122714000D01*
X135255000Y-123825000D02*
X136357000Y-123825000D01*
X132075000Y-134620000D02*
X133990000Y-136535000D01*
X116460000Y-134620000D02*
X132075000Y-134620000D01*
X123895000Y-52690000D02*
X123895000Y-53806700D01*
X112968000Y-105268000D02*
X111840000Y-104140000D01*
X122698000Y-105268000D02*
X112968000Y-105268000D01*
X123825000Y-104140000D02*
X122698000Y-105268000D01*
X152568000Y-138023000D02*
X152568000Y-137795000D01*
X147082000Y-143510000D02*
X152568000Y-138023000D01*
X146384000Y-143510000D02*
X147082000Y-143510000D01*
X158868000Y-137795000D02*
X153670000Y-137795000D01*
X160773000Y-139700000D02*
X158868000Y-137795000D01*
X161925000Y-139700000D02*
X160773000Y-139700000D01*
X110067000Y-76835000D02*
X108383000Y-78519100D01*
X111205000Y-76835000D02*
X110067000Y-76835000D01*
X145918000Y-105199000D02*
X145871000Y-105246000D01*
X139532000Y-104140000D02*
X136525000Y-104140000D01*
X140637000Y-105246000D02*
X139532000Y-104140000D01*
X145871000Y-105246000D02*
X140637000Y-105246000D01*
X90170000Y-119380000D02*
X93861700Y-119380000D01*
X93861700Y-119380000D02*
X96401700Y-121920000D01*
X96401700Y-121920000D02*
X106760000Y-121920000D01*
X106760000Y-121920000D02*
X107271000Y-122432000D01*
X107271000Y-122432000D02*
X124016000Y-122432000D01*
X124016000Y-122432000D02*
X125896000Y-120551000D01*
X125896000Y-120551000D02*
X128636000Y-120551000D01*
X128636000Y-120551000D02*
X129330000Y-119857000D01*
M02*
