G04 #@! TF.GenerationSoftware,KiCad,Pcbnew,8.0.9-8.0.9-0~ubuntu22.04.1*
G04 #@! TF.CreationDate,2025-06-29T10:32:47+10:00*
G04 #@! TF.ProjectId,UE1-TTL-Clock,5545312d-5454-44c2-9d43-6c6f636b2e6b,rev?*
G04 #@! TF.SameCoordinates,Original*
G04 #@! TF.FileFunction,Copper,L1,Top*
G04 #@! TF.FilePolarity,Positive*
%FSLAX46Y46*%
G04 Gerber Fmt 4.6, Leading zero omitted, Abs format (unit mm)*
G04 Created by KiCad (PCBNEW 8.0.9-8.0.9-0~ubuntu22.04.1) date 2025-06-29 10:32:47*
%MOMM*%
%LPD*%
G01*
G04 APERTURE LIST*
G04 #@! TA.AperFunction,ComponentPad*
%ADD10C,1.600000*%
G04 #@! TD*
G04 #@! TA.AperFunction,ComponentPad*
%ADD11R,1.800000X1.800000*%
G04 #@! TD*
G04 #@! TA.AperFunction,ComponentPad*
%ADD12C,1.800000*%
G04 #@! TD*
G04 #@! TA.AperFunction,ComponentPad*
%ADD13C,2.000000*%
G04 #@! TD*
G04 #@! TA.AperFunction,ComponentPad*
%ADD14R,2.000000X2.000000*%
G04 #@! TD*
G04 #@! TA.AperFunction,ComponentPad*
%ADD15R,1.600000X1.600000*%
G04 #@! TD*
G04 #@! TA.AperFunction,ComponentPad*
%ADD16O,1.600000X1.600000*%
G04 #@! TD*
G04 #@! TA.AperFunction,SMDPad,CuDef*
%ADD17C,1.500000*%
G04 #@! TD*
G04 #@! TA.AperFunction,ComponentPad*
%ADD18R,1.700000X1.700000*%
G04 #@! TD*
G04 #@! TA.AperFunction,ComponentPad*
%ADD19O,1.700000X1.700000*%
G04 #@! TD*
G04 #@! TA.AperFunction,ComponentPad*
%ADD20C,1.440000*%
G04 #@! TD*
G04 #@! TA.AperFunction,ViaPad*
%ADD21C,0.600000*%
G04 #@! TD*
G04 #@! TA.AperFunction,Conductor*
%ADD22C,0.200000*%
G04 #@! TD*
G04 APERTURE END LIST*
D10*
X103124000Y-85932000D03*
X103124000Y-90932000D03*
D11*
X116078000Y-75311000D03*
D12*
X118618000Y-75311000D03*
D10*
X134620000Y-143176000D03*
X134620000Y-138176000D03*
D13*
X106276000Y-138375000D03*
X112776000Y-138375000D03*
X106276000Y-142875000D03*
X112776000Y-142875000D03*
X139804000Y-138375000D03*
X146304000Y-138375000D03*
X139804000Y-142875000D03*
X146304000Y-142875000D03*
D10*
X128524000Y-98044000D03*
X128524000Y-103044000D03*
D14*
X122490000Y-120904000D03*
D13*
X130090000Y-120904000D03*
D15*
X107188000Y-93472000D03*
D16*
X109728000Y-93472000D03*
X112268000Y-93472000D03*
X114808000Y-93472000D03*
X117348000Y-93472000D03*
X119888000Y-93472000D03*
X122428000Y-93472000D03*
X122428000Y-85852000D03*
X119888000Y-85852000D03*
X117348000Y-85852000D03*
X114808000Y-85852000D03*
X112268000Y-85852000D03*
X109728000Y-85852000D03*
X107188000Y-85852000D03*
D10*
X107188000Y-59309000D03*
D16*
X114808000Y-59309000D03*
D10*
X110490000Y-132080000D03*
D16*
X110490000Y-124460000D03*
D17*
X156210000Y-127000000D03*
D18*
X90170000Y-53340000D03*
D19*
X90170000Y-55880000D03*
X90170000Y-58420000D03*
X90170000Y-60960000D03*
X90170000Y-63500000D03*
X90170000Y-66040000D03*
X90170000Y-68580000D03*
X90170000Y-71120000D03*
X90170000Y-73660000D03*
X90170000Y-76200000D03*
X90170000Y-78740000D03*
X90170000Y-81280000D03*
X90170000Y-83820000D03*
X90170000Y-86360000D03*
X90170000Y-88900000D03*
X90170000Y-91440000D03*
X90170000Y-93980000D03*
X90170000Y-96520000D03*
X90170000Y-99060000D03*
X90170000Y-101600000D03*
X90170000Y-104140000D03*
X90170000Y-106680000D03*
X90170000Y-109220000D03*
X90170000Y-111760000D03*
X90170000Y-114300000D03*
X90170000Y-116840000D03*
X90170000Y-119380000D03*
X90170000Y-121920000D03*
X90170000Y-124460000D03*
X90170000Y-127000000D03*
X90170000Y-129540000D03*
X90170000Y-132080000D03*
X90170000Y-134620000D03*
X90170000Y-137160000D03*
X90170000Y-139700000D03*
X90170000Y-142240000D03*
D10*
X145288000Y-81153000D03*
D16*
X137668000Y-81153000D03*
D15*
X132583000Y-105664000D03*
D16*
X135123000Y-105664000D03*
X137663000Y-105664000D03*
X140203000Y-105664000D03*
X142743000Y-105664000D03*
X145283000Y-105664000D03*
X147823000Y-105664000D03*
X147823000Y-98044000D03*
X145283000Y-98044000D03*
X142743000Y-98044000D03*
X140203000Y-98044000D03*
X137663000Y-98044000D03*
X135123000Y-98044000D03*
X132583000Y-98044000D03*
D15*
X98425000Y-116850000D03*
D16*
X98425000Y-119390000D03*
X98425000Y-121930000D03*
X98425000Y-124470000D03*
X106045000Y-124470000D03*
X106045000Y-121930000D03*
X106045000Y-119390000D03*
X106045000Y-116850000D03*
D10*
X151384000Y-137875000D03*
X151384000Y-142875000D03*
D15*
X107188000Y-105664000D03*
D16*
X109728000Y-105664000D03*
X112268000Y-105664000D03*
X114808000Y-105664000D03*
X117348000Y-105664000D03*
X119888000Y-105664000D03*
X122428000Y-105664000D03*
X122428000Y-98044000D03*
X119888000Y-98044000D03*
X117348000Y-98044000D03*
X114808000Y-98044000D03*
X112268000Y-98044000D03*
X109728000Y-98044000D03*
X107188000Y-98044000D03*
D10*
X155448000Y-59309000D03*
D16*
X147828000Y-59309000D03*
D10*
X135128000Y-69977000D03*
D16*
X127508000Y-69977000D03*
D10*
X155448000Y-69977000D03*
D16*
X147828000Y-69977000D03*
D11*
X116078000Y-64516000D03*
D12*
X118618000Y-64516000D03*
D10*
X155448000Y-81153000D03*
D16*
X147828000Y-81153000D03*
D18*
X104775000Y-111125000D03*
D19*
X102235000Y-111125000D03*
X99695000Y-111125000D03*
D11*
X138938000Y-75311000D03*
D12*
X141478000Y-75311000D03*
D10*
X117348000Y-69977000D03*
D16*
X124968000Y-69977000D03*
D11*
X121793000Y-75311000D03*
D12*
X124333000Y-75311000D03*
D10*
X117348000Y-81153000D03*
D16*
X124968000Y-81153000D03*
D15*
X146050000Y-116840000D03*
D16*
X146050000Y-119380000D03*
X146050000Y-121920000D03*
X146050000Y-124460000D03*
X153670000Y-124460000D03*
X153670000Y-121920000D03*
X153670000Y-119380000D03*
X153670000Y-116840000D03*
D11*
X138938000Y-64516000D03*
D12*
X141478000Y-64516000D03*
D11*
X110363000Y-64516000D03*
D12*
X112903000Y-64516000D03*
D10*
X145288000Y-59309000D03*
D16*
X137668000Y-59309000D03*
D10*
X144780000Y-132080000D03*
D16*
X152400000Y-132080000D03*
D11*
X121793000Y-64516000D03*
D12*
X124333000Y-64516000D03*
D10*
X117856000Y-143176000D03*
X117856000Y-138176000D03*
X97028000Y-81153000D03*
D16*
X104648000Y-81153000D03*
D10*
X94488000Y-64897000D03*
D16*
X102108000Y-64897000D03*
D11*
X110363000Y-53721000D03*
D12*
X112903000Y-53721000D03*
D11*
X133223000Y-64516000D03*
D12*
X135763000Y-64516000D03*
D11*
X127508000Y-75311000D03*
D12*
X130048000Y-75311000D03*
D10*
X107188000Y-81153000D03*
D16*
X114808000Y-81153000D03*
D10*
X104695000Y-128524000D03*
X99695000Y-128524000D03*
D17*
X97790000Y-104775000D03*
D11*
X144653000Y-64516000D03*
D12*
X147193000Y-64516000D03*
D11*
X133223000Y-53721000D03*
D12*
X135763000Y-53721000D03*
D11*
X127508000Y-64516000D03*
D12*
X130048000Y-64516000D03*
D11*
X104648000Y-53721000D03*
D12*
X107188000Y-53721000D03*
D10*
X97028000Y-59309000D03*
D16*
X104648000Y-59309000D03*
D11*
X121793000Y-53721000D03*
D12*
X124333000Y-53721000D03*
D11*
X104648000Y-64516000D03*
D12*
X107188000Y-64516000D03*
D10*
X134620000Y-125984000D03*
D16*
X134620000Y-133604000D03*
D11*
X138938000Y-53721000D03*
D12*
X141478000Y-53721000D03*
D10*
X101092000Y-138256000D03*
X101092000Y-143256000D03*
D11*
X116078000Y-53721000D03*
D12*
X118618000Y-53721000D03*
D15*
X132588000Y-93472000D03*
D16*
X135128000Y-93472000D03*
X137668000Y-93472000D03*
X140208000Y-93472000D03*
X142748000Y-93472000D03*
X145288000Y-93472000D03*
X147828000Y-93472000D03*
X147828000Y-85852000D03*
X145288000Y-85852000D03*
X142748000Y-85852000D03*
X140208000Y-85852000D03*
X137668000Y-85852000D03*
X135128000Y-85852000D03*
X132588000Y-85852000D03*
D10*
X94488000Y-75565000D03*
D16*
X102108000Y-75565000D03*
D10*
X145288000Y-69977000D03*
D16*
X137668000Y-69977000D03*
D11*
X144653000Y-53721000D03*
D12*
X147193000Y-53721000D03*
D10*
X157480000Y-64897000D03*
D16*
X149860000Y-64897000D03*
D13*
X123040000Y-138375000D03*
X129540000Y-138375000D03*
X123040000Y-142875000D03*
X129540000Y-142875000D03*
D10*
X157480000Y-75565000D03*
D16*
X149860000Y-75565000D03*
D11*
X110363000Y-75311000D03*
D12*
X112903000Y-75311000D03*
D18*
X161925000Y-53340000D03*
D19*
X161925000Y-55880000D03*
X161925000Y-58420000D03*
X161925000Y-60960000D03*
X161925000Y-63500000D03*
X161925000Y-66040000D03*
X161925000Y-68580000D03*
X161925000Y-71120000D03*
X161925000Y-73660000D03*
X161925000Y-76200000D03*
X161925000Y-78740000D03*
X161925000Y-81280000D03*
X161925000Y-83820000D03*
X161925000Y-86360000D03*
X161925000Y-88900000D03*
X161925000Y-91440000D03*
X161925000Y-93980000D03*
X161925000Y-96520000D03*
X161925000Y-99060000D03*
X161925000Y-101600000D03*
X161925000Y-104140000D03*
X161925000Y-106680000D03*
X161925000Y-109220000D03*
X161925000Y-111760000D03*
X161925000Y-114300000D03*
X161925000Y-116840000D03*
X161925000Y-119380000D03*
X161925000Y-121920000D03*
X161925000Y-124460000D03*
X161925000Y-127000000D03*
X161925000Y-129540000D03*
X161925000Y-132080000D03*
X161925000Y-134620000D03*
X161925000Y-137160000D03*
X161925000Y-139700000D03*
X161925000Y-142240000D03*
D10*
X135128000Y-59309000D03*
D16*
X127508000Y-59309000D03*
D10*
X117856000Y-125984000D03*
D16*
X117856000Y-133604000D03*
D10*
X141732000Y-124460000D03*
D16*
X141732000Y-116840000D03*
D10*
X97028000Y-69977000D03*
D16*
X104648000Y-69977000D03*
D10*
X152400000Y-128270000D03*
X147400000Y-128270000D03*
D17*
X156210000Y-129540000D03*
D11*
X127508000Y-53721000D03*
D12*
X130048000Y-53721000D03*
D11*
X133223000Y-75311000D03*
D12*
X135763000Y-75311000D03*
D10*
X117348000Y-59309000D03*
D16*
X124968000Y-59309000D03*
D10*
X103124000Y-98124000D03*
X103124000Y-103124000D03*
X128524000Y-85932000D03*
X128524000Y-90932000D03*
D20*
X114920000Y-118670000D03*
X112380000Y-118670000D03*
X109840000Y-118670000D03*
D10*
X107188000Y-69977000D03*
D16*
X114808000Y-69977000D03*
D18*
X151130000Y-111125000D03*
D19*
X148590000Y-111125000D03*
D10*
X135128000Y-81153000D03*
D16*
X127508000Y-81153000D03*
D10*
X98425000Y-132080000D03*
D16*
X106045000Y-132080000D03*
D21*
X104244500Y-98974200D03*
X154195300Y-54888000D03*
X133021000Y-70081200D03*
X118508400Y-131806600D03*
X124480300Y-113845700D03*
X107557700Y-117029200D03*
X126577400Y-91491000D03*
X127527600Y-116765200D03*
X107902500Y-89815500D03*
X113203200Y-88900000D03*
X155168800Y-83698900D03*
X133455000Y-87087700D03*
X115677600Y-90932500D03*
X106814300Y-112281200D03*
X109348300Y-130973400D03*
X141362300Y-96511800D03*
X147173700Y-104147200D03*
X141763000Y-99513700D03*
X106292200Y-101638900D03*
X93154600Y-97013700D03*
X134188400Y-104047100D03*
X130770000Y-93226900D03*
X130227700Y-104348000D03*
X100863100Y-101020900D03*
X133858000Y-90934100D03*
X144332300Y-84780300D03*
D22*
X104244500Y-92052500D02*
X103124000Y-90932000D01*
X147400000Y-128270000D02*
X147400000Y-137279000D01*
X123598500Y-95744200D02*
X122428000Y-94573700D01*
X121793000Y-75311000D02*
X121793000Y-76512700D01*
X129652000Y-92060000D02*
X128524000Y-90932000D01*
X146050000Y-116840000D02*
X146050000Y-108538700D01*
X90170000Y-138816800D02*
X97323300Y-131663500D01*
X105973000Y-138375000D02*
X106276000Y-138375000D01*
X110363000Y-64516000D02*
X110363000Y-53721000D01*
X148966500Y-95712200D02*
X148966500Y-103418800D01*
X148966500Y-103418800D02*
X147823000Y-104562300D01*
X104244500Y-98974200D02*
X104244500Y-92052500D01*
X147828000Y-94573700D02*
X148966500Y-95712200D01*
X147823000Y-105664000D02*
X147823000Y-106765700D01*
X101092000Y-143256000D02*
X105973000Y-138375000D01*
X135123000Y-115871000D02*
X135123000Y-105664000D01*
X110363000Y-75311000D02*
X110363000Y-76512700D01*
X112268000Y-96942300D02*
X111166300Y-95840600D01*
X116078000Y-64516000D02*
X116078000Y-53721000D01*
X122428000Y-93472000D02*
X122428000Y-92370300D01*
X123598500Y-103391800D02*
X123598500Y-95744200D01*
X121316700Y-91259000D02*
X121316700Y-76989000D01*
X122428000Y-92370300D02*
X121316700Y-91259000D01*
X122428000Y-94022800D02*
X122428000Y-94573700D01*
X122428000Y-94022800D02*
X122428000Y-93472000D01*
X146050000Y-108538700D02*
X147823000Y-106765700D01*
X110363000Y-75311000D02*
X110363000Y-64516000D01*
X122428000Y-104562300D02*
X123598500Y-103391800D01*
X112268000Y-98044000D02*
X112268000Y-96942300D01*
X111166300Y-77316000D02*
X110363000Y-76512700D01*
X130090000Y-137825000D02*
X130090000Y-120904000D01*
X147400000Y-137279000D02*
X146304000Y-138375000D01*
X98425000Y-117813900D02*
X97323300Y-118915600D01*
X122428000Y-105664000D02*
X122428000Y-104562300D01*
X98425000Y-116850000D02*
X98425000Y-117813900D01*
X128524000Y-103044000D02*
X129652000Y-101916000D01*
X99695000Y-141859000D02*
X101092000Y-143256000D01*
X90170000Y-139700000D02*
X90170000Y-138816800D01*
X129652000Y-101916000D02*
X129652000Y-92060000D01*
X99695000Y-128524000D02*
X99695000Y-141859000D01*
X111166300Y-95840600D02*
X111166300Y-77316000D01*
X97323300Y-131663500D02*
X97323300Y-118915600D01*
X147823000Y-105664000D02*
X147823000Y-104562300D01*
X130090000Y-120904000D02*
X135123000Y-115871000D01*
X121316700Y-76989000D02*
X121793000Y-76512700D01*
X147828000Y-93472000D02*
X147828000Y-94573700D01*
X129540000Y-138375000D02*
X130090000Y-137825000D01*
X107188000Y-85852000D02*
X107188000Y-86953700D01*
X98425000Y-133121200D02*
X98425000Y-132080000D01*
X106045000Y-110268300D02*
X104244500Y-108467800D01*
X132021300Y-71080900D02*
X133021000Y-70081200D01*
X127400900Y-87055100D02*
X128524000Y-85932000D01*
X107188000Y-98044000D02*
X107188000Y-96942300D01*
X132588000Y-84750300D02*
X132021300Y-84183600D01*
X128524000Y-98044000D02*
X127400900Y-96920900D01*
X90170000Y-141376200D02*
X98425000Y-133121200D01*
X106045000Y-116850000D02*
X98425000Y-124470000D01*
X98425000Y-124470000D02*
X98425000Y-132080000D01*
X119888000Y-85852000D02*
X119888000Y-93472000D01*
X132588000Y-85852000D02*
X132588000Y-84750300D01*
X106086300Y-95840600D02*
X106086300Y-88055400D01*
X104244500Y-101775600D02*
X103124000Y-100655100D01*
X104244500Y-108467800D02*
X104244500Y-101775600D01*
X106045000Y-116850000D02*
X106045000Y-110268300D01*
X90170000Y-53340000D02*
X92671200Y-53340000D01*
X100838000Y-83646000D02*
X103124000Y-85932000D01*
X100838000Y-61506800D02*
X100838000Y-83646000D01*
X153670000Y-116840000D02*
X146050000Y-124460000D01*
X107188000Y-96942300D02*
X106086300Y-95840600D01*
X106086300Y-88055400D02*
X107188000Y-86953700D01*
X154195300Y-68724300D02*
X154195300Y-54888000D01*
X132021300Y-84183600D02*
X132021300Y-71080900D01*
X155448000Y-69977000D02*
X154195300Y-68724300D01*
X103124000Y-100655100D02*
X103124000Y-98124000D01*
X146050000Y-124460000D02*
X146050000Y-130810000D01*
X92671200Y-53340000D02*
X100838000Y-61506800D01*
X127400900Y-96920900D02*
X127400900Y-87055100D01*
X146050000Y-130810000D02*
X144780000Y-132080000D01*
X155448000Y-69977000D02*
X157480000Y-72009000D01*
X157480000Y-72009000D02*
X157480000Y-75565000D01*
X90170000Y-142240000D02*
X90170000Y-141376200D01*
X137668000Y-85852000D02*
X137668000Y-86953700D01*
X138844800Y-88130500D02*
X138844800Y-135507100D01*
X138493500Y-135858400D02*
X138493500Y-141564500D01*
X137668000Y-86953700D02*
X138844800Y-88130500D01*
X138844800Y-135507100D02*
X138493500Y-135858400D01*
X138493500Y-141564500D02*
X139804000Y-142875000D01*
X112268000Y-94573700D02*
X112956600Y-94573700D01*
X118961000Y-106591000D02*
X118961000Y-106811000D01*
X119888000Y-105664000D02*
X118961000Y-106591000D01*
X116931600Y-106811000D02*
X118961000Y-106811000D01*
X116078000Y-105957400D02*
X116931600Y-106811000D01*
X118508400Y-131806600D02*
X118961000Y-131354000D01*
X116078000Y-97695100D02*
X116078000Y-105957400D01*
X118961000Y-131354000D02*
X118961000Y-106811000D01*
X112956600Y-94573700D02*
X116078000Y-97695100D01*
X112268000Y-93472000D02*
X112268000Y-94573700D01*
X124480300Y-83059000D02*
X124480300Y-113845700D01*
X117348000Y-69977000D02*
X118692500Y-69977000D01*
X123063000Y-81641700D02*
X124480300Y-83059000D01*
X123063000Y-74347500D02*
X123063000Y-81641700D01*
X118692500Y-69977000D02*
X123063000Y-74347500D01*
X133223000Y-64516000D02*
X133223000Y-65717700D01*
X107557700Y-117029200D02*
X108458000Y-116128900D01*
X109728000Y-93472000D02*
X109728000Y-94573700D01*
X131619600Y-79374900D02*
X126999200Y-83995300D01*
X133223000Y-65717700D02*
X131619600Y-67321100D01*
X131619600Y-67321100D02*
X131619600Y-79374900D01*
X126999200Y-91069200D02*
X126577400Y-91491000D01*
X108458000Y-95843700D02*
X109728000Y-94573700D01*
X126999200Y-83995300D02*
X126999200Y-91069200D01*
X108458000Y-116128900D02*
X108458000Y-95843700D01*
X146558000Y-75568200D02*
X146558000Y-67622700D01*
X158681100Y-88062000D02*
X154567100Y-83948000D01*
X146558000Y-67622700D02*
X144653000Y-65717700D01*
X154567100Y-83577300D02*
X146558000Y-75568200D01*
X154567100Y-83948000D02*
X154567100Y-83577300D01*
X144653000Y-65717700D02*
X144653000Y-64516000D01*
X161925000Y-124460000D02*
X158681100Y-121216100D01*
X158681100Y-121216100D02*
X158681100Y-88062000D01*
X151130000Y-80758900D02*
X138938000Y-68566900D01*
X151130000Y-111125000D02*
X151130000Y-80758900D01*
X138938000Y-68566900D02*
X138938000Y-64516000D01*
X160773300Y-77588300D02*
X160773300Y-68190300D01*
X160773300Y-68190300D02*
X157480000Y-64897000D01*
X161925000Y-78740000D02*
X160773300Y-77588300D01*
X97028000Y-59309000D02*
X91347800Y-64989200D01*
X90438500Y-92828300D02*
X90170000Y-92828300D01*
X90170000Y-93980000D02*
X90170000Y-92828300D01*
X91347800Y-91919000D02*
X90438500Y-92828300D01*
X91347800Y-64989200D02*
X91347800Y-91919000D01*
X127508000Y-64516000D02*
X127508000Y-65717700D01*
X127508000Y-65717700D02*
X126306300Y-66919400D01*
X125975700Y-91241900D02*
X125975700Y-115213300D01*
X126306300Y-90911300D02*
X125975700Y-91241900D01*
X126306300Y-66919400D02*
X126306300Y-90911300D01*
X125975700Y-115213300D02*
X127527600Y-116765200D01*
X108454300Y-89263700D02*
X107902500Y-89815500D01*
X107188000Y-59309000D02*
X108454300Y-60575300D01*
X108454300Y-60575300D02*
X108454300Y-89263700D01*
X90170000Y-109220000D02*
X92552900Y-106837100D01*
X92552900Y-106837100D02*
X92552900Y-81935500D01*
X97028000Y-77460400D02*
X97028000Y-69977000D01*
X92552900Y-81935500D02*
X97028000Y-77460400D01*
X90170000Y-106680000D02*
X90170000Y-105814200D01*
X92151200Y-103833000D02*
X92151200Y-77901800D01*
X90170000Y-105814200D02*
X92151200Y-103833000D01*
X92151200Y-77901800D02*
X94488000Y-75565000D01*
X114112200Y-75862600D02*
X113386600Y-76588200D01*
X117348000Y-65649200D02*
X113681300Y-69315900D01*
X117348000Y-59309000D02*
X117348000Y-65649200D01*
X113681300Y-70752100D02*
X114112200Y-71183000D01*
X114112200Y-71183000D02*
X114112200Y-75862600D01*
X113386600Y-76588200D02*
X113386600Y-88716600D01*
X113386600Y-88716600D02*
X113203200Y-88900000D01*
X113681300Y-69315900D02*
X113681300Y-70752100D01*
X148633600Y-62654600D02*
X145288000Y-59309000D01*
X152051500Y-68726500D02*
X148633600Y-65308600D01*
X155168800Y-83698900D02*
X155168800Y-83221400D01*
X148633600Y-65308600D02*
X148633600Y-62654600D01*
X155168800Y-83221400D02*
X152051500Y-80104100D01*
X152051500Y-80104100D02*
X152051500Y-68726500D01*
X133455000Y-87087700D02*
X133694100Y-86848600D01*
X133694100Y-86848600D02*
X133694100Y-80781900D01*
X133977200Y-69322800D02*
X134492900Y-68807100D01*
X134426300Y-72729500D02*
X133977200Y-72280400D01*
X134492900Y-59944100D02*
X135128000Y-59309000D01*
X133977200Y-72280400D02*
X133977200Y-69322800D01*
X134492900Y-68807100D02*
X134492900Y-59944100D01*
X134426300Y-80049700D02*
X134426300Y-72729500D01*
X133694100Y-80781900D02*
X134426300Y-80049700D01*
X91749500Y-94940500D02*
X91749500Y-67635500D01*
X90170000Y-96520000D02*
X91749500Y-94940500D01*
X91749500Y-67635500D02*
X94488000Y-64897000D01*
X116078000Y-90532100D02*
X116078000Y-82423000D01*
X115677600Y-90932500D02*
X116078000Y-90532100D01*
X116078000Y-82423000D02*
X117348000Y-81153000D01*
X106086300Y-84383800D02*
X105282900Y-85187200D01*
X107188000Y-69977000D02*
X106086300Y-71078700D01*
X105282900Y-106353600D02*
X106814300Y-107885000D01*
X106086300Y-71078700D02*
X106086300Y-84383800D01*
X105282900Y-85187200D02*
X105282900Y-106353600D01*
X106814300Y-107885000D02*
X106814300Y-112281200D01*
X111166300Y-107867400D02*
X111166300Y-121326500D01*
X163077900Y-130927100D02*
X163077900Y-103627200D01*
X111166300Y-121326500D02*
X109348300Y-123144500D01*
X112268000Y-105664000D02*
X112268000Y-106765700D01*
X109348300Y-123144500D02*
X109348300Y-130973400D01*
X159124100Y-100427900D02*
X159124100Y-84829100D01*
X162320700Y-102870000D02*
X161566200Y-102870000D01*
X161925000Y-132080000D02*
X163077900Y-130927100D01*
X159124100Y-84829100D02*
X155448000Y-81153000D01*
X163077900Y-103627200D02*
X162320700Y-102870000D01*
X112268000Y-106765700D02*
X111166300Y-107867400D01*
X161566200Y-102870000D02*
X159124100Y-100427900D01*
X135128000Y-81153000D02*
X139044800Y-85069800D01*
X141362300Y-88781400D02*
X141362300Y-96511800D01*
X139044800Y-86463900D02*
X141362300Y-88781400D01*
X139044800Y-85069800D02*
X139044800Y-86463900D01*
X147272200Y-104245700D02*
X147173700Y-104147200D01*
X146668100Y-103641600D02*
X146668100Y-82533100D01*
X146668100Y-82533100D02*
X145288000Y-81153000D01*
X147272200Y-104245700D02*
X146668100Y-103641600D01*
X159259300Y-69503300D02*
X155448000Y-65692000D01*
X155448000Y-65692000D02*
X155448000Y-59309000D01*
X161925000Y-81280000D02*
X159259300Y-78614300D01*
X159259300Y-78614300D02*
X159259300Y-69503300D01*
X101092000Y-138256000D02*
X101092000Y-134751300D01*
X106045000Y-129798300D02*
X106045000Y-124470000D01*
X101092000Y-134751300D02*
X106045000Y-129798300D01*
X106045000Y-121930000D02*
X104695000Y-123280000D01*
X104695000Y-123280000D02*
X104695000Y-128524000D01*
X94704400Y-117267300D02*
X99695000Y-112276700D01*
X94704400Y-125005600D02*
X94704400Y-117267300D01*
X90170000Y-129540000D02*
X94704400Y-125005600D01*
X99695000Y-112276700D02*
X99695000Y-111125000D01*
X102108000Y-69596000D02*
X102108000Y-75565000D01*
X107188000Y-64516000D02*
X102108000Y-69596000D01*
X97790000Y-104775000D02*
X101020800Y-108005800D01*
X101020800Y-112288200D02*
X102748000Y-112288200D01*
X101020800Y-108005800D02*
X101020800Y-112288200D01*
X102748000Y-112288200D02*
X103623300Y-111412900D01*
X103623300Y-111412900D02*
X103623300Y-111125000D01*
X98425000Y-121930000D02*
X101020800Y-119334200D01*
X104775000Y-111125000D02*
X103623300Y-111125000D01*
X101020800Y-119334200D02*
X101020800Y-112288200D01*
X151278000Y-137769000D02*
X151384000Y-137875000D01*
X153670000Y-124460000D02*
X151278000Y-126852000D01*
X151278000Y-126852000D02*
X151278000Y-137769000D01*
X141763000Y-99513700D02*
X141864200Y-99614900D01*
X145283000Y-105664000D02*
X145283000Y-103033700D01*
X105684600Y-85553700D02*
X107188000Y-84050300D01*
X141864200Y-99614900D02*
X141763000Y-99513700D01*
X106292200Y-101638900D02*
X105684600Y-101031300D01*
X145283000Y-103033700D02*
X141763000Y-99513700D01*
X105684600Y-101031300D02*
X105684600Y-85553700D01*
X107188000Y-84050300D02*
X107188000Y-81153000D01*
X117348000Y-104225700D02*
X117348000Y-105664000D01*
X122428000Y-98044000D02*
X122428000Y-99145700D01*
X122428000Y-99145700D02*
X117348000Y-104225700D01*
X93154600Y-124015400D02*
X93154600Y-97013700D01*
X93154600Y-85026400D02*
X93154600Y-97013700D01*
X97028000Y-81153000D02*
X93154600Y-85026400D01*
X90170000Y-127000000D02*
X93154600Y-124015400D01*
X135123000Y-98044000D02*
X135123000Y-103112500D01*
X135123000Y-103112500D02*
X134188400Y-104047100D01*
X134263600Y-103971900D02*
X134188400Y-104047100D01*
X134188400Y-104047100D02*
X134263600Y-103971900D01*
X130227700Y-93769200D02*
X130770000Y-93226900D01*
X130227700Y-93769200D02*
X130227700Y-104348000D01*
X153670000Y-121920000D02*
X154781000Y-123031000D01*
X153670000Y-119380000D02*
X153670000Y-121920000D01*
X154781000Y-125889000D02*
X152400000Y-128270000D01*
X154781000Y-123031000D02*
X154781000Y-125889000D01*
X152400000Y-128270000D02*
X152400000Y-132080000D01*
X102235000Y-105038200D02*
X102235000Y-111125000D01*
X100863100Y-101020900D02*
X100863100Y-103666300D01*
X100863100Y-103666300D02*
X102235000Y-105038200D01*
X118618000Y-65065300D02*
X118618000Y-64516000D01*
X114808000Y-69977000D02*
X114808000Y-68875300D01*
X114808000Y-68875300D02*
X118618000Y-65065300D01*
X124333000Y-68240300D02*
X124968000Y-68875300D01*
X124333000Y-64516000D02*
X124333000Y-68240300D01*
X124968000Y-69977000D02*
X124968000Y-68875300D01*
X102108000Y-58801000D02*
X102108000Y-64897000D01*
X107188000Y-53721000D02*
X102108000Y-58801000D01*
X133858000Y-103287300D02*
X133858000Y-90934100D01*
X144332300Y-84780300D02*
X144018000Y-85094600D01*
X144018000Y-91100300D02*
X142748000Y-92370300D01*
X144018000Y-85094600D02*
X144018000Y-91100300D01*
X132583000Y-105664000D02*
X132583000Y-104562300D01*
X142748000Y-93472000D02*
X142748000Y-92370300D01*
X132583000Y-104562300D02*
X133858000Y-103287300D01*
X144589500Y-94573700D02*
X141304700Y-97858500D01*
X141304700Y-97858500D02*
X141304700Y-99121200D01*
X140203000Y-105664000D02*
X140203000Y-104562300D01*
X145288000Y-93472000D02*
X145288000Y-94573700D01*
X140203000Y-100222900D02*
X140203000Y-104562300D01*
X141304700Y-99121200D02*
X140203000Y-100222900D01*
X145288000Y-94573700D02*
X144589500Y-94573700D01*
X124333000Y-57572300D02*
X124968000Y-58207300D01*
X124333000Y-53721000D02*
X124333000Y-57572300D01*
X124968000Y-59309000D02*
X124968000Y-58207300D01*
X127508000Y-69977000D02*
X127508000Y-68875300D01*
X130048000Y-66335300D02*
X130048000Y-64516000D01*
X127508000Y-68875300D02*
X130048000Y-66335300D01*
X130048000Y-55667300D02*
X130048000Y-53721000D01*
X127508000Y-58207300D02*
X130048000Y-55667300D01*
X127508000Y-59309000D02*
X127508000Y-58207300D01*
X137668000Y-69977000D02*
X137668000Y-66421000D01*
X137668000Y-66421000D02*
X135763000Y-64516000D01*
X135763000Y-53721000D02*
X135763000Y-56302300D01*
X137668000Y-59309000D02*
X137668000Y-58207300D01*
X135763000Y-56302300D02*
X137668000Y-58207300D01*
X142679700Y-63314300D02*
X145692400Y-63314300D01*
X145923000Y-63544900D02*
X145923000Y-65490100D01*
X147828000Y-67395100D02*
X147828000Y-69977000D01*
X145923000Y-65490100D02*
X147828000Y-67395100D01*
X141478000Y-64516000D02*
X142679700Y-63314300D01*
X145692400Y-63314300D02*
X145923000Y-63544900D01*
X149860000Y-67183000D02*
X149860000Y-75565000D01*
X147193000Y-64516000D02*
X149860000Y-67183000D01*
X147193000Y-53721000D02*
X149860000Y-56388000D01*
X149860000Y-56388000D02*
X149860000Y-64897000D01*
X124968000Y-80051300D02*
X124333000Y-79416300D01*
X124968000Y-81153000D02*
X124968000Y-80051300D01*
X124333000Y-79416300D02*
X124333000Y-75311000D01*
X127508000Y-81153000D02*
X127508000Y-80051300D01*
X127508000Y-80051300D02*
X130048000Y-77511300D01*
X130048000Y-77511300D02*
X130048000Y-75311000D01*
X137668000Y-77216000D02*
X135763000Y-75311000D01*
X137668000Y-81153000D02*
X137668000Y-77216000D01*
X114808000Y-80051300D02*
X118618000Y-76241300D01*
X114808000Y-81153000D02*
X114808000Y-80051300D01*
X118618000Y-76241300D02*
X118618000Y-75311000D01*
X106045000Y-130978300D02*
X106045000Y-132080000D01*
X107156000Y-120501000D02*
X107156000Y-129867300D01*
X107156000Y-129867300D02*
X106045000Y-130978300D01*
X106045000Y-119390000D02*
X107156000Y-120501000D01*
X114920000Y-118928300D02*
X114920000Y-118670000D01*
X110490000Y-123358300D02*
X114920000Y-118928300D01*
X110490000Y-124460000D02*
X110490000Y-123358300D01*
X117856000Y-133604000D02*
X117856000Y-134154800D01*
X117856000Y-134154800D02*
X117856000Y-134705700D01*
X117856000Y-134705700D02*
X116706500Y-135855200D01*
X130855100Y-110405800D02*
X130855100Y-96306600D01*
X116706500Y-142026500D02*
X117856000Y-143176000D01*
X128129400Y-123881400D02*
X128129400Y-113131500D01*
X117856000Y-134154800D02*
X128129400Y-123881400D01*
X116706500Y-135855200D02*
X116706500Y-142026500D01*
X128129400Y-113131500D02*
X130855100Y-110405800D01*
X132588000Y-93472000D02*
X132588000Y-94573700D01*
X130855100Y-96306600D02*
X132588000Y-94573700D01*
X136252700Y-88078400D02*
X135128000Y-86953700D01*
X135758000Y-135843700D02*
X134620000Y-134705700D01*
X134620000Y-133604000D02*
X134620000Y-134705700D01*
X135128000Y-85852000D02*
X135128000Y-86953700D01*
X134620000Y-143176000D02*
X135758000Y-142038000D01*
X136252700Y-130869600D02*
X136252700Y-88078400D01*
X135758000Y-142038000D02*
X135758000Y-135843700D01*
X134620000Y-132502300D02*
X136252700Y-130869600D01*
X134620000Y-133604000D02*
X134620000Y-132502300D01*
X148590000Y-116840000D02*
X148590000Y-111125000D01*
X146050000Y-119380000D02*
X148590000Y-116840000D01*
X156210000Y-129540000D02*
X161925000Y-129540000D01*
X156210000Y-127000000D02*
X161925000Y-127000000D01*
M02*
