G04 #@! TF.GenerationSoftware,KiCad,Pcbnew,8.0.9-8.0.9-0~ubuntu22.04.1*
G04 #@! TF.CreationDate,2025-06-29T10:34:07+10:00*
G04 #@! TF.ProjectId,UE1-TTL-Memory,5545312d-5454-44c2-9d4d-656d6f72792e,rev?*
G04 #@! TF.SameCoordinates,Original*
G04 #@! TF.FileFunction,Legend,Bot*
G04 #@! TF.FilePolarity,Positive*
%FSLAX46Y46*%
G04 Gerber Fmt 4.6, Leading zero omitted, Abs format (unit mm)*
G04 Created by KiCad (PCBNEW 8.0.9-8.0.9-0~ubuntu22.04.1) date 2025-06-29 10:34:07*
%MOMM*%
%LPD*%
G01*
G04 APERTURE LIST*
%ADD10C,0.200000*%
G04 APERTURE END LIST*
D10*
X146793811Y-99562219D02*
X146793811Y-98562219D01*
X146793811Y-98562219D02*
X146555716Y-98562219D01*
X146555716Y-98562219D02*
X146412859Y-98609838D01*
X146412859Y-98609838D02*
X146317621Y-98705076D01*
X146317621Y-98705076D02*
X146270002Y-98800314D01*
X146270002Y-98800314D02*
X146222383Y-98990790D01*
X146222383Y-98990790D02*
X146222383Y-99133647D01*
X146222383Y-99133647D02*
X146270002Y-99324123D01*
X146270002Y-99324123D02*
X146317621Y-99419361D01*
X146317621Y-99419361D02*
X146412859Y-99514600D01*
X146412859Y-99514600D02*
X146555716Y-99562219D01*
X146555716Y-99562219D02*
X146793811Y-99562219D01*
X145412859Y-99514600D02*
X145508097Y-99562219D01*
X145508097Y-99562219D02*
X145698573Y-99562219D01*
X145698573Y-99562219D02*
X145793811Y-99514600D01*
X145793811Y-99514600D02*
X145841430Y-99419361D01*
X145841430Y-99419361D02*
X145841430Y-99038409D01*
X145841430Y-99038409D02*
X145793811Y-98943171D01*
X145793811Y-98943171D02*
X145698573Y-98895552D01*
X145698573Y-98895552D02*
X145508097Y-98895552D01*
X145508097Y-98895552D02*
X145412859Y-98943171D01*
X145412859Y-98943171D02*
X145365240Y-99038409D01*
X145365240Y-99038409D02*
X145365240Y-99133647D01*
X145365240Y-99133647D02*
X145841430Y-99228885D01*
X144984287Y-99514600D02*
X144889049Y-99562219D01*
X144889049Y-99562219D02*
X144698573Y-99562219D01*
X144698573Y-99562219D02*
X144603335Y-99514600D01*
X144603335Y-99514600D02*
X144555716Y-99419361D01*
X144555716Y-99419361D02*
X144555716Y-99371742D01*
X144555716Y-99371742D02*
X144603335Y-99276504D01*
X144603335Y-99276504D02*
X144698573Y-99228885D01*
X144698573Y-99228885D02*
X144841430Y-99228885D01*
X144841430Y-99228885D02*
X144936668Y-99181266D01*
X144936668Y-99181266D02*
X144984287Y-99086028D01*
X144984287Y-99086028D02*
X144984287Y-99038409D01*
X144984287Y-99038409D02*
X144936668Y-98943171D01*
X144936668Y-98943171D02*
X144841430Y-98895552D01*
X144841430Y-98895552D02*
X144698573Y-98895552D01*
X144698573Y-98895552D02*
X144603335Y-98943171D01*
X144127144Y-99562219D02*
X144127144Y-98895552D01*
X144127144Y-98562219D02*
X144174763Y-98609838D01*
X144174763Y-98609838D02*
X144127144Y-98657457D01*
X144127144Y-98657457D02*
X144079525Y-98609838D01*
X144079525Y-98609838D02*
X144127144Y-98562219D01*
X144127144Y-98562219D02*
X144127144Y-98657457D01*
X143222383Y-98895552D02*
X143222383Y-99705076D01*
X143222383Y-99705076D02*
X143270002Y-99800314D01*
X143270002Y-99800314D02*
X143317621Y-99847933D01*
X143317621Y-99847933D02*
X143412859Y-99895552D01*
X143412859Y-99895552D02*
X143555716Y-99895552D01*
X143555716Y-99895552D02*
X143650954Y-99847933D01*
X143222383Y-99514600D02*
X143317621Y-99562219D01*
X143317621Y-99562219D02*
X143508097Y-99562219D01*
X143508097Y-99562219D02*
X143603335Y-99514600D01*
X143603335Y-99514600D02*
X143650954Y-99466980D01*
X143650954Y-99466980D02*
X143698573Y-99371742D01*
X143698573Y-99371742D02*
X143698573Y-99086028D01*
X143698573Y-99086028D02*
X143650954Y-98990790D01*
X143650954Y-98990790D02*
X143603335Y-98943171D01*
X143603335Y-98943171D02*
X143508097Y-98895552D01*
X143508097Y-98895552D02*
X143317621Y-98895552D01*
X143317621Y-98895552D02*
X143222383Y-98943171D01*
X142746192Y-98895552D02*
X142746192Y-99562219D01*
X142746192Y-98990790D02*
X142698573Y-98943171D01*
X142698573Y-98943171D02*
X142603335Y-98895552D01*
X142603335Y-98895552D02*
X142460478Y-98895552D01*
X142460478Y-98895552D02*
X142365240Y-98943171D01*
X142365240Y-98943171D02*
X142317621Y-99038409D01*
X142317621Y-99038409D02*
X142317621Y-99562219D01*
X141079525Y-99562219D02*
X141079525Y-98562219D01*
X141079525Y-98943171D02*
X140984287Y-98895552D01*
X140984287Y-98895552D02*
X140793811Y-98895552D01*
X140793811Y-98895552D02*
X140698573Y-98943171D01*
X140698573Y-98943171D02*
X140650954Y-98990790D01*
X140650954Y-98990790D02*
X140603335Y-99086028D01*
X140603335Y-99086028D02*
X140603335Y-99371742D01*
X140603335Y-99371742D02*
X140650954Y-99466980D01*
X140650954Y-99466980D02*
X140698573Y-99514600D01*
X140698573Y-99514600D02*
X140793811Y-99562219D01*
X140793811Y-99562219D02*
X140984287Y-99562219D01*
X140984287Y-99562219D02*
X141079525Y-99514600D01*
X140270001Y-98895552D02*
X140031906Y-99562219D01*
X139793811Y-98895552D02*
X140031906Y-99562219D01*
X140031906Y-99562219D02*
X140127144Y-99800314D01*
X140127144Y-99800314D02*
X140174763Y-99847933D01*
X140174763Y-99847933D02*
X140270001Y-99895552D01*
X138079525Y-99562219D02*
X138412858Y-99086028D01*
X138650953Y-99562219D02*
X138650953Y-98562219D01*
X138650953Y-98562219D02*
X138270001Y-98562219D01*
X138270001Y-98562219D02*
X138174763Y-98609838D01*
X138174763Y-98609838D02*
X138127144Y-98657457D01*
X138127144Y-98657457D02*
X138079525Y-98752695D01*
X138079525Y-98752695D02*
X138079525Y-98895552D01*
X138079525Y-98895552D02*
X138127144Y-98990790D01*
X138127144Y-98990790D02*
X138174763Y-99038409D01*
X138174763Y-99038409D02*
X138270001Y-99086028D01*
X138270001Y-99086028D02*
X138650953Y-99086028D01*
X137650953Y-99562219D02*
X137650953Y-98562219D01*
X137222382Y-99562219D02*
X137222382Y-99038409D01*
X137222382Y-99038409D02*
X137270001Y-98943171D01*
X137270001Y-98943171D02*
X137365239Y-98895552D01*
X137365239Y-98895552D02*
X137508096Y-98895552D01*
X137508096Y-98895552D02*
X137603334Y-98943171D01*
X137603334Y-98943171D02*
X137650953Y-98990790D01*
X136841429Y-98895552D02*
X136603334Y-99562219D01*
X136365239Y-98895552D02*
X136603334Y-99562219D01*
X136603334Y-99562219D02*
X136698572Y-99800314D01*
X136698572Y-99800314D02*
X136746191Y-99847933D01*
X136746191Y-99847933D02*
X136841429Y-99895552D01*
X136031905Y-99514600D02*
X135936667Y-99562219D01*
X135936667Y-99562219D02*
X135746191Y-99562219D01*
X135746191Y-99562219D02*
X135650953Y-99514600D01*
X135650953Y-99514600D02*
X135603334Y-99419361D01*
X135603334Y-99419361D02*
X135603334Y-99371742D01*
X135603334Y-99371742D02*
X135650953Y-99276504D01*
X135650953Y-99276504D02*
X135746191Y-99228885D01*
X135746191Y-99228885D02*
X135889048Y-99228885D01*
X135889048Y-99228885D02*
X135984286Y-99181266D01*
X135984286Y-99181266D02*
X136031905Y-99086028D01*
X136031905Y-99086028D02*
X136031905Y-99038409D01*
X136031905Y-99038409D02*
X135984286Y-98943171D01*
X135984286Y-98943171D02*
X135889048Y-98895552D01*
X135889048Y-98895552D02*
X135746191Y-98895552D01*
X135746191Y-98895552D02*
X135650953Y-98943171D01*
X134508095Y-98562219D02*
X134270000Y-99562219D01*
X134270000Y-99562219D02*
X134079524Y-98847933D01*
X134079524Y-98847933D02*
X133889048Y-99562219D01*
X133889048Y-99562219D02*
X133650953Y-98562219D01*
X132889048Y-99514600D02*
X132984286Y-99562219D01*
X132984286Y-99562219D02*
X133174762Y-99562219D01*
X133174762Y-99562219D02*
X133270000Y-99514600D01*
X133270000Y-99514600D02*
X133317619Y-99419361D01*
X133317619Y-99419361D02*
X133317619Y-99038409D01*
X133317619Y-99038409D02*
X133270000Y-98943171D01*
X133270000Y-98943171D02*
X133174762Y-98895552D01*
X133174762Y-98895552D02*
X132984286Y-98895552D01*
X132984286Y-98895552D02*
X132889048Y-98943171D01*
X132889048Y-98943171D02*
X132841429Y-99038409D01*
X132841429Y-99038409D02*
X132841429Y-99133647D01*
X132841429Y-99133647D02*
X133317619Y-99228885D01*
X131984286Y-99562219D02*
X131984286Y-99038409D01*
X131984286Y-99038409D02*
X132031905Y-98943171D01*
X132031905Y-98943171D02*
X132127143Y-98895552D01*
X132127143Y-98895552D02*
X132317619Y-98895552D01*
X132317619Y-98895552D02*
X132412857Y-98943171D01*
X131984286Y-99514600D02*
X132079524Y-99562219D01*
X132079524Y-99562219D02*
X132317619Y-99562219D01*
X132317619Y-99562219D02*
X132412857Y-99514600D01*
X132412857Y-99514600D02*
X132460476Y-99419361D01*
X132460476Y-99419361D02*
X132460476Y-99324123D01*
X132460476Y-99324123D02*
X132412857Y-99228885D01*
X132412857Y-99228885D02*
X132317619Y-99181266D01*
X132317619Y-99181266D02*
X132079524Y-99181266D01*
X132079524Y-99181266D02*
X131984286Y-99133647D01*
X131650952Y-98895552D02*
X131270000Y-98895552D01*
X131508095Y-98562219D02*
X131508095Y-99419361D01*
X131508095Y-99419361D02*
X131460476Y-99514600D01*
X131460476Y-99514600D02*
X131365238Y-99562219D01*
X131365238Y-99562219D02*
X131270000Y-99562219D01*
X130936666Y-99562219D02*
X130936666Y-98562219D01*
X130508095Y-99562219D02*
X130508095Y-99038409D01*
X130508095Y-99038409D02*
X130555714Y-98943171D01*
X130555714Y-98943171D02*
X130650952Y-98895552D01*
X130650952Y-98895552D02*
X130793809Y-98895552D01*
X130793809Y-98895552D02*
X130889047Y-98943171D01*
X130889047Y-98943171D02*
X130936666Y-98990790D01*
X129650952Y-99514600D02*
X129746190Y-99562219D01*
X129746190Y-99562219D02*
X129936666Y-99562219D01*
X129936666Y-99562219D02*
X130031904Y-99514600D01*
X130031904Y-99514600D02*
X130079523Y-99419361D01*
X130079523Y-99419361D02*
X130079523Y-99038409D01*
X130079523Y-99038409D02*
X130031904Y-98943171D01*
X130031904Y-98943171D02*
X129936666Y-98895552D01*
X129936666Y-98895552D02*
X129746190Y-98895552D01*
X129746190Y-98895552D02*
X129650952Y-98943171D01*
X129650952Y-98943171D02*
X129603333Y-99038409D01*
X129603333Y-99038409D02*
X129603333Y-99133647D01*
X129603333Y-99133647D02*
X130079523Y-99228885D01*
X129174761Y-99562219D02*
X129174761Y-98895552D01*
X129174761Y-99086028D02*
X129127142Y-98990790D01*
X129127142Y-98990790D02*
X129079523Y-98943171D01*
X129079523Y-98943171D02*
X128984285Y-98895552D01*
X128984285Y-98895552D02*
X128889047Y-98895552D01*
X128412856Y-99562219D02*
X128508094Y-99514600D01*
X128508094Y-99514600D02*
X128555713Y-99419361D01*
X128555713Y-99419361D02*
X128555713Y-98562219D01*
X127650951Y-99514600D02*
X127746189Y-99562219D01*
X127746189Y-99562219D02*
X127936665Y-99562219D01*
X127936665Y-99562219D02*
X128031903Y-99514600D01*
X128031903Y-99514600D02*
X128079522Y-99419361D01*
X128079522Y-99419361D02*
X128079522Y-99038409D01*
X128079522Y-99038409D02*
X128031903Y-98943171D01*
X128031903Y-98943171D02*
X127936665Y-98895552D01*
X127936665Y-98895552D02*
X127746189Y-98895552D01*
X127746189Y-98895552D02*
X127650951Y-98943171D01*
X127650951Y-98943171D02*
X127603332Y-99038409D01*
X127603332Y-99038409D02*
X127603332Y-99133647D01*
X127603332Y-99133647D02*
X128079522Y-99228885D01*
X127269998Y-98895552D02*
X127031903Y-99562219D01*
X126793808Y-98895552D02*
X127031903Y-99562219D01*
X127031903Y-99562219D02*
X127127141Y-99800314D01*
X127127141Y-99800314D02*
X127174760Y-99847933D01*
X127174760Y-99847933D02*
X127269998Y-99895552D01*
X126365236Y-99514600D02*
X126365236Y-99562219D01*
X126365236Y-99562219D02*
X126412855Y-99657457D01*
X126412855Y-99657457D02*
X126460474Y-99705076D01*
X125317617Y-98562219D02*
X124984284Y-99562219D01*
X124984284Y-99562219D02*
X124650951Y-98562219D01*
X123936665Y-99514600D02*
X124031903Y-99562219D01*
X124031903Y-99562219D02*
X124222379Y-99562219D01*
X124222379Y-99562219D02*
X124317617Y-99514600D01*
X124317617Y-99514600D02*
X124365236Y-99419361D01*
X124365236Y-99419361D02*
X124365236Y-99038409D01*
X124365236Y-99038409D02*
X124317617Y-98943171D01*
X124317617Y-98943171D02*
X124222379Y-98895552D01*
X124222379Y-98895552D02*
X124031903Y-98895552D01*
X124031903Y-98895552D02*
X123936665Y-98943171D01*
X123936665Y-98943171D02*
X123889046Y-99038409D01*
X123889046Y-99038409D02*
X123889046Y-99133647D01*
X123889046Y-99133647D02*
X124365236Y-99228885D01*
X123460474Y-99562219D02*
X123460474Y-98895552D01*
X123460474Y-99086028D02*
X123412855Y-98990790D01*
X123412855Y-98990790D02*
X123365236Y-98943171D01*
X123365236Y-98943171D02*
X123269998Y-98895552D01*
X123269998Y-98895552D02*
X123174760Y-98895552D01*
X122889045Y-99514600D02*
X122793807Y-99562219D01*
X122793807Y-99562219D02*
X122603331Y-99562219D01*
X122603331Y-99562219D02*
X122508093Y-99514600D01*
X122508093Y-99514600D02*
X122460474Y-99419361D01*
X122460474Y-99419361D02*
X122460474Y-99371742D01*
X122460474Y-99371742D02*
X122508093Y-99276504D01*
X122508093Y-99276504D02*
X122603331Y-99228885D01*
X122603331Y-99228885D02*
X122746188Y-99228885D01*
X122746188Y-99228885D02*
X122841426Y-99181266D01*
X122841426Y-99181266D02*
X122889045Y-99086028D01*
X122889045Y-99086028D02*
X122889045Y-99038409D01*
X122889045Y-99038409D02*
X122841426Y-98943171D01*
X122841426Y-98943171D02*
X122746188Y-98895552D01*
X122746188Y-98895552D02*
X122603331Y-98895552D01*
X122603331Y-98895552D02*
X122508093Y-98943171D01*
X122031902Y-99562219D02*
X122031902Y-98895552D01*
X122031902Y-98562219D02*
X122079521Y-98609838D01*
X122079521Y-98609838D02*
X122031902Y-98657457D01*
X122031902Y-98657457D02*
X121984283Y-98609838D01*
X121984283Y-98609838D02*
X122031902Y-98562219D01*
X122031902Y-98562219D02*
X122031902Y-98657457D01*
X121412855Y-99562219D02*
X121508093Y-99514600D01*
X121508093Y-99514600D02*
X121555712Y-99466980D01*
X121555712Y-99466980D02*
X121603331Y-99371742D01*
X121603331Y-99371742D02*
X121603331Y-99086028D01*
X121603331Y-99086028D02*
X121555712Y-98990790D01*
X121555712Y-98990790D02*
X121508093Y-98943171D01*
X121508093Y-98943171D02*
X121412855Y-98895552D01*
X121412855Y-98895552D02*
X121269998Y-98895552D01*
X121269998Y-98895552D02*
X121174760Y-98943171D01*
X121174760Y-98943171D02*
X121127141Y-98990790D01*
X121127141Y-98990790D02*
X121079522Y-99086028D01*
X121079522Y-99086028D02*
X121079522Y-99371742D01*
X121079522Y-99371742D02*
X121127141Y-99466980D01*
X121127141Y-99466980D02*
X121174760Y-99514600D01*
X121174760Y-99514600D02*
X121269998Y-99562219D01*
X121269998Y-99562219D02*
X121412855Y-99562219D01*
X120650950Y-98895552D02*
X120650950Y-99562219D01*
X120650950Y-98990790D02*
X120603331Y-98943171D01*
X120603331Y-98943171D02*
X120508093Y-98895552D01*
X120508093Y-98895552D02*
X120365236Y-98895552D01*
X120365236Y-98895552D02*
X120269998Y-98943171D01*
X120269998Y-98943171D02*
X120222379Y-99038409D01*
X120222379Y-99038409D02*
X120222379Y-99562219D01*
X118460474Y-99562219D02*
X119031902Y-99562219D01*
X118746188Y-99562219D02*
X118746188Y-98562219D01*
X118746188Y-98562219D02*
X118841426Y-98705076D01*
X118841426Y-98705076D02*
X118936664Y-98800314D01*
X118936664Y-98800314D02*
X119031902Y-98847933D01*
X117984283Y-99514600D02*
X117984283Y-99562219D01*
X117984283Y-99562219D02*
X118031902Y-99657457D01*
X118031902Y-99657457D02*
X118079521Y-99705076D01*
X116508093Y-98562219D02*
X116508093Y-99276504D01*
X116508093Y-99276504D02*
X116555712Y-99419361D01*
X116555712Y-99419361D02*
X116650950Y-99514600D01*
X116650950Y-99514600D02*
X116793807Y-99562219D01*
X116793807Y-99562219D02*
X116889045Y-99562219D01*
X115603331Y-98895552D02*
X115603331Y-99562219D01*
X116031902Y-98895552D02*
X116031902Y-99419361D01*
X116031902Y-99419361D02*
X115984283Y-99514600D01*
X115984283Y-99514600D02*
X115889045Y-99562219D01*
X115889045Y-99562219D02*
X115746188Y-99562219D01*
X115746188Y-99562219D02*
X115650950Y-99514600D01*
X115650950Y-99514600D02*
X115603331Y-99466980D01*
X114984283Y-99562219D02*
X115079521Y-99514600D01*
X115079521Y-99514600D02*
X115127140Y-99419361D01*
X115127140Y-99419361D02*
X115127140Y-98562219D01*
X114698568Y-98895552D02*
X114460473Y-99562219D01*
X114222378Y-98895552D02*
X114460473Y-99562219D01*
X114460473Y-99562219D02*
X114555711Y-99800314D01*
X114555711Y-99800314D02*
X114603330Y-99847933D01*
X114603330Y-99847933D02*
X114698568Y-99895552D01*
X113127139Y-98657457D02*
X113079520Y-98609838D01*
X113079520Y-98609838D02*
X112984282Y-98562219D01*
X112984282Y-98562219D02*
X112746187Y-98562219D01*
X112746187Y-98562219D02*
X112650949Y-98609838D01*
X112650949Y-98609838D02*
X112603330Y-98657457D01*
X112603330Y-98657457D02*
X112555711Y-98752695D01*
X112555711Y-98752695D02*
X112555711Y-98847933D01*
X112555711Y-98847933D02*
X112603330Y-98990790D01*
X112603330Y-98990790D02*
X113174758Y-99562219D01*
X113174758Y-99562219D02*
X112555711Y-99562219D01*
X111936663Y-98562219D02*
X111841425Y-98562219D01*
X111841425Y-98562219D02*
X111746187Y-98609838D01*
X111746187Y-98609838D02*
X111698568Y-98657457D01*
X111698568Y-98657457D02*
X111650949Y-98752695D01*
X111650949Y-98752695D02*
X111603330Y-98943171D01*
X111603330Y-98943171D02*
X111603330Y-99181266D01*
X111603330Y-99181266D02*
X111650949Y-99371742D01*
X111650949Y-99371742D02*
X111698568Y-99466980D01*
X111698568Y-99466980D02*
X111746187Y-99514600D01*
X111746187Y-99514600D02*
X111841425Y-99562219D01*
X111841425Y-99562219D02*
X111936663Y-99562219D01*
X111936663Y-99562219D02*
X112031901Y-99514600D01*
X112031901Y-99514600D02*
X112079520Y-99466980D01*
X112079520Y-99466980D02*
X112127139Y-99371742D01*
X112127139Y-99371742D02*
X112174758Y-99181266D01*
X112174758Y-99181266D02*
X112174758Y-98943171D01*
X112174758Y-98943171D02*
X112127139Y-98752695D01*
X112127139Y-98752695D02*
X112079520Y-98657457D01*
X112079520Y-98657457D02*
X112031901Y-98609838D01*
X112031901Y-98609838D02*
X111936663Y-98562219D01*
X111222377Y-98657457D02*
X111174758Y-98609838D01*
X111174758Y-98609838D02*
X111079520Y-98562219D01*
X111079520Y-98562219D02*
X110841425Y-98562219D01*
X110841425Y-98562219D02*
X110746187Y-98609838D01*
X110746187Y-98609838D02*
X110698568Y-98657457D01*
X110698568Y-98657457D02*
X110650949Y-98752695D01*
X110650949Y-98752695D02*
X110650949Y-98847933D01*
X110650949Y-98847933D02*
X110698568Y-98990790D01*
X110698568Y-98990790D02*
X111269996Y-99562219D01*
X111269996Y-99562219D02*
X110650949Y-99562219D01*
X109746187Y-98562219D02*
X110222377Y-98562219D01*
X110222377Y-98562219D02*
X110269996Y-99038409D01*
X110269996Y-99038409D02*
X110222377Y-98990790D01*
X110222377Y-98990790D02*
X110127139Y-98943171D01*
X110127139Y-98943171D02*
X109889044Y-98943171D01*
X109889044Y-98943171D02*
X109793806Y-98990790D01*
X109793806Y-98990790D02*
X109746187Y-99038409D01*
X109746187Y-99038409D02*
X109698568Y-99133647D01*
X109698568Y-99133647D02*
X109698568Y-99371742D01*
X109698568Y-99371742D02*
X109746187Y-99466980D01*
X109746187Y-99466980D02*
X109793806Y-99514600D01*
X109793806Y-99514600D02*
X109889044Y-99562219D01*
X109889044Y-99562219D02*
X110127139Y-99562219D01*
X110127139Y-99562219D02*
X110222377Y-99514600D01*
X110222377Y-99514600D02*
X110269996Y-99466980D01*
M02*
