M48
INCH,TZ
T1C0.0118
T2C0.0315
T3C0.0354
T4C0.0394
%
G90
G05
T1
X34893Y-35626
X36086Y-54016
X36204Y-33872
X36319Y-33396
X36672Y-28729
X37330Y-34690
X37377Y-40218
X38079Y-49445
X40876Y-54320
X41840Y-26849
X42043Y-42791
X42951Y-42592
X43211Y-48447
X43303Y-35407
X44169Y-24101
X44474Y-52731
X44585Y-23607
X44628Y-49207
X44665Y-52476
X45060Y-44763
X45316Y-51549
X45319Y-33084
X46318Y-47617
X46686Y-39795
X46797Y-41112
X47139Y-49374
X47160Y-48503
X47249Y-32222
X47799Y-38570
X48025Y-30193
X48254Y-27478
X48937Y-33855
X48965Y-29770
X49103Y-28672
X49203Y-49178
X49380Y-27098
X49516Y-33739
X49801Y-33540
X49917Y-31509
X50228Y-46806
X50884Y-24239
X51097Y-26115
X51478Y-35068
X51533Y-50689
X51572Y-28803
X51822Y-24662
X52207Y-46075
X52685Y-41242
X53344Y-33185
X53522Y-24261
X53823Y-35460
X53881Y-24261
X54041Y-28820
X54045Y-40383
X54394Y-30051
X54481Y-42910
X54563Y-29709
X54647Y-53798
X54762Y-40951
X56655Y-35943
X56892Y-29236
X57054Y-35590
X57240Y-54730
X57276Y-39241
X57300Y-35790
X58374Y-36832
X58636Y-41252
X58639Y-29734
X60174Y-30204
X61064Y-31212
X61412Y-24977
X61617Y-28904
X61862Y-25314
X62730Y-24839
X62928Y-23871
X63076Y-24861
X63079Y-44604
X63270Y-31567
X64415Y-53969
T2
X37750Y-25250
X37750Y-26500
X37750Y-27750
X37750Y-29000
X37750Y-30250
X37750Y-31500
X37750Y-32750
X37750Y-35969
X37750Y-38969
X37781Y-46000
X37781Y-47000
X37781Y-48000
X37781Y-49000
X37781Y-50000
X37781Y-51000
X37781Y-52000
X37781Y-53000
X38231Y-44250
X39500Y-36000
X39500Y-37969
X40200Y-44250
X40750Y-25250
X40750Y-26500
X40750Y-27750
X40750Y-29000
X40750Y-30250
X40750Y-31500
X40750Y-32750
X40781Y-46000
X40781Y-47000
X40781Y-48000
X40781Y-49000
X40781Y-50000
X40781Y-51000
X40781Y-52000
X40781Y-53000
X41750Y-36000
X41750Y-42000
X42750Y-26750
X42750Y-27750
X42750Y-28750
X42750Y-29750
X42750Y-30750
X42750Y-31750
X42750Y-32750
X42750Y-33750
X42750Y-36000
X42750Y-42000
X42750Y-46000
X42750Y-47000
X42750Y-48000
X42750Y-49000
X42750Y-50000
X42750Y-51000
X42750Y-52000
X42750Y-53000
X43231Y-44250
X43281Y-25250
X43750Y-36000
X43750Y-42000
X44750Y-36000
X44750Y-42000
X45200Y-44250
X45250Y-25250
X45750Y-26750
X45750Y-27750
X45750Y-28750
X45750Y-29750
X45750Y-30750
X45750Y-31750
X45750Y-32750
X45750Y-33750
X45750Y-36000
X45750Y-42000
X45750Y-46000
X45750Y-47000
X45750Y-48000
X45750Y-49000
X45750Y-50000
X45750Y-51000
X45750Y-52000
X45750Y-53000
X45996Y-20550
X45996Y-23550
X46750Y-36000
X46750Y-42000
X46996Y-20550
X46996Y-23550
X47734Y-26750
X47734Y-27750
X47734Y-28750
X47734Y-29750
X47734Y-30750
X47734Y-31750
X47734Y-32750
X47750Y-36000
X47750Y-42000
X47750Y-46000
X47750Y-47000
X47750Y-48000
X47750Y-49000
X47750Y-50000
X47750Y-51000
X47750Y-52000
X47750Y-53000
X47996Y-20550
X47996Y-23550
X48266Y-25250
X48281Y-44250
X48750Y-36000
X48750Y-42000
X48996Y-20550
X48996Y-23550
X49750Y-36000
X49750Y-42000
X49996Y-20550
X49996Y-23550
X50234Y-25250
X50250Y-44250
X50734Y-26750
X50734Y-27750
X50734Y-28750
X50734Y-29750
X50734Y-30750
X50734Y-31750
X50734Y-32750
X50750Y-36000
X50750Y-42000
X50750Y-46000
X50750Y-47000
X50750Y-48000
X50750Y-49000
X50750Y-50000
X50750Y-51000
X50750Y-52000
X50750Y-53000
X50996Y-20550
X50996Y-23550
X51750Y-36000
X51750Y-42000
X51996Y-20550
X51996Y-23550
X52719Y-26750
X52719Y-27750
X52719Y-28750
X52719Y-29750
X52719Y-30750
X52719Y-31750
X52719Y-32750
X52719Y-33750
X52750Y-36000
X52750Y-42000
X52750Y-46000
X52750Y-47000
X52750Y-48000
X52750Y-49000
X52750Y-50000
X52750Y-51000
X52750Y-52000
X52996Y-20550
X52996Y-23550
X53281Y-25250
X53281Y-44250
X53750Y-36000
X53750Y-42000
X54750Y-36000
X54750Y-42000
X55250Y-25250
X55250Y-44250
X55719Y-26750
X55719Y-27750
X55719Y-28750
X55719Y-29750
X55719Y-30750
X55719Y-31750
X55719Y-32750
X55719Y-33750
X55750Y-46000
X55750Y-47000
X55750Y-48000
X55750Y-49000
X55750Y-50000
X55750Y-51000
X55750Y-52000
X57687Y-26750
X57687Y-27750
X57687Y-28750
X57687Y-29750
X57687Y-30750
X57687Y-31750
X57687Y-32750
X58000Y-41250
X58000Y-42500
X58000Y-43750
X58000Y-45000
X58000Y-46250
X58000Y-47500
X58000Y-48750
X58000Y-50000
X58000Y-51250
X58000Y-52500
X58000Y-53750
X58281Y-25250
X58500Y-36000
X58500Y-39000
X59500Y-36000
X59500Y-39000
X60250Y-25250
X60500Y-36000
X60500Y-39000
X60687Y-26750
X60687Y-27750
X60687Y-28750
X60687Y-29750
X60687Y-30750
X60687Y-31750
X60687Y-32750
X61000Y-41250
X61000Y-42500
X61000Y-43750
X61000Y-45000
X61000Y-46250
X61000Y-47500
X61000Y-48750
X61000Y-50000
X61000Y-51250
X61000Y-52500
X61000Y-53750
T3
X42000Y-55750
X43000Y-55750
X44000Y-55750
X45000Y-55750
X46000Y-55750
X47000Y-55750
X48000Y-55750
X49000Y-55750
X50000Y-55750
X51000Y-55750
X52000Y-55750
X53000Y-55750
X54000Y-55750
X55000Y-55750
X56000Y-55750
X57000Y-55750
T4
X35500Y-21000
X35500Y-22000
X35500Y-23000
X35500Y-24000
X35500Y-25000
X35500Y-26000
X35500Y-27000
X35500Y-28000
X35500Y-29000
X35500Y-30000
X35500Y-31000
X35500Y-32000
X35500Y-33000
X35500Y-34000
X35500Y-35000
X35500Y-36000
X35500Y-37000
X35500Y-38000
X35500Y-39000
X35500Y-40000
X35500Y-41000
X35500Y-42000
X35500Y-43000
X35500Y-44000
X35500Y-45000
X35500Y-46000
X35500Y-47000
X35500Y-48000
X35500Y-49000
X35500Y-50000
X35500Y-51000
X35500Y-52000
X35500Y-53000
X35500Y-54000
X35500Y-55000
X35500Y-56000
X63750Y-21000
X63750Y-22000
X63750Y-23000
X63750Y-24000
X63750Y-25000
X63750Y-26000
X63750Y-27000
X63750Y-28000
X63750Y-29000
X63750Y-30000
X63750Y-31000
X63750Y-32000
X63750Y-33000
X63750Y-34000
X63750Y-35000
X63750Y-36000
X63750Y-37000
X63750Y-38000
X63750Y-39000
X63750Y-40000
X63750Y-41000
X63750Y-42000
X63750Y-43000
X63750Y-44000
X63750Y-45000
X63750Y-46000
X63750Y-47000
X63750Y-48000
X63750Y-49000
X63750Y-50000
X63750Y-51000
X63750Y-52000
X63750Y-53000
X63750Y-54000
X63750Y-55000
X63750Y-56000
M30
