G04 #@! TF.GenerationSoftware,KiCad,Pcbnew,8.0.9-8.0.9-0~ubuntu22.04.1*
G04 #@! TF.CreationDate,2025-06-29T10:34:07+10:00*
G04 #@! TF.ProjectId,UE1-TTL-Memory,5545312d-5454-44c2-9d4d-656d6f72792e,rev?*
G04 #@! TF.SameCoordinates,Original*
G04 #@! TF.FileFunction,Copper,L1,Top*
G04 #@! TF.FilePolarity,Positive*
%FSLAX46Y46*%
G04 Gerber Fmt 4.6, Leading zero omitted, Abs format (unit mm)*
G04 Created by KiCad (PCBNEW 8.0.9-8.0.9-0~ubuntu22.04.1) date 2025-06-29 10:34:07*
%MOMM*%
%LPD*%
G01*
G04 APERTURE LIST*
G04 #@! TA.AperFunction,ComponentPad*
%ADD10R,1.800000X1.800000*%
G04 #@! TD*
G04 #@! TA.AperFunction,ComponentPad*
%ADD11C,1.800000*%
G04 #@! TD*
G04 #@! TA.AperFunction,ComponentPad*
%ADD12C,1.600000*%
G04 #@! TD*
G04 #@! TA.AperFunction,ComponentPad*
%ADD13O,1.600000X1.600000*%
G04 #@! TD*
G04 #@! TA.AperFunction,ComponentPad*
%ADD14R,1.700000X1.700000*%
G04 #@! TD*
G04 #@! TA.AperFunction,ComponentPad*
%ADD15O,1.700000X1.700000*%
G04 #@! TD*
G04 #@! TA.AperFunction,ComponentPad*
%ADD16R,1.600000X1.600000*%
G04 #@! TD*
G04 #@! TA.AperFunction,ViaPad*
%ADD17C,0.600000*%
G04 #@! TD*
G04 #@! TA.AperFunction,Conductor*
%ADD18C,0.200000*%
G04 #@! TD*
G04 APERTURE END LIST*
D10*
X137160000Y-141605000D03*
D11*
X139700000Y-141605000D03*
D12*
X103505000Y-64135000D03*
D13*
X95885000Y-64135000D03*
D12*
X154940000Y-114300000D03*
D13*
X147320000Y-114300000D03*
D12*
X154940000Y-136525000D03*
D13*
X147320000Y-136525000D03*
D12*
X154940000Y-111125000D03*
D13*
X147320000Y-111125000D03*
D12*
X154940000Y-133350000D03*
D13*
X147320000Y-133350000D03*
D12*
X127635000Y-112395000D03*
X122635000Y-112395000D03*
X102108000Y-112395000D03*
X97108000Y-112395000D03*
X95885000Y-91360000D03*
D13*
X95885000Y-98980000D03*
D14*
X90170000Y-53340000D03*
D15*
X90170000Y-55880000D03*
X90170000Y-58420000D03*
X90170000Y-60960000D03*
X90170000Y-63500000D03*
X90170000Y-66040000D03*
X90170000Y-68580000D03*
X90170000Y-71120000D03*
X90170000Y-73660000D03*
X90170000Y-76200000D03*
X90170000Y-78740000D03*
X90170000Y-81280000D03*
X90170000Y-83820000D03*
X90170000Y-86360000D03*
X90170000Y-88900000D03*
X90170000Y-91440000D03*
X90170000Y-93980000D03*
X90170000Y-96520000D03*
X90170000Y-99060000D03*
X90170000Y-101600000D03*
X90170000Y-104140000D03*
X90170000Y-106680000D03*
X90170000Y-109220000D03*
X90170000Y-111760000D03*
X90170000Y-114300000D03*
X90170000Y-116840000D03*
X90170000Y-119380000D03*
X90170000Y-121920000D03*
X90170000Y-124460000D03*
X90170000Y-127000000D03*
X90170000Y-129540000D03*
X90170000Y-132080000D03*
X90170000Y-134620000D03*
X90170000Y-137160000D03*
X90170000Y-139700000D03*
X90170000Y-142240000D03*
D12*
X103505000Y-83185000D03*
D13*
X95885000Y-83185000D03*
D16*
X108585000Y-67945000D03*
D13*
X108585000Y-70485000D03*
X108585000Y-73025000D03*
X108585000Y-75565000D03*
X108585000Y-78105000D03*
X108585000Y-80645000D03*
X108585000Y-83185000D03*
X108585000Y-85725000D03*
X116205000Y-85725000D03*
X116205000Y-83185000D03*
X116205000Y-80645000D03*
X116205000Y-78105000D03*
X116205000Y-75565000D03*
X116205000Y-73025000D03*
X116205000Y-70485000D03*
X116205000Y-67945000D03*
D10*
X106680000Y-141605000D03*
D11*
X109220000Y-141605000D03*
D12*
X154940000Y-117475000D03*
D13*
X147320000Y-117475000D03*
D12*
X103505000Y-76835000D03*
D13*
X95885000Y-76835000D03*
D12*
X154940000Y-120650000D03*
D13*
X147320000Y-120650000D03*
D12*
X140335000Y-64135000D03*
X135335000Y-64135000D03*
X103505000Y-80010000D03*
D13*
X95885000Y-80010000D03*
D12*
X103505000Y-73660000D03*
D13*
X95885000Y-73660000D03*
D16*
X148590000Y-99060000D03*
D13*
X151130000Y-99060000D03*
X153670000Y-99060000D03*
X153670000Y-91440000D03*
X151130000Y-91440000D03*
X148590000Y-91440000D03*
D16*
X146525000Y-67945000D03*
D13*
X146525000Y-70485000D03*
X146525000Y-73025000D03*
X146525000Y-75565000D03*
X146525000Y-78105000D03*
X146525000Y-80645000D03*
X146525000Y-83185000D03*
X154145000Y-83185000D03*
X154145000Y-80645000D03*
X154145000Y-78105000D03*
X154145000Y-75565000D03*
X154145000Y-73025000D03*
X154145000Y-70485000D03*
X154145000Y-67945000D03*
D12*
X140335000Y-112395000D03*
X135335000Y-112395000D03*
D16*
X116830000Y-59817000D03*
D13*
X119370000Y-59817000D03*
X121910000Y-59817000D03*
X124450000Y-59817000D03*
X126990000Y-59817000D03*
X129530000Y-59817000D03*
X132070000Y-59817000D03*
X134610000Y-59817000D03*
X134610000Y-52197000D03*
X132070000Y-52197000D03*
X129530000Y-52197000D03*
X126990000Y-52197000D03*
X124450000Y-52197000D03*
X121910000Y-52197000D03*
X119370000Y-52197000D03*
X116830000Y-52197000D03*
D12*
X127595000Y-64135000D03*
X122595000Y-64135000D03*
X103505000Y-70485000D03*
D13*
X95885000Y-70485000D03*
D16*
X106045000Y-106680000D03*
D13*
X108585000Y-106680000D03*
X111125000Y-106680000D03*
X113665000Y-106680000D03*
X116205000Y-106680000D03*
X118745000Y-106680000D03*
X121285000Y-106680000D03*
X123825000Y-106680000D03*
X126365000Y-106680000D03*
X128905000Y-106680000D03*
X131445000Y-106680000D03*
X133985000Y-106680000D03*
X136525000Y-106680000D03*
X139065000Y-106680000D03*
X139065000Y-91440000D03*
X136525000Y-91440000D03*
X133985000Y-91440000D03*
X131445000Y-91440000D03*
X128905000Y-91440000D03*
X126365000Y-91440000D03*
X123825000Y-91440000D03*
X121285000Y-91440000D03*
X118745000Y-91440000D03*
X116205000Y-91440000D03*
X113665000Y-91440000D03*
X111125000Y-91440000D03*
X108585000Y-91440000D03*
X106045000Y-91440000D03*
D10*
X121920000Y-141605000D03*
D11*
X124460000Y-141605000D03*
D16*
X108585000Y-116840000D03*
D13*
X108585000Y-119380000D03*
X108585000Y-121920000D03*
X108585000Y-124460000D03*
X108585000Y-127000000D03*
X108585000Y-129540000D03*
X108585000Y-132080000D03*
X108585000Y-134620000D03*
X116205000Y-134620000D03*
X116205000Y-132080000D03*
X116205000Y-129540000D03*
X116205000Y-127000000D03*
X116205000Y-124460000D03*
X116205000Y-121920000D03*
X116205000Y-119380000D03*
X116205000Y-116840000D03*
D12*
X154940000Y-104775000D03*
D13*
X147320000Y-104775000D03*
D16*
X95965000Y-116840000D03*
D13*
X95965000Y-119380000D03*
X95965000Y-121920000D03*
X95965000Y-124460000D03*
X95965000Y-127000000D03*
X95965000Y-129540000D03*
X95965000Y-132080000D03*
X95965000Y-134620000D03*
X103585000Y-134620000D03*
X103585000Y-132080000D03*
X103585000Y-129540000D03*
X103585000Y-127000000D03*
X103585000Y-124460000D03*
X103585000Y-121920000D03*
X103585000Y-119380000D03*
X103585000Y-116840000D03*
D12*
X154940000Y-127000000D03*
D13*
X147320000Y-127000000D03*
D10*
X116840000Y-141605000D03*
D11*
X119380000Y-141605000D03*
D10*
X142240000Y-141605000D03*
D11*
X144780000Y-141605000D03*
D16*
X121285000Y-116840000D03*
D13*
X121285000Y-119380000D03*
X121285000Y-121920000D03*
X121285000Y-124460000D03*
X121285000Y-127000000D03*
X121285000Y-129540000D03*
X121285000Y-132080000D03*
X121285000Y-134620000D03*
X128905000Y-134620000D03*
X128905000Y-132080000D03*
X128905000Y-129540000D03*
X128905000Y-127000000D03*
X128905000Y-124460000D03*
X128905000Y-121920000D03*
X128905000Y-119380000D03*
X128905000Y-116840000D03*
D12*
X103505000Y-67310000D03*
D13*
X95885000Y-67310000D03*
D10*
X132080000Y-141605000D03*
D11*
X134620000Y-141605000D03*
D16*
X133985000Y-116840000D03*
D13*
X133985000Y-119380000D03*
X133985000Y-121920000D03*
X133985000Y-124460000D03*
X133985000Y-127000000D03*
X133985000Y-129540000D03*
X133985000Y-132080000D03*
X141605000Y-132080000D03*
X141605000Y-129540000D03*
X141605000Y-127000000D03*
X141605000Y-124460000D03*
X141605000Y-121920000D03*
X141605000Y-119380000D03*
X141605000Y-116840000D03*
D12*
X114808000Y-112395000D03*
X109808000Y-112395000D03*
X153035000Y-64135000D03*
X148035000Y-64135000D03*
D10*
X111760000Y-141605000D03*
D11*
X114300000Y-141605000D03*
D14*
X161925000Y-53340000D03*
D15*
X161925000Y-55880000D03*
X161925000Y-58420000D03*
X161925000Y-60960000D03*
X161925000Y-63500000D03*
X161925000Y-66040000D03*
X161925000Y-68580000D03*
X161925000Y-71120000D03*
X161925000Y-73660000D03*
X161925000Y-76200000D03*
X161925000Y-78740000D03*
X161925000Y-81280000D03*
X161925000Y-83820000D03*
X161925000Y-86360000D03*
X161925000Y-88900000D03*
X161925000Y-91440000D03*
X161925000Y-93980000D03*
X161925000Y-96520000D03*
X161925000Y-99060000D03*
X161925000Y-101600000D03*
X161925000Y-104140000D03*
X161925000Y-106680000D03*
X161925000Y-109220000D03*
X161925000Y-111760000D03*
X161925000Y-114300000D03*
X161925000Y-116840000D03*
X161925000Y-119380000D03*
X161925000Y-121920000D03*
X161925000Y-124460000D03*
X161925000Y-127000000D03*
X161925000Y-129540000D03*
X161925000Y-132080000D03*
X161925000Y-134620000D03*
X161925000Y-137160000D03*
X161925000Y-139700000D03*
X161925000Y-142240000D03*
D16*
X121245000Y-67945000D03*
D13*
X121245000Y-70485000D03*
X121245000Y-73025000D03*
X121245000Y-75565000D03*
X121245000Y-78105000D03*
X121245000Y-80645000D03*
X121245000Y-83185000D03*
X128865000Y-83185000D03*
X128865000Y-80645000D03*
X128865000Y-78105000D03*
X128865000Y-75565000D03*
X128865000Y-73025000D03*
X128865000Y-70485000D03*
X128865000Y-67945000D03*
D12*
X154940000Y-130175000D03*
D13*
X147320000Y-130175000D03*
D12*
X100330000Y-91440000D03*
X100330000Y-96440000D03*
D10*
X127000000Y-141605000D03*
D11*
X129540000Y-141605000D03*
D12*
X154940000Y-107950000D03*
D13*
X147320000Y-107950000D03*
D12*
X114935000Y-64135000D03*
X109935000Y-64135000D03*
D16*
X133905000Y-67945000D03*
D13*
X133905000Y-70485000D03*
X133905000Y-73025000D03*
X133905000Y-75565000D03*
X133905000Y-78105000D03*
X133905000Y-80645000D03*
X133905000Y-83185000D03*
X133905000Y-85725000D03*
X141525000Y-85725000D03*
X141525000Y-83185000D03*
X141525000Y-80645000D03*
X141525000Y-78105000D03*
X141525000Y-75565000D03*
X141525000Y-73025000D03*
X141525000Y-70485000D03*
X141525000Y-67945000D03*
D12*
X154940000Y-123825000D03*
D13*
X147320000Y-123825000D03*
D17*
X155986500Y-63442500D03*
X160221400Y-113293000D03*
X103826000Y-137971800D03*
X138803400Y-136645700D03*
X88628300Y-90489700D03*
X109990700Y-89934800D03*
X91659300Y-137201700D03*
X163615000Y-137080900D03*
X91958400Y-86033800D03*
X129246400Y-61567200D03*
X93147400Y-72972700D03*
X94818300Y-88112000D03*
X137273100Y-102573300D03*
X94937300Y-102152900D03*
X115110000Y-84032600D03*
X136711300Y-90067700D03*
X132605300Y-117031600D03*
X109095200Y-108183400D03*
X137264100Y-73203700D03*
X112964300Y-133937400D03*
X130993300Y-73158400D03*
X130753700Y-89072300D03*
X121410100Y-97967500D03*
X118583400Y-101079100D03*
X145480300Y-99673400D03*
X144506700Y-74258900D03*
X92251300Y-84826900D03*
X127578800Y-118887500D03*
X122564900Y-69794600D03*
X131628100Y-62642200D03*
X125424600Y-68828500D03*
X126493800Y-85192400D03*
X124299600Y-85992500D03*
X124721200Y-72827400D03*
X125769400Y-85698300D03*
X106273000Y-68195300D03*
X156507600Y-73417200D03*
X152842500Y-76718200D03*
X155103700Y-79277500D03*
X159838300Y-60631500D03*
X136859000Y-61621800D03*
X160705300Y-80179200D03*
X135947100Y-61621800D03*
X159334200Y-63089800D03*
X112189400Y-61216400D03*
X157129800Y-64298600D03*
X160213400Y-63147900D03*
X113245600Y-59962700D03*
X130894400Y-128749800D03*
X148935500Y-104779400D03*
X138589200Y-75461100D03*
X106788900Y-108689400D03*
X138382300Y-108991200D03*
X113355900Y-124985800D03*
X96721700Y-125589900D03*
X113448600Y-133287800D03*
X109755200Y-123055600D03*
X115103300Y-130934700D03*
X119786500Y-123197800D03*
X119734300Y-125409900D03*
X139095300Y-104014900D03*
X138161000Y-76328500D03*
X135494100Y-84290900D03*
X133820900Y-104755300D03*
X124370300Y-75616300D03*
X144916700Y-90399000D03*
X126789100Y-80031800D03*
X129787500Y-66332500D03*
X120011900Y-81844000D03*
X118863300Y-104423600D03*
X148943000Y-75525300D03*
X148269500Y-93554500D03*
X145542600Y-90907200D03*
X121982300Y-76690600D03*
X143904900Y-91295400D03*
X124974600Y-124911400D03*
X145390200Y-139013400D03*
X117647500Y-120947300D03*
X114452100Y-113697500D03*
D18*
X155986500Y-68643500D02*
X155986500Y-63442500D01*
X121285000Y-134620000D02*
X121285000Y-135721700D01*
X123366900Y-64906900D02*
X123366900Y-86235300D01*
X95885000Y-73660000D02*
X95885000Y-70513100D01*
X133985000Y-119380000D02*
X133985000Y-116840000D01*
X161925000Y-55880000D02*
X161925000Y-56743800D01*
X106680000Y-141605000D02*
X106680000Y-137626700D01*
X100330000Y-109173000D02*
X97108000Y-112395000D01*
X148035000Y-64135000D02*
X148035000Y-81675000D01*
X133985000Y-132080000D02*
X132080000Y-133985000D01*
X121285000Y-84326700D02*
X121285000Y-91440000D01*
X123602300Y-86470700D02*
X123768600Y-86637000D01*
X95965000Y-113538000D02*
X95965000Y-116840000D01*
X135335000Y-114388300D02*
X135335000Y-112395000D01*
X139065000Y-106680000D02*
X139065000Y-107457700D01*
X100330000Y-96440000D02*
X100330000Y-109173000D01*
X90170000Y-56743800D02*
X95885000Y-62458800D01*
X95885000Y-70513100D02*
X95885000Y-70485000D01*
X123602300Y-86470700D02*
X123768600Y-86637000D01*
X95885000Y-70513100D02*
X95885000Y-67310000D01*
X132885000Y-128100000D02*
X133985000Y-127000000D01*
X95885000Y-83185000D02*
X95885000Y-80010000D01*
X121245000Y-83185000D02*
X121245000Y-84286700D01*
X121920000Y-136356700D02*
X121920000Y-141605000D01*
X147320000Y-104775000D02*
X147320000Y-103673300D01*
X126365000Y-91440000D02*
X126365000Y-90338300D01*
X122595000Y-64135000D02*
X123366900Y-64906900D01*
X155986500Y-62682300D02*
X155986500Y-63442500D01*
X148035000Y-81675000D02*
X146525000Y-83185000D01*
X103585000Y-124460000D02*
X102485000Y-123360000D01*
X147320000Y-103673300D02*
X146525000Y-102878300D01*
X135335000Y-111187700D02*
X135335000Y-112395000D01*
X102485000Y-120480000D02*
X103585000Y-119380000D01*
X139065000Y-107457700D02*
X135335000Y-111187700D01*
X133985000Y-131445000D02*
X132885000Y-130345000D01*
X123366900Y-86235300D02*
X123602300Y-86470700D01*
X141605000Y-119380000D02*
X141605000Y-121920000D01*
X108585000Y-134620000D02*
X108585000Y-135721700D01*
X123768600Y-87741900D02*
X126365000Y-90338300D01*
X147320000Y-107950000D02*
X147320000Y-104775000D01*
X133985000Y-115738300D02*
X135335000Y-114388300D01*
X121285000Y-135721700D02*
X121920000Y-136356700D01*
X133985000Y-116840000D02*
X133985000Y-115738300D01*
X95885000Y-76835000D02*
X95885000Y-73660000D01*
X106680000Y-137626700D02*
X108585000Y-135721700D01*
X95885000Y-76835000D02*
X95885000Y-80010000D01*
X90170000Y-55880000D02*
X90170000Y-56743800D01*
X132885000Y-130345000D02*
X132885000Y-128100000D01*
X154145000Y-70485000D02*
X155986500Y-68643500D01*
X132080000Y-133985000D02*
X132080000Y-141605000D01*
X161925000Y-56743800D02*
X155986500Y-62682300D01*
X102485000Y-123360000D02*
X102485000Y-120480000D01*
X146525000Y-102878300D02*
X146525000Y-83185000D01*
X97108000Y-112395000D02*
X95965000Y-113538000D01*
X133985000Y-132080000D02*
X133985000Y-131445000D01*
X123768600Y-86637000D02*
X123768600Y-87741900D01*
X95885000Y-62458800D02*
X95885000Y-64135000D01*
X95885000Y-64135000D02*
X95885000Y-67310000D01*
X154145000Y-70485000D02*
X154145000Y-73025000D01*
X133985000Y-127000000D02*
X133985000Y-124460000D01*
X121245000Y-84286700D02*
X121285000Y-84326700D01*
X95662900Y-130788100D02*
X96284000Y-130788100D01*
X116830000Y-52197000D02*
X116830000Y-53298700D01*
X116205000Y-115738300D02*
X116205000Y-113792000D01*
X152239900Y-71120000D02*
X152239900Y-88908200D01*
X128093700Y-54402400D02*
X126990000Y-53298700D01*
X140335000Y-112395000D02*
X141605000Y-113665000D01*
X108585000Y-89446100D02*
X108585000Y-91440000D01*
X104288400Y-94298300D02*
X104288400Y-115034900D01*
X100805800Y-116822800D02*
X102108000Y-115520600D01*
X154145000Y-67945000D02*
X154145000Y-67153300D01*
X113845800Y-65224200D02*
X113845800Y-84185300D01*
X153670000Y-91440000D02*
X153670000Y-90338300D01*
X102108000Y-115520600D02*
X103367300Y-115520600D01*
X114935000Y-64135000D02*
X114935000Y-55193700D01*
X90170000Y-142240000D02*
X92564800Y-139845200D01*
X126990000Y-52197000D02*
X126990000Y-53298700D01*
X106045000Y-92541700D02*
X104288400Y-94298300D01*
X106045000Y-91440000D02*
X106045000Y-92541700D01*
X92564800Y-133886200D02*
X95662900Y-130788100D01*
X114935000Y-55193700D02*
X116830000Y-53298700D01*
X128093700Y-64135000D02*
X128093700Y-66072000D01*
X92564800Y-139845200D02*
X92564800Y-133886200D01*
X153035000Y-64135000D02*
X153035000Y-66835000D01*
X154145000Y-61983800D02*
X154145000Y-66843300D01*
X141525000Y-67945000D02*
X141525000Y-66843300D01*
X116205000Y-113792000D02*
X114808000Y-112395000D01*
X114935000Y-64135000D02*
X113845800Y-65224200D01*
X161925000Y-53340000D02*
X161925000Y-54203800D01*
X128905000Y-115738300D02*
X127635000Y-114468300D01*
X153035000Y-66835000D02*
X154145000Y-67945000D01*
X103367300Y-115520600D02*
X103585000Y-115738300D01*
X161925000Y-142240000D02*
X160221400Y-140536400D01*
X154145000Y-67153300D02*
X154145000Y-66843300D01*
X128093700Y-64135000D02*
X127595000Y-64135000D01*
X96284000Y-130788100D02*
X100805800Y-126266300D01*
X116205000Y-116840000D02*
X116205000Y-115738300D01*
X100805800Y-126266300D02*
X100805800Y-116822800D01*
X128093700Y-64135000D02*
X128093700Y-54402400D01*
X141525000Y-66843300D02*
X140335000Y-65653300D01*
X102108000Y-115520600D02*
X102108000Y-112395000D01*
X128905000Y-116840000D02*
X128905000Y-115738300D01*
X128865000Y-67945000D02*
X128865000Y-66843300D01*
X152239900Y-88908200D02*
X153670000Y-90338300D01*
X127635000Y-114468300D02*
X127635000Y-112395000D01*
X140335000Y-65653300D02*
X140335000Y-64135000D01*
X104288400Y-115034900D02*
X103585000Y-115738300D01*
X154145000Y-67945000D02*
X152239900Y-69850100D01*
X141605000Y-113665000D02*
X141605000Y-116840000D01*
X113845800Y-84185300D02*
X108585000Y-89446100D01*
X160221400Y-140536400D02*
X160221400Y-113293000D01*
X128093700Y-66072000D02*
X128865000Y-66843300D01*
X152239900Y-69850100D02*
X152239900Y-71120000D01*
X161925000Y-54203800D02*
X154145000Y-61983800D01*
X103585000Y-116840000D02*
X103585000Y-115738300D01*
X104709200Y-137088600D02*
X104709200Y-123044200D01*
X141525000Y-70485000D02*
X139241000Y-72769000D01*
X138801800Y-136644100D02*
X138803400Y-136645700D01*
X140268600Y-89547700D02*
X141002900Y-90282000D01*
X103826000Y-137971800D02*
X104709200Y-137088600D01*
X138801800Y-109637100D02*
X138801800Y-136644100D01*
X141002900Y-107436000D02*
X138801800Y-109637100D01*
X139241000Y-88264200D02*
X140268600Y-89291800D01*
X140268600Y-89291800D02*
X140268600Y-89547700D01*
X139241000Y-72769000D02*
X139241000Y-88264200D01*
X141002900Y-90282000D02*
X141002900Y-107436000D01*
X104709200Y-123044200D02*
X103585000Y-121920000D01*
X90170000Y-134620000D02*
X88555800Y-133005800D01*
X88555800Y-90562200D02*
X88628300Y-90489700D01*
X117852900Y-72252300D02*
X117852900Y-78026700D01*
X117852900Y-78026700D02*
X116390300Y-79489300D01*
X121245000Y-68860200D02*
X117852900Y-72252300D01*
X121245000Y-67945000D02*
X121245000Y-68860200D01*
X114292100Y-84374100D02*
X109990700Y-88675500D01*
X88555800Y-133005800D02*
X88555800Y-90562200D01*
X115747500Y-79489300D02*
X114292100Y-80944700D01*
X114292100Y-80944700D02*
X114292100Y-84374100D01*
X109990700Y-88675500D02*
X109990700Y-89934800D01*
X116390300Y-79489300D02*
X115747500Y-79489300D01*
X161925000Y-124460000D02*
X163615000Y-126150000D01*
X90170000Y-124460000D02*
X90170000Y-125611700D01*
X90457900Y-125611700D02*
X91659300Y-126813100D01*
X90170000Y-125611700D02*
X90457900Y-125611700D01*
X91659300Y-126813100D02*
X91659300Y-137201700D01*
X163615000Y-126150000D02*
X163615000Y-137080900D01*
X91649600Y-85725000D02*
X91958400Y-86033800D01*
X90170000Y-73660000D02*
X91649600Y-75139600D01*
X91649600Y-75139600D02*
X91649600Y-85725000D01*
X130391500Y-62712300D02*
X129246400Y-61567200D01*
X131445000Y-106680000D02*
X131445000Y-105578300D01*
X131445000Y-105578300D02*
X130137400Y-104270700D01*
X130137400Y-104270700D02*
X130137400Y-81965600D01*
X130137400Y-81965600D02*
X130391500Y-81711500D01*
X130391500Y-81711500D02*
X130391500Y-62712300D01*
X140423300Y-82688000D02*
X140423300Y-88086400D01*
X146525000Y-71388200D02*
X143503100Y-74410100D01*
X140423300Y-88086400D02*
X140670300Y-88333400D01*
X141404600Y-107602400D02*
X139203500Y-109803500D01*
X143503100Y-74410100D02*
X143503100Y-80285600D01*
X140670300Y-88333400D02*
X140670300Y-89381400D01*
X139368300Y-115538100D02*
X139203500Y-115373300D01*
X139368300Y-115538100D02*
X139368300Y-129843300D01*
X139203500Y-115373300D02*
X139368300Y-115538100D01*
X141404600Y-90115700D02*
X141404600Y-107602400D01*
X141873700Y-81915000D02*
X141196300Y-81915000D01*
X143503100Y-80285600D02*
X141873700Y-81915000D01*
X141196300Y-81915000D02*
X140423300Y-82688000D01*
X140670300Y-89381400D02*
X141404600Y-90115700D01*
X139203500Y-109803500D02*
X139203500Y-115373300D01*
X139368300Y-129843300D02*
X141605000Y-132080000D01*
X146525000Y-70485000D02*
X146525000Y-71388200D01*
X94783300Y-88077000D02*
X94818300Y-88112000D01*
X94783300Y-74608600D02*
X94783300Y-88077000D01*
X93147400Y-72972700D02*
X94783300Y-74608600D01*
X92545600Y-65875600D02*
X92545600Y-75545500D01*
X92545600Y-75545500D02*
X92853100Y-75853000D01*
X92853100Y-75853000D02*
X92853100Y-100068700D01*
X136525000Y-106680000D02*
X136525000Y-105578300D01*
X90170000Y-63500000D02*
X92545600Y-65875600D01*
X92853100Y-100068700D02*
X94937300Y-102152900D01*
X137273100Y-104830200D02*
X137273100Y-102573300D01*
X136525000Y-105578300D02*
X137273100Y-104830200D01*
X135261800Y-104417900D02*
X135261800Y-107030600D01*
X132605300Y-109687100D02*
X132605300Y-117031600D01*
X137627000Y-90983400D02*
X137627000Y-101368600D01*
X116205000Y-80645000D02*
X116205000Y-81518400D01*
X128905000Y-129540000D02*
X128905000Y-128576000D01*
X135261800Y-107030600D02*
X132605300Y-109687100D01*
X136528800Y-70568800D02*
X136528800Y-89885200D01*
X136528800Y-89885200D02*
X136711300Y-90067700D01*
X116205000Y-81518400D02*
X115060700Y-82662700D01*
X136671400Y-103008300D02*
X135261800Y-104417900D01*
X128905000Y-128576000D02*
X132605300Y-124875700D01*
X115060700Y-83983300D02*
X115110000Y-84032600D01*
X132605300Y-124875700D02*
X132605300Y-117031600D01*
X115060700Y-82662700D02*
X115060700Y-83983300D01*
X136711300Y-90067700D02*
X137627000Y-90983400D01*
X136671400Y-102324200D02*
X136671400Y-103008300D01*
X133905000Y-67945000D02*
X136528800Y-70568800D01*
X137627000Y-101368600D02*
X136671400Y-102324200D01*
X109719600Y-87724800D02*
X107467800Y-89976600D01*
X109719600Y-76699600D02*
X109719600Y-87724800D01*
X108585000Y-75565000D02*
X109719600Y-76699600D01*
X108452900Y-108183400D02*
X109095200Y-108183400D01*
X107467800Y-89976600D02*
X107467800Y-107198300D01*
X107467800Y-107198300D02*
X108452900Y-108183400D01*
X137264100Y-79071000D02*
X137884300Y-79691200D01*
X137884300Y-79691200D02*
X137884300Y-88810700D01*
X137264100Y-73203700D02*
X137264100Y-79071000D01*
X139065000Y-91440000D02*
X139065000Y-89991400D01*
X137884300Y-88810700D02*
X139065000Y-89991400D01*
X130960600Y-88708800D02*
X130960600Y-73191100D01*
X112025000Y-132966100D02*
X112025000Y-120818300D01*
X116205000Y-85725000D02*
X116205000Y-86826700D01*
X112393500Y-90638200D02*
X112393500Y-120449800D01*
X112980300Y-133921400D02*
X112025000Y-132966100D01*
X130960600Y-73191100D02*
X130993300Y-73158400D01*
X108585000Y-121920000D02*
X109686700Y-120818300D01*
X130753700Y-88915700D02*
X130753700Y-89072300D01*
X109686700Y-120818300D02*
X112025000Y-120818300D01*
X116205000Y-86826700D02*
X112393500Y-90638200D01*
X112980300Y-133921400D02*
X112964300Y-133937400D01*
X112393500Y-120449800D02*
X112025000Y-120818300D01*
X130960600Y-88708800D02*
X130753700Y-88915700D01*
X89781100Y-107950000D02*
X88991100Y-107160000D01*
X92820400Y-117811400D02*
X92820400Y-110219800D01*
X88991100Y-107160000D02*
X88991100Y-90990100D01*
X90170000Y-87223800D02*
X90170000Y-86360000D01*
X88991000Y-88402800D02*
X90170000Y-87223800D01*
X89271300Y-89866700D02*
X88991000Y-89586400D01*
X89271300Y-90709900D02*
X89271300Y-89866700D01*
X90550600Y-107950000D02*
X89781100Y-107950000D01*
X95965000Y-121920000D02*
X95965000Y-120956000D01*
X88991000Y-89586400D02*
X88991000Y-88402800D01*
X92820400Y-110219800D02*
X90550600Y-107950000D01*
X95965000Y-120956000D02*
X92820400Y-117811400D01*
X88991100Y-90990100D02*
X89271300Y-90709900D01*
X107483300Y-79206700D02*
X107483300Y-82526200D01*
X121410100Y-97967500D02*
X121410100Y-105133200D01*
X121410100Y-105133200D02*
X122404100Y-106127200D01*
X122404100Y-109264700D02*
X121520600Y-110148200D01*
X95885000Y-94124500D02*
X95885000Y-98980000D01*
X121520600Y-114264400D02*
X122412500Y-115156300D01*
X121285000Y-127000000D02*
X122390500Y-125894500D01*
X107483300Y-82526200D02*
X95885000Y-94124500D01*
X108585000Y-78105000D02*
X107483300Y-79206700D01*
X122412500Y-115156300D02*
X122412500Y-124908500D01*
X121520600Y-110148200D02*
X121520600Y-114264400D01*
X122404100Y-106127200D02*
X122404100Y-109264700D01*
X122390500Y-125894500D02*
X122390500Y-124930500D01*
X122412500Y-124908500D02*
X122390500Y-124930500D01*
X143265800Y-97458900D02*
X143265800Y-83950300D01*
X115103300Y-118923600D02*
X115748600Y-118278300D01*
X145480300Y-99673400D02*
X143265800Y-97458900D01*
X116205000Y-124460000D02*
X115103300Y-123358300D01*
X143906400Y-83309700D02*
X143906400Y-74859200D01*
X115103300Y-123358300D02*
X115103300Y-118923600D01*
X116347700Y-118278300D02*
X117306700Y-117319300D01*
X117306700Y-117319300D02*
X117306700Y-102355800D01*
X143906400Y-74859200D02*
X144506700Y-74258900D01*
X143265800Y-83950300D02*
X143906400Y-83309700D01*
X115748600Y-118278300D02*
X116347700Y-118278300D01*
X117306700Y-102355800D02*
X118583400Y-101079100D01*
X92143900Y-84719500D02*
X92251300Y-84826900D01*
X90170000Y-68580000D02*
X92143900Y-70553900D01*
X92143900Y-70553900D02*
X92143900Y-84719500D01*
X94863300Y-118278300D02*
X94863300Y-109716500D01*
X94863300Y-109716500D02*
X90170000Y-105023200D01*
X90170000Y-105023200D02*
X90170000Y-104140000D01*
X95965000Y-119380000D02*
X94863300Y-118278300D01*
X128905000Y-132080000D02*
X127766300Y-130941300D01*
X116205000Y-84047300D02*
X114447500Y-85804800D01*
X127766300Y-130941300D02*
X127766300Y-126557700D01*
X128224800Y-118241500D02*
X127578800Y-118887500D01*
X121745500Y-71613400D02*
X122564900Y-70794000D01*
X110939500Y-117025500D02*
X110939500Y-110194200D01*
X121051500Y-71613400D02*
X121745500Y-71613400D01*
X118435800Y-74229100D02*
X121051500Y-71613400D01*
X128594000Y-125730000D02*
X129211400Y-125730000D01*
X130038200Y-124903200D02*
X130038200Y-118924900D01*
X129354800Y-118241500D02*
X128224800Y-118241500D01*
X108585000Y-119380000D02*
X110939500Y-117025500D01*
X127766300Y-126557700D02*
X128594000Y-125730000D01*
X116205000Y-83185000D02*
X116205000Y-83735800D01*
X129211400Y-125730000D02*
X130038200Y-124903200D01*
X116205000Y-83185000D02*
X116205000Y-84047300D01*
X130038200Y-118924900D02*
X129354800Y-118241500D01*
X110939500Y-110194200D02*
X110020000Y-109274700D01*
X110020000Y-90756400D02*
X114447500Y-86328900D01*
X110020000Y-109274700D02*
X110020000Y-90756400D01*
X122564900Y-70794000D02*
X122564900Y-69794600D01*
X116205000Y-83735800D02*
X118435800Y-81505000D01*
X114447500Y-86328900D02*
X114447500Y-85804800D01*
X118435800Y-81505000D02*
X118435800Y-74229100D01*
X132776200Y-105471200D02*
X132776200Y-87193200D01*
X132609900Y-87026900D02*
X132609900Y-76964000D01*
X131628100Y-75982200D02*
X131628100Y-62642200D01*
X132609900Y-87026900D02*
X132776200Y-87193200D01*
X133985000Y-106680000D02*
X132776200Y-105471200D01*
X131628100Y-75982200D02*
X132609900Y-76964000D01*
X132776200Y-87193200D02*
X132609900Y-87026900D01*
X116830000Y-64576900D02*
X116830000Y-59817000D01*
X114692300Y-76592300D02*
X114692300Y-66714600D01*
X114692300Y-66714600D02*
X116830000Y-64576900D01*
X116205000Y-78105000D02*
X114692300Y-76592300D01*
X126990000Y-59817000D02*
X126990000Y-60918700D01*
X126187400Y-84886000D02*
X126493800Y-85192400D01*
X126187400Y-69591300D02*
X126187400Y-84886000D01*
X125424600Y-68828500D02*
X125424600Y-62484100D01*
X125424600Y-68828500D02*
X126187400Y-69591300D01*
X125424600Y-62484100D02*
X126990000Y-60918700D01*
X147493000Y-109396100D02*
X147776200Y-109396100D01*
X145702700Y-107965400D02*
X147274800Y-109537500D01*
X150664800Y-112284700D02*
X150664800Y-116374800D01*
X145702700Y-106629800D02*
X145702700Y-107965400D01*
X142626700Y-103553800D02*
X145702700Y-106629800D01*
X147776200Y-109396100D02*
X150664800Y-112284700D01*
X141525000Y-83185000D02*
X142626700Y-84286700D01*
X147274800Y-109537500D02*
X147351600Y-109537500D01*
X150664800Y-116374800D02*
X154940000Y-120650000D01*
X147351600Y-109537500D02*
X147493000Y-109396100D01*
X142626700Y-84286700D02*
X142626700Y-103553800D01*
X122368000Y-58706800D02*
X123011700Y-59350500D01*
X115094000Y-73538700D02*
X115094000Y-67091800D01*
X115094000Y-67091800D02*
X119370000Y-62815800D01*
X123011700Y-61265000D02*
X123768600Y-62021900D01*
X119370000Y-62815800D02*
X119370000Y-59817000D01*
X116205000Y-75565000D02*
X116205000Y-74649700D01*
X123011700Y-59350500D02*
X123011700Y-61265000D01*
X123768600Y-85461500D02*
X124299600Y-85992500D01*
X119370000Y-59817000D02*
X120480200Y-58706800D01*
X123768600Y-62021900D02*
X123768600Y-85461500D01*
X116205000Y-74649700D02*
X115094000Y-73538700D01*
X120480200Y-58706800D02*
X122368000Y-58706800D01*
X125769400Y-73875600D02*
X125769400Y-85698300D01*
X106273000Y-68195300D02*
X106273000Y-70892000D01*
X106273000Y-70892000D02*
X103505000Y-73660000D01*
X124450000Y-59817000D02*
X124450000Y-72556200D01*
X124450000Y-72556200D02*
X124721200Y-72827400D01*
X124721200Y-72827400D02*
X125769400Y-73875600D01*
X116205000Y-73025000D02*
X116205000Y-72147600D01*
X116205000Y-72147600D02*
X116429300Y-71923300D01*
X118068200Y-70284300D02*
X116429300Y-71923200D01*
X121910000Y-60918700D02*
X118068200Y-64760500D01*
X116429300Y-71923200D02*
X116429300Y-71923300D01*
X118068200Y-64760500D02*
X118068200Y-70284300D01*
X121910000Y-59817000D02*
X121910000Y-60918700D01*
X154940000Y-127000000D02*
X156879700Y-125060300D01*
X156879700Y-125060300D02*
X156879700Y-78827400D01*
X156879700Y-78827400D02*
X156507600Y-78455300D01*
X156507600Y-78455300D02*
X156507600Y-73417200D01*
X152842500Y-76718200D02*
X152641600Y-76919100D01*
X156072200Y-113167800D02*
X154940000Y-114300000D01*
X156072200Y-87803800D02*
X156072200Y-113167800D01*
X152641600Y-84373200D02*
X156072200Y-87803800D01*
X152641600Y-76919100D02*
X152641600Y-84373200D01*
X154940000Y-117475000D02*
X156473900Y-115941100D01*
X153043300Y-83641400D02*
X153043300Y-80188600D01*
X153954400Y-79277500D02*
X155103700Y-79277500D01*
X156473900Y-87072000D02*
X153043300Y-83641400D01*
X156473900Y-115941100D02*
X156473900Y-87072000D01*
X153043300Y-80188600D02*
X153954400Y-79277500D01*
X135719100Y-60999000D02*
X136236200Y-60999000D01*
X132398400Y-64319700D02*
X135719100Y-60999000D01*
X133905000Y-77163000D02*
X132398400Y-75656400D01*
X133905000Y-78105000D02*
X133905000Y-77163000D01*
X158241200Y-130048800D02*
X154940000Y-133350000D01*
X158241200Y-62228600D02*
X158241200Y-130048800D01*
X136236200Y-60999000D02*
X136859000Y-61621800D01*
X132398400Y-75656400D02*
X132398400Y-64319700D01*
X159838300Y-60631500D02*
X158241200Y-62228600D01*
X147108500Y-109939200D02*
X141806300Y-104637000D01*
X147675900Y-109863800D02*
X147593300Y-109863800D01*
X141570900Y-89714000D02*
X141525000Y-89668100D01*
X147593300Y-109863800D02*
X147517900Y-109939200D01*
X149056600Y-117941600D02*
X149056600Y-111244500D01*
X147517900Y-109939200D02*
X147108500Y-109939200D01*
X141570900Y-89714000D02*
X141525000Y-89668100D01*
X154940000Y-123825000D02*
X149056600Y-117941600D01*
X160705300Y-69799700D02*
X160705300Y-80179200D01*
X149056600Y-111244500D02*
X147675900Y-109863800D01*
X141806300Y-89949400D02*
X141570900Y-89714000D01*
X161925000Y-68580000D02*
X160705300Y-69799700D01*
X141806300Y-104637000D02*
X141806300Y-89949400D01*
X141525000Y-85725000D02*
X141525000Y-86826700D01*
X141525000Y-89668100D02*
X141525000Y-86826700D01*
X132803300Y-67020000D02*
X132980000Y-66843300D01*
X136477000Y-62292900D02*
X135947100Y-61763000D01*
X132803300Y-74463300D02*
X132803300Y-67020000D01*
X136477000Y-64620300D02*
X136477000Y-62292900D01*
X132980000Y-66843300D02*
X134254000Y-66843300D01*
X161925000Y-58420000D02*
X161925000Y-59055000D01*
X158644000Y-132821000D02*
X154940000Y-136525000D01*
X135947100Y-61763000D02*
X135947100Y-61621800D01*
X161925000Y-59055000D02*
X160440000Y-60540000D01*
X158644000Y-62752000D02*
X158644000Y-132821000D01*
X133905000Y-75565000D02*
X132803300Y-74463300D01*
X134254000Y-66843300D02*
X136477000Y-64620300D01*
X160440000Y-60540000D02*
X160440000Y-60956000D01*
X160440000Y-60956000D02*
X158644000Y-62752000D01*
X159334200Y-80437400D02*
X159334200Y-63089800D01*
X161925000Y-83820000D02*
X161925000Y-83028200D01*
X112189400Y-66880600D02*
X112189400Y-61216400D01*
X108585000Y-70485000D02*
X112189400Y-66880600D01*
X161925000Y-83028200D02*
X159334200Y-80437400D01*
X157296100Y-78475600D02*
X157129800Y-78309300D01*
X157296100Y-127818900D02*
X157296100Y-78475600D01*
X157129800Y-78309300D02*
X157129800Y-64298600D01*
X157296100Y-78475600D02*
X157129800Y-78309300D01*
X154940000Y-130175000D02*
X157296100Y-127818900D01*
X160034000Y-63327300D02*
X160213400Y-63147900D01*
X161925000Y-81280000D02*
X160773300Y-81280000D01*
X113245600Y-67400400D02*
X113245600Y-59962700D01*
X108585000Y-73025000D02*
X108585000Y-72061000D01*
X160034000Y-80540700D02*
X160034000Y-63327300D01*
X108585000Y-72061000D02*
X113245600Y-67400400D01*
X160773300Y-81280000D02*
X160034000Y-80540700D01*
X147320000Y-136525000D02*
X147320000Y-137626700D01*
X144780000Y-141605000D02*
X147320000Y-139065000D01*
X147320000Y-139065000D02*
X147320000Y-137626700D01*
X147320000Y-133350000D02*
X147320000Y-133985000D01*
X147320000Y-133985000D02*
X139700000Y-141605000D01*
X134788300Y-141605000D02*
X146218300Y-130175000D01*
X134620000Y-141605000D02*
X134788300Y-141605000D01*
X147320000Y-130175000D02*
X146218300Y-130175000D01*
X129540000Y-141605000D02*
X130894400Y-140250600D01*
X130894400Y-140250600D02*
X130894400Y-128749800D01*
X153670000Y-103505000D02*
X154940000Y-104775000D01*
X153670000Y-99060000D02*
X153670000Y-103505000D01*
X151130000Y-99060000D02*
X151130000Y-104140000D01*
X151130000Y-104140000D02*
X154940000Y-107950000D01*
X148590000Y-104433900D02*
X148935500Y-104779400D01*
X148935500Y-105120500D02*
X154940000Y-111125000D01*
X148935500Y-104779400D02*
X148935500Y-105120500D01*
X148590000Y-99060000D02*
X148590000Y-104433900D01*
X103261100Y-118110000D02*
X102058000Y-119313100D01*
X138470400Y-108991200D02*
X140601200Y-106860400D01*
X138839300Y-88430500D02*
X138839300Y-75711200D01*
X106788900Y-108689400D02*
X106788900Y-115212500D01*
X106788900Y-115212500D02*
X103891400Y-118110000D01*
X139866900Y-89714000D02*
X139866900Y-89458100D01*
X140601200Y-90448300D02*
X139866900Y-89714000D01*
X138382300Y-108991200D02*
X138470400Y-108991200D01*
X103891400Y-118110000D02*
X103261100Y-118110000D01*
X139866900Y-89458100D02*
X138839300Y-88430500D01*
X102058000Y-119313100D02*
X102058000Y-125987000D01*
X102058000Y-125987000D02*
X95965000Y-132080000D01*
X138839300Y-75711200D02*
X138589200Y-75461100D01*
X140601200Y-106860400D02*
X140601200Y-90448300D01*
X103886700Y-109014300D02*
X97463400Y-115437600D01*
X108585000Y-84149000D02*
X103886700Y-88847300D01*
X97463400Y-128041600D02*
X95965000Y-129540000D01*
X103886700Y-88847300D02*
X103886700Y-109014300D01*
X108585000Y-83185000D02*
X108585000Y-84149000D01*
X97463400Y-115437600D02*
X97463400Y-128041600D01*
X96693500Y-125561700D02*
X96721700Y-125589900D01*
X113355900Y-124985800D02*
X113355900Y-133195100D01*
X95965000Y-124460000D02*
X95965000Y-125561700D01*
X113355900Y-133195100D02*
X113448600Y-133287800D01*
X95965000Y-125561700D02*
X96693500Y-125561700D01*
X108585000Y-129540000D02*
X109755200Y-128369800D01*
X109755200Y-128369800D02*
X109755200Y-123055600D01*
X128905000Y-120068600D02*
X128905000Y-119380000D01*
X117644800Y-133180200D02*
X117644800Y-131589700D01*
X116205000Y-134620000D02*
X117644800Y-133180200D01*
X117644800Y-131589700D02*
X120964500Y-128270000D01*
X123046400Y-125927200D02*
X128905000Y-120068600D01*
X123046400Y-126866400D02*
X123046400Y-125927200D01*
X121642800Y-128270000D02*
X123046400Y-126866400D01*
X120964500Y-128270000D02*
X121642800Y-128270000D01*
X121285000Y-116840000D02*
X121285000Y-117803900D01*
X115889700Y-128270000D02*
X115103300Y-129056400D01*
X116500100Y-128270000D02*
X115889700Y-128270000D01*
X115103300Y-129056400D02*
X115103300Y-130934700D01*
X118249200Y-120839700D02*
X118249200Y-126520900D01*
X121285000Y-117803900D02*
X118249200Y-120839700D01*
X118249200Y-126520900D02*
X116500100Y-128270000D01*
X119132600Y-123851700D02*
X119786500Y-123197800D01*
X116205000Y-132080000D02*
X116205000Y-131206600D01*
X119132600Y-128279000D02*
X119132600Y-123851700D01*
X116205000Y-131206600D02*
X119132600Y-128279000D01*
X121285000Y-122883900D02*
X119734300Y-124434600D01*
X119734300Y-124434600D02*
X119734300Y-125409900D01*
X121285000Y-121920000D02*
X121285000Y-122883900D01*
X122563500Y-79423500D02*
X122563500Y-104316800D01*
X121245000Y-78105000D02*
X122563500Y-79423500D01*
X122563500Y-104316800D02*
X123825000Y-105578300D01*
X123825000Y-105578300D02*
X123825000Y-106680000D01*
X138437600Y-88596800D02*
X139465200Y-89624400D01*
X139465200Y-89624400D02*
X139465200Y-89880300D01*
X138161000Y-76328500D02*
X138437600Y-76605100D01*
X140199500Y-90614600D02*
X140199500Y-102910700D01*
X139465200Y-89880300D02*
X140199500Y-90614600D01*
X140199500Y-102910700D02*
X139095300Y-104014900D01*
X138437600Y-76605100D02*
X138437600Y-88596800D01*
X135384200Y-84400800D02*
X135384200Y-103192000D01*
X135494100Y-84290900D02*
X135384200Y-84400800D01*
X135384200Y-103192000D02*
X133820900Y-104755300D01*
X127475400Y-107790400D02*
X129368100Y-107790400D01*
X129368100Y-107790400D02*
X130034000Y-107124500D01*
X130034000Y-107124500D02*
X130034000Y-105858900D01*
X127762300Y-103587200D02*
X127762300Y-89151600D01*
X124901300Y-86290600D02*
X124901300Y-85743300D01*
X124370400Y-85212400D02*
X124370300Y-85212400D01*
X130034000Y-105858900D02*
X127762300Y-103587200D01*
X126365000Y-106680000D02*
X127475400Y-107790400D01*
X124370300Y-85212400D02*
X124370300Y-75616300D01*
X124901300Y-85743300D02*
X124370400Y-85212400D01*
X127762300Y-89151600D02*
X124901300Y-86290600D01*
X144916700Y-79713300D02*
X144916700Y-90399000D01*
X146525000Y-78105000D02*
X144916700Y-79713300D01*
X121245000Y-81609000D02*
X120125600Y-82728400D01*
X126789100Y-73524900D02*
X126789100Y-80031800D01*
X128865000Y-70485000D02*
X128865000Y-71449000D01*
X121245000Y-80645000D02*
X121245000Y-81609000D01*
X120125600Y-104418900D02*
X121285000Y-105578300D01*
X121285000Y-105578300D02*
X121285000Y-106680000D01*
X128865000Y-71449000D02*
X126789100Y-73524900D01*
X120125600Y-82728400D02*
X120125600Y-104418900D01*
X129989800Y-81151700D02*
X129989800Y-66534800D01*
X119681200Y-86449800D02*
X119681200Y-82174700D01*
X117624000Y-98546900D02*
X117624000Y-88507000D01*
X118863300Y-104423600D02*
X119588100Y-103698800D01*
X119681200Y-82174700D02*
X120011900Y-81844000D01*
X129989800Y-66534800D02*
X129787500Y-66332500D01*
X128865000Y-83185000D02*
X128865000Y-82276500D01*
X119352700Y-100275600D02*
X119187900Y-100110800D01*
X117624000Y-88507000D02*
X119681200Y-86449800D01*
X119588100Y-103698800D02*
X119588100Y-100511000D01*
X119187900Y-100110800D02*
X117624000Y-98546900D01*
X119588100Y-100511000D02*
X119352700Y-100275600D01*
X119352700Y-100275600D02*
X119187900Y-100110800D01*
X128865000Y-82276500D02*
X129989800Y-81151700D01*
X147488300Y-90983600D02*
X147488300Y-92773300D01*
X148943000Y-89528900D02*
X147488300Y-90983600D01*
X147488300Y-92773300D02*
X148269500Y-93554500D01*
X148943000Y-75525300D02*
X148943000Y-89528900D01*
X145542600Y-84767900D02*
X145542600Y-90907200D01*
X145420100Y-84645400D02*
X145542600Y-84767900D01*
X146525000Y-80645000D02*
X145454200Y-81715800D01*
X145454200Y-81715800D02*
X145454200Y-82589200D01*
X145454200Y-82589200D02*
X145420100Y-82623300D01*
X145420100Y-82623300D02*
X145420100Y-84645400D01*
X119258000Y-84819200D02*
X119258000Y-78465600D01*
X118745000Y-105578300D02*
X118261500Y-105094800D01*
X118745000Y-106680000D02*
X118745000Y-105578300D01*
X119186400Y-102546900D02*
X119186400Y-100777500D01*
X115095400Y-96686500D02*
X115095400Y-88981800D01*
X118261500Y-103471800D02*
X119186400Y-102546900D01*
X121033000Y-76690600D02*
X121982300Y-76690600D01*
X119258000Y-78465600D02*
X121033000Y-76690600D01*
X115095400Y-88981800D02*
X119258000Y-84819200D01*
X118261500Y-105094800D02*
X118261500Y-103471800D01*
X119186400Y-100777500D02*
X115095400Y-96686500D01*
X123303900Y-86740300D02*
X123303900Y-89121000D01*
X123303900Y-89121000D02*
X125095000Y-90912100D01*
X122965200Y-86401600D02*
X123303900Y-86740300D01*
X125095000Y-101768300D02*
X128905000Y-105578300D01*
X121245000Y-73025000D02*
X122965200Y-74745200D01*
X128905000Y-105578300D02*
X128905000Y-106680000D01*
X125095000Y-90912100D02*
X125095000Y-101768300D01*
X122965200Y-74745200D02*
X122965200Y-86401600D01*
X146525000Y-73989000D02*
X144308100Y-76205900D01*
X144308100Y-76205900D02*
X144308100Y-90892200D01*
X144308100Y-90892200D02*
X143904900Y-91295400D01*
X146525000Y-73025000D02*
X146525000Y-73989000D01*
X124974600Y-141090400D02*
X124460000Y-141605000D01*
X124974600Y-124911400D02*
X124974600Y-141090400D01*
X147495900Y-134884300D02*
X147385800Y-134884300D01*
X148467000Y-122898700D02*
X148467000Y-133913200D01*
X147385800Y-134884300D02*
X145390200Y-136879900D01*
X147320000Y-121751700D02*
X148467000Y-122898700D01*
X148467000Y-133913200D02*
X147495900Y-134884300D01*
X145390200Y-136879900D02*
X145390200Y-139013400D01*
X147320000Y-120650000D02*
X147320000Y-121751700D01*
X115907400Y-125730000D02*
X116531300Y-125730000D01*
X114452200Y-141452800D02*
X114452200Y-127185200D01*
X116531300Y-125730000D02*
X117647500Y-124613800D01*
X114300000Y-141605000D02*
X114452200Y-141452800D01*
X114452200Y-127185200D02*
X115907400Y-125730000D01*
X117647500Y-124613800D02*
X117647500Y-120947300D01*
X114452100Y-113697500D02*
X114050400Y-114099200D01*
X114050400Y-114099200D02*
X114050400Y-136774600D01*
X114050400Y-136774600D02*
X109220000Y-141605000D01*
M02*
