G04 #@! TF.GenerationSoftware,KiCad,Pcbnew,8.0.9-8.0.9-0~ubuntu22.04.1*
G04 #@! TF.CreationDate,2025-06-29T10:34:07+10:00*
G04 #@! TF.ProjectId,UE1-TTL-Memory,5545312d-5454-44c2-9d4d-656d6f72792e,rev?*
G04 #@! TF.SameCoordinates,Original*
G04 #@! TF.FileFunction,Soldermask,Top*
G04 #@! TF.FilePolarity,Negative*
%FSLAX46Y46*%
G04 Gerber Fmt 4.6, Leading zero omitted, Abs format (unit mm)*
G04 Created by KiCad (PCBNEW 8.0.9-8.0.9-0~ubuntu22.04.1) date 2025-06-29 10:34:07*
%MOMM*%
%LPD*%
G01*
G04 APERTURE LIST*
%ADD10R,1.800000X1.800000*%
%ADD11C,1.800000*%
%ADD12C,1.600000*%
%ADD13O,1.600000X1.600000*%
%ADD14C,3.000000*%
%ADD15R,1.700000X1.700000*%
%ADD16O,1.700000X1.700000*%
%ADD17R,1.600000X1.600000*%
G04 APERTURE END LIST*
D10*
X137160000Y-141605000D03*
D11*
X139700000Y-141605000D03*
D12*
X103505000Y-64135000D03*
D13*
X95885000Y-64135000D03*
D12*
X154940000Y-114300000D03*
D13*
X147320000Y-114300000D03*
D12*
X154940000Y-136525000D03*
D13*
X147320000Y-136525000D03*
D12*
X154940000Y-111125000D03*
D13*
X147320000Y-111125000D03*
D12*
X154940000Y-133350000D03*
D13*
X147320000Y-133350000D03*
D12*
X127635000Y-112395000D03*
X122635000Y-112395000D03*
X102108000Y-112395000D03*
X97108000Y-112395000D03*
D14*
X156845000Y-52070000D03*
D12*
X95885000Y-91360000D03*
D13*
X95885000Y-98980000D03*
D15*
X90170000Y-53340000D03*
D16*
X90170000Y-55880000D03*
X90170000Y-58420000D03*
X90170000Y-60960000D03*
X90170000Y-63500000D03*
X90170000Y-66040000D03*
X90170000Y-68580000D03*
X90170000Y-71120000D03*
X90170000Y-73660000D03*
X90170000Y-76200000D03*
X90170000Y-78740000D03*
X90170000Y-81280000D03*
X90170000Y-83820000D03*
X90170000Y-86360000D03*
X90170000Y-88900000D03*
X90170000Y-91440000D03*
X90170000Y-93980000D03*
X90170000Y-96520000D03*
X90170000Y-99060000D03*
X90170000Y-101600000D03*
X90170000Y-104140000D03*
X90170000Y-106680000D03*
X90170000Y-109220000D03*
X90170000Y-111760000D03*
X90170000Y-114300000D03*
X90170000Y-116840000D03*
X90170000Y-119380000D03*
X90170000Y-121920000D03*
X90170000Y-124460000D03*
X90170000Y-127000000D03*
X90170000Y-129540000D03*
X90170000Y-132080000D03*
X90170000Y-134620000D03*
X90170000Y-137160000D03*
X90170000Y-139700000D03*
X90170000Y-142240000D03*
D12*
X103505000Y-83185000D03*
D13*
X95885000Y-83185000D03*
D17*
X108585000Y-67945000D03*
D13*
X108585000Y-70485000D03*
X108585000Y-73025000D03*
X108585000Y-75565000D03*
X108585000Y-78105000D03*
X108585000Y-80645000D03*
X108585000Y-83185000D03*
X108585000Y-85725000D03*
X116205000Y-85725000D03*
X116205000Y-83185000D03*
X116205000Y-80645000D03*
X116205000Y-78105000D03*
X116205000Y-75565000D03*
X116205000Y-73025000D03*
X116205000Y-70485000D03*
X116205000Y-67945000D03*
D10*
X106680000Y-141605000D03*
D11*
X109220000Y-141605000D03*
D12*
X154940000Y-117475000D03*
D13*
X147320000Y-117475000D03*
D12*
X103505000Y-76835000D03*
D13*
X95885000Y-76835000D03*
D14*
X95250000Y-143510000D03*
D12*
X154940000Y-120650000D03*
D13*
X147320000Y-120650000D03*
D12*
X140335000Y-64135000D03*
X135335000Y-64135000D03*
X103505000Y-80010000D03*
D13*
X95885000Y-80010000D03*
D12*
X103505000Y-73660000D03*
D13*
X95885000Y-73660000D03*
D17*
X148590000Y-99060000D03*
D13*
X151130000Y-99060000D03*
X153670000Y-99060000D03*
X153670000Y-91440000D03*
X151130000Y-91440000D03*
X148590000Y-91440000D03*
D17*
X146525000Y-67945000D03*
D13*
X146525000Y-70485000D03*
X146525000Y-73025000D03*
X146525000Y-75565000D03*
X146525000Y-78105000D03*
X146525000Y-80645000D03*
X146525000Y-83185000D03*
X154145000Y-83185000D03*
X154145000Y-80645000D03*
X154145000Y-78105000D03*
X154145000Y-75565000D03*
X154145000Y-73025000D03*
X154145000Y-70485000D03*
X154145000Y-67945000D03*
D12*
X140335000Y-112395000D03*
X135335000Y-112395000D03*
D17*
X116830000Y-59817000D03*
D13*
X119370000Y-59817000D03*
X121910000Y-59817000D03*
X124450000Y-59817000D03*
X126990000Y-59817000D03*
X129530000Y-59817000D03*
X132070000Y-59817000D03*
X134610000Y-59817000D03*
X134610000Y-52197000D03*
X132070000Y-52197000D03*
X129530000Y-52197000D03*
X126990000Y-52197000D03*
X124450000Y-52197000D03*
X121910000Y-52197000D03*
X119370000Y-52197000D03*
X116830000Y-52197000D03*
D12*
X127595000Y-64135000D03*
X122595000Y-64135000D03*
X103505000Y-70485000D03*
D13*
X95885000Y-70485000D03*
D17*
X106045000Y-106680000D03*
D13*
X108585000Y-106680000D03*
X111125000Y-106680000D03*
X113665000Y-106680000D03*
X116205000Y-106680000D03*
X118745000Y-106680000D03*
X121285000Y-106680000D03*
X123825000Y-106680000D03*
X126365000Y-106680000D03*
X128905000Y-106680000D03*
X131445000Y-106680000D03*
X133985000Y-106680000D03*
X136525000Y-106680000D03*
X139065000Y-106680000D03*
X139065000Y-91440000D03*
X136525000Y-91440000D03*
X133985000Y-91440000D03*
X131445000Y-91440000D03*
X128905000Y-91440000D03*
X126365000Y-91440000D03*
X123825000Y-91440000D03*
X121285000Y-91440000D03*
X118745000Y-91440000D03*
X116205000Y-91440000D03*
X113665000Y-91440000D03*
X111125000Y-91440000D03*
X108585000Y-91440000D03*
X106045000Y-91440000D03*
D10*
X121920000Y-141605000D03*
D11*
X124460000Y-141605000D03*
D17*
X108585000Y-116840000D03*
D13*
X108585000Y-119380000D03*
X108585000Y-121920000D03*
X108585000Y-124460000D03*
X108585000Y-127000000D03*
X108585000Y-129540000D03*
X108585000Y-132080000D03*
X108585000Y-134620000D03*
X116205000Y-134620000D03*
X116205000Y-132080000D03*
X116205000Y-129540000D03*
X116205000Y-127000000D03*
X116205000Y-124460000D03*
X116205000Y-121920000D03*
X116205000Y-119380000D03*
X116205000Y-116840000D03*
D12*
X154940000Y-104775000D03*
D13*
X147320000Y-104775000D03*
D17*
X95965000Y-116840000D03*
D13*
X95965000Y-119380000D03*
X95965000Y-121920000D03*
X95965000Y-124460000D03*
X95965000Y-127000000D03*
X95965000Y-129540000D03*
X95965000Y-132080000D03*
X95965000Y-134620000D03*
X103585000Y-134620000D03*
X103585000Y-132080000D03*
X103585000Y-129540000D03*
X103585000Y-127000000D03*
X103585000Y-124460000D03*
X103585000Y-121920000D03*
X103585000Y-119380000D03*
X103585000Y-116840000D03*
D12*
X154940000Y-127000000D03*
D13*
X147320000Y-127000000D03*
D10*
X116840000Y-141605000D03*
D11*
X119380000Y-141605000D03*
D10*
X142240000Y-141605000D03*
D11*
X144780000Y-141605000D03*
D17*
X121285000Y-116840000D03*
D13*
X121285000Y-119380000D03*
X121285000Y-121920000D03*
X121285000Y-124460000D03*
X121285000Y-127000000D03*
X121285000Y-129540000D03*
X121285000Y-132080000D03*
X121285000Y-134620000D03*
X128905000Y-134620000D03*
X128905000Y-132080000D03*
X128905000Y-129540000D03*
X128905000Y-127000000D03*
X128905000Y-124460000D03*
X128905000Y-121920000D03*
X128905000Y-119380000D03*
X128905000Y-116840000D03*
D12*
X103505000Y-67310000D03*
D13*
X95885000Y-67310000D03*
D10*
X132080000Y-141605000D03*
D11*
X134620000Y-141605000D03*
D17*
X133985000Y-116840000D03*
D13*
X133985000Y-119380000D03*
X133985000Y-121920000D03*
X133985000Y-124460000D03*
X133985000Y-127000000D03*
X133985000Y-129540000D03*
X133985000Y-132080000D03*
X141605000Y-132080000D03*
X141605000Y-129540000D03*
X141605000Y-127000000D03*
X141605000Y-124460000D03*
X141605000Y-121920000D03*
X141605000Y-119380000D03*
X141605000Y-116840000D03*
D14*
X95250000Y-52070000D03*
D12*
X114808000Y-112395000D03*
X109808000Y-112395000D03*
D14*
X156845000Y-143510000D03*
D12*
X153035000Y-64135000D03*
X148035000Y-64135000D03*
D10*
X111760000Y-141605000D03*
D11*
X114300000Y-141605000D03*
D15*
X161925000Y-53340000D03*
D16*
X161925000Y-55880000D03*
X161925000Y-58420000D03*
X161925000Y-60960000D03*
X161925000Y-63500000D03*
X161925000Y-66040000D03*
X161925000Y-68580000D03*
X161925000Y-71120000D03*
X161925000Y-73660000D03*
X161925000Y-76200000D03*
X161925000Y-78740000D03*
X161925000Y-81280000D03*
X161925000Y-83820000D03*
X161925000Y-86360000D03*
X161925000Y-88900000D03*
X161925000Y-91440000D03*
X161925000Y-93980000D03*
X161925000Y-96520000D03*
X161925000Y-99060000D03*
X161925000Y-101600000D03*
X161925000Y-104140000D03*
X161925000Y-106680000D03*
X161925000Y-109220000D03*
X161925000Y-111760000D03*
X161925000Y-114300000D03*
X161925000Y-116840000D03*
X161925000Y-119380000D03*
X161925000Y-121920000D03*
X161925000Y-124460000D03*
X161925000Y-127000000D03*
X161925000Y-129540000D03*
X161925000Y-132080000D03*
X161925000Y-134620000D03*
X161925000Y-137160000D03*
X161925000Y-139700000D03*
X161925000Y-142240000D03*
D17*
X121245000Y-67945000D03*
D13*
X121245000Y-70485000D03*
X121245000Y-73025000D03*
X121245000Y-75565000D03*
X121245000Y-78105000D03*
X121245000Y-80645000D03*
X121245000Y-83185000D03*
X128865000Y-83185000D03*
X128865000Y-80645000D03*
X128865000Y-78105000D03*
X128865000Y-75565000D03*
X128865000Y-73025000D03*
X128865000Y-70485000D03*
X128865000Y-67945000D03*
D12*
X154940000Y-130175000D03*
D13*
X147320000Y-130175000D03*
D12*
X100330000Y-91440000D03*
X100330000Y-96440000D03*
D10*
X127000000Y-141605000D03*
D11*
X129540000Y-141605000D03*
D12*
X154940000Y-107950000D03*
D13*
X147320000Y-107950000D03*
D12*
X114935000Y-64135000D03*
X109935000Y-64135000D03*
D17*
X133905000Y-67945000D03*
D13*
X133905000Y-70485000D03*
X133905000Y-73025000D03*
X133905000Y-75565000D03*
X133905000Y-78105000D03*
X133905000Y-80645000D03*
X133905000Y-83185000D03*
X133905000Y-85725000D03*
X141525000Y-85725000D03*
X141525000Y-83185000D03*
X141525000Y-80645000D03*
X141525000Y-78105000D03*
X141525000Y-75565000D03*
X141525000Y-73025000D03*
X141525000Y-70485000D03*
X141525000Y-67945000D03*
D12*
X154940000Y-123825000D03*
D13*
X147320000Y-123825000D03*
M02*
